G04 #@! TF.GenerationSoftware,KiCad,Pcbnew,(5.1.4-0-10_14)*
G04 #@! TF.CreationDate,2019-09-22T15:54:42+02:00*
G04 #@! TF.ProjectId,TinyFPGA-UP,54696e79-4650-4474-912d-55502e6b6963,A*
G04 #@! TF.SameCoordinates,Original*
G04 #@! TF.FileFunction,Copper,L4,Bot*
G04 #@! TF.FilePolarity,Positive*
%FSLAX46Y46*%
G04 Gerber Fmt 4.6, Leading zero omitted, Abs format (unit mm)*
G04 Created by KiCad (PCBNEW (5.1.4-0-10_14)) date 2019-09-22 15:54:42*
%MOMM*%
%LPD*%
G04 APERTURE LIST*
%ADD10O,1.700000X1.700000*%
%ADD11R,1.700000X1.700000*%
%ADD12R,3.150000X1.000000*%
%ADD13C,1.700000*%
%ADD14C,1.500000*%
%ADD15C,0.100000*%
%ADD16C,0.590000*%
%ADD17C,0.508000*%
%ADD18C,3.000000*%
%ADD19C,0.304800*%
%ADD20C,0.152400*%
%ADD21C,0.640000*%
%ADD22C,0.254000*%
G04 APERTURE END LIST*
D10*
X143516000Y-130819100D03*
X143516000Y-128279100D03*
X143516000Y-125739100D03*
X143516000Y-123199100D03*
X143516000Y-120659100D03*
X143516000Y-118119100D03*
X143516000Y-115579100D03*
X143516000Y-113039100D03*
X143516000Y-110499100D03*
X143516000Y-107959100D03*
X143516000Y-105419100D03*
X143516000Y-102879100D03*
X143516000Y-100339100D03*
D11*
X143516000Y-97799100D03*
D12*
X154956000Y-113039100D03*
X149906000Y-113039100D03*
X154956000Y-115579100D03*
X149906000Y-115579100D03*
X154956000Y-118119100D03*
X149906000Y-118119100D03*
X154956000Y-120659100D03*
X149906000Y-120659100D03*
X154956000Y-123199100D03*
X149906000Y-123199100D03*
X154956000Y-125739100D03*
X149906000Y-125739100D03*
X154956000Y-128279100D03*
X149906000Y-128279100D03*
X154956000Y-130819100D03*
X149906000Y-130819100D03*
D10*
X158756000Y-130819100D03*
X158756000Y-128279100D03*
X158756000Y-125739100D03*
X158756000Y-123199100D03*
X158756000Y-120659100D03*
X158756000Y-118119100D03*
X158756000Y-115579100D03*
X158756000Y-113039100D03*
X158756000Y-110499100D03*
X158756000Y-107959100D03*
X158756000Y-105419100D03*
X158756000Y-102879100D03*
X158756000Y-100339100D03*
D13*
X158756000Y-97799100D03*
D12*
X147326000Y-105419100D03*
X152376000Y-105419100D03*
X147326000Y-102879100D03*
X152376000Y-102879100D03*
X147326000Y-100339100D03*
X152376000Y-100339100D03*
D14*
X146310000Y-129549100D03*
X146330000Y-124469910D03*
X155962000Y-110499100D03*
D15*
G36*
X155146958Y-121150710D02*
G01*
X155161276Y-121152834D01*
X155175317Y-121156351D01*
X155188946Y-121161228D01*
X155202031Y-121167417D01*
X155214447Y-121174858D01*
X155226073Y-121183481D01*
X155236798Y-121193202D01*
X155246519Y-121203927D01*
X155255142Y-121215553D01*
X155262583Y-121227969D01*
X155268772Y-121241054D01*
X155273649Y-121254683D01*
X155277166Y-121268724D01*
X155279290Y-121283042D01*
X155280000Y-121297500D01*
X155280000Y-121592500D01*
X155279290Y-121606958D01*
X155277166Y-121621276D01*
X155273649Y-121635317D01*
X155268772Y-121648946D01*
X155262583Y-121662031D01*
X155255142Y-121674447D01*
X155246519Y-121686073D01*
X155236798Y-121696798D01*
X155226073Y-121706519D01*
X155214447Y-121715142D01*
X155202031Y-121722583D01*
X155188946Y-121728772D01*
X155175317Y-121733649D01*
X155161276Y-121737166D01*
X155146958Y-121739290D01*
X155132500Y-121740000D01*
X154787500Y-121740000D01*
X154773042Y-121739290D01*
X154758724Y-121737166D01*
X154744683Y-121733649D01*
X154731054Y-121728772D01*
X154717969Y-121722583D01*
X154705553Y-121715142D01*
X154693927Y-121706519D01*
X154683202Y-121696798D01*
X154673481Y-121686073D01*
X154664858Y-121674447D01*
X154657417Y-121662031D01*
X154651228Y-121648946D01*
X154646351Y-121635317D01*
X154642834Y-121621276D01*
X154640710Y-121606958D01*
X154640000Y-121592500D01*
X154640000Y-121297500D01*
X154640710Y-121283042D01*
X154642834Y-121268724D01*
X154646351Y-121254683D01*
X154651228Y-121241054D01*
X154657417Y-121227969D01*
X154664858Y-121215553D01*
X154673481Y-121203927D01*
X154683202Y-121193202D01*
X154693927Y-121183481D01*
X154705553Y-121174858D01*
X154717969Y-121167417D01*
X154731054Y-121161228D01*
X154744683Y-121156351D01*
X154758724Y-121152834D01*
X154773042Y-121150710D01*
X154787500Y-121150000D01*
X155132500Y-121150000D01*
X155146958Y-121150710D01*
X155146958Y-121150710D01*
G37*
D16*
X154960000Y-121445000D03*
D15*
G36*
X155146958Y-122120710D02*
G01*
X155161276Y-122122834D01*
X155175317Y-122126351D01*
X155188946Y-122131228D01*
X155202031Y-122137417D01*
X155214447Y-122144858D01*
X155226073Y-122153481D01*
X155236798Y-122163202D01*
X155246519Y-122173927D01*
X155255142Y-122185553D01*
X155262583Y-122197969D01*
X155268772Y-122211054D01*
X155273649Y-122224683D01*
X155277166Y-122238724D01*
X155279290Y-122253042D01*
X155280000Y-122267500D01*
X155280000Y-122562500D01*
X155279290Y-122576958D01*
X155277166Y-122591276D01*
X155273649Y-122605317D01*
X155268772Y-122618946D01*
X155262583Y-122632031D01*
X155255142Y-122644447D01*
X155246519Y-122656073D01*
X155236798Y-122666798D01*
X155226073Y-122676519D01*
X155214447Y-122685142D01*
X155202031Y-122692583D01*
X155188946Y-122698772D01*
X155175317Y-122703649D01*
X155161276Y-122707166D01*
X155146958Y-122709290D01*
X155132500Y-122710000D01*
X154787500Y-122710000D01*
X154773042Y-122709290D01*
X154758724Y-122707166D01*
X154744683Y-122703649D01*
X154731054Y-122698772D01*
X154717969Y-122692583D01*
X154705553Y-122685142D01*
X154693927Y-122676519D01*
X154683202Y-122666798D01*
X154673481Y-122656073D01*
X154664858Y-122644447D01*
X154657417Y-122632031D01*
X154651228Y-122618946D01*
X154646351Y-122605317D01*
X154642834Y-122591276D01*
X154640710Y-122576958D01*
X154640000Y-122562500D01*
X154640000Y-122267500D01*
X154640710Y-122253042D01*
X154642834Y-122238724D01*
X154646351Y-122224683D01*
X154651228Y-122211054D01*
X154657417Y-122197969D01*
X154664858Y-122185553D01*
X154673481Y-122173927D01*
X154683202Y-122163202D01*
X154693927Y-122153481D01*
X154705553Y-122144858D01*
X154717969Y-122137417D01*
X154731054Y-122131228D01*
X154744683Y-122126351D01*
X154758724Y-122122834D01*
X154773042Y-122120710D01*
X154787500Y-122120000D01*
X155132500Y-122120000D01*
X155146958Y-122120710D01*
X155146958Y-122120710D01*
G37*
D16*
X154960000Y-122415000D03*
D15*
G36*
X150096958Y-122120710D02*
G01*
X150111276Y-122122834D01*
X150125317Y-122126351D01*
X150138946Y-122131228D01*
X150152031Y-122137417D01*
X150164447Y-122144858D01*
X150176073Y-122153481D01*
X150186798Y-122163202D01*
X150196519Y-122173927D01*
X150205142Y-122185553D01*
X150212583Y-122197969D01*
X150218772Y-122211054D01*
X150223649Y-122224683D01*
X150227166Y-122238724D01*
X150229290Y-122253042D01*
X150230000Y-122267500D01*
X150230000Y-122562500D01*
X150229290Y-122576958D01*
X150227166Y-122591276D01*
X150223649Y-122605317D01*
X150218772Y-122618946D01*
X150212583Y-122632031D01*
X150205142Y-122644447D01*
X150196519Y-122656073D01*
X150186798Y-122666798D01*
X150176073Y-122676519D01*
X150164447Y-122685142D01*
X150152031Y-122692583D01*
X150138946Y-122698772D01*
X150125317Y-122703649D01*
X150111276Y-122707166D01*
X150096958Y-122709290D01*
X150082500Y-122710000D01*
X149737500Y-122710000D01*
X149723042Y-122709290D01*
X149708724Y-122707166D01*
X149694683Y-122703649D01*
X149681054Y-122698772D01*
X149667969Y-122692583D01*
X149655553Y-122685142D01*
X149643927Y-122676519D01*
X149633202Y-122666798D01*
X149623481Y-122656073D01*
X149614858Y-122644447D01*
X149607417Y-122632031D01*
X149601228Y-122618946D01*
X149596351Y-122605317D01*
X149592834Y-122591276D01*
X149590710Y-122576958D01*
X149590000Y-122562500D01*
X149590000Y-122267500D01*
X149590710Y-122253042D01*
X149592834Y-122238724D01*
X149596351Y-122224683D01*
X149601228Y-122211054D01*
X149607417Y-122197969D01*
X149614858Y-122185553D01*
X149623481Y-122173927D01*
X149633202Y-122163202D01*
X149643927Y-122153481D01*
X149655553Y-122144858D01*
X149667969Y-122137417D01*
X149681054Y-122131228D01*
X149694683Y-122126351D01*
X149708724Y-122122834D01*
X149723042Y-122120710D01*
X149737500Y-122120000D01*
X150082500Y-122120000D01*
X150096958Y-122120710D01*
X150096958Y-122120710D01*
G37*
D16*
X149910000Y-122415000D03*
D15*
G36*
X150096958Y-121150710D02*
G01*
X150111276Y-121152834D01*
X150125317Y-121156351D01*
X150138946Y-121161228D01*
X150152031Y-121167417D01*
X150164447Y-121174858D01*
X150176073Y-121183481D01*
X150186798Y-121193202D01*
X150196519Y-121203927D01*
X150205142Y-121215553D01*
X150212583Y-121227969D01*
X150218772Y-121241054D01*
X150223649Y-121254683D01*
X150227166Y-121268724D01*
X150229290Y-121283042D01*
X150230000Y-121297500D01*
X150230000Y-121592500D01*
X150229290Y-121606958D01*
X150227166Y-121621276D01*
X150223649Y-121635317D01*
X150218772Y-121648946D01*
X150212583Y-121662031D01*
X150205142Y-121674447D01*
X150196519Y-121686073D01*
X150186798Y-121696798D01*
X150176073Y-121706519D01*
X150164447Y-121715142D01*
X150152031Y-121722583D01*
X150138946Y-121728772D01*
X150125317Y-121733649D01*
X150111276Y-121737166D01*
X150096958Y-121739290D01*
X150082500Y-121740000D01*
X149737500Y-121740000D01*
X149723042Y-121739290D01*
X149708724Y-121737166D01*
X149694683Y-121733649D01*
X149681054Y-121728772D01*
X149667969Y-121722583D01*
X149655553Y-121715142D01*
X149643927Y-121706519D01*
X149633202Y-121696798D01*
X149623481Y-121686073D01*
X149614858Y-121674447D01*
X149607417Y-121662031D01*
X149601228Y-121648946D01*
X149596351Y-121635317D01*
X149592834Y-121621276D01*
X149590710Y-121606958D01*
X149590000Y-121592500D01*
X149590000Y-121297500D01*
X149590710Y-121283042D01*
X149592834Y-121268724D01*
X149596351Y-121254683D01*
X149601228Y-121241054D01*
X149607417Y-121227969D01*
X149614858Y-121215553D01*
X149623481Y-121203927D01*
X149633202Y-121193202D01*
X149643927Y-121183481D01*
X149655553Y-121174858D01*
X149667969Y-121167417D01*
X149681054Y-121161228D01*
X149694683Y-121156351D01*
X149708724Y-121152834D01*
X149723042Y-121150710D01*
X149737500Y-121150000D01*
X150082500Y-121150000D01*
X150096958Y-121150710D01*
X150096958Y-121150710D01*
G37*
D16*
X149910000Y-121445000D03*
D17*
X149000000Y-114400000D03*
X153200000Y-116600000D03*
X149000000Y-116600000D03*
X153200000Y-129600000D03*
X155922418Y-104922418D03*
X157000000Y-105600000D03*
X153600000Y-106800000D03*
X155700000Y-121600000D03*
X149236836Y-104669338D03*
X152099999Y-107810300D03*
X154909089Y-126741122D03*
D18*
X151000000Y-115579100D03*
D17*
X145880000Y-106980000D03*
X152150000Y-124100000D03*
X155112736Y-111312637D03*
X145000000Y-131250000D03*
X150760216Y-122292594D03*
X157749990Y-117250010D03*
X157968509Y-111728257D03*
X145731257Y-113625166D03*
X145300000Y-117249986D03*
X146091928Y-119651156D03*
X146867390Y-126340000D03*
X156500000Y-97750000D03*
X145750000Y-97750000D03*
X156500000Y-98500000D03*
X145750000Y-98500000D03*
X149750000Y-107250000D03*
X152500000Y-107250000D03*
X156600000Y-121637500D03*
X152946747Y-120902552D03*
X156997400Y-127952500D03*
X147543418Y-128198451D03*
X155500011Y-115117474D03*
X150498056Y-109330025D03*
X146700000Y-113700000D03*
X147488039Y-121117390D03*
X152260487Y-126617490D03*
X152550000Y-125400000D03*
X148400000Y-121600000D03*
X151000000Y-128300000D03*
X156450000Y-111850000D03*
X150500638Y-110015122D03*
X147326000Y-102879100D03*
X146388464Y-118999827D03*
X149199998Y-103950000D03*
X150500408Y-108669618D03*
X152500000Y-110034789D03*
X150237693Y-103955178D03*
X151854423Y-103963063D03*
X151900000Y-106600000D03*
X150382755Y-111688613D03*
X151771309Y-110754876D03*
X146745374Y-119555488D03*
X147907798Y-128930402D03*
X146716721Y-117650764D03*
X147249999Y-120150000D03*
X155945693Y-110482793D03*
X145900000Y-115200000D03*
X155580010Y-116850000D03*
X157850000Y-116489576D03*
X145450000Y-101500004D03*
X144860000Y-118602610D03*
X151312722Y-121794290D03*
X145600000Y-128100000D03*
X152189597Y-121543563D03*
X145600000Y-127100000D03*
X154000000Y-126992390D03*
X152450000Y-111020000D03*
X153339947Y-127024981D03*
X152270000Y-111920000D03*
X152840722Y-127514797D03*
X151782112Y-111415199D03*
X154993449Y-123185640D03*
X149655943Y-124644057D03*
X147117421Y-122275000D03*
X152243541Y-123172690D03*
X146310026Y-129550002D03*
X151887737Y-120955996D03*
X145456288Y-125656298D03*
D19*
X157396001Y-121668525D02*
X156868225Y-122196301D01*
X146980900Y-130819100D02*
X146903999Y-130896001D01*
X149906000Y-130819100D02*
X146980900Y-130819100D01*
X146903999Y-130896001D02*
X146650000Y-131150000D01*
X149750000Y-107250000D02*
X152500000Y-107250000D01*
D20*
X154956000Y-125739100D02*
X153138877Y-125739100D01*
X153138877Y-125739100D02*
X152514486Y-126363491D01*
X152514486Y-126363491D02*
X152260487Y-126617490D01*
X152210900Y-125739100D02*
X149906000Y-125739100D01*
X152550000Y-125400000D02*
X152210900Y-125739100D01*
X146634811Y-122066141D02*
X147100952Y-121600000D01*
X148040790Y-121600000D02*
X148400000Y-121600000D01*
X147100952Y-121600000D02*
X148040790Y-121600000D01*
X147700000Y-123693934D02*
X146634811Y-122628745D01*
X147700000Y-126450000D02*
X147700000Y-123693934D01*
X148250000Y-127000000D02*
X147700000Y-126450000D01*
X151585750Y-127000000D02*
X148250000Y-127000000D01*
X152864850Y-128279100D02*
X151585750Y-127000000D01*
X146634811Y-122628745D02*
X146634811Y-122066141D01*
X154956000Y-128279100D02*
X152864850Y-128279100D01*
X147326000Y-106840484D02*
X150500638Y-110015122D01*
X147326000Y-105419100D02*
X147326000Y-106840484D01*
X151791074Y-110015122D02*
X150859848Y-110015122D01*
X150859848Y-110015122D02*
X150500638Y-110015122D01*
X156450000Y-111850000D02*
X154950000Y-111850000D01*
X154950000Y-111850000D02*
X153617399Y-110517399D01*
X152293351Y-110517399D02*
X151791074Y-110015122D01*
X153617399Y-110517399D02*
X152293351Y-110517399D01*
X147326000Y-102879100D02*
X148401000Y-102879100D01*
X145164811Y-115279061D02*
X147250000Y-117364250D01*
X147250000Y-117364250D02*
X147250000Y-118138291D01*
X146642463Y-118745828D02*
X146388464Y-118999827D01*
X147250000Y-118138291D02*
X146642463Y-118745828D01*
X146251000Y-102879100D02*
X145164811Y-103965289D01*
X147326000Y-102879100D02*
X146251000Y-102879100D01*
X145164811Y-103965289D02*
X145164811Y-115279061D01*
X152376000Y-104124000D02*
X152050000Y-104450000D01*
X149699998Y-104450000D02*
X149453997Y-104203999D01*
X152376000Y-102879100D02*
X152376000Y-104124000D01*
X149453997Y-104203999D02*
X149199998Y-103950000D01*
X152050000Y-104450000D02*
X149699998Y-104450000D01*
X152246001Y-109780790D02*
X152500000Y-110034789D01*
X150500408Y-108669618D02*
X151134829Y-108669618D01*
X151134829Y-108669618D02*
X152246001Y-109780790D01*
X147326000Y-100339100D02*
X148401000Y-100339100D01*
X148401000Y-100339100D02*
X149650000Y-101588100D01*
X149650000Y-103367485D02*
X149983694Y-103701179D01*
X149650000Y-101588100D02*
X149650000Y-103367485D01*
X149983694Y-103701179D02*
X150237693Y-103955178D01*
X152376000Y-100339100D02*
X151301000Y-100339100D01*
X151301000Y-100339100D02*
X150100000Y-101540100D01*
X150100000Y-103127657D02*
X150935406Y-103963063D01*
X150935406Y-103963063D02*
X151495213Y-103963063D01*
X150100000Y-101540100D02*
X150100000Y-103127657D01*
X151495213Y-103963063D02*
X151854423Y-103963063D01*
X152376000Y-106124000D02*
X151900000Y-106600000D01*
X152376000Y-105419100D02*
X152376000Y-106124000D01*
X151316492Y-110754876D02*
X151412099Y-110754876D01*
X151412099Y-110754876D02*
X151771309Y-110754876D01*
X150382755Y-111688613D02*
X151316492Y-110754876D01*
X149906000Y-121441000D02*
X149910000Y-121445000D01*
D21*
X149910000Y-120638100D02*
X149910000Y-121420000D01*
D20*
X146995539Y-120634789D02*
X146745374Y-120384624D01*
X146745374Y-120384624D02*
X146745374Y-119914698D01*
X148154289Y-120634789D02*
X146995539Y-120634789D01*
X149906000Y-120659100D02*
X148178600Y-120659100D01*
X146745374Y-119914698D02*
X146745374Y-119555488D01*
X148178600Y-120659100D02*
X148154289Y-120634789D01*
X146330000Y-124469910D02*
X146330000Y-127711814D01*
X147548588Y-128930402D02*
X147907798Y-128930402D01*
X146330000Y-127711814D02*
X147548588Y-128930402D01*
X145567397Y-123707307D02*
X145567397Y-118800088D01*
X145567397Y-118800088D02*
X146462722Y-117904763D01*
X146330000Y-124469910D02*
X145567397Y-123707307D01*
X146462722Y-117904763D02*
X146716721Y-117650764D01*
X154960000Y-120663100D02*
X154956000Y-120659100D01*
D21*
X154960000Y-121420000D02*
X154960000Y-120638100D01*
D20*
X147503998Y-119896001D02*
X147249999Y-120150000D01*
X153881000Y-120659100D02*
X152892901Y-119671001D01*
X147728998Y-119671001D02*
X147503998Y-119896001D01*
X154956000Y-120659100D02*
X153881000Y-120659100D01*
X152892901Y-119671001D02*
X147728998Y-119671001D01*
D19*
X157596001Y-116235577D02*
X157850000Y-116489576D01*
X157300000Y-115939576D02*
X157596001Y-116235577D01*
X157300000Y-111837100D02*
X157300000Y-115939576D01*
X155945693Y-110482793D02*
X157300000Y-111837100D01*
X152500000Y-118500000D02*
X152500000Y-117951458D01*
X147750000Y-118586742D02*
X148413258Y-119250000D01*
X155230010Y-117200000D02*
X155326011Y-117103999D01*
X152500000Y-117951458D02*
X153251458Y-117200000D01*
X148413258Y-119250000D02*
X151750000Y-119250000D01*
X155326011Y-117103999D02*
X155580010Y-116850000D01*
X147750000Y-117050000D02*
X147750000Y-118586742D01*
X151750000Y-119250000D02*
X152500000Y-118500000D01*
X153251458Y-117200000D02*
X155230010Y-117200000D01*
X145900000Y-115200000D02*
X147750000Y-117050000D01*
D20*
X144800000Y-118542610D02*
X144860000Y-118602610D01*
X144800000Y-102150004D02*
X144800000Y-118542610D01*
X145450000Y-101500004D02*
X144800000Y-102150004D01*
X153589300Y-111020000D02*
X154956000Y-112386700D01*
X152450000Y-111020000D02*
X153589300Y-111020000D01*
X154956000Y-112386700D02*
X154956000Y-113039100D01*
X154956000Y-118119100D02*
X153881000Y-118119100D01*
X156918989Y-117231111D02*
X156918989Y-114718989D01*
X153450000Y-114300000D02*
X152270000Y-113120000D01*
X154956000Y-118119100D02*
X156031000Y-118119100D01*
X152270000Y-112279210D02*
X152270000Y-111920000D01*
X156031000Y-118119100D02*
X156918989Y-117231111D01*
X156918989Y-114718989D02*
X156500000Y-114300000D01*
X156500000Y-114300000D02*
X153450000Y-114300000D01*
X152270000Y-113120000D02*
X152270000Y-112279210D01*
X149906000Y-113039100D02*
X150981000Y-113039100D01*
X151782112Y-111774409D02*
X151782112Y-111415199D01*
X151782112Y-112237988D02*
X151782112Y-111774409D01*
X150981000Y-113039100D02*
X151782112Y-112237988D01*
X155599100Y-123199100D02*
X155620000Y-123220000D01*
X154960000Y-123195100D02*
X154956000Y-123199100D01*
X154960000Y-122415000D02*
X154960000Y-123195100D01*
X149661886Y-124650000D02*
X149655943Y-124644057D01*
X153881000Y-123199100D02*
X152430100Y-124650000D01*
X154956000Y-123199100D02*
X153881000Y-123199100D01*
X152430100Y-124650000D02*
X149661886Y-124650000D01*
X147371420Y-122528999D02*
X147117421Y-122275000D01*
X149906000Y-123199100D02*
X148041521Y-123199100D01*
X148041521Y-123199100D02*
X147371420Y-122528999D01*
X149906000Y-123199100D02*
X152217131Y-123199100D01*
X152217131Y-123199100D02*
X152243541Y-123172690D01*
X149906000Y-122419000D02*
X149910000Y-122415000D01*
X149906000Y-123199100D02*
X149906000Y-122419000D01*
D22*
G36*
X152337257Y-128757296D02*
G01*
X152359523Y-128784427D01*
X152386654Y-128806693D01*
X152386659Y-128806698D01*
X152467817Y-128873302D01*
X152591368Y-128939342D01*
X152725430Y-128980009D01*
X152780002Y-128985384D01*
X152791498Y-129023280D01*
X152850463Y-129133594D01*
X152929815Y-129230285D01*
X153026506Y-129309637D01*
X153136820Y-129368602D01*
X153256518Y-129404912D01*
X153381000Y-129417172D01*
X156531000Y-129417172D01*
X156655482Y-129404912D01*
X156775180Y-129368602D01*
X156885494Y-129309637D01*
X156982185Y-129230285D01*
X157061537Y-129133594D01*
X157120502Y-129023280D01*
X157156812Y-128903582D01*
X157164484Y-128825681D01*
X157256712Y-128807336D01*
X157352396Y-128767702D01*
X157377401Y-128850134D01*
X157515294Y-129108114D01*
X157700866Y-129334234D01*
X157926986Y-129519806D01*
X157981791Y-129549100D01*
X157926986Y-129578394D01*
X157700866Y-129763966D01*
X157515294Y-129990086D01*
X157377401Y-130248066D01*
X157292487Y-130527989D01*
X157263815Y-130819100D01*
X157292487Y-131110211D01*
X157374054Y-131379100D01*
X157163163Y-131379100D01*
X157169072Y-131319100D01*
X157166000Y-131104850D01*
X157007250Y-130946100D01*
X155083000Y-130946100D01*
X155083000Y-130966100D01*
X154829000Y-130966100D01*
X154829000Y-130946100D01*
X152904750Y-130946100D01*
X152746000Y-131104850D01*
X152742928Y-131319100D01*
X152748837Y-131379100D01*
X152113163Y-131379100D01*
X152119072Y-131319100D01*
X152116000Y-131104850D01*
X151957250Y-130946100D01*
X150033000Y-130946100D01*
X150033000Y-130966100D01*
X149779000Y-130966100D01*
X149779000Y-130946100D01*
X147854750Y-130946100D01*
X147696000Y-131104850D01*
X147692928Y-131319100D01*
X147698837Y-131379100D01*
X144897946Y-131379100D01*
X144979513Y-131110211D01*
X145008185Y-130819100D01*
X144979513Y-130527989D01*
X144894599Y-130248066D01*
X144756706Y-129990086D01*
X144571134Y-129763966D01*
X144345014Y-129578394D01*
X144290209Y-129549100D01*
X144345014Y-129519806D01*
X144571134Y-129334234D01*
X144756706Y-129108114D01*
X144894599Y-128850134D01*
X144940752Y-128697987D01*
X145033296Y-128790531D01*
X145114763Y-128844965D01*
X145082629Y-128893057D01*
X144978225Y-129145111D01*
X144925000Y-129412689D01*
X144925000Y-129685511D01*
X144978225Y-129953089D01*
X145082629Y-130205143D01*
X145234201Y-130431986D01*
X145427114Y-130624899D01*
X145653957Y-130776471D01*
X145906011Y-130880875D01*
X146173589Y-130934100D01*
X146446411Y-130934100D01*
X146713989Y-130880875D01*
X146966043Y-130776471D01*
X147192886Y-130624899D01*
X147385799Y-130431986D01*
X147537371Y-130205143D01*
X147641775Y-129953089D01*
X147674148Y-129790342D01*
X147820239Y-129819402D01*
X147938928Y-129819402D01*
X147879815Y-129867915D01*
X147800463Y-129964606D01*
X147741498Y-130074920D01*
X147705188Y-130194618D01*
X147692928Y-130319100D01*
X147696000Y-130533350D01*
X147854750Y-130692100D01*
X149779000Y-130692100D01*
X149779000Y-129842850D01*
X150033000Y-129842850D01*
X150033000Y-130692100D01*
X151957250Y-130692100D01*
X152116000Y-130533350D01*
X152119072Y-130319100D01*
X152742928Y-130319100D01*
X152746000Y-130533350D01*
X152904750Y-130692100D01*
X154829000Y-130692100D01*
X154829000Y-129842850D01*
X155083000Y-129842850D01*
X155083000Y-130692100D01*
X157007250Y-130692100D01*
X157166000Y-130533350D01*
X157169072Y-130319100D01*
X157156812Y-130194618D01*
X157120502Y-130074920D01*
X157061537Y-129964606D01*
X156982185Y-129867915D01*
X156885494Y-129788563D01*
X156775180Y-129729598D01*
X156655482Y-129693288D01*
X156531000Y-129681028D01*
X155241750Y-129684100D01*
X155083000Y-129842850D01*
X154829000Y-129842850D01*
X154670250Y-129684100D01*
X153381000Y-129681028D01*
X153256518Y-129693288D01*
X153136820Y-129729598D01*
X153026506Y-129788563D01*
X152929815Y-129867915D01*
X152850463Y-129964606D01*
X152791498Y-130074920D01*
X152755188Y-130194618D01*
X152742928Y-130319100D01*
X152119072Y-130319100D01*
X152106812Y-130194618D01*
X152070502Y-130074920D01*
X152011537Y-129964606D01*
X151932185Y-129867915D01*
X151835494Y-129788563D01*
X151725180Y-129729598D01*
X151605482Y-129693288D01*
X151481000Y-129681028D01*
X150191750Y-129684100D01*
X150033000Y-129842850D01*
X149779000Y-129842850D01*
X149620250Y-129684100D01*
X148384373Y-129681155D01*
X148474502Y-129620933D01*
X148598329Y-129497106D01*
X148651739Y-129417172D01*
X151481000Y-129417172D01*
X151605482Y-129404912D01*
X151725180Y-129368602D01*
X151835494Y-129309637D01*
X151932185Y-129230285D01*
X152011537Y-129133594D01*
X152070502Y-129023280D01*
X152106812Y-128903582D01*
X152119072Y-128779100D01*
X152119072Y-128539111D01*
X152337257Y-128757296D01*
X152337257Y-128757296D01*
G37*
X152337257Y-128757296D02*
X152359523Y-128784427D01*
X152386654Y-128806693D01*
X152386659Y-128806698D01*
X152467817Y-128873302D01*
X152591368Y-128939342D01*
X152725430Y-128980009D01*
X152780002Y-128985384D01*
X152791498Y-129023280D01*
X152850463Y-129133594D01*
X152929815Y-129230285D01*
X153026506Y-129309637D01*
X153136820Y-129368602D01*
X153256518Y-129404912D01*
X153381000Y-129417172D01*
X156531000Y-129417172D01*
X156655482Y-129404912D01*
X156775180Y-129368602D01*
X156885494Y-129309637D01*
X156982185Y-129230285D01*
X157061537Y-129133594D01*
X157120502Y-129023280D01*
X157156812Y-128903582D01*
X157164484Y-128825681D01*
X157256712Y-128807336D01*
X157352396Y-128767702D01*
X157377401Y-128850134D01*
X157515294Y-129108114D01*
X157700866Y-129334234D01*
X157926986Y-129519806D01*
X157981791Y-129549100D01*
X157926986Y-129578394D01*
X157700866Y-129763966D01*
X157515294Y-129990086D01*
X157377401Y-130248066D01*
X157292487Y-130527989D01*
X157263815Y-130819100D01*
X157292487Y-131110211D01*
X157374054Y-131379100D01*
X157163163Y-131379100D01*
X157169072Y-131319100D01*
X157166000Y-131104850D01*
X157007250Y-130946100D01*
X155083000Y-130946100D01*
X155083000Y-130966100D01*
X154829000Y-130966100D01*
X154829000Y-130946100D01*
X152904750Y-130946100D01*
X152746000Y-131104850D01*
X152742928Y-131319100D01*
X152748837Y-131379100D01*
X152113163Y-131379100D01*
X152119072Y-131319100D01*
X152116000Y-131104850D01*
X151957250Y-130946100D01*
X150033000Y-130946100D01*
X150033000Y-130966100D01*
X149779000Y-130966100D01*
X149779000Y-130946100D01*
X147854750Y-130946100D01*
X147696000Y-131104850D01*
X147692928Y-131319100D01*
X147698837Y-131379100D01*
X144897946Y-131379100D01*
X144979513Y-131110211D01*
X145008185Y-130819100D01*
X144979513Y-130527989D01*
X144894599Y-130248066D01*
X144756706Y-129990086D01*
X144571134Y-129763966D01*
X144345014Y-129578394D01*
X144290209Y-129549100D01*
X144345014Y-129519806D01*
X144571134Y-129334234D01*
X144756706Y-129108114D01*
X144894599Y-128850134D01*
X144940752Y-128697987D01*
X145033296Y-128790531D01*
X145114763Y-128844965D01*
X145082629Y-128893057D01*
X144978225Y-129145111D01*
X144925000Y-129412689D01*
X144925000Y-129685511D01*
X144978225Y-129953089D01*
X145082629Y-130205143D01*
X145234201Y-130431986D01*
X145427114Y-130624899D01*
X145653957Y-130776471D01*
X145906011Y-130880875D01*
X146173589Y-130934100D01*
X146446411Y-130934100D01*
X146713989Y-130880875D01*
X146966043Y-130776471D01*
X147192886Y-130624899D01*
X147385799Y-130431986D01*
X147537371Y-130205143D01*
X147641775Y-129953089D01*
X147674148Y-129790342D01*
X147820239Y-129819402D01*
X147938928Y-129819402D01*
X147879815Y-129867915D01*
X147800463Y-129964606D01*
X147741498Y-130074920D01*
X147705188Y-130194618D01*
X147692928Y-130319100D01*
X147696000Y-130533350D01*
X147854750Y-130692100D01*
X149779000Y-130692100D01*
X149779000Y-129842850D01*
X150033000Y-129842850D01*
X150033000Y-130692100D01*
X151957250Y-130692100D01*
X152116000Y-130533350D01*
X152119072Y-130319100D01*
X152742928Y-130319100D01*
X152746000Y-130533350D01*
X152904750Y-130692100D01*
X154829000Y-130692100D01*
X154829000Y-129842850D01*
X155083000Y-129842850D01*
X155083000Y-130692100D01*
X157007250Y-130692100D01*
X157166000Y-130533350D01*
X157169072Y-130319100D01*
X157156812Y-130194618D01*
X157120502Y-130074920D01*
X157061537Y-129964606D01*
X156982185Y-129867915D01*
X156885494Y-129788563D01*
X156775180Y-129729598D01*
X156655482Y-129693288D01*
X156531000Y-129681028D01*
X155241750Y-129684100D01*
X155083000Y-129842850D01*
X154829000Y-129842850D01*
X154670250Y-129684100D01*
X153381000Y-129681028D01*
X153256518Y-129693288D01*
X153136820Y-129729598D01*
X153026506Y-129788563D01*
X152929815Y-129867915D01*
X152850463Y-129964606D01*
X152791498Y-130074920D01*
X152755188Y-130194618D01*
X152742928Y-130319100D01*
X152119072Y-130319100D01*
X152106812Y-130194618D01*
X152070502Y-130074920D01*
X152011537Y-129964606D01*
X151932185Y-129867915D01*
X151835494Y-129788563D01*
X151725180Y-129729598D01*
X151605482Y-129693288D01*
X151481000Y-129681028D01*
X150191750Y-129684100D01*
X150033000Y-129842850D01*
X149779000Y-129842850D01*
X149620250Y-129684100D01*
X148384373Y-129681155D01*
X148474502Y-129620933D01*
X148598329Y-129497106D01*
X148651739Y-129417172D01*
X151481000Y-129417172D01*
X151605482Y-129404912D01*
X151725180Y-129368602D01*
X151835494Y-129309637D01*
X151932185Y-129230285D01*
X152011537Y-129133594D01*
X152070502Y-129023280D01*
X152106812Y-128903582D01*
X152119072Y-128779100D01*
X152119072Y-128539111D01*
X152337257Y-128757296D01*
G36*
X157515294Y-121488114D02*
G01*
X157700866Y-121714234D01*
X157926986Y-121899806D01*
X157981791Y-121929100D01*
X157926986Y-121958394D01*
X157700866Y-122143966D01*
X157515294Y-122370086D01*
X157377401Y-122628066D01*
X157292487Y-122907989D01*
X157263815Y-123199100D01*
X157292487Y-123490211D01*
X157377401Y-123770134D01*
X157515294Y-124028114D01*
X157700866Y-124254234D01*
X157926986Y-124439806D01*
X157981791Y-124469100D01*
X157926986Y-124498394D01*
X157700866Y-124683966D01*
X157515294Y-124910086D01*
X157377401Y-125168066D01*
X157292487Y-125447989D01*
X157263815Y-125739100D01*
X157292487Y-126030211D01*
X157377401Y-126310134D01*
X157515294Y-126568114D01*
X157700866Y-126794234D01*
X157926986Y-126979806D01*
X157981791Y-127009100D01*
X157926986Y-127038394D01*
X157700866Y-127223966D01*
X157622090Y-127319955D01*
X157564104Y-127261969D01*
X157418499Y-127164679D01*
X157256712Y-127097664D01*
X157084959Y-127063500D01*
X156909841Y-127063500D01*
X156738088Y-127097664D01*
X156613729Y-127149176D01*
X156531000Y-127141028D01*
X154876851Y-127141028D01*
X154889000Y-127079949D01*
X154889000Y-126904831D01*
X154883498Y-126877172D01*
X156531000Y-126877172D01*
X156655482Y-126864912D01*
X156775180Y-126828602D01*
X156885494Y-126769637D01*
X156982185Y-126690285D01*
X157061537Y-126593594D01*
X157120502Y-126483280D01*
X157156812Y-126363582D01*
X157169072Y-126239100D01*
X157169072Y-125239100D01*
X157156812Y-125114618D01*
X157120502Y-124994920D01*
X157061537Y-124884606D01*
X156982185Y-124787915D01*
X156885494Y-124708563D01*
X156775180Y-124649598D01*
X156655482Y-124613288D01*
X156531000Y-124601028D01*
X153484860Y-124601028D01*
X153748716Y-124337172D01*
X156531000Y-124337172D01*
X156655482Y-124324912D01*
X156775180Y-124288602D01*
X156885494Y-124229637D01*
X156982185Y-124150285D01*
X157061537Y-124053594D01*
X157120502Y-123943280D01*
X157156812Y-123823582D01*
X157169072Y-123699100D01*
X157169072Y-122699100D01*
X157156812Y-122574618D01*
X157120502Y-122454920D01*
X157082685Y-122384171D01*
X157166704Y-122328031D01*
X157290531Y-122204204D01*
X157387821Y-122058599D01*
X157454836Y-121896812D01*
X157489000Y-121725059D01*
X157489000Y-121549941D01*
X157454836Y-121378188D01*
X157448977Y-121364044D01*
X157515294Y-121488114D01*
X157515294Y-121488114D01*
G37*
X157515294Y-121488114D02*
X157700866Y-121714234D01*
X157926986Y-121899806D01*
X157981791Y-121929100D01*
X157926986Y-121958394D01*
X157700866Y-122143966D01*
X157515294Y-122370086D01*
X157377401Y-122628066D01*
X157292487Y-122907989D01*
X157263815Y-123199100D01*
X157292487Y-123490211D01*
X157377401Y-123770134D01*
X157515294Y-124028114D01*
X157700866Y-124254234D01*
X157926986Y-124439806D01*
X157981791Y-124469100D01*
X157926986Y-124498394D01*
X157700866Y-124683966D01*
X157515294Y-124910086D01*
X157377401Y-125168066D01*
X157292487Y-125447989D01*
X157263815Y-125739100D01*
X157292487Y-126030211D01*
X157377401Y-126310134D01*
X157515294Y-126568114D01*
X157700866Y-126794234D01*
X157926986Y-126979806D01*
X157981791Y-127009100D01*
X157926986Y-127038394D01*
X157700866Y-127223966D01*
X157622090Y-127319955D01*
X157564104Y-127261969D01*
X157418499Y-127164679D01*
X157256712Y-127097664D01*
X157084959Y-127063500D01*
X156909841Y-127063500D01*
X156738088Y-127097664D01*
X156613729Y-127149176D01*
X156531000Y-127141028D01*
X154876851Y-127141028D01*
X154889000Y-127079949D01*
X154889000Y-126904831D01*
X154883498Y-126877172D01*
X156531000Y-126877172D01*
X156655482Y-126864912D01*
X156775180Y-126828602D01*
X156885494Y-126769637D01*
X156982185Y-126690285D01*
X157061537Y-126593594D01*
X157120502Y-126483280D01*
X157156812Y-126363582D01*
X157169072Y-126239100D01*
X157169072Y-125239100D01*
X157156812Y-125114618D01*
X157120502Y-124994920D01*
X157061537Y-124884606D01*
X156982185Y-124787915D01*
X156885494Y-124708563D01*
X156775180Y-124649598D01*
X156655482Y-124613288D01*
X156531000Y-124601028D01*
X153484860Y-124601028D01*
X153748716Y-124337172D01*
X156531000Y-124337172D01*
X156655482Y-124324912D01*
X156775180Y-124288602D01*
X156885494Y-124229637D01*
X156982185Y-124150285D01*
X157061537Y-124053594D01*
X157120502Y-123943280D01*
X157156812Y-123823582D01*
X157169072Y-123699100D01*
X157169072Y-122699100D01*
X157156812Y-122574618D01*
X157120502Y-122454920D01*
X157082685Y-122384171D01*
X157166704Y-122328031D01*
X157290531Y-122204204D01*
X157387821Y-122058599D01*
X157454836Y-121896812D01*
X157489000Y-121725059D01*
X157489000Y-121549941D01*
X157454836Y-121378188D01*
X157448977Y-121364044D01*
X157515294Y-121488114D01*
G36*
X146001289Y-117121327D02*
G01*
X145928900Y-117229665D01*
X145861885Y-117391452D01*
X145834979Y-117526718D01*
X145511200Y-117850498D01*
X145511200Y-116631238D01*
X146001289Y-117121327D01*
X146001289Y-117121327D01*
G37*
X146001289Y-117121327D02*
X145928900Y-117229665D01*
X145861885Y-117391452D01*
X145834979Y-117526718D01*
X145511200Y-117850498D01*
X145511200Y-116631238D01*
X146001289Y-117121327D01*
G36*
X146614801Y-106805549D02*
G01*
X146611360Y-106840484D01*
X146614801Y-106875420D01*
X146625092Y-106979904D01*
X146660201Y-107095643D01*
X146665759Y-107113965D01*
X146731798Y-107237516D01*
X146798403Y-107318674D01*
X146820674Y-107345811D01*
X146847810Y-107368081D01*
X149618896Y-110139168D01*
X149645802Y-110274434D01*
X149712817Y-110436221D01*
X149810107Y-110581826D01*
X149933934Y-110705653D01*
X150079539Y-110802943D01*
X150144072Y-110829674D01*
X150123443Y-110833777D01*
X149961656Y-110900792D01*
X149816051Y-110998082D01*
X149692224Y-111121909D01*
X149594934Y-111267514D01*
X149527919Y-111429301D01*
X149493755Y-111601054D01*
X149493755Y-111776172D01*
X149518591Y-111901028D01*
X148331000Y-111901028D01*
X148206518Y-111913288D01*
X148086820Y-111949598D01*
X147976506Y-112008563D01*
X147879815Y-112087915D01*
X147800463Y-112184606D01*
X147741498Y-112294920D01*
X147705188Y-112414618D01*
X147692928Y-112539100D01*
X147692928Y-113539100D01*
X147705188Y-113663582D01*
X147741498Y-113783280D01*
X147800463Y-113893594D01*
X147879815Y-113990285D01*
X147976506Y-114069637D01*
X148086820Y-114128602D01*
X148206518Y-114164912D01*
X148331000Y-114177172D01*
X151481000Y-114177172D01*
X151605482Y-114164912D01*
X151725180Y-114128602D01*
X151835494Y-114069637D01*
X151932185Y-113990285D01*
X152011537Y-113893594D01*
X152020688Y-113876475D01*
X152858737Y-114714525D01*
X152850463Y-114724606D01*
X152791498Y-114834920D01*
X152755188Y-114954618D01*
X152742928Y-115079100D01*
X152742928Y-116079100D01*
X152755188Y-116203582D01*
X152791498Y-116323280D01*
X152850463Y-116433594D01*
X152900616Y-116494706D01*
X152811886Y-116542134D01*
X152805691Y-116547218D01*
X152722027Y-116615879D01*
X152722025Y-116615881D01*
X152691989Y-116640531D01*
X152667339Y-116670567D01*
X152033052Y-117304856D01*
X152011537Y-117264606D01*
X151932185Y-117167915D01*
X151835494Y-117088563D01*
X151725180Y-117029598D01*
X151605482Y-116993288D01*
X151481000Y-116981028D01*
X148534416Y-116981028D01*
X148526006Y-116895643D01*
X148480982Y-116747217D01*
X148464752Y-116716853D01*
X149620250Y-116714100D01*
X149779000Y-116555350D01*
X149779000Y-115706100D01*
X150033000Y-115706100D01*
X150033000Y-116555350D01*
X150191750Y-116714100D01*
X151481000Y-116717172D01*
X151605482Y-116704912D01*
X151725180Y-116668602D01*
X151835494Y-116609637D01*
X151932185Y-116530285D01*
X152011537Y-116433594D01*
X152070502Y-116323280D01*
X152106812Y-116203582D01*
X152119072Y-116079100D01*
X152116000Y-115864850D01*
X151957250Y-115706100D01*
X150033000Y-115706100D01*
X149779000Y-115706100D01*
X147854750Y-115706100D01*
X147696000Y-115864850D01*
X147695751Y-115882200D01*
X146892651Y-115079100D01*
X147692928Y-115079100D01*
X147696000Y-115293350D01*
X147854750Y-115452100D01*
X149779000Y-115452100D01*
X149779000Y-114602850D01*
X150033000Y-114602850D01*
X150033000Y-115452100D01*
X151957250Y-115452100D01*
X152116000Y-115293350D01*
X152119072Y-115079100D01*
X152106812Y-114954618D01*
X152070502Y-114834920D01*
X152011537Y-114724606D01*
X151932185Y-114627915D01*
X151835494Y-114548563D01*
X151725180Y-114489598D01*
X151605482Y-114453288D01*
X151481000Y-114441028D01*
X150191750Y-114444100D01*
X150033000Y-114602850D01*
X149779000Y-114602850D01*
X149620250Y-114444100D01*
X148331000Y-114441028D01*
X148206518Y-114453288D01*
X148086820Y-114489598D01*
X147976506Y-114548563D01*
X147879815Y-114627915D01*
X147800463Y-114724606D01*
X147741498Y-114834920D01*
X147705188Y-114954618D01*
X147692928Y-115079100D01*
X146892651Y-115079100D01*
X146754984Y-114941434D01*
X146754836Y-114940688D01*
X146687821Y-114778901D01*
X146590531Y-114633296D01*
X146529796Y-114572561D01*
X146612441Y-114589000D01*
X146787559Y-114589000D01*
X146959312Y-114554836D01*
X147121099Y-114487821D01*
X147266704Y-114390531D01*
X147390531Y-114266704D01*
X147487821Y-114121099D01*
X147554836Y-113959312D01*
X147589000Y-113787559D01*
X147589000Y-113612441D01*
X147554836Y-113440688D01*
X147487821Y-113278901D01*
X147390531Y-113133296D01*
X147266704Y-113009469D01*
X147121099Y-112912179D01*
X146959312Y-112845164D01*
X146787559Y-112811000D01*
X146612441Y-112811000D01*
X146440688Y-112845164D01*
X146278901Y-112912179D01*
X146133296Y-113009469D01*
X146009469Y-113133296D01*
X145912179Y-113278901D01*
X145876011Y-113366217D01*
X145876011Y-106557172D01*
X146614801Y-106557172D01*
X146614801Y-106805549D01*
X146614801Y-106805549D01*
G37*
X146614801Y-106805549D02*
X146611360Y-106840484D01*
X146614801Y-106875420D01*
X146625092Y-106979904D01*
X146660201Y-107095643D01*
X146665759Y-107113965D01*
X146731798Y-107237516D01*
X146798403Y-107318674D01*
X146820674Y-107345811D01*
X146847810Y-107368081D01*
X149618896Y-110139168D01*
X149645802Y-110274434D01*
X149712817Y-110436221D01*
X149810107Y-110581826D01*
X149933934Y-110705653D01*
X150079539Y-110802943D01*
X150144072Y-110829674D01*
X150123443Y-110833777D01*
X149961656Y-110900792D01*
X149816051Y-110998082D01*
X149692224Y-111121909D01*
X149594934Y-111267514D01*
X149527919Y-111429301D01*
X149493755Y-111601054D01*
X149493755Y-111776172D01*
X149518591Y-111901028D01*
X148331000Y-111901028D01*
X148206518Y-111913288D01*
X148086820Y-111949598D01*
X147976506Y-112008563D01*
X147879815Y-112087915D01*
X147800463Y-112184606D01*
X147741498Y-112294920D01*
X147705188Y-112414618D01*
X147692928Y-112539100D01*
X147692928Y-113539100D01*
X147705188Y-113663582D01*
X147741498Y-113783280D01*
X147800463Y-113893594D01*
X147879815Y-113990285D01*
X147976506Y-114069637D01*
X148086820Y-114128602D01*
X148206518Y-114164912D01*
X148331000Y-114177172D01*
X151481000Y-114177172D01*
X151605482Y-114164912D01*
X151725180Y-114128602D01*
X151835494Y-114069637D01*
X151932185Y-113990285D01*
X152011537Y-113893594D01*
X152020688Y-113876475D01*
X152858737Y-114714525D01*
X152850463Y-114724606D01*
X152791498Y-114834920D01*
X152755188Y-114954618D01*
X152742928Y-115079100D01*
X152742928Y-116079100D01*
X152755188Y-116203582D01*
X152791498Y-116323280D01*
X152850463Y-116433594D01*
X152900616Y-116494706D01*
X152811886Y-116542134D01*
X152805691Y-116547218D01*
X152722027Y-116615879D01*
X152722025Y-116615881D01*
X152691989Y-116640531D01*
X152667339Y-116670567D01*
X152033052Y-117304856D01*
X152011537Y-117264606D01*
X151932185Y-117167915D01*
X151835494Y-117088563D01*
X151725180Y-117029598D01*
X151605482Y-116993288D01*
X151481000Y-116981028D01*
X148534416Y-116981028D01*
X148526006Y-116895643D01*
X148480982Y-116747217D01*
X148464752Y-116716853D01*
X149620250Y-116714100D01*
X149779000Y-116555350D01*
X149779000Y-115706100D01*
X150033000Y-115706100D01*
X150033000Y-116555350D01*
X150191750Y-116714100D01*
X151481000Y-116717172D01*
X151605482Y-116704912D01*
X151725180Y-116668602D01*
X151835494Y-116609637D01*
X151932185Y-116530285D01*
X152011537Y-116433594D01*
X152070502Y-116323280D01*
X152106812Y-116203582D01*
X152119072Y-116079100D01*
X152116000Y-115864850D01*
X151957250Y-115706100D01*
X150033000Y-115706100D01*
X149779000Y-115706100D01*
X147854750Y-115706100D01*
X147696000Y-115864850D01*
X147695751Y-115882200D01*
X146892651Y-115079100D01*
X147692928Y-115079100D01*
X147696000Y-115293350D01*
X147854750Y-115452100D01*
X149779000Y-115452100D01*
X149779000Y-114602850D01*
X150033000Y-114602850D01*
X150033000Y-115452100D01*
X151957250Y-115452100D01*
X152116000Y-115293350D01*
X152119072Y-115079100D01*
X152106812Y-114954618D01*
X152070502Y-114834920D01*
X152011537Y-114724606D01*
X151932185Y-114627915D01*
X151835494Y-114548563D01*
X151725180Y-114489598D01*
X151605482Y-114453288D01*
X151481000Y-114441028D01*
X150191750Y-114444100D01*
X150033000Y-114602850D01*
X149779000Y-114602850D01*
X149620250Y-114444100D01*
X148331000Y-114441028D01*
X148206518Y-114453288D01*
X148086820Y-114489598D01*
X147976506Y-114548563D01*
X147879815Y-114627915D01*
X147800463Y-114724606D01*
X147741498Y-114834920D01*
X147705188Y-114954618D01*
X147692928Y-115079100D01*
X146892651Y-115079100D01*
X146754984Y-114941434D01*
X146754836Y-114940688D01*
X146687821Y-114778901D01*
X146590531Y-114633296D01*
X146529796Y-114572561D01*
X146612441Y-114589000D01*
X146787559Y-114589000D01*
X146959312Y-114554836D01*
X147121099Y-114487821D01*
X147266704Y-114390531D01*
X147390531Y-114266704D01*
X147487821Y-114121099D01*
X147554836Y-113959312D01*
X147589000Y-113787559D01*
X147589000Y-113612441D01*
X147554836Y-113440688D01*
X147487821Y-113278901D01*
X147390531Y-113133296D01*
X147266704Y-113009469D01*
X147121099Y-112912179D01*
X146959312Y-112845164D01*
X146787559Y-112811000D01*
X146612441Y-112811000D01*
X146440688Y-112845164D01*
X146278901Y-112912179D01*
X146133296Y-113009469D01*
X146009469Y-113133296D01*
X145912179Y-113278901D01*
X145876011Y-113366217D01*
X145876011Y-106557172D01*
X146614801Y-106557172D01*
X146614801Y-106805549D01*
G36*
X157328068Y-97365942D02*
G01*
X157271000Y-97652840D01*
X157271000Y-97945360D01*
X157328068Y-98232258D01*
X157440010Y-98502511D01*
X157602525Y-98745732D01*
X157809368Y-98952575D01*
X157991534Y-99074295D01*
X157874645Y-99143922D01*
X157658412Y-99338831D01*
X157484359Y-99572180D01*
X157359175Y-99835001D01*
X157314524Y-99982210D01*
X157435845Y-100212100D01*
X158629000Y-100212100D01*
X158629000Y-100192100D01*
X158883000Y-100192100D01*
X158883000Y-100212100D01*
X158903000Y-100212100D01*
X158903000Y-100466100D01*
X158883000Y-100466100D01*
X158883000Y-100486100D01*
X158629000Y-100486100D01*
X158629000Y-100466100D01*
X157435845Y-100466100D01*
X157314524Y-100695990D01*
X157359175Y-100843199D01*
X157484359Y-101106020D01*
X157658412Y-101339369D01*
X157874645Y-101534278D01*
X157991523Y-101603899D01*
X157926986Y-101638394D01*
X157700866Y-101823966D01*
X157515294Y-102050086D01*
X157377401Y-102308066D01*
X157292487Y-102587989D01*
X157263815Y-102879100D01*
X157292487Y-103170211D01*
X157377401Y-103450134D01*
X157515294Y-103708114D01*
X157700866Y-103934234D01*
X157926986Y-104119806D01*
X157981791Y-104149100D01*
X157926986Y-104178394D01*
X157700866Y-104363966D01*
X157515294Y-104590086D01*
X157377401Y-104848066D01*
X157292487Y-105127989D01*
X157263815Y-105419100D01*
X157292487Y-105710211D01*
X157377401Y-105990134D01*
X157515294Y-106248114D01*
X157700866Y-106474234D01*
X157926986Y-106659806D01*
X157981791Y-106689100D01*
X157926986Y-106718394D01*
X157700866Y-106903966D01*
X157515294Y-107130086D01*
X157377401Y-107388066D01*
X157292487Y-107667989D01*
X157263815Y-107959100D01*
X157292487Y-108250211D01*
X157377401Y-108530134D01*
X157515294Y-108788114D01*
X157700866Y-109014234D01*
X157926986Y-109199806D01*
X157981791Y-109229100D01*
X157926986Y-109258394D01*
X157700866Y-109443966D01*
X157515294Y-109670086D01*
X157377401Y-109928066D01*
X157306826Y-110160721D01*
X157293775Y-110095111D01*
X157189371Y-109843057D01*
X157037799Y-109616214D01*
X156844886Y-109423301D01*
X156618043Y-109271729D01*
X156365989Y-109167325D01*
X156098411Y-109114100D01*
X155825589Y-109114100D01*
X155558011Y-109167325D01*
X155305957Y-109271729D01*
X155079114Y-109423301D01*
X154886201Y-109616214D01*
X154734629Y-109843057D01*
X154630225Y-110095111D01*
X154577000Y-110362689D01*
X154577000Y-110471212D01*
X154145000Y-110039213D01*
X154122726Y-110012072D01*
X154014432Y-109923197D01*
X153890880Y-109857157D01*
X153756819Y-109816490D01*
X153652335Y-109806199D01*
X153652325Y-109806199D01*
X153617399Y-109802759D01*
X153582473Y-109806199D01*
X153360947Y-109806199D01*
X153354836Y-109775477D01*
X153287821Y-109613690D01*
X153190531Y-109468085D01*
X153066704Y-109344258D01*
X152921099Y-109246968D01*
X152759312Y-109179953D01*
X152624047Y-109153047D01*
X151662430Y-108191432D01*
X151640156Y-108164291D01*
X151531862Y-108075416D01*
X151460739Y-108037400D01*
X152078271Y-108037400D01*
X152078901Y-108037821D01*
X152240688Y-108104836D01*
X152412441Y-108139000D01*
X152587559Y-108139000D01*
X152759312Y-108104836D01*
X152921099Y-108037821D01*
X153066704Y-107940531D01*
X153190531Y-107816704D01*
X153287821Y-107671099D01*
X153354836Y-107509312D01*
X153389000Y-107337559D01*
X153389000Y-107162441D01*
X153354836Y-106990688D01*
X153287821Y-106828901D01*
X153190531Y-106683296D01*
X153066704Y-106559469D01*
X153063266Y-106557172D01*
X153951000Y-106557172D01*
X154075482Y-106544912D01*
X154195180Y-106508602D01*
X154305494Y-106449637D01*
X154402185Y-106370285D01*
X154481537Y-106273594D01*
X154540502Y-106163280D01*
X154576812Y-106043582D01*
X154589072Y-105919100D01*
X154589072Y-104919100D01*
X154576812Y-104794618D01*
X154540502Y-104674920D01*
X154481537Y-104564606D01*
X154402185Y-104467915D01*
X154305494Y-104388563D01*
X154195180Y-104329598D01*
X154075482Y-104293288D01*
X153951000Y-104281028D01*
X153071568Y-104281028D01*
X153076909Y-104263420D01*
X153080321Y-104228777D01*
X153087200Y-104158936D01*
X153087200Y-104158929D01*
X153090640Y-104124000D01*
X153087200Y-104089072D01*
X153087200Y-104017172D01*
X153951000Y-104017172D01*
X154075482Y-104004912D01*
X154195180Y-103968602D01*
X154305494Y-103909637D01*
X154402185Y-103830285D01*
X154481537Y-103733594D01*
X154540502Y-103623280D01*
X154576812Y-103503582D01*
X154589072Y-103379100D01*
X154589072Y-102379100D01*
X154576812Y-102254618D01*
X154540502Y-102134920D01*
X154481537Y-102024606D01*
X154402185Y-101927915D01*
X154305494Y-101848563D01*
X154195180Y-101789598D01*
X154075482Y-101753288D01*
X153951000Y-101741028D01*
X150904860Y-101741028D01*
X151168716Y-101477172D01*
X153951000Y-101477172D01*
X154075482Y-101464912D01*
X154195180Y-101428602D01*
X154305494Y-101369637D01*
X154402185Y-101290285D01*
X154481537Y-101193594D01*
X154540502Y-101083280D01*
X154576812Y-100963582D01*
X154589072Y-100839100D01*
X154589072Y-99839100D01*
X154576812Y-99714618D01*
X154540502Y-99594920D01*
X154481537Y-99484606D01*
X154402185Y-99387915D01*
X154305494Y-99308563D01*
X154195180Y-99249598D01*
X154075482Y-99213288D01*
X153951000Y-99201028D01*
X150801000Y-99201028D01*
X150676518Y-99213288D01*
X150556820Y-99249598D01*
X150446506Y-99308563D01*
X150349815Y-99387915D01*
X150270463Y-99484606D01*
X150211498Y-99594920D01*
X150175188Y-99714618D01*
X150162928Y-99839100D01*
X150162928Y-100471384D01*
X149851001Y-100783312D01*
X149539072Y-100471384D01*
X149539072Y-99839100D01*
X149526812Y-99714618D01*
X149490502Y-99594920D01*
X149431537Y-99484606D01*
X149352185Y-99387915D01*
X149255494Y-99308563D01*
X149145180Y-99249598D01*
X149025482Y-99213288D01*
X148901000Y-99201028D01*
X145751000Y-99201028D01*
X145626518Y-99213288D01*
X145506820Y-99249598D01*
X145396506Y-99308563D01*
X145299815Y-99387915D01*
X145220463Y-99484606D01*
X145161498Y-99594920D01*
X145125188Y-99714618D01*
X145112928Y-99839100D01*
X145112928Y-100677378D01*
X145028901Y-100712183D01*
X144935770Y-100774411D01*
X144979513Y-100630211D01*
X145008185Y-100339100D01*
X144979513Y-100047989D01*
X144894599Y-99768066D01*
X144756706Y-99510086D01*
X144571134Y-99283966D01*
X144541313Y-99259493D01*
X144610180Y-99238602D01*
X144720494Y-99179637D01*
X144817185Y-99100285D01*
X144896537Y-99003594D01*
X144955502Y-98893280D01*
X144991812Y-98773582D01*
X145004072Y-98649100D01*
X145001000Y-98084850D01*
X144842250Y-97926100D01*
X143643000Y-97926100D01*
X143643000Y-97946100D01*
X143389000Y-97946100D01*
X143389000Y-97926100D01*
X143369000Y-97926100D01*
X143369000Y-97672100D01*
X143389000Y-97672100D01*
X143389000Y-97652100D01*
X143643000Y-97652100D01*
X143643000Y-97672100D01*
X144842250Y-97672100D01*
X145001000Y-97513350D01*
X145002493Y-97239100D01*
X157380607Y-97239100D01*
X157328068Y-97365942D01*
X157328068Y-97365942D01*
G37*
X157328068Y-97365942D02*
X157271000Y-97652840D01*
X157271000Y-97945360D01*
X157328068Y-98232258D01*
X157440010Y-98502511D01*
X157602525Y-98745732D01*
X157809368Y-98952575D01*
X157991534Y-99074295D01*
X157874645Y-99143922D01*
X157658412Y-99338831D01*
X157484359Y-99572180D01*
X157359175Y-99835001D01*
X157314524Y-99982210D01*
X157435845Y-100212100D01*
X158629000Y-100212100D01*
X158629000Y-100192100D01*
X158883000Y-100192100D01*
X158883000Y-100212100D01*
X158903000Y-100212100D01*
X158903000Y-100466100D01*
X158883000Y-100466100D01*
X158883000Y-100486100D01*
X158629000Y-100486100D01*
X158629000Y-100466100D01*
X157435845Y-100466100D01*
X157314524Y-100695990D01*
X157359175Y-100843199D01*
X157484359Y-101106020D01*
X157658412Y-101339369D01*
X157874645Y-101534278D01*
X157991523Y-101603899D01*
X157926986Y-101638394D01*
X157700866Y-101823966D01*
X157515294Y-102050086D01*
X157377401Y-102308066D01*
X157292487Y-102587989D01*
X157263815Y-102879100D01*
X157292487Y-103170211D01*
X157377401Y-103450134D01*
X157515294Y-103708114D01*
X157700866Y-103934234D01*
X157926986Y-104119806D01*
X157981791Y-104149100D01*
X157926986Y-104178394D01*
X157700866Y-104363966D01*
X157515294Y-104590086D01*
X157377401Y-104848066D01*
X157292487Y-105127989D01*
X157263815Y-105419100D01*
X157292487Y-105710211D01*
X157377401Y-105990134D01*
X157515294Y-106248114D01*
X157700866Y-106474234D01*
X157926986Y-106659806D01*
X157981791Y-106689100D01*
X157926986Y-106718394D01*
X157700866Y-106903966D01*
X157515294Y-107130086D01*
X157377401Y-107388066D01*
X157292487Y-107667989D01*
X157263815Y-107959100D01*
X157292487Y-108250211D01*
X157377401Y-108530134D01*
X157515294Y-108788114D01*
X157700866Y-109014234D01*
X157926986Y-109199806D01*
X157981791Y-109229100D01*
X157926986Y-109258394D01*
X157700866Y-109443966D01*
X157515294Y-109670086D01*
X157377401Y-109928066D01*
X157306826Y-110160721D01*
X157293775Y-110095111D01*
X157189371Y-109843057D01*
X157037799Y-109616214D01*
X156844886Y-109423301D01*
X156618043Y-109271729D01*
X156365989Y-109167325D01*
X156098411Y-109114100D01*
X155825589Y-109114100D01*
X155558011Y-109167325D01*
X155305957Y-109271729D01*
X155079114Y-109423301D01*
X154886201Y-109616214D01*
X154734629Y-109843057D01*
X154630225Y-110095111D01*
X154577000Y-110362689D01*
X154577000Y-110471212D01*
X154145000Y-110039213D01*
X154122726Y-110012072D01*
X154014432Y-109923197D01*
X153890880Y-109857157D01*
X153756819Y-109816490D01*
X153652335Y-109806199D01*
X153652325Y-109806199D01*
X153617399Y-109802759D01*
X153582473Y-109806199D01*
X153360947Y-109806199D01*
X153354836Y-109775477D01*
X153287821Y-109613690D01*
X153190531Y-109468085D01*
X153066704Y-109344258D01*
X152921099Y-109246968D01*
X152759312Y-109179953D01*
X152624047Y-109153047D01*
X151662430Y-108191432D01*
X151640156Y-108164291D01*
X151531862Y-108075416D01*
X151460739Y-108037400D01*
X152078271Y-108037400D01*
X152078901Y-108037821D01*
X152240688Y-108104836D01*
X152412441Y-108139000D01*
X152587559Y-108139000D01*
X152759312Y-108104836D01*
X152921099Y-108037821D01*
X153066704Y-107940531D01*
X153190531Y-107816704D01*
X153287821Y-107671099D01*
X153354836Y-107509312D01*
X153389000Y-107337559D01*
X153389000Y-107162441D01*
X153354836Y-106990688D01*
X153287821Y-106828901D01*
X153190531Y-106683296D01*
X153066704Y-106559469D01*
X153063266Y-106557172D01*
X153951000Y-106557172D01*
X154075482Y-106544912D01*
X154195180Y-106508602D01*
X154305494Y-106449637D01*
X154402185Y-106370285D01*
X154481537Y-106273594D01*
X154540502Y-106163280D01*
X154576812Y-106043582D01*
X154589072Y-105919100D01*
X154589072Y-104919100D01*
X154576812Y-104794618D01*
X154540502Y-104674920D01*
X154481537Y-104564606D01*
X154402185Y-104467915D01*
X154305494Y-104388563D01*
X154195180Y-104329598D01*
X154075482Y-104293288D01*
X153951000Y-104281028D01*
X153071568Y-104281028D01*
X153076909Y-104263420D01*
X153080321Y-104228777D01*
X153087200Y-104158936D01*
X153087200Y-104158929D01*
X153090640Y-104124000D01*
X153087200Y-104089072D01*
X153087200Y-104017172D01*
X153951000Y-104017172D01*
X154075482Y-104004912D01*
X154195180Y-103968602D01*
X154305494Y-103909637D01*
X154402185Y-103830285D01*
X154481537Y-103733594D01*
X154540502Y-103623280D01*
X154576812Y-103503582D01*
X154589072Y-103379100D01*
X154589072Y-102379100D01*
X154576812Y-102254618D01*
X154540502Y-102134920D01*
X154481537Y-102024606D01*
X154402185Y-101927915D01*
X154305494Y-101848563D01*
X154195180Y-101789598D01*
X154075482Y-101753288D01*
X153951000Y-101741028D01*
X150904860Y-101741028D01*
X151168716Y-101477172D01*
X153951000Y-101477172D01*
X154075482Y-101464912D01*
X154195180Y-101428602D01*
X154305494Y-101369637D01*
X154402185Y-101290285D01*
X154481537Y-101193594D01*
X154540502Y-101083280D01*
X154576812Y-100963582D01*
X154589072Y-100839100D01*
X154589072Y-99839100D01*
X154576812Y-99714618D01*
X154540502Y-99594920D01*
X154481537Y-99484606D01*
X154402185Y-99387915D01*
X154305494Y-99308563D01*
X154195180Y-99249598D01*
X154075482Y-99213288D01*
X153951000Y-99201028D01*
X150801000Y-99201028D01*
X150676518Y-99213288D01*
X150556820Y-99249598D01*
X150446506Y-99308563D01*
X150349815Y-99387915D01*
X150270463Y-99484606D01*
X150211498Y-99594920D01*
X150175188Y-99714618D01*
X150162928Y-99839100D01*
X150162928Y-100471384D01*
X149851001Y-100783312D01*
X149539072Y-100471384D01*
X149539072Y-99839100D01*
X149526812Y-99714618D01*
X149490502Y-99594920D01*
X149431537Y-99484606D01*
X149352185Y-99387915D01*
X149255494Y-99308563D01*
X149145180Y-99249598D01*
X149025482Y-99213288D01*
X148901000Y-99201028D01*
X145751000Y-99201028D01*
X145626518Y-99213288D01*
X145506820Y-99249598D01*
X145396506Y-99308563D01*
X145299815Y-99387915D01*
X145220463Y-99484606D01*
X145161498Y-99594920D01*
X145125188Y-99714618D01*
X145112928Y-99839100D01*
X145112928Y-100677378D01*
X145028901Y-100712183D01*
X144935770Y-100774411D01*
X144979513Y-100630211D01*
X145008185Y-100339100D01*
X144979513Y-100047989D01*
X144894599Y-99768066D01*
X144756706Y-99510086D01*
X144571134Y-99283966D01*
X144541313Y-99259493D01*
X144610180Y-99238602D01*
X144720494Y-99179637D01*
X144817185Y-99100285D01*
X144896537Y-99003594D01*
X144955502Y-98893280D01*
X144991812Y-98773582D01*
X145004072Y-98649100D01*
X145001000Y-98084850D01*
X144842250Y-97926100D01*
X143643000Y-97926100D01*
X143643000Y-97946100D01*
X143389000Y-97946100D01*
X143389000Y-97926100D01*
X143369000Y-97926100D01*
X143369000Y-97672100D01*
X143389000Y-97672100D01*
X143389000Y-97652100D01*
X143643000Y-97652100D01*
X143643000Y-97672100D01*
X144842250Y-97672100D01*
X145001000Y-97513350D01*
X145002493Y-97239100D01*
X157380607Y-97239100D01*
X157328068Y-97365942D01*
M02*
