G04 #@! TF.GenerationSoftware,KiCad,Pcbnew,(5.0.1-3-g963ef8bb5)*
G04 #@! TF.CreationDate,2018-11-16T17:04:18+01:00*
G04 #@! TF.ProjectId,TinyFPGA-UP,54696E79465047412D55502E6B696361,A*
G04 #@! TF.SameCoordinates,Original*
G04 #@! TF.FileFunction,Soldermask,Bot*
G04 #@! TF.FilePolarity,Negative*
%FSLAX46Y46*%
G04 Gerber Fmt 4.6, Leading zero omitted, Abs format (unit mm)*
G04 Created by KiCad (PCBNEW (5.0.1-3-g963ef8bb5)) date Friday, 16 November 2018 at 17:04:18*
%MOMM*%
%LPD*%
G01*
G04 APERTURE LIST*
%ADD10C,0.100000*%
G04 APERTURE END LIST*
D10*
G36*
X158884707Y-129776696D02*
X158961836Y-129784293D01*
X159093787Y-129824320D01*
X159159763Y-129844333D01*
X159342172Y-129941833D01*
X159502054Y-130073046D01*
X159633267Y-130232928D01*
X159730767Y-130415337D01*
X159730767Y-130415338D01*
X159790807Y-130613264D01*
X159811080Y-130819100D01*
X159790807Y-131024936D01*
X159750780Y-131156887D01*
X159730767Y-131222863D01*
X159633267Y-131405272D01*
X159502054Y-131565154D01*
X159342172Y-131696367D01*
X159159763Y-131793867D01*
X159093787Y-131813880D01*
X158961836Y-131853907D01*
X158884707Y-131861504D01*
X158807580Y-131869100D01*
X158704420Y-131869100D01*
X158627293Y-131861504D01*
X158550164Y-131853907D01*
X158418213Y-131813880D01*
X158352237Y-131793867D01*
X158169828Y-131696367D01*
X158009946Y-131565154D01*
X157878733Y-131405272D01*
X157781233Y-131222863D01*
X157761220Y-131156887D01*
X157721193Y-131024936D01*
X157700920Y-130819100D01*
X157721193Y-130613264D01*
X157781233Y-130415338D01*
X157781233Y-130415337D01*
X157878733Y-130232928D01*
X158009946Y-130073046D01*
X158169828Y-129941833D01*
X158352237Y-129844333D01*
X158418213Y-129824320D01*
X158550164Y-129784293D01*
X158627293Y-129776696D01*
X158704420Y-129769100D01*
X158807580Y-129769100D01*
X158884707Y-129776696D01*
X158884707Y-129776696D01*
G37*
G36*
X143644707Y-129776696D02*
X143721836Y-129784293D01*
X143853787Y-129824320D01*
X143919763Y-129844333D01*
X144102172Y-129941833D01*
X144262054Y-130073046D01*
X144393267Y-130232928D01*
X144490767Y-130415337D01*
X144490767Y-130415338D01*
X144550807Y-130613264D01*
X144571080Y-130819100D01*
X144550807Y-131024936D01*
X144510780Y-131156887D01*
X144490767Y-131222863D01*
X144393267Y-131405272D01*
X144262054Y-131565154D01*
X144102172Y-131696367D01*
X143919763Y-131793867D01*
X143853787Y-131813880D01*
X143721836Y-131853907D01*
X143644707Y-131861504D01*
X143567580Y-131869100D01*
X143464420Y-131869100D01*
X143387293Y-131861504D01*
X143310164Y-131853907D01*
X143178213Y-131813880D01*
X143112237Y-131793867D01*
X142929828Y-131696367D01*
X142769946Y-131565154D01*
X142638733Y-131405272D01*
X142541233Y-131222863D01*
X142521220Y-131156887D01*
X142481193Y-131024936D01*
X142460920Y-130819100D01*
X142481193Y-130613264D01*
X142541233Y-130415338D01*
X142541233Y-130415337D01*
X142638733Y-130232928D01*
X142769946Y-130073046D01*
X142929828Y-129941833D01*
X143112237Y-129844333D01*
X143178213Y-129824320D01*
X143310164Y-129784293D01*
X143387293Y-129776696D01*
X143464420Y-129769100D01*
X143567580Y-129769100D01*
X143644707Y-129776696D01*
X143644707Y-129776696D01*
G37*
G36*
X156731000Y-131519100D02*
X153181000Y-131519100D01*
X153181000Y-130119100D01*
X156731000Y-130119100D01*
X156731000Y-131519100D01*
X156731000Y-131519100D01*
G37*
G36*
X151681000Y-131519100D02*
X148131000Y-131519100D01*
X148131000Y-130119100D01*
X151681000Y-130119100D01*
X151681000Y-131519100D01*
X151681000Y-131519100D01*
G37*
G36*
X146449451Y-128608227D02*
X146587105Y-128635608D01*
X146759994Y-128707221D01*
X146915590Y-128811187D01*
X147047913Y-128943510D01*
X147151879Y-129099106D01*
X147223492Y-129271995D01*
X147260000Y-129455533D01*
X147260000Y-129642667D01*
X147223492Y-129826205D01*
X147151879Y-129999094D01*
X147047913Y-130154690D01*
X146915590Y-130287013D01*
X146759994Y-130390979D01*
X146587105Y-130462592D01*
X146449452Y-130489973D01*
X146403568Y-130499100D01*
X146216432Y-130499100D01*
X146170548Y-130489973D01*
X146032895Y-130462592D01*
X145860006Y-130390979D01*
X145704410Y-130287013D01*
X145572087Y-130154690D01*
X145468121Y-129999094D01*
X145396508Y-129826205D01*
X145360000Y-129642667D01*
X145360000Y-129455533D01*
X145396508Y-129271995D01*
X145468121Y-129099106D01*
X145572087Y-128943510D01*
X145704410Y-128811187D01*
X145860006Y-128707221D01*
X146032895Y-128635608D01*
X146170549Y-128608227D01*
X146216432Y-128599100D01*
X146403568Y-128599100D01*
X146449451Y-128608227D01*
X146449451Y-128608227D01*
G37*
G36*
X158884707Y-127236696D02*
X158961836Y-127244293D01*
X159093787Y-127284320D01*
X159159763Y-127304333D01*
X159342172Y-127401833D01*
X159502054Y-127533046D01*
X159633267Y-127692928D01*
X159730767Y-127875337D01*
X159730767Y-127875338D01*
X159790807Y-128073264D01*
X159811080Y-128279100D01*
X159790807Y-128484936D01*
X159756176Y-128599100D01*
X159730767Y-128682863D01*
X159633267Y-128865272D01*
X159502054Y-129025154D01*
X159342172Y-129156367D01*
X159159763Y-129253867D01*
X159100002Y-129271995D01*
X158961836Y-129313907D01*
X158884707Y-129321504D01*
X158807580Y-129329100D01*
X158704420Y-129329100D01*
X158627293Y-129321504D01*
X158550164Y-129313907D01*
X158411998Y-129271995D01*
X158352237Y-129253867D01*
X158169828Y-129156367D01*
X158009946Y-129025154D01*
X157878733Y-128865272D01*
X157781233Y-128682863D01*
X157755824Y-128599100D01*
X157721193Y-128484936D01*
X157700920Y-128279100D01*
X157721193Y-128073264D01*
X157781233Y-127875338D01*
X157781233Y-127875337D01*
X157878733Y-127692928D01*
X158009946Y-127533046D01*
X158169828Y-127401833D01*
X158352237Y-127304333D01*
X158418213Y-127284320D01*
X158550164Y-127244293D01*
X158627293Y-127236696D01*
X158704420Y-127229100D01*
X158807580Y-127229100D01*
X158884707Y-127236696D01*
X158884707Y-127236696D01*
G37*
G36*
X143644707Y-127236696D02*
X143721836Y-127244293D01*
X143853787Y-127284320D01*
X143919763Y-127304333D01*
X144102172Y-127401833D01*
X144262054Y-127533046D01*
X144393267Y-127692928D01*
X144490767Y-127875337D01*
X144490767Y-127875338D01*
X144550807Y-128073264D01*
X144571080Y-128279100D01*
X144550807Y-128484936D01*
X144516176Y-128599100D01*
X144490767Y-128682863D01*
X144393267Y-128865272D01*
X144262054Y-129025154D01*
X144102172Y-129156367D01*
X143919763Y-129253867D01*
X143860002Y-129271995D01*
X143721836Y-129313907D01*
X143644707Y-129321504D01*
X143567580Y-129329100D01*
X143464420Y-129329100D01*
X143387293Y-129321504D01*
X143310164Y-129313907D01*
X143171998Y-129271995D01*
X143112237Y-129253867D01*
X142929828Y-129156367D01*
X142769946Y-129025154D01*
X142638733Y-128865272D01*
X142541233Y-128682863D01*
X142515824Y-128599100D01*
X142481193Y-128484936D01*
X142460920Y-128279100D01*
X142481193Y-128073264D01*
X142541233Y-127875338D01*
X142541233Y-127875337D01*
X142638733Y-127692928D01*
X142769946Y-127533046D01*
X142929828Y-127401833D01*
X143112237Y-127304333D01*
X143178213Y-127284320D01*
X143310164Y-127244293D01*
X143387293Y-127236696D01*
X143464420Y-127229100D01*
X143567580Y-127229100D01*
X143644707Y-127236696D01*
X143644707Y-127236696D01*
G37*
G36*
X156731000Y-128979100D02*
X153181000Y-128979100D01*
X153181000Y-127579100D01*
X156731000Y-127579100D01*
X156731000Y-128979100D01*
X156731000Y-128979100D01*
G37*
G36*
X151681000Y-128979100D02*
X148131000Y-128979100D01*
X148131000Y-127579100D01*
X151681000Y-127579100D01*
X151681000Y-128979100D01*
X151681000Y-128979100D01*
G37*
G36*
X158884707Y-124696696D02*
X158961836Y-124704293D01*
X159093787Y-124744320D01*
X159159763Y-124764333D01*
X159342172Y-124861833D01*
X159502054Y-124993046D01*
X159633267Y-125152928D01*
X159730767Y-125335337D01*
X159730767Y-125335338D01*
X159790807Y-125533264D01*
X159811080Y-125739100D01*
X159790807Y-125944936D01*
X159750780Y-126076887D01*
X159730767Y-126142863D01*
X159633267Y-126325272D01*
X159502054Y-126485154D01*
X159342172Y-126616367D01*
X159159763Y-126713867D01*
X159093787Y-126733880D01*
X158961836Y-126773907D01*
X158884707Y-126781504D01*
X158807580Y-126789100D01*
X158704420Y-126789100D01*
X158627293Y-126781504D01*
X158550164Y-126773907D01*
X158418213Y-126733880D01*
X158352237Y-126713867D01*
X158169828Y-126616367D01*
X158009946Y-126485154D01*
X157878733Y-126325272D01*
X157781233Y-126142863D01*
X157761220Y-126076887D01*
X157721193Y-125944936D01*
X157700920Y-125739100D01*
X157721193Y-125533264D01*
X157781233Y-125335338D01*
X157781233Y-125335337D01*
X157878733Y-125152928D01*
X158009946Y-124993046D01*
X158169828Y-124861833D01*
X158352237Y-124764333D01*
X158418213Y-124744320D01*
X158550164Y-124704293D01*
X158627293Y-124696696D01*
X158704420Y-124689100D01*
X158807580Y-124689100D01*
X158884707Y-124696696D01*
X158884707Y-124696696D01*
G37*
G36*
X143644707Y-124696696D02*
X143721836Y-124704293D01*
X143853787Y-124744320D01*
X143919763Y-124764333D01*
X144102172Y-124861833D01*
X144262054Y-124993046D01*
X144393267Y-125152928D01*
X144490767Y-125335337D01*
X144490767Y-125335338D01*
X144550807Y-125533264D01*
X144571080Y-125739100D01*
X144550807Y-125944936D01*
X144510780Y-126076887D01*
X144490767Y-126142863D01*
X144393267Y-126325272D01*
X144262054Y-126485154D01*
X144102172Y-126616367D01*
X143919763Y-126713867D01*
X143853787Y-126733880D01*
X143721836Y-126773907D01*
X143644707Y-126781504D01*
X143567580Y-126789100D01*
X143464420Y-126789100D01*
X143387293Y-126781504D01*
X143310164Y-126773907D01*
X143178213Y-126733880D01*
X143112237Y-126713867D01*
X142929828Y-126616367D01*
X142769946Y-126485154D01*
X142638733Y-126325272D01*
X142541233Y-126142863D01*
X142521220Y-126076887D01*
X142481193Y-125944936D01*
X142460920Y-125739100D01*
X142481193Y-125533264D01*
X142541233Y-125335338D01*
X142541233Y-125335337D01*
X142638733Y-125152928D01*
X142769946Y-124993046D01*
X142929828Y-124861833D01*
X143112237Y-124764333D01*
X143178213Y-124744320D01*
X143310164Y-124704293D01*
X143387293Y-124696696D01*
X143464420Y-124689100D01*
X143567580Y-124689100D01*
X143644707Y-124696696D01*
X143644707Y-124696696D01*
G37*
G36*
X156731000Y-126439100D02*
X153181000Y-126439100D01*
X153181000Y-125039100D01*
X156731000Y-125039100D01*
X156731000Y-126439100D01*
X156731000Y-126439100D01*
G37*
G36*
X151681000Y-126439100D02*
X148131000Y-126439100D01*
X148131000Y-125039100D01*
X151681000Y-125039100D01*
X151681000Y-126439100D01*
X151681000Y-126439100D01*
G37*
G36*
X146469452Y-123529037D02*
X146607105Y-123556418D01*
X146779994Y-123628031D01*
X146935590Y-123731997D01*
X147067913Y-123864320D01*
X147171879Y-124019916D01*
X147243492Y-124192805D01*
X147280000Y-124376343D01*
X147280000Y-124563477D01*
X147243492Y-124747015D01*
X147171879Y-124919904D01*
X147067913Y-125075500D01*
X146935590Y-125207823D01*
X146779994Y-125311789D01*
X146607105Y-125383402D01*
X146469452Y-125410783D01*
X146423568Y-125419910D01*
X146236432Y-125419910D01*
X146190548Y-125410783D01*
X146052895Y-125383402D01*
X145880006Y-125311789D01*
X145724410Y-125207823D01*
X145592087Y-125075500D01*
X145488121Y-124919904D01*
X145416508Y-124747015D01*
X145380000Y-124563477D01*
X145380000Y-124376343D01*
X145416508Y-124192805D01*
X145488121Y-124019916D01*
X145592087Y-123864320D01*
X145724410Y-123731997D01*
X145880006Y-123628031D01*
X146052895Y-123556418D01*
X146190548Y-123529037D01*
X146236432Y-123519910D01*
X146423568Y-123519910D01*
X146469452Y-123529037D01*
X146469452Y-123529037D01*
G37*
G36*
X143644707Y-122156697D02*
X143721836Y-122164293D01*
X143853787Y-122204320D01*
X143919763Y-122224333D01*
X144102172Y-122321833D01*
X144262054Y-122453046D01*
X144393267Y-122612928D01*
X144490767Y-122795337D01*
X144510780Y-122861313D01*
X144550807Y-122993264D01*
X144571080Y-123199100D01*
X144550807Y-123404936D01*
X144515930Y-123519910D01*
X144490767Y-123602863D01*
X144393267Y-123785272D01*
X144262054Y-123945154D01*
X144102172Y-124076367D01*
X143919763Y-124173867D01*
X143857332Y-124192805D01*
X143721836Y-124233907D01*
X143644707Y-124241504D01*
X143567580Y-124249100D01*
X143464420Y-124249100D01*
X143387293Y-124241504D01*
X143310164Y-124233907D01*
X143174668Y-124192805D01*
X143112237Y-124173867D01*
X142929828Y-124076367D01*
X142769946Y-123945154D01*
X142638733Y-123785272D01*
X142541233Y-123602863D01*
X142516070Y-123519910D01*
X142481193Y-123404936D01*
X142460920Y-123199100D01*
X142481193Y-122993264D01*
X142521220Y-122861313D01*
X142541233Y-122795337D01*
X142638733Y-122612928D01*
X142769946Y-122453046D01*
X142929828Y-122321833D01*
X143112237Y-122224333D01*
X143178213Y-122204320D01*
X143310164Y-122164293D01*
X143387293Y-122156697D01*
X143464420Y-122149100D01*
X143567580Y-122149100D01*
X143644707Y-122156697D01*
X143644707Y-122156697D01*
G37*
G36*
X158884707Y-122156697D02*
X158961836Y-122164293D01*
X159093787Y-122204320D01*
X159159763Y-122224333D01*
X159342172Y-122321833D01*
X159502054Y-122453046D01*
X159633267Y-122612928D01*
X159730767Y-122795337D01*
X159750780Y-122861313D01*
X159790807Y-122993264D01*
X159811080Y-123199100D01*
X159790807Y-123404936D01*
X159755930Y-123519910D01*
X159730767Y-123602863D01*
X159633267Y-123785272D01*
X159502054Y-123945154D01*
X159342172Y-124076367D01*
X159159763Y-124173867D01*
X159097332Y-124192805D01*
X158961836Y-124233907D01*
X158884707Y-124241504D01*
X158807580Y-124249100D01*
X158704420Y-124249100D01*
X158627293Y-124241504D01*
X158550164Y-124233907D01*
X158414668Y-124192805D01*
X158352237Y-124173867D01*
X158169828Y-124076367D01*
X158009946Y-123945154D01*
X157878733Y-123785272D01*
X157781233Y-123602863D01*
X157756070Y-123519910D01*
X157721193Y-123404936D01*
X157700920Y-123199100D01*
X157721193Y-122993264D01*
X157761220Y-122861313D01*
X157781233Y-122795337D01*
X157878733Y-122612928D01*
X158009946Y-122453046D01*
X158169828Y-122321833D01*
X158352237Y-122224333D01*
X158418213Y-122204320D01*
X158550164Y-122164293D01*
X158627293Y-122156697D01*
X158704420Y-122149100D01*
X158807580Y-122149100D01*
X158884707Y-122156697D01*
X158884707Y-122156697D01*
G37*
G36*
X156731000Y-121359100D02*
X155605000Y-121359100D01*
X155580614Y-121361502D01*
X155557165Y-121368615D01*
X155535554Y-121380166D01*
X155516612Y-121395712D01*
X155501066Y-121414654D01*
X155489515Y-121436265D01*
X155482402Y-121459714D01*
X155480000Y-121484100D01*
X155480000Y-121748859D01*
X155475852Y-121790974D01*
X155465358Y-121825568D01*
X155444213Y-121865128D01*
X155440243Y-121871069D01*
X155430864Y-121893708D01*
X155426083Y-121917741D01*
X155426081Y-121942245D01*
X155430860Y-121966279D01*
X155440237Y-121988918D01*
X155444205Y-121994858D01*
X155465358Y-122034432D01*
X155475852Y-122069026D01*
X155480000Y-122111141D01*
X155480000Y-122374100D01*
X155482402Y-122398486D01*
X155489515Y-122421935D01*
X155501066Y-122443546D01*
X155516612Y-122462488D01*
X155535554Y-122478034D01*
X155557165Y-122489585D01*
X155580614Y-122496698D01*
X155605000Y-122499100D01*
X156731000Y-122499100D01*
X156731000Y-123899100D01*
X153181000Y-123899100D01*
X153181000Y-122499100D01*
X154315000Y-122499100D01*
X154339386Y-122496698D01*
X154362835Y-122489585D01*
X154384446Y-122478034D01*
X154403388Y-122462488D01*
X154418934Y-122443546D01*
X154430485Y-122421935D01*
X154437598Y-122398486D01*
X154440000Y-122374100D01*
X154440000Y-122111141D01*
X154444148Y-122069026D01*
X154454642Y-122034432D01*
X154475787Y-121994872D01*
X154479757Y-121988931D01*
X154489136Y-121966292D01*
X154493917Y-121942259D01*
X154493919Y-121917755D01*
X154489140Y-121893721D01*
X154479763Y-121871082D01*
X154475795Y-121865142D01*
X154454642Y-121825568D01*
X154444148Y-121790974D01*
X154440000Y-121748859D01*
X154440000Y-121484100D01*
X154437598Y-121459714D01*
X154430485Y-121436265D01*
X154418934Y-121414654D01*
X154403388Y-121395712D01*
X154384446Y-121380166D01*
X154362835Y-121368615D01*
X154339386Y-121361502D01*
X154315000Y-121359100D01*
X153181000Y-121359100D01*
X153181000Y-119959100D01*
X156731000Y-119959100D01*
X156731000Y-121359100D01*
X156731000Y-121359100D01*
G37*
G36*
X151681000Y-121359100D02*
X150555000Y-121359100D01*
X150530614Y-121361502D01*
X150507165Y-121368615D01*
X150485554Y-121380166D01*
X150466612Y-121395712D01*
X150451066Y-121414654D01*
X150439515Y-121436265D01*
X150432402Y-121459714D01*
X150430000Y-121484100D01*
X150430000Y-121748859D01*
X150425852Y-121790974D01*
X150415358Y-121825568D01*
X150394213Y-121865128D01*
X150390243Y-121871069D01*
X150380864Y-121893708D01*
X150376083Y-121917741D01*
X150376081Y-121942245D01*
X150380860Y-121966279D01*
X150390237Y-121988918D01*
X150394205Y-121994858D01*
X150415358Y-122034432D01*
X150425852Y-122069026D01*
X150430000Y-122111141D01*
X150430000Y-122374100D01*
X150432402Y-122398486D01*
X150439515Y-122421935D01*
X150451066Y-122443546D01*
X150466612Y-122462488D01*
X150485554Y-122478034D01*
X150507165Y-122489585D01*
X150530614Y-122496698D01*
X150555000Y-122499100D01*
X151681000Y-122499100D01*
X151681000Y-123899100D01*
X148131000Y-123899100D01*
X148131000Y-122499100D01*
X149265000Y-122499100D01*
X149289386Y-122496698D01*
X149312835Y-122489585D01*
X149334446Y-122478034D01*
X149353388Y-122462488D01*
X149368934Y-122443546D01*
X149380485Y-122421935D01*
X149387598Y-122398486D01*
X149390000Y-122374100D01*
X149390000Y-122111141D01*
X149394148Y-122069026D01*
X149404642Y-122034432D01*
X149425787Y-121994872D01*
X149429757Y-121988931D01*
X149439136Y-121966292D01*
X149443917Y-121942259D01*
X149443919Y-121917755D01*
X149439140Y-121893721D01*
X149429763Y-121871082D01*
X149425795Y-121865142D01*
X149404642Y-121825568D01*
X149394148Y-121790974D01*
X149390000Y-121748859D01*
X149390000Y-121484100D01*
X149387598Y-121459714D01*
X149380485Y-121436265D01*
X149368934Y-121414654D01*
X149353388Y-121395712D01*
X149334446Y-121380166D01*
X149312835Y-121368615D01*
X149289386Y-121361502D01*
X149265000Y-121359100D01*
X148131000Y-121359100D01*
X148131000Y-119959100D01*
X151681000Y-119959100D01*
X151681000Y-121359100D01*
X151681000Y-121359100D01*
G37*
G36*
X158884707Y-119616697D02*
X158961836Y-119624293D01*
X159093787Y-119664320D01*
X159159763Y-119684333D01*
X159342172Y-119781833D01*
X159502054Y-119913046D01*
X159633267Y-120072928D01*
X159730767Y-120255337D01*
X159730767Y-120255338D01*
X159790807Y-120453264D01*
X159811080Y-120659100D01*
X159790807Y-120864936D01*
X159765003Y-120950000D01*
X159730767Y-121062863D01*
X159633267Y-121245272D01*
X159502054Y-121405154D01*
X159342172Y-121536367D01*
X159159763Y-121633867D01*
X159093787Y-121653880D01*
X158961836Y-121693907D01*
X158884707Y-121701504D01*
X158807580Y-121709100D01*
X158704420Y-121709100D01*
X158627293Y-121701504D01*
X158550164Y-121693907D01*
X158418213Y-121653880D01*
X158352237Y-121633867D01*
X158169828Y-121536367D01*
X158009946Y-121405154D01*
X157878733Y-121245272D01*
X157781233Y-121062863D01*
X157746997Y-120950000D01*
X157721193Y-120864936D01*
X157700920Y-120659100D01*
X157721193Y-120453264D01*
X157781233Y-120255338D01*
X157781233Y-120255337D01*
X157878733Y-120072928D01*
X158009946Y-119913046D01*
X158169828Y-119781833D01*
X158352237Y-119684333D01*
X158418213Y-119664320D01*
X158550164Y-119624293D01*
X158627293Y-119616697D01*
X158704420Y-119609100D01*
X158807580Y-119609100D01*
X158884707Y-119616697D01*
X158884707Y-119616697D01*
G37*
G36*
X143644707Y-119616697D02*
X143721836Y-119624293D01*
X143853787Y-119664320D01*
X143919763Y-119684333D01*
X144102172Y-119781833D01*
X144262054Y-119913046D01*
X144393267Y-120072928D01*
X144490767Y-120255337D01*
X144490767Y-120255338D01*
X144550807Y-120453264D01*
X144571080Y-120659100D01*
X144550807Y-120864936D01*
X144525003Y-120950000D01*
X144490767Y-121062863D01*
X144393267Y-121245272D01*
X144262054Y-121405154D01*
X144102172Y-121536367D01*
X143919763Y-121633867D01*
X143853787Y-121653880D01*
X143721836Y-121693907D01*
X143644707Y-121701504D01*
X143567580Y-121709100D01*
X143464420Y-121709100D01*
X143387293Y-121701504D01*
X143310164Y-121693907D01*
X143178213Y-121653880D01*
X143112237Y-121633867D01*
X142929828Y-121536367D01*
X142769946Y-121405154D01*
X142638733Y-121245272D01*
X142541233Y-121062863D01*
X142506997Y-120950000D01*
X142481193Y-120864936D01*
X142460920Y-120659100D01*
X142481193Y-120453264D01*
X142541233Y-120255338D01*
X142541233Y-120255337D01*
X142638733Y-120072928D01*
X142769946Y-119913046D01*
X142929828Y-119781833D01*
X143112237Y-119684333D01*
X143178213Y-119664320D01*
X143310164Y-119624293D01*
X143387293Y-119616697D01*
X143464420Y-119609100D01*
X143567580Y-119609100D01*
X143644707Y-119616697D01*
X143644707Y-119616697D01*
G37*
G36*
X158884707Y-117076696D02*
X158961836Y-117084293D01*
X159093787Y-117124320D01*
X159159763Y-117144333D01*
X159342172Y-117241833D01*
X159502054Y-117373046D01*
X159633267Y-117532928D01*
X159730767Y-117715337D01*
X159730767Y-117715338D01*
X159790807Y-117913264D01*
X159811080Y-118119100D01*
X159790807Y-118324936D01*
X159750780Y-118456887D01*
X159730767Y-118522863D01*
X159633267Y-118705272D01*
X159502054Y-118865154D01*
X159342172Y-118996367D01*
X159159763Y-119093867D01*
X159093787Y-119113880D01*
X158961836Y-119153907D01*
X158884707Y-119161504D01*
X158807580Y-119169100D01*
X158704420Y-119169100D01*
X158627293Y-119161504D01*
X158550164Y-119153907D01*
X158418213Y-119113880D01*
X158352237Y-119093867D01*
X158169828Y-118996367D01*
X158009946Y-118865154D01*
X157878733Y-118705272D01*
X157781233Y-118522863D01*
X157761220Y-118456887D01*
X157721193Y-118324936D01*
X157700920Y-118119100D01*
X157721193Y-117913264D01*
X157781233Y-117715338D01*
X157781233Y-117715337D01*
X157878733Y-117532928D01*
X158009946Y-117373046D01*
X158169828Y-117241833D01*
X158352237Y-117144333D01*
X158418213Y-117124320D01*
X158550164Y-117084293D01*
X158627293Y-117076696D01*
X158704420Y-117069100D01*
X158807580Y-117069100D01*
X158884707Y-117076696D01*
X158884707Y-117076696D01*
G37*
G36*
X143644707Y-117076696D02*
X143721836Y-117084293D01*
X143853787Y-117124320D01*
X143919763Y-117144333D01*
X144102172Y-117241833D01*
X144262054Y-117373046D01*
X144393267Y-117532928D01*
X144490767Y-117715337D01*
X144490767Y-117715338D01*
X144550807Y-117913264D01*
X144571080Y-118119100D01*
X144550807Y-118324936D01*
X144510780Y-118456887D01*
X144490767Y-118522863D01*
X144393267Y-118705272D01*
X144262054Y-118865154D01*
X144102172Y-118996367D01*
X143919763Y-119093867D01*
X143853787Y-119113880D01*
X143721836Y-119153907D01*
X143644707Y-119161504D01*
X143567580Y-119169100D01*
X143464420Y-119169100D01*
X143387293Y-119161504D01*
X143310164Y-119153907D01*
X143178213Y-119113880D01*
X143112237Y-119093867D01*
X142929828Y-118996367D01*
X142769946Y-118865154D01*
X142638733Y-118705272D01*
X142541233Y-118522863D01*
X142521220Y-118456887D01*
X142481193Y-118324936D01*
X142460920Y-118119100D01*
X142481193Y-117913264D01*
X142541233Y-117715338D01*
X142541233Y-117715337D01*
X142638733Y-117532928D01*
X142769946Y-117373046D01*
X142929828Y-117241833D01*
X143112237Y-117144333D01*
X143178213Y-117124320D01*
X143310164Y-117084293D01*
X143387293Y-117076696D01*
X143464420Y-117069100D01*
X143567580Y-117069100D01*
X143644707Y-117076696D01*
X143644707Y-117076696D01*
G37*
G36*
X156731000Y-118819100D02*
X153181000Y-118819100D01*
X153181000Y-117419100D01*
X156731000Y-117419100D01*
X156731000Y-118819100D01*
X156731000Y-118819100D01*
G37*
G36*
X151681000Y-118819100D02*
X148131000Y-118819100D01*
X148131000Y-117419100D01*
X151681000Y-117419100D01*
X151681000Y-118819100D01*
X151681000Y-118819100D01*
G37*
G36*
X158884707Y-114536696D02*
X158961836Y-114544293D01*
X159093787Y-114584320D01*
X159159763Y-114604333D01*
X159342172Y-114701833D01*
X159502054Y-114833046D01*
X159633267Y-114992928D01*
X159730767Y-115175337D01*
X159730767Y-115175338D01*
X159790807Y-115373264D01*
X159811080Y-115579100D01*
X159790807Y-115784936D01*
X159750780Y-115916887D01*
X159730767Y-115982863D01*
X159633267Y-116165272D01*
X159502054Y-116325154D01*
X159342172Y-116456367D01*
X159159763Y-116553867D01*
X159093787Y-116573880D01*
X158961836Y-116613907D01*
X158884707Y-116621504D01*
X158807580Y-116629100D01*
X158704420Y-116629100D01*
X158627293Y-116621504D01*
X158550164Y-116613907D01*
X158418213Y-116573880D01*
X158352237Y-116553867D01*
X158169828Y-116456367D01*
X158009946Y-116325154D01*
X157878733Y-116165272D01*
X157781233Y-115982863D01*
X157761220Y-115916887D01*
X157721193Y-115784936D01*
X157700920Y-115579100D01*
X157721193Y-115373264D01*
X157781233Y-115175338D01*
X157781233Y-115175337D01*
X157878733Y-114992928D01*
X158009946Y-114833046D01*
X158169828Y-114701833D01*
X158352237Y-114604333D01*
X158418213Y-114584320D01*
X158550164Y-114544293D01*
X158627293Y-114536696D01*
X158704420Y-114529100D01*
X158807580Y-114529100D01*
X158884707Y-114536696D01*
X158884707Y-114536696D01*
G37*
G36*
X143644707Y-114536696D02*
X143721836Y-114544293D01*
X143853787Y-114584320D01*
X143919763Y-114604333D01*
X144102172Y-114701833D01*
X144262054Y-114833046D01*
X144393267Y-114992928D01*
X144490767Y-115175337D01*
X144490767Y-115175338D01*
X144550807Y-115373264D01*
X144571080Y-115579100D01*
X144550807Y-115784936D01*
X144510780Y-115916887D01*
X144490767Y-115982863D01*
X144393267Y-116165272D01*
X144262054Y-116325154D01*
X144102172Y-116456367D01*
X143919763Y-116553867D01*
X143853787Y-116573880D01*
X143721836Y-116613907D01*
X143644707Y-116621504D01*
X143567580Y-116629100D01*
X143464420Y-116629100D01*
X143387293Y-116621504D01*
X143310164Y-116613907D01*
X143178213Y-116573880D01*
X143112237Y-116553867D01*
X142929828Y-116456367D01*
X142769946Y-116325154D01*
X142638733Y-116165272D01*
X142541233Y-115982863D01*
X142521220Y-115916887D01*
X142481193Y-115784936D01*
X142460920Y-115579100D01*
X142481193Y-115373264D01*
X142541233Y-115175338D01*
X142541233Y-115175337D01*
X142638733Y-114992928D01*
X142769946Y-114833046D01*
X142929828Y-114701833D01*
X143112237Y-114604333D01*
X143178213Y-114584320D01*
X143310164Y-114544293D01*
X143387293Y-114536696D01*
X143464420Y-114529100D01*
X143567580Y-114529100D01*
X143644707Y-114536696D01*
X143644707Y-114536696D01*
G37*
G36*
X151681000Y-116279100D02*
X148131000Y-116279100D01*
X148131000Y-114879100D01*
X151681000Y-114879100D01*
X151681000Y-116279100D01*
X151681000Y-116279100D01*
G37*
G36*
X156731000Y-116279100D02*
X153181000Y-116279100D01*
X153181000Y-114879100D01*
X156731000Y-114879100D01*
X156731000Y-116279100D01*
X156731000Y-116279100D01*
G37*
G36*
X143644707Y-111996697D02*
X143721836Y-112004293D01*
X143853787Y-112044320D01*
X143919763Y-112064333D01*
X144102172Y-112161833D01*
X144262054Y-112293046D01*
X144393267Y-112452928D01*
X144490767Y-112635337D01*
X144490767Y-112635338D01*
X144550807Y-112833264D01*
X144571080Y-113039100D01*
X144550807Y-113244936D01*
X144510780Y-113376887D01*
X144490767Y-113442863D01*
X144393267Y-113625272D01*
X144262054Y-113785154D01*
X144102172Y-113916367D01*
X143919763Y-114013867D01*
X143853787Y-114033880D01*
X143721836Y-114073907D01*
X143644707Y-114081504D01*
X143567580Y-114089100D01*
X143464420Y-114089100D01*
X143387293Y-114081504D01*
X143310164Y-114073907D01*
X143178213Y-114033880D01*
X143112237Y-114013867D01*
X142929828Y-113916367D01*
X142769946Y-113785154D01*
X142638733Y-113625272D01*
X142541233Y-113442863D01*
X142521220Y-113376887D01*
X142481193Y-113244936D01*
X142460920Y-113039100D01*
X142481193Y-112833264D01*
X142541233Y-112635338D01*
X142541233Y-112635337D01*
X142638733Y-112452928D01*
X142769946Y-112293046D01*
X142929828Y-112161833D01*
X143112237Y-112064333D01*
X143178213Y-112044320D01*
X143310164Y-112004293D01*
X143387293Y-111996697D01*
X143464420Y-111989100D01*
X143567580Y-111989100D01*
X143644707Y-111996697D01*
X143644707Y-111996697D01*
G37*
G36*
X158884707Y-111996697D02*
X158961836Y-112004293D01*
X159093787Y-112044320D01*
X159159763Y-112064333D01*
X159342172Y-112161833D01*
X159502054Y-112293046D01*
X159633267Y-112452928D01*
X159730767Y-112635337D01*
X159730767Y-112635338D01*
X159790807Y-112833264D01*
X159811080Y-113039100D01*
X159790807Y-113244936D01*
X159750780Y-113376887D01*
X159730767Y-113442863D01*
X159633267Y-113625272D01*
X159502054Y-113785154D01*
X159342172Y-113916367D01*
X159159763Y-114013867D01*
X159093787Y-114033880D01*
X158961836Y-114073907D01*
X158884707Y-114081504D01*
X158807580Y-114089100D01*
X158704420Y-114089100D01*
X158627293Y-114081504D01*
X158550164Y-114073907D01*
X158418213Y-114033880D01*
X158352237Y-114013867D01*
X158169828Y-113916367D01*
X158009946Y-113785154D01*
X157878733Y-113625272D01*
X157781233Y-113442863D01*
X157761220Y-113376887D01*
X157721193Y-113244936D01*
X157700920Y-113039100D01*
X157721193Y-112833264D01*
X157781233Y-112635338D01*
X157781233Y-112635337D01*
X157878733Y-112452928D01*
X158009946Y-112293046D01*
X158169828Y-112161833D01*
X158352237Y-112064333D01*
X158418213Y-112044320D01*
X158550164Y-112004293D01*
X158627293Y-111996697D01*
X158704420Y-111989100D01*
X158807580Y-111989100D01*
X158884707Y-111996697D01*
X158884707Y-111996697D01*
G37*
G36*
X156731000Y-113739100D02*
X153181000Y-113739100D01*
X153181000Y-112339100D01*
X156731000Y-112339100D01*
X156731000Y-113739100D01*
X156731000Y-113739100D01*
G37*
G36*
X151681000Y-113739100D02*
X148131000Y-113739100D01*
X148131000Y-112339100D01*
X151681000Y-112339100D01*
X151681000Y-113739100D01*
X151681000Y-113739100D01*
G37*
G36*
X143644707Y-109456697D02*
X143721836Y-109464293D01*
X143853787Y-109504320D01*
X143919763Y-109524333D01*
X144102172Y-109621833D01*
X144262054Y-109753046D01*
X144393267Y-109912928D01*
X144490767Y-110095337D01*
X144490767Y-110095338D01*
X144550807Y-110293264D01*
X144571080Y-110499100D01*
X144550807Y-110704936D01*
X144529188Y-110776205D01*
X144490767Y-110902863D01*
X144393267Y-111085272D01*
X144262054Y-111245154D01*
X144102172Y-111376367D01*
X143919763Y-111473867D01*
X143853787Y-111493880D01*
X143721836Y-111533907D01*
X143644707Y-111541504D01*
X143567580Y-111549100D01*
X143464420Y-111549100D01*
X143387293Y-111541504D01*
X143310164Y-111533907D01*
X143178213Y-111493880D01*
X143112237Y-111473867D01*
X142929828Y-111376367D01*
X142769946Y-111245154D01*
X142638733Y-111085272D01*
X142541233Y-110902863D01*
X142502812Y-110776205D01*
X142481193Y-110704936D01*
X142460920Y-110499100D01*
X142481193Y-110293264D01*
X142541233Y-110095338D01*
X142541233Y-110095337D01*
X142638733Y-109912928D01*
X142769946Y-109753046D01*
X142929828Y-109621833D01*
X143112237Y-109524333D01*
X143178213Y-109504320D01*
X143310164Y-109464293D01*
X143387293Y-109456697D01*
X143464420Y-109449100D01*
X143567580Y-109449100D01*
X143644707Y-109456697D01*
X143644707Y-109456697D01*
G37*
G36*
X158884707Y-109456697D02*
X158961836Y-109464293D01*
X159093787Y-109504320D01*
X159159763Y-109524333D01*
X159342172Y-109621833D01*
X159502054Y-109753046D01*
X159633267Y-109912928D01*
X159730767Y-110095337D01*
X159730767Y-110095338D01*
X159790807Y-110293264D01*
X159811080Y-110499100D01*
X159790807Y-110704936D01*
X159769188Y-110776205D01*
X159730767Y-110902863D01*
X159633267Y-111085272D01*
X159502054Y-111245154D01*
X159342172Y-111376367D01*
X159159763Y-111473867D01*
X159093787Y-111493880D01*
X158961836Y-111533907D01*
X158884707Y-111541504D01*
X158807580Y-111549100D01*
X158704420Y-111549100D01*
X158627293Y-111541504D01*
X158550164Y-111533907D01*
X158418213Y-111493880D01*
X158352237Y-111473867D01*
X158169828Y-111376367D01*
X158009946Y-111245154D01*
X157878733Y-111085272D01*
X157781233Y-110902863D01*
X157742812Y-110776205D01*
X157721193Y-110704936D01*
X157700920Y-110499100D01*
X157721193Y-110293264D01*
X157781233Y-110095338D01*
X157781233Y-110095337D01*
X157878733Y-109912928D01*
X158009946Y-109753046D01*
X158169828Y-109621833D01*
X158352237Y-109524333D01*
X158418213Y-109504320D01*
X158550164Y-109464293D01*
X158627293Y-109456697D01*
X158704420Y-109449100D01*
X158807580Y-109449100D01*
X158884707Y-109456697D01*
X158884707Y-109456697D01*
G37*
G36*
X156101451Y-109558227D02*
X156239105Y-109585608D01*
X156411994Y-109657221D01*
X156567590Y-109761187D01*
X156699913Y-109893510D01*
X156803879Y-110049106D01*
X156875492Y-110221995D01*
X156912000Y-110405533D01*
X156912000Y-110592667D01*
X156875492Y-110776205D01*
X156803879Y-110949094D01*
X156699913Y-111104690D01*
X156567590Y-111237013D01*
X156411994Y-111340979D01*
X156239105Y-111412592D01*
X156101452Y-111439973D01*
X156055568Y-111449100D01*
X155868432Y-111449100D01*
X155822548Y-111439973D01*
X155684895Y-111412592D01*
X155512006Y-111340979D01*
X155356410Y-111237013D01*
X155224087Y-111104690D01*
X155120121Y-110949094D01*
X155048508Y-110776205D01*
X155012000Y-110592667D01*
X155012000Y-110405533D01*
X155048508Y-110221995D01*
X155120121Y-110049106D01*
X155224087Y-109893510D01*
X155356410Y-109761187D01*
X155512006Y-109657221D01*
X155684895Y-109585608D01*
X155822549Y-109558227D01*
X155868432Y-109549100D01*
X156055568Y-109549100D01*
X156101451Y-109558227D01*
X156101451Y-109558227D01*
G37*
G36*
X143644707Y-106916696D02*
X143721836Y-106924293D01*
X143853787Y-106964320D01*
X143919763Y-106984333D01*
X144102172Y-107081833D01*
X144262054Y-107213046D01*
X144393267Y-107372928D01*
X144490767Y-107555337D01*
X144490767Y-107555338D01*
X144550807Y-107753264D01*
X144571080Y-107959100D01*
X144550807Y-108164936D01*
X144510780Y-108296887D01*
X144490767Y-108362863D01*
X144393267Y-108545272D01*
X144262054Y-108705154D01*
X144102172Y-108836367D01*
X143919763Y-108933867D01*
X143853787Y-108953880D01*
X143721836Y-108993907D01*
X143644707Y-109001504D01*
X143567580Y-109009100D01*
X143464420Y-109009100D01*
X143387293Y-109001504D01*
X143310164Y-108993907D01*
X143178213Y-108953880D01*
X143112237Y-108933867D01*
X142929828Y-108836367D01*
X142769946Y-108705154D01*
X142638733Y-108545272D01*
X142541233Y-108362863D01*
X142521220Y-108296887D01*
X142481193Y-108164936D01*
X142460920Y-107959100D01*
X142481193Y-107753264D01*
X142541233Y-107555338D01*
X142541233Y-107555337D01*
X142638733Y-107372928D01*
X142769946Y-107213046D01*
X142929828Y-107081833D01*
X143112237Y-106984333D01*
X143178213Y-106964320D01*
X143310164Y-106924293D01*
X143387293Y-106916696D01*
X143464420Y-106909100D01*
X143567580Y-106909100D01*
X143644707Y-106916696D01*
X143644707Y-106916696D01*
G37*
G36*
X158884707Y-106916696D02*
X158961836Y-106924293D01*
X159093787Y-106964320D01*
X159159763Y-106984333D01*
X159342172Y-107081833D01*
X159502054Y-107213046D01*
X159633267Y-107372928D01*
X159730767Y-107555337D01*
X159730767Y-107555338D01*
X159790807Y-107753264D01*
X159811080Y-107959100D01*
X159790807Y-108164936D01*
X159750780Y-108296887D01*
X159730767Y-108362863D01*
X159633267Y-108545272D01*
X159502054Y-108705154D01*
X159342172Y-108836367D01*
X159159763Y-108933867D01*
X159093787Y-108953880D01*
X158961836Y-108993907D01*
X158884707Y-109001504D01*
X158807580Y-109009100D01*
X158704420Y-109009100D01*
X158627293Y-109001504D01*
X158550164Y-108993907D01*
X158418213Y-108953880D01*
X158352237Y-108933867D01*
X158169828Y-108836367D01*
X158009946Y-108705154D01*
X157878733Y-108545272D01*
X157781233Y-108362863D01*
X157761220Y-108296887D01*
X157721193Y-108164936D01*
X157700920Y-107959100D01*
X157721193Y-107753264D01*
X157781233Y-107555338D01*
X157781233Y-107555337D01*
X157878733Y-107372928D01*
X158009946Y-107213046D01*
X158169828Y-107081833D01*
X158352237Y-106984333D01*
X158418213Y-106964320D01*
X158550164Y-106924293D01*
X158627293Y-106916696D01*
X158704420Y-106909100D01*
X158807580Y-106909100D01*
X158884707Y-106916696D01*
X158884707Y-106916696D01*
G37*
G36*
X143644707Y-104376697D02*
X143721836Y-104384293D01*
X143853787Y-104424320D01*
X143919763Y-104444333D01*
X144102172Y-104541833D01*
X144262054Y-104673046D01*
X144393267Y-104832928D01*
X144490767Y-105015337D01*
X144490767Y-105015338D01*
X144550807Y-105213264D01*
X144571080Y-105419100D01*
X144550807Y-105624936D01*
X144510780Y-105756887D01*
X144490767Y-105822863D01*
X144393267Y-106005272D01*
X144262054Y-106165154D01*
X144102172Y-106296367D01*
X143919763Y-106393867D01*
X143853787Y-106413880D01*
X143721836Y-106453907D01*
X143644707Y-106461503D01*
X143567580Y-106469100D01*
X143464420Y-106469100D01*
X143387293Y-106461503D01*
X143310164Y-106453907D01*
X143178213Y-106413880D01*
X143112237Y-106393867D01*
X142929828Y-106296367D01*
X142769946Y-106165154D01*
X142638733Y-106005272D01*
X142541233Y-105822863D01*
X142521220Y-105756887D01*
X142481193Y-105624936D01*
X142460920Y-105419100D01*
X142481193Y-105213264D01*
X142541233Y-105015338D01*
X142541233Y-105015337D01*
X142638733Y-104832928D01*
X142769946Y-104673046D01*
X142929828Y-104541833D01*
X143112237Y-104444333D01*
X143178213Y-104424320D01*
X143310164Y-104384293D01*
X143387293Y-104376697D01*
X143464420Y-104369100D01*
X143567580Y-104369100D01*
X143644707Y-104376697D01*
X143644707Y-104376697D01*
G37*
G36*
X158884707Y-104376697D02*
X158961836Y-104384293D01*
X159093787Y-104424320D01*
X159159763Y-104444333D01*
X159342172Y-104541833D01*
X159502054Y-104673046D01*
X159633267Y-104832928D01*
X159730767Y-105015337D01*
X159730767Y-105015338D01*
X159790807Y-105213264D01*
X159811080Y-105419100D01*
X159790807Y-105624936D01*
X159750780Y-105756887D01*
X159730767Y-105822863D01*
X159633267Y-106005272D01*
X159502054Y-106165154D01*
X159342172Y-106296367D01*
X159159763Y-106393867D01*
X159093787Y-106413880D01*
X158961836Y-106453907D01*
X158884707Y-106461503D01*
X158807580Y-106469100D01*
X158704420Y-106469100D01*
X158627293Y-106461503D01*
X158550164Y-106453907D01*
X158418213Y-106413880D01*
X158352237Y-106393867D01*
X158169828Y-106296367D01*
X158009946Y-106165154D01*
X157878733Y-106005272D01*
X157781233Y-105822863D01*
X157761220Y-105756887D01*
X157721193Y-105624936D01*
X157700920Y-105419100D01*
X157721193Y-105213264D01*
X157781233Y-105015338D01*
X157781233Y-105015337D01*
X157878733Y-104832928D01*
X158009946Y-104673046D01*
X158169828Y-104541833D01*
X158352237Y-104444333D01*
X158418213Y-104424320D01*
X158550164Y-104384293D01*
X158627293Y-104376697D01*
X158704420Y-104369100D01*
X158807580Y-104369100D01*
X158884707Y-104376697D01*
X158884707Y-104376697D01*
G37*
G36*
X154151000Y-106119100D02*
X150601000Y-106119100D01*
X150601000Y-104719100D01*
X154151000Y-104719100D01*
X154151000Y-106119100D01*
X154151000Y-106119100D01*
G37*
G36*
X149101000Y-106119100D02*
X145551000Y-106119100D01*
X145551000Y-104719100D01*
X149101000Y-104719100D01*
X149101000Y-106119100D01*
X149101000Y-106119100D01*
G37*
G36*
X158884707Y-101836697D02*
X158961836Y-101844293D01*
X159093787Y-101884320D01*
X159159763Y-101904333D01*
X159342172Y-102001833D01*
X159502054Y-102133046D01*
X159633267Y-102292928D01*
X159730767Y-102475337D01*
X159730767Y-102475338D01*
X159790807Y-102673264D01*
X159811080Y-102879100D01*
X159790807Y-103084936D01*
X159750780Y-103216887D01*
X159730767Y-103282863D01*
X159633267Y-103465272D01*
X159502054Y-103625154D01*
X159342172Y-103756367D01*
X159159763Y-103853867D01*
X159093787Y-103873880D01*
X158961836Y-103913907D01*
X158884707Y-103921504D01*
X158807580Y-103929100D01*
X158704420Y-103929100D01*
X158627293Y-103921504D01*
X158550164Y-103913907D01*
X158418213Y-103873880D01*
X158352237Y-103853867D01*
X158169828Y-103756367D01*
X158009946Y-103625154D01*
X157878733Y-103465272D01*
X157781233Y-103282863D01*
X157761220Y-103216887D01*
X157721193Y-103084936D01*
X157700920Y-102879100D01*
X157721193Y-102673264D01*
X157781233Y-102475338D01*
X157781233Y-102475337D01*
X157878733Y-102292928D01*
X158009946Y-102133046D01*
X158169828Y-102001833D01*
X158352237Y-101904333D01*
X158418213Y-101884320D01*
X158550164Y-101844293D01*
X158627293Y-101836697D01*
X158704420Y-101829100D01*
X158807580Y-101829100D01*
X158884707Y-101836697D01*
X158884707Y-101836697D01*
G37*
G36*
X143644707Y-101836697D02*
X143721836Y-101844293D01*
X143853787Y-101884320D01*
X143919763Y-101904333D01*
X144102172Y-102001833D01*
X144262054Y-102133046D01*
X144393267Y-102292928D01*
X144490767Y-102475337D01*
X144490767Y-102475338D01*
X144550807Y-102673264D01*
X144571080Y-102879100D01*
X144550807Y-103084936D01*
X144510780Y-103216887D01*
X144490767Y-103282863D01*
X144393267Y-103465272D01*
X144262054Y-103625154D01*
X144102172Y-103756367D01*
X143919763Y-103853867D01*
X143853787Y-103873880D01*
X143721836Y-103913907D01*
X143644707Y-103921504D01*
X143567580Y-103929100D01*
X143464420Y-103929100D01*
X143387293Y-103921504D01*
X143310164Y-103913907D01*
X143178213Y-103873880D01*
X143112237Y-103853867D01*
X142929828Y-103756367D01*
X142769946Y-103625154D01*
X142638733Y-103465272D01*
X142541233Y-103282863D01*
X142521220Y-103216887D01*
X142481193Y-103084936D01*
X142460920Y-102879100D01*
X142481193Y-102673264D01*
X142541233Y-102475338D01*
X142541233Y-102475337D01*
X142638733Y-102292928D01*
X142769946Y-102133046D01*
X142929828Y-102001833D01*
X143112237Y-101904333D01*
X143178213Y-101884320D01*
X143310164Y-101844293D01*
X143387293Y-101836697D01*
X143464420Y-101829100D01*
X143567580Y-101829100D01*
X143644707Y-101836697D01*
X143644707Y-101836697D01*
G37*
G36*
X154151000Y-103579100D02*
X150601000Y-103579100D01*
X150601000Y-102179100D01*
X154151000Y-102179100D01*
X154151000Y-103579100D01*
X154151000Y-103579100D01*
G37*
G36*
X149101000Y-103579100D02*
X145551000Y-103579100D01*
X145551000Y-102179100D01*
X149101000Y-102179100D01*
X149101000Y-103579100D01*
X149101000Y-103579100D01*
G37*
G36*
X158884707Y-99296697D02*
X158961836Y-99304293D01*
X159093787Y-99344320D01*
X159159763Y-99364333D01*
X159342172Y-99461833D01*
X159502054Y-99593046D01*
X159633267Y-99752928D01*
X159730767Y-99935337D01*
X159730767Y-99935338D01*
X159790807Y-100133264D01*
X159811080Y-100339100D01*
X159790807Y-100544936D01*
X159750780Y-100676887D01*
X159730767Y-100742863D01*
X159633267Y-100925272D01*
X159502054Y-101085154D01*
X159342172Y-101216367D01*
X159159763Y-101313867D01*
X159093787Y-101333880D01*
X158961836Y-101373907D01*
X158884707Y-101381504D01*
X158807580Y-101389100D01*
X158704420Y-101389100D01*
X158627293Y-101381503D01*
X158550164Y-101373907D01*
X158418213Y-101333880D01*
X158352237Y-101313867D01*
X158169828Y-101216367D01*
X158009946Y-101085154D01*
X157878733Y-100925272D01*
X157781233Y-100742863D01*
X157761220Y-100676887D01*
X157721193Y-100544936D01*
X157700920Y-100339100D01*
X157721193Y-100133264D01*
X157781233Y-99935338D01*
X157781233Y-99935337D01*
X157878733Y-99752928D01*
X158009946Y-99593046D01*
X158169828Y-99461833D01*
X158352237Y-99364333D01*
X158418213Y-99344320D01*
X158550164Y-99304293D01*
X158627293Y-99296697D01*
X158704420Y-99289100D01*
X158807580Y-99289100D01*
X158884707Y-99296697D01*
X158884707Y-99296697D01*
G37*
G36*
X143644707Y-99296697D02*
X143721836Y-99304293D01*
X143853787Y-99344320D01*
X143919763Y-99364333D01*
X144102172Y-99461833D01*
X144262054Y-99593046D01*
X144393267Y-99752928D01*
X144490767Y-99935337D01*
X144490767Y-99935338D01*
X144550807Y-100133264D01*
X144571080Y-100339100D01*
X144550807Y-100544936D01*
X144510780Y-100676887D01*
X144490767Y-100742863D01*
X144393267Y-100925272D01*
X144262054Y-101085154D01*
X144102172Y-101216367D01*
X143919763Y-101313867D01*
X143853787Y-101333880D01*
X143721836Y-101373907D01*
X143644707Y-101381504D01*
X143567580Y-101389100D01*
X143464420Y-101389100D01*
X143387293Y-101381503D01*
X143310164Y-101373907D01*
X143178213Y-101333880D01*
X143112237Y-101313867D01*
X142929828Y-101216367D01*
X142769946Y-101085154D01*
X142638733Y-100925272D01*
X142541233Y-100742863D01*
X142521220Y-100676887D01*
X142481193Y-100544936D01*
X142460920Y-100339100D01*
X142481193Y-100133264D01*
X142541233Y-99935338D01*
X142541233Y-99935337D01*
X142638733Y-99752928D01*
X142769946Y-99593046D01*
X142929828Y-99461833D01*
X143112237Y-99364333D01*
X143178213Y-99344320D01*
X143310164Y-99304293D01*
X143387293Y-99296697D01*
X143464420Y-99289100D01*
X143567580Y-99289100D01*
X143644707Y-99296697D01*
X143644707Y-99296697D01*
G37*
G36*
X149101000Y-101039100D02*
X145551000Y-101039100D01*
X145551000Y-99639100D01*
X149101000Y-99639100D01*
X149101000Y-101039100D01*
X149101000Y-101039100D01*
G37*
G36*
X154151000Y-101039100D02*
X150601000Y-101039100D01*
X150601000Y-99639100D01*
X154151000Y-99639100D01*
X154151000Y-101039100D01*
X154151000Y-101039100D01*
G37*
G36*
X144566000Y-98849100D02*
X142466000Y-98849100D01*
X142466000Y-96749100D01*
X144566000Y-96749100D01*
X144566000Y-98849100D01*
X144566000Y-98849100D01*
G37*
G36*
X158881888Y-96753570D02*
X159062274Y-96789450D01*
X159253362Y-96868602D01*
X159425336Y-96983511D01*
X159571589Y-97129764D01*
X159686498Y-97301738D01*
X159765650Y-97492826D01*
X159806000Y-97695684D01*
X159806000Y-97902516D01*
X159765650Y-98105374D01*
X159686498Y-98296462D01*
X159571589Y-98468436D01*
X159425336Y-98614689D01*
X159253362Y-98729598D01*
X159062274Y-98808750D01*
X158881888Y-98844630D01*
X158859417Y-98849100D01*
X158652583Y-98849100D01*
X158630112Y-98844630D01*
X158449726Y-98808750D01*
X158258638Y-98729598D01*
X158086664Y-98614689D01*
X157940411Y-98468436D01*
X157825502Y-98296462D01*
X157746350Y-98105374D01*
X157706000Y-97902516D01*
X157706000Y-97695684D01*
X157746350Y-97492826D01*
X157825502Y-97301738D01*
X157940411Y-97129764D01*
X158086664Y-96983511D01*
X158258638Y-96868602D01*
X158449726Y-96789450D01*
X158630112Y-96753570D01*
X158652583Y-96749100D01*
X158859417Y-96749100D01*
X158881888Y-96753570D01*
X158881888Y-96753570D01*
G37*
M02*
