G04 #@! TF.GenerationSoftware,KiCad,Pcbnew,(5.0.1-3-g963ef8bb5)*
G04 #@! TF.CreationDate,2018-11-17T18:26:42+01:00*
G04 #@! TF.ProjectId,TinyFPGA-UP,54696E79465047412D55502E6B696361,A*
G04 #@! TF.SameCoordinates,Original*
G04 #@! TF.FileFunction,Copper,L3,Inr,Signal*
G04 #@! TF.FilePolarity,Positive*
%FSLAX46Y46*%
G04 Gerber Fmt 4.6, Leading zero omitted, Abs format (unit mm)*
G04 Created by KiCad (PCBNEW (5.0.1-3-g963ef8bb5)) date Saturday, 17 November 2018 at 18:26:42*
%MOMM*%
%LPD*%
G01*
G04 APERTURE LIST*
G04 #@! TA.AperFunction,ViaPad*
%ADD10O,1.700000X1.700000*%
G04 #@! TD*
G04 #@! TA.AperFunction,ViaPad*
%ADD11R,1.700000X1.700000*%
G04 #@! TD*
G04 #@! TA.AperFunction,ViaPad*
%ADD12C,1.700000*%
G04 #@! TD*
G04 #@! TA.AperFunction,ViaPad*
%ADD13C,0.508000*%
G04 #@! TD*
G04 #@! TA.AperFunction,Conductor*
%ADD14C,0.304800*%
G04 #@! TD*
G04 #@! TA.AperFunction,Conductor*
%ADD15C,0.152400*%
G04 #@! TD*
G04 #@! TA.AperFunction,Conductor*
%ADD16C,0.254000*%
G04 #@! TD*
G04 APERTURE END LIST*
D10*
G04 #@! TO.N,31B*
G04 #@! TO.C,J1*
X143516000Y-130819100D03*
G04 #@! TO.N,29B*
X143516000Y-128279100D03*
G04 #@! TO.N,25B*
X143516000Y-125739100D03*
G04 #@! TO.N,18A*
X143516000Y-123199100D03*
G04 #@! TO.N,16A*
X143516000Y-120659100D03*
G04 #@! TO.N,13B*
X143516000Y-118119100D03*
G04 #@! TO.N,8A*
X143516000Y-115579100D03*
G04 #@! TO.N,9B*
X143516000Y-113039100D03*
G04 #@! TO.N,6A*
X143516000Y-110499100D03*
G04 #@! TO.N,4A*
X143516000Y-107959100D03*
G04 #@! TO.N,2A*
X143516000Y-105419100D03*
G04 #@! TO.N,0A*
X143516000Y-102879100D03*
G04 #@! TO.N,5B*
X143516000Y-100339100D03*
D11*
G04 #@! TO.N,GND*
X143516000Y-97799100D03*
G04 #@! TD*
D10*
G04 #@! TO.N,23B*
G04 #@! TO.C,J2*
X158756000Y-130819100D03*
G04 #@! TO.N,37A*
X158756000Y-128279100D03*
G04 #@! TO.N,36B*
X158756000Y-125739100D03*
G04 #@! TO.N,39A*
X158756000Y-123199100D03*
G04 #@! TO.N,38B*
X158756000Y-120659100D03*
G04 #@! TO.N,41A*
X158756000Y-118119100D03*
G04 #@! TO.N,42B*
X158756000Y-115579100D03*
G04 #@! TO.N,43A*
X158756000Y-113039100D03*
G04 #@! TO.N,44B*
X158756000Y-110499100D03*
G04 #@! TO.N,48B*
X158756000Y-107959100D03*
G04 #@! TO.N,45A*
X158756000Y-105419100D03*
G04 #@! TO.N,+3V3*
X158756000Y-102879100D03*
G04 #@! TO.N,GND*
X158756000Y-100339100D03*
D12*
G04 #@! TO.N,+5V*
X158756000Y-97799100D03*
G04 #@! TD*
D13*
G04 #@! TO.N,GND*
X149000000Y-114400000D03*
X151200000Y-114400000D03*
X153200000Y-116600000D03*
X151200000Y-116600000D03*
X149000000Y-116600000D03*
X153200000Y-129600000D03*
X155922418Y-104922418D03*
X157000000Y-105600000D03*
X153600000Y-106800000D03*
X155700000Y-121600000D03*
X149236836Y-104669338D03*
X152099999Y-107810300D03*
X154909089Y-126741122D03*
X149906000Y-115579100D03*
X145880000Y-106980000D03*
X152150000Y-124100000D03*
X155112736Y-111312637D03*
X145000000Y-131250000D03*
X150760216Y-122292594D03*
X157749990Y-117250010D03*
X157968509Y-111728257D03*
X145731257Y-113625166D03*
X145300000Y-117249986D03*
X146091928Y-119651156D03*
X146867390Y-126340000D03*
X156500000Y-97750000D03*
X145750000Y-97750000D03*
X156500000Y-98500000D03*
X145750000Y-98500000D03*
G04 #@! TO.N,+3V3*
X149750000Y-107250000D03*
X152500000Y-107250000D03*
X156600000Y-121637500D03*
X152946747Y-120902552D03*
X156997400Y-127952500D03*
X147543418Y-128198451D03*
X155500011Y-115117474D03*
X150498056Y-109330025D03*
X146700000Y-113700000D03*
X147488039Y-121117390D03*
G04 #@! TO.N,SCK*
X152260487Y-126617490D03*
G04 #@! TO.N,SDI*
X152550000Y-125400000D03*
G04 #@! TO.N,SDO*
X148400000Y-121600000D03*
G04 #@! TO.N,SS*
X151000000Y-128300000D03*
G04 #@! TO.N,CLK*
X156450000Y-111850000D03*
X150500638Y-110015122D03*
G04 #@! TO.N,LED*
X147326000Y-102879100D03*
X146388464Y-118999827D03*
G04 #@! TO.N,USB_PU*
X149199998Y-103950000D03*
X150500408Y-108669618D03*
X152500000Y-110034789D03*
G04 #@! TO.N,USB_P*
X150237693Y-103955178D03*
G04 #@! TO.N,USB_N*
X151854423Y-103963063D03*
G04 #@! TO.N,3B*
X151900000Y-106600000D03*
X150382755Y-111688613D03*
X151771309Y-110754876D03*
G04 #@! TO.N,22A*
X146745374Y-119555488D03*
G04 #@! TO.N,CRESET_B*
X147907798Y-128930402D03*
X146716721Y-117650764D03*
G04 #@! TO.N,24A*
X147249999Y-120150000D03*
G04 #@! TO.N,+1V2*
X155945693Y-110482793D03*
X145900000Y-115200000D03*
X155580010Y-116850000D03*
X157850000Y-116489576D03*
G04 #@! TO.N,CDONE*
X145450000Y-101500004D03*
X144860000Y-118602610D03*
G04 #@! TO.N,31B*
X151312722Y-121794290D03*
X145600000Y-128100000D03*
G04 #@! TO.N,29B*
X152189597Y-121543563D03*
X145600000Y-127100000D03*
G04 #@! TO.N,RGB0*
X154000000Y-126992390D03*
X152450000Y-111020000D03*
G04 #@! TO.N,RGB1*
X153339947Y-127024981D03*
X152270000Y-111920000D03*
G04 #@! TO.N,RGB2*
X152840722Y-127514797D03*
X151782112Y-111415199D03*
G04 #@! TO.N,HOLD*
X154993449Y-123185640D03*
X149655943Y-124644057D03*
G04 #@! TO.N,WP*
X147117421Y-122275000D03*
X152243541Y-123172690D03*
X146310026Y-129550002D03*
G04 #@! TO.N,25B*
X151887737Y-120955996D03*
X145456288Y-125656298D03*
G04 #@! TD*
D14*
G04 #@! TO.N,+3V3*
X148878575Y-128198451D02*
X147902628Y-128198451D01*
X152946747Y-124130279D02*
X148878575Y-128198451D01*
X152946747Y-120902552D02*
X152946747Y-124130279D01*
X147902628Y-128198451D02*
X147543418Y-128198451D01*
X147742038Y-120863391D02*
X147488039Y-121117390D01*
X148208234Y-120397195D02*
X147742038Y-120863391D01*
X152441390Y-120397195D02*
X148208234Y-120397195D01*
X152946747Y-120902552D02*
X152441390Y-120397195D01*
D15*
G04 #@! TO.N,31B*
X150505710Y-121794290D02*
X150953512Y-121794290D01*
X146387413Y-126257906D02*
X146387413Y-125912587D01*
X146384789Y-127315211D02*
X146384789Y-126260530D01*
X146384789Y-126260530D02*
X146387413Y-126257906D01*
X145600000Y-128100000D02*
X146384789Y-127315211D01*
X146387413Y-125912587D02*
X150505710Y-121794290D01*
X150953512Y-121794290D02*
X151312722Y-121794290D01*
G04 #@! TO.N,29B*
X150483411Y-121311689D02*
X145600000Y-126195100D01*
X151529180Y-121311689D02*
X150483411Y-121311689D01*
X145600000Y-126195100D02*
X145600000Y-126740790D01*
X145600000Y-126740790D02*
X145600000Y-127100000D01*
X151761054Y-121543563D02*
X151529180Y-121311689D01*
X152189597Y-121543563D02*
X151761054Y-121543563D01*
G04 #@! TO.N,RGB0*
X152450000Y-111020000D02*
X152756579Y-111326579D01*
X154489622Y-114639622D02*
X154489622Y-125872512D01*
X152756579Y-112906579D02*
X154489622Y-114639622D01*
X152756579Y-111326579D02*
X152756579Y-112906579D01*
X154489622Y-125872512D02*
X154000000Y-126362133D01*
X154000000Y-126362133D02*
X154000000Y-126992390D01*
G04 #@! TO.N,RGB1*
X153339947Y-127024981D02*
X153339947Y-126591119D01*
X154184811Y-125746256D02*
X154184811Y-114815877D01*
X153339947Y-126591119D02*
X154184811Y-125746256D01*
X154184811Y-114815877D02*
X152270000Y-112901066D01*
X152270000Y-112901066D02*
X152270000Y-111880001D01*
G04 #@! TO.N,RGB2*
X151782112Y-111774409D02*
X151782112Y-111415199D01*
X152840722Y-127514797D02*
X152840722Y-126659278D01*
X153880000Y-125620000D02*
X153880000Y-114942133D01*
X152840722Y-126659278D02*
X153880000Y-125620000D01*
X153880000Y-114942133D02*
X151782112Y-112844245D01*
X151782112Y-112844245D02*
X151782112Y-111774409D01*
G04 #@! TO.N,25B*
X143516000Y-125739100D02*
X143576900Y-125800000D01*
X150344004Y-120955996D02*
X145897701Y-125402299D01*
X145897701Y-125402299D02*
X145710287Y-125402299D01*
X151887737Y-120955996D02*
X150344004Y-120955996D01*
X145710287Y-125402299D02*
X145456288Y-125656298D01*
G04 #@! TD*
D16*
G04 #@! TO.N,+3V3*
G36*
X155746342Y-97246422D02*
X155611000Y-97573167D01*
X155611000Y-97926833D01*
X155693083Y-98125000D01*
X155611000Y-98323167D01*
X155611000Y-98676833D01*
X155746342Y-99003578D01*
X155996422Y-99253658D01*
X156323167Y-99389000D01*
X156676833Y-99389000D01*
X157003578Y-99253658D01*
X157253658Y-99003578D01*
X157389000Y-98676833D01*
X157389000Y-98379362D01*
X157497078Y-98640285D01*
X157914815Y-99058022D01*
X157967611Y-99079891D01*
X157685375Y-99268475D01*
X157357161Y-99759682D01*
X157241908Y-100339100D01*
X157357161Y-100918518D01*
X157685375Y-101409725D01*
X158004478Y-101622943D01*
X157874642Y-101683917D01*
X157484355Y-102112176D01*
X157314524Y-102522210D01*
X157435845Y-102752100D01*
X158629000Y-102752100D01*
X158629000Y-102732100D01*
X158883000Y-102732100D01*
X158883000Y-102752100D01*
X158903000Y-102752100D01*
X158903000Y-103006100D01*
X158883000Y-103006100D01*
X158883000Y-103026100D01*
X158629000Y-103026100D01*
X158629000Y-103006100D01*
X157435845Y-103006100D01*
X157314524Y-103235990D01*
X157484355Y-103646024D01*
X157874642Y-104074283D01*
X158004478Y-104135257D01*
X157685375Y-104348475D01*
X157385415Y-104797397D01*
X157176833Y-104711000D01*
X156823167Y-104711000D01*
X156800911Y-104720219D01*
X156676076Y-104418840D01*
X156425996Y-104168760D01*
X156099251Y-104033418D01*
X155745585Y-104033418D01*
X155418840Y-104168760D01*
X155168760Y-104418840D01*
X155033418Y-104745585D01*
X155033418Y-105099251D01*
X155168760Y-105425996D01*
X155418840Y-105676076D01*
X155745585Y-105811418D01*
X156099251Y-105811418D01*
X156121507Y-105802199D01*
X156246342Y-106103578D01*
X156496422Y-106353658D01*
X156823167Y-106489000D01*
X157176833Y-106489000D01*
X157503578Y-106353658D01*
X157558057Y-106299179D01*
X157685375Y-106489725D01*
X157983761Y-106689100D01*
X157685375Y-106888475D01*
X157357161Y-107379682D01*
X157241908Y-107959100D01*
X157357161Y-108538518D01*
X157685375Y-109029725D01*
X157983761Y-109229100D01*
X157685375Y-109428475D01*
X157357161Y-109919682D01*
X157241908Y-110499100D01*
X157357161Y-111078518D01*
X157358703Y-111080827D01*
X157214851Y-111224679D01*
X157175915Y-111318679D01*
X156953578Y-111096342D01*
X156696051Y-110989671D01*
X156699351Y-110986371D01*
X156834693Y-110659626D01*
X156834693Y-110305960D01*
X156699351Y-109979215D01*
X156449271Y-109729135D01*
X156122526Y-109593793D01*
X155768860Y-109593793D01*
X155442115Y-109729135D01*
X155192035Y-109979215D01*
X155056693Y-110305960D01*
X155056693Y-110423637D01*
X154935903Y-110423637D01*
X154609158Y-110558979D01*
X154359078Y-110809059D01*
X154223736Y-111135804D01*
X154223736Y-111489470D01*
X154359078Y-111816215D01*
X154609158Y-112066295D01*
X154935903Y-112201637D01*
X155289569Y-112201637D01*
X155583052Y-112080072D01*
X155696342Y-112353578D01*
X155946422Y-112603658D01*
X156273167Y-112739000D01*
X156626833Y-112739000D01*
X156953578Y-112603658D01*
X157203658Y-112353578D01*
X157242594Y-112259578D01*
X157391422Y-112408406D01*
X157357161Y-112459682D01*
X157241908Y-113039100D01*
X157357161Y-113618518D01*
X157685375Y-114109725D01*
X157983761Y-114309100D01*
X157685375Y-114508475D01*
X157357161Y-114999682D01*
X157241908Y-115579100D01*
X157285266Y-115797074D01*
X157096342Y-115985998D01*
X156961000Y-116312743D01*
X156961000Y-116666409D01*
X156995239Y-116749070D01*
X156860990Y-117073177D01*
X156860990Y-117426843D01*
X156996332Y-117753588D01*
X157246412Y-118003668D01*
X157263464Y-118010731D01*
X157241908Y-118119100D01*
X157357161Y-118698518D01*
X157685375Y-119189725D01*
X157983761Y-119389100D01*
X157685375Y-119588475D01*
X157357161Y-120079682D01*
X157241908Y-120659100D01*
X157357161Y-121238518D01*
X157685375Y-121729725D01*
X157983761Y-121929100D01*
X157685375Y-122128475D01*
X157357161Y-122619682D01*
X157241908Y-123199100D01*
X157357161Y-123778518D01*
X157685375Y-124269725D01*
X157983761Y-124469100D01*
X157685375Y-124668475D01*
X157357161Y-125159682D01*
X157241908Y-125739100D01*
X157357161Y-126318518D01*
X157685375Y-126809725D01*
X157983761Y-127009100D01*
X157685375Y-127208475D01*
X157357161Y-127699682D01*
X157241908Y-128279100D01*
X157357161Y-128858518D01*
X157685375Y-129349725D01*
X157983761Y-129549100D01*
X157685375Y-129748475D01*
X157357161Y-130239682D01*
X157241908Y-130819100D01*
X157353299Y-131379100D01*
X145889000Y-131379100D01*
X145889000Y-131073167D01*
X145753658Y-130746422D01*
X145503578Y-130496342D01*
X145176833Y-130361000D01*
X144938971Y-130361000D01*
X144914839Y-130239682D01*
X144586625Y-129748475D01*
X144288239Y-129549100D01*
X144586625Y-129349725D01*
X144914839Y-128858518D01*
X144945772Y-128703008D01*
X145096422Y-128853658D01*
X145423167Y-128989000D01*
X145613792Y-128989000D01*
X145556368Y-129046424D01*
X145421026Y-129373169D01*
X145421026Y-129726835D01*
X145556368Y-130053580D01*
X145806448Y-130303660D01*
X146133193Y-130439002D01*
X146486859Y-130439002D01*
X146813604Y-130303660D01*
X147063684Y-130053580D01*
X147199026Y-129726835D01*
X147199026Y-129478866D01*
X147404220Y-129684060D01*
X147730965Y-129819402D01*
X148084631Y-129819402D01*
X148411376Y-129684060D01*
X148661456Y-129433980D01*
X148665934Y-129423167D01*
X152311000Y-129423167D01*
X152311000Y-129776833D01*
X152446342Y-130103578D01*
X152696422Y-130353658D01*
X153023167Y-130489000D01*
X153376833Y-130489000D01*
X153703578Y-130353658D01*
X153953658Y-130103578D01*
X154089000Y-129776833D01*
X154089000Y-129423167D01*
X153953658Y-129096422D01*
X153703578Y-128846342D01*
X153376833Y-128711000D01*
X153023167Y-128711000D01*
X152696422Y-128846342D01*
X152446342Y-129096422D01*
X152311000Y-129423167D01*
X148665934Y-129423167D01*
X148796798Y-129107235D01*
X148796798Y-128753569D01*
X148661456Y-128426824D01*
X148411376Y-128176744D01*
X148282030Y-128123167D01*
X150111000Y-128123167D01*
X150111000Y-128476833D01*
X150246342Y-128803578D01*
X150496422Y-129053658D01*
X150823167Y-129189000D01*
X151176833Y-129189000D01*
X151503578Y-129053658D01*
X151753658Y-128803578D01*
X151889000Y-128476833D01*
X151889000Y-128123167D01*
X151753658Y-127796422D01*
X151503578Y-127546342D01*
X151176833Y-127411000D01*
X150823167Y-127411000D01*
X150496422Y-127546342D01*
X150246342Y-127796422D01*
X150111000Y-128123167D01*
X148282030Y-128123167D01*
X148084631Y-128041402D01*
X147730965Y-128041402D01*
X147404220Y-128176744D01*
X147154140Y-128426824D01*
X147018798Y-128753569D01*
X147018798Y-129001538D01*
X146813604Y-128796344D01*
X146486859Y-128661002D01*
X146296234Y-128661002D01*
X146353658Y-128603578D01*
X146489000Y-128276833D01*
X146489000Y-128216788D01*
X146838158Y-127867631D01*
X146897534Y-127827957D01*
X146937209Y-127768580D01*
X146937213Y-127768576D01*
X147054724Y-127592709D01*
X147054724Y-127592708D01*
X147054725Y-127592707D01*
X147095989Y-127385257D01*
X147095989Y-127385254D01*
X147109921Y-127315212D01*
X147095989Y-127245170D01*
X147095989Y-127207558D01*
X147370968Y-127093658D01*
X147621048Y-126843578D01*
X147756390Y-126516833D01*
X147756390Y-126163167D01*
X147621048Y-125836422D01*
X147545207Y-125760581D01*
X148766943Y-124538845D01*
X148766943Y-124820890D01*
X148902285Y-125147635D01*
X149152365Y-125397715D01*
X149479110Y-125533057D01*
X149832776Y-125533057D01*
X150159521Y-125397715D01*
X150409601Y-125147635D01*
X150544943Y-124820890D01*
X150544943Y-124467224D01*
X150409601Y-124140479D01*
X150159521Y-123890399D01*
X149832776Y-123755057D01*
X149550732Y-123755057D01*
X150258688Y-123047101D01*
X150583383Y-123181594D01*
X150937049Y-123181594D01*
X151263794Y-123046252D01*
X151383074Y-122926972D01*
X151354541Y-122995857D01*
X151354541Y-123349523D01*
X151439099Y-123553665D01*
X151396342Y-123596422D01*
X151261000Y-123923167D01*
X151261000Y-124276833D01*
X151396342Y-124603578D01*
X151646422Y-124853658D01*
X151789506Y-124912925D01*
X151661000Y-125223167D01*
X151661000Y-125576833D01*
X151776515Y-125855711D01*
X151756909Y-125863832D01*
X151506829Y-126113912D01*
X151371487Y-126440657D01*
X151371487Y-126794323D01*
X151506829Y-127121068D01*
X151756909Y-127371148D01*
X151951722Y-127451842D01*
X151951722Y-127691630D01*
X152087064Y-128018375D01*
X152337144Y-128268455D01*
X152663889Y-128403797D01*
X153017555Y-128403797D01*
X153344300Y-128268455D01*
X153594380Y-128018375D01*
X153662648Y-127853560D01*
X153709314Y-127834231D01*
X153823167Y-127881390D01*
X154176833Y-127881390D01*
X154503578Y-127746048D01*
X154652528Y-127597098D01*
X154732256Y-127630122D01*
X155085922Y-127630122D01*
X155412667Y-127494780D01*
X155662747Y-127244700D01*
X155798089Y-126917955D01*
X155798089Y-126564289D01*
X155662747Y-126237544D01*
X155412667Y-125987464D01*
X155208695Y-125902976D01*
X155214754Y-125872513D01*
X155200822Y-125802471D01*
X155200822Y-124061990D01*
X155497027Y-123939298D01*
X155747107Y-123689218D01*
X155882449Y-123362473D01*
X155882449Y-123008807D01*
X155747107Y-122682062D01*
X155554045Y-122489000D01*
X155876833Y-122489000D01*
X156203578Y-122353658D01*
X156453658Y-122103578D01*
X156589000Y-121776833D01*
X156589000Y-121423167D01*
X156453658Y-121096422D01*
X156203578Y-120846342D01*
X155876833Y-120711000D01*
X155523167Y-120711000D01*
X155200822Y-120844519D01*
X155200822Y-117655182D01*
X155403177Y-117739000D01*
X155756843Y-117739000D01*
X156083588Y-117603658D01*
X156333668Y-117353578D01*
X156469010Y-117026833D01*
X156469010Y-116673167D01*
X156333668Y-116346422D01*
X156083588Y-116096342D01*
X155756843Y-115961000D01*
X155403177Y-115961000D01*
X155200822Y-116044818D01*
X155200822Y-114709664D01*
X155214754Y-114639622D01*
X155200822Y-114569580D01*
X155200822Y-114569576D01*
X155159558Y-114362126D01*
X155125396Y-114311000D01*
X155042046Y-114186257D01*
X155042042Y-114186253D01*
X155002367Y-114126876D01*
X154942991Y-114087202D01*
X153467779Y-112611991D01*
X153467779Y-111396620D01*
X153481711Y-111326578D01*
X153467779Y-111256534D01*
X153467779Y-111256533D01*
X153426515Y-111049083D01*
X153426514Y-111049081D01*
X153339000Y-110918108D01*
X153339000Y-110843167D01*
X153224730Y-110567295D01*
X153253658Y-110538367D01*
X153389000Y-110211622D01*
X153389000Y-109857956D01*
X153253658Y-109531211D01*
X153003578Y-109281131D01*
X152676833Y-109145789D01*
X152323167Y-109145789D01*
X151996422Y-109281131D01*
X151746342Y-109531211D01*
X151611000Y-109857956D01*
X151611000Y-109865876D01*
X151594476Y-109865876D01*
X151389638Y-109950723D01*
X151389638Y-109838289D01*
X151254296Y-109511544D01*
X151085007Y-109342255D01*
X151254066Y-109173196D01*
X151389408Y-108846451D01*
X151389408Y-108492785D01*
X151254066Y-108166040D01*
X151003986Y-107915960D01*
X150677241Y-107780618D01*
X150323575Y-107780618D01*
X149996830Y-107915960D01*
X149746750Y-108166040D01*
X149611408Y-108492785D01*
X149611408Y-108846451D01*
X149746750Y-109173196D01*
X149916039Y-109342485D01*
X149746980Y-109511544D01*
X149611638Y-109838289D01*
X149611638Y-110191955D01*
X149746980Y-110518700D01*
X149997060Y-110768780D01*
X150138710Y-110827453D01*
X149879177Y-110934955D01*
X149629097Y-111185035D01*
X149493755Y-111511780D01*
X149493755Y-111865446D01*
X149629097Y-112192191D01*
X149879177Y-112442271D01*
X150205922Y-112577613D01*
X150559588Y-112577613D01*
X150886333Y-112442271D01*
X151070913Y-112257691D01*
X151070912Y-112774203D01*
X151056980Y-112844245D01*
X151070912Y-112914286D01*
X151070912Y-112914290D01*
X151112176Y-113121740D01*
X151152379Y-113181908D01*
X151229688Y-113297609D01*
X151229690Y-113297611D01*
X151269366Y-113356990D01*
X151328746Y-113396667D01*
X151489922Y-113557843D01*
X151376833Y-113511000D01*
X151023167Y-113511000D01*
X150696422Y-113646342D01*
X150446342Y-113896422D01*
X150311000Y-114223167D01*
X150311000Y-114576833D01*
X150417088Y-114832952D01*
X150409578Y-114825442D01*
X150082833Y-114690100D01*
X149842083Y-114690100D01*
X149889000Y-114576833D01*
X149889000Y-114223167D01*
X149753658Y-113896422D01*
X149503578Y-113646342D01*
X149176833Y-113511000D01*
X148823167Y-113511000D01*
X148496422Y-113646342D01*
X148246342Y-113896422D01*
X148111000Y-114223167D01*
X148111000Y-114576833D01*
X148246342Y-114903578D01*
X148496422Y-115153658D01*
X148823167Y-115289000D01*
X149063917Y-115289000D01*
X149017000Y-115402267D01*
X149017000Y-115711000D01*
X148823167Y-115711000D01*
X148496422Y-115846342D01*
X148246342Y-116096422D01*
X148111000Y-116423167D01*
X148111000Y-116776833D01*
X148246342Y-117103578D01*
X148496422Y-117353658D01*
X148823167Y-117489000D01*
X149176833Y-117489000D01*
X149503578Y-117353658D01*
X149753658Y-117103578D01*
X149889000Y-116776833D01*
X149889000Y-116468100D01*
X150082833Y-116468100D01*
X150335788Y-116363323D01*
X150311000Y-116423167D01*
X150311000Y-116776833D01*
X150446342Y-117103578D01*
X150696422Y-117353658D01*
X151023167Y-117489000D01*
X151376833Y-117489000D01*
X151703578Y-117353658D01*
X151953658Y-117103578D01*
X152089000Y-116776833D01*
X152089000Y-116423167D01*
X151953658Y-116096422D01*
X151703578Y-115846342D01*
X151376833Y-115711000D01*
X151023167Y-115711000D01*
X150770212Y-115815777D01*
X150795000Y-115755933D01*
X150795000Y-115402267D01*
X150688912Y-115146148D01*
X150696422Y-115153658D01*
X151023167Y-115289000D01*
X151376833Y-115289000D01*
X151703578Y-115153658D01*
X151953658Y-114903578D01*
X152089000Y-114576833D01*
X152089000Y-114223167D01*
X152042157Y-114110079D01*
X153168801Y-115236723D01*
X153168801Y-115711000D01*
X153023167Y-115711000D01*
X152696422Y-115846342D01*
X152446342Y-116096422D01*
X152311000Y-116423167D01*
X152311000Y-116776833D01*
X152446342Y-117103578D01*
X152696422Y-117353658D01*
X153023167Y-117489000D01*
X153168801Y-117489000D01*
X153168800Y-124761564D01*
X153053578Y-124646342D01*
X152910494Y-124587075D01*
X153039000Y-124276833D01*
X153039000Y-123923167D01*
X152954442Y-123719025D01*
X152997199Y-123676268D01*
X153132541Y-123349523D01*
X153132541Y-122995857D01*
X152997199Y-122669112D01*
X152747119Y-122419032D01*
X152573108Y-122346954D01*
X152693175Y-122297221D01*
X152943255Y-122047141D01*
X153078597Y-121720396D01*
X153078597Y-121366730D01*
X152943255Y-121039985D01*
X152776737Y-120873467D01*
X152776737Y-120779163D01*
X152641395Y-120452418D01*
X152391315Y-120202338D01*
X152064570Y-120066996D01*
X151710904Y-120066996D01*
X151384159Y-120202338D01*
X151341701Y-120244796D01*
X150414045Y-120244796D01*
X150344003Y-120230864D01*
X150273962Y-120244796D01*
X150273958Y-120244796D01*
X150066508Y-120286060D01*
X150066506Y-120286061D01*
X150066507Y-120286061D01*
X149890639Y-120403572D01*
X149890637Y-120403574D01*
X149831258Y-120443250D01*
X149791582Y-120502629D01*
X149166584Y-121127627D01*
X149153658Y-121096422D01*
X148903578Y-120846342D01*
X148576833Y-120711000D01*
X148223167Y-120711000D01*
X147896422Y-120846342D01*
X147646342Y-121096422D01*
X147511000Y-121423167D01*
X147511000Y-121475779D01*
X147294254Y-121386000D01*
X146940588Y-121386000D01*
X146613843Y-121521342D01*
X146363763Y-121771422D01*
X146228421Y-122098167D01*
X146228421Y-122451833D01*
X146363763Y-122778578D01*
X146613843Y-123028658D01*
X146940588Y-123164000D01*
X147130212Y-123164000D01*
X145593894Y-124700318D01*
X145432791Y-124732363D01*
X145380507Y-124767298D01*
X145279455Y-124767298D01*
X144952710Y-124902640D01*
X144827051Y-125028299D01*
X144586625Y-124668475D01*
X144288239Y-124469100D01*
X144586625Y-124269725D01*
X144914839Y-123778518D01*
X145030092Y-123199100D01*
X144914839Y-122619682D01*
X144586625Y-122128475D01*
X144288239Y-121929100D01*
X144586625Y-121729725D01*
X144914839Y-121238518D01*
X145030092Y-120659100D01*
X144914839Y-120079682D01*
X144586625Y-119588475D01*
X144288239Y-119389100D01*
X144348793Y-119348639D01*
X144356422Y-119356268D01*
X144683167Y-119491610D01*
X145036833Y-119491610D01*
X145228684Y-119412143D01*
X145202928Y-119474323D01*
X145202928Y-119827989D01*
X145338270Y-120154734D01*
X145588350Y-120404814D01*
X145915095Y-120540156D01*
X146268761Y-120540156D01*
X146422912Y-120476305D01*
X146496341Y-120653578D01*
X146746421Y-120903658D01*
X147073166Y-121039000D01*
X147426832Y-121039000D01*
X147753577Y-120903658D01*
X148003657Y-120653578D01*
X148138999Y-120326833D01*
X148138999Y-119973167D01*
X148003657Y-119646422D01*
X147753577Y-119396342D01*
X147618530Y-119340404D01*
X147499032Y-119051910D01*
X147277464Y-118830342D01*
X147277464Y-118822994D01*
X147142122Y-118496249D01*
X147100088Y-118454215D01*
X147220299Y-118404422D01*
X147470379Y-118154342D01*
X147605721Y-117827597D01*
X147605721Y-117473931D01*
X147470379Y-117147186D01*
X147220299Y-116897106D01*
X146893554Y-116761764D01*
X146539888Y-116761764D01*
X146213143Y-116897106D01*
X146144508Y-116965741D01*
X146053658Y-116746408D01*
X145803578Y-116496328D01*
X145476833Y-116360986D01*
X145123167Y-116360986D01*
X144796422Y-116496328D01*
X144546342Y-116746408D01*
X144457077Y-116961914D01*
X144288239Y-116849100D01*
X144586625Y-116649725D01*
X144914839Y-116158518D01*
X145030092Y-115579100D01*
X144914839Y-114999682D01*
X144586625Y-114508475D01*
X144288239Y-114309100D01*
X144586625Y-114109725D01*
X144842257Y-113727145D01*
X144842257Y-113801999D01*
X144977599Y-114128744D01*
X145227679Y-114378824D01*
X145394741Y-114448023D01*
X145146342Y-114696422D01*
X145011000Y-115023167D01*
X145011000Y-115376833D01*
X145146342Y-115703578D01*
X145396422Y-115953658D01*
X145723167Y-116089000D01*
X146076833Y-116089000D01*
X146403578Y-115953658D01*
X146653658Y-115703578D01*
X146789000Y-115376833D01*
X146789000Y-115023167D01*
X146653658Y-114696422D01*
X146403578Y-114446342D01*
X146236516Y-114377143D01*
X146484915Y-114128744D01*
X146620257Y-113801999D01*
X146620257Y-113448333D01*
X146484915Y-113121588D01*
X146234835Y-112871508D01*
X145908090Y-112736166D01*
X145554424Y-112736166D01*
X145227679Y-112871508D01*
X145022644Y-113076543D01*
X145030092Y-113039100D01*
X144914839Y-112459682D01*
X144586625Y-111968475D01*
X144288239Y-111769100D01*
X144586625Y-111569725D01*
X144914839Y-111078518D01*
X145030092Y-110499100D01*
X144914839Y-109919682D01*
X144586625Y-109428475D01*
X144288239Y-109229100D01*
X144586625Y-109029725D01*
X144914839Y-108538518D01*
X145030092Y-107959100D01*
X144914839Y-107379682D01*
X144586625Y-106888475D01*
X144458953Y-106803167D01*
X144991000Y-106803167D01*
X144991000Y-107156833D01*
X145126342Y-107483578D01*
X145376422Y-107733658D01*
X145703167Y-107869000D01*
X146056833Y-107869000D01*
X146383578Y-107733658D01*
X146633658Y-107483578D01*
X146769000Y-107156833D01*
X146769000Y-106803167D01*
X146633658Y-106476422D01*
X146580403Y-106423167D01*
X151011000Y-106423167D01*
X151011000Y-106776833D01*
X151146342Y-107103578D01*
X151347914Y-107305150D01*
X151346341Y-107306722D01*
X151210999Y-107633467D01*
X151210999Y-107987133D01*
X151346341Y-108313878D01*
X151596421Y-108563958D01*
X151923166Y-108699300D01*
X152276832Y-108699300D01*
X152603577Y-108563958D01*
X152853657Y-108313878D01*
X152988999Y-107987133D01*
X152988999Y-107633467D01*
X152856606Y-107313842D01*
X153096422Y-107553658D01*
X153423167Y-107689000D01*
X153776833Y-107689000D01*
X154103578Y-107553658D01*
X154353658Y-107303578D01*
X154489000Y-106976833D01*
X154489000Y-106623167D01*
X154353658Y-106296422D01*
X154103578Y-106046342D01*
X153776833Y-105911000D01*
X153423167Y-105911000D01*
X153096422Y-106046342D01*
X152846342Y-106296422D01*
X152789000Y-106434858D01*
X152789000Y-106423167D01*
X152653658Y-106096422D01*
X152403578Y-105846342D01*
X152076833Y-105711000D01*
X151723167Y-105711000D01*
X151396422Y-105846342D01*
X151146342Y-106096422D01*
X151011000Y-106423167D01*
X146580403Y-106423167D01*
X146383578Y-106226342D01*
X146056833Y-106091000D01*
X145703167Y-106091000D01*
X145376422Y-106226342D01*
X145126342Y-106476422D01*
X144991000Y-106803167D01*
X144458953Y-106803167D01*
X144288239Y-106689100D01*
X144586625Y-106489725D01*
X144914839Y-105998518D01*
X145030092Y-105419100D01*
X144914839Y-104839682D01*
X144586625Y-104348475D01*
X144288239Y-104149100D01*
X144586625Y-103949725D01*
X144704597Y-103773167D01*
X148310998Y-103773167D01*
X148310998Y-104126833D01*
X148405150Y-104354136D01*
X148347836Y-104492505D01*
X148347836Y-104846171D01*
X148483178Y-105172916D01*
X148733258Y-105422996D01*
X149060003Y-105558338D01*
X149413669Y-105558338D01*
X149740414Y-105422996D01*
X149990494Y-105172916D01*
X150125836Y-104846171D01*
X150125836Y-104844178D01*
X150414526Y-104844178D01*
X150741271Y-104708836D01*
X150991351Y-104458756D01*
X151044425Y-104330624D01*
X151100765Y-104466641D01*
X151350845Y-104716721D01*
X151677590Y-104852063D01*
X152031256Y-104852063D01*
X152358001Y-104716721D01*
X152608081Y-104466641D01*
X152743423Y-104139896D01*
X152743423Y-103786230D01*
X152608081Y-103459485D01*
X152358001Y-103209405D01*
X152031256Y-103074063D01*
X151677590Y-103074063D01*
X151350845Y-103209405D01*
X151100765Y-103459485D01*
X151047691Y-103587617D01*
X150991351Y-103451600D01*
X150741271Y-103201520D01*
X150414526Y-103066178D01*
X150060860Y-103066178D01*
X149734115Y-103201520D01*
X149721435Y-103214201D01*
X149703576Y-103196342D01*
X149376831Y-103061000D01*
X149023165Y-103061000D01*
X148696420Y-103196342D01*
X148446340Y-103446422D01*
X148310998Y-103773167D01*
X144704597Y-103773167D01*
X144914839Y-103458518D01*
X145030092Y-102879100D01*
X144994918Y-102702267D01*
X146437000Y-102702267D01*
X146437000Y-103055933D01*
X146572342Y-103382678D01*
X146822422Y-103632758D01*
X147149167Y-103768100D01*
X147502833Y-103768100D01*
X147829578Y-103632758D01*
X148079658Y-103382678D01*
X148215000Y-103055933D01*
X148215000Y-102702267D01*
X148079658Y-102375522D01*
X147829578Y-102125442D01*
X147502833Y-101990100D01*
X147149167Y-101990100D01*
X146822422Y-102125442D01*
X146572342Y-102375522D01*
X146437000Y-102702267D01*
X144994918Y-102702267D01*
X144914839Y-102299682D01*
X144758572Y-102065812D01*
X144946422Y-102253662D01*
X145273167Y-102389004D01*
X145626833Y-102389004D01*
X145953578Y-102253662D01*
X146203658Y-102003582D01*
X146339000Y-101676837D01*
X146339000Y-101323171D01*
X146203658Y-100996426D01*
X145953578Y-100746346D01*
X145626833Y-100611004D01*
X145273167Y-100611004D01*
X144949325Y-100745143D01*
X145030092Y-100339100D01*
X144914839Y-99759682D01*
X144586625Y-99268475D01*
X144568381Y-99256284D01*
X144613765Y-99247257D01*
X144823809Y-99106909D01*
X144956739Y-98907967D01*
X144996342Y-99003578D01*
X145246422Y-99253658D01*
X145573167Y-99389000D01*
X145926833Y-99389000D01*
X146253578Y-99253658D01*
X146503658Y-99003578D01*
X146639000Y-98676833D01*
X146639000Y-98323167D01*
X146556917Y-98125000D01*
X146639000Y-97926833D01*
X146639000Y-97573167D01*
X146503658Y-97246422D01*
X146496336Y-97239100D01*
X155753664Y-97239100D01*
X155746342Y-97246422D01*
X155746342Y-97246422D01*
G37*
X155746342Y-97246422D02*
X155611000Y-97573167D01*
X155611000Y-97926833D01*
X155693083Y-98125000D01*
X155611000Y-98323167D01*
X155611000Y-98676833D01*
X155746342Y-99003578D01*
X155996422Y-99253658D01*
X156323167Y-99389000D01*
X156676833Y-99389000D01*
X157003578Y-99253658D01*
X157253658Y-99003578D01*
X157389000Y-98676833D01*
X157389000Y-98379362D01*
X157497078Y-98640285D01*
X157914815Y-99058022D01*
X157967611Y-99079891D01*
X157685375Y-99268475D01*
X157357161Y-99759682D01*
X157241908Y-100339100D01*
X157357161Y-100918518D01*
X157685375Y-101409725D01*
X158004478Y-101622943D01*
X157874642Y-101683917D01*
X157484355Y-102112176D01*
X157314524Y-102522210D01*
X157435845Y-102752100D01*
X158629000Y-102752100D01*
X158629000Y-102732100D01*
X158883000Y-102732100D01*
X158883000Y-102752100D01*
X158903000Y-102752100D01*
X158903000Y-103006100D01*
X158883000Y-103006100D01*
X158883000Y-103026100D01*
X158629000Y-103026100D01*
X158629000Y-103006100D01*
X157435845Y-103006100D01*
X157314524Y-103235990D01*
X157484355Y-103646024D01*
X157874642Y-104074283D01*
X158004478Y-104135257D01*
X157685375Y-104348475D01*
X157385415Y-104797397D01*
X157176833Y-104711000D01*
X156823167Y-104711000D01*
X156800911Y-104720219D01*
X156676076Y-104418840D01*
X156425996Y-104168760D01*
X156099251Y-104033418D01*
X155745585Y-104033418D01*
X155418840Y-104168760D01*
X155168760Y-104418840D01*
X155033418Y-104745585D01*
X155033418Y-105099251D01*
X155168760Y-105425996D01*
X155418840Y-105676076D01*
X155745585Y-105811418D01*
X156099251Y-105811418D01*
X156121507Y-105802199D01*
X156246342Y-106103578D01*
X156496422Y-106353658D01*
X156823167Y-106489000D01*
X157176833Y-106489000D01*
X157503578Y-106353658D01*
X157558057Y-106299179D01*
X157685375Y-106489725D01*
X157983761Y-106689100D01*
X157685375Y-106888475D01*
X157357161Y-107379682D01*
X157241908Y-107959100D01*
X157357161Y-108538518D01*
X157685375Y-109029725D01*
X157983761Y-109229100D01*
X157685375Y-109428475D01*
X157357161Y-109919682D01*
X157241908Y-110499100D01*
X157357161Y-111078518D01*
X157358703Y-111080827D01*
X157214851Y-111224679D01*
X157175915Y-111318679D01*
X156953578Y-111096342D01*
X156696051Y-110989671D01*
X156699351Y-110986371D01*
X156834693Y-110659626D01*
X156834693Y-110305960D01*
X156699351Y-109979215D01*
X156449271Y-109729135D01*
X156122526Y-109593793D01*
X155768860Y-109593793D01*
X155442115Y-109729135D01*
X155192035Y-109979215D01*
X155056693Y-110305960D01*
X155056693Y-110423637D01*
X154935903Y-110423637D01*
X154609158Y-110558979D01*
X154359078Y-110809059D01*
X154223736Y-111135804D01*
X154223736Y-111489470D01*
X154359078Y-111816215D01*
X154609158Y-112066295D01*
X154935903Y-112201637D01*
X155289569Y-112201637D01*
X155583052Y-112080072D01*
X155696342Y-112353578D01*
X155946422Y-112603658D01*
X156273167Y-112739000D01*
X156626833Y-112739000D01*
X156953578Y-112603658D01*
X157203658Y-112353578D01*
X157242594Y-112259578D01*
X157391422Y-112408406D01*
X157357161Y-112459682D01*
X157241908Y-113039100D01*
X157357161Y-113618518D01*
X157685375Y-114109725D01*
X157983761Y-114309100D01*
X157685375Y-114508475D01*
X157357161Y-114999682D01*
X157241908Y-115579100D01*
X157285266Y-115797074D01*
X157096342Y-115985998D01*
X156961000Y-116312743D01*
X156961000Y-116666409D01*
X156995239Y-116749070D01*
X156860990Y-117073177D01*
X156860990Y-117426843D01*
X156996332Y-117753588D01*
X157246412Y-118003668D01*
X157263464Y-118010731D01*
X157241908Y-118119100D01*
X157357161Y-118698518D01*
X157685375Y-119189725D01*
X157983761Y-119389100D01*
X157685375Y-119588475D01*
X157357161Y-120079682D01*
X157241908Y-120659100D01*
X157357161Y-121238518D01*
X157685375Y-121729725D01*
X157983761Y-121929100D01*
X157685375Y-122128475D01*
X157357161Y-122619682D01*
X157241908Y-123199100D01*
X157357161Y-123778518D01*
X157685375Y-124269725D01*
X157983761Y-124469100D01*
X157685375Y-124668475D01*
X157357161Y-125159682D01*
X157241908Y-125739100D01*
X157357161Y-126318518D01*
X157685375Y-126809725D01*
X157983761Y-127009100D01*
X157685375Y-127208475D01*
X157357161Y-127699682D01*
X157241908Y-128279100D01*
X157357161Y-128858518D01*
X157685375Y-129349725D01*
X157983761Y-129549100D01*
X157685375Y-129748475D01*
X157357161Y-130239682D01*
X157241908Y-130819100D01*
X157353299Y-131379100D01*
X145889000Y-131379100D01*
X145889000Y-131073167D01*
X145753658Y-130746422D01*
X145503578Y-130496342D01*
X145176833Y-130361000D01*
X144938971Y-130361000D01*
X144914839Y-130239682D01*
X144586625Y-129748475D01*
X144288239Y-129549100D01*
X144586625Y-129349725D01*
X144914839Y-128858518D01*
X144945772Y-128703008D01*
X145096422Y-128853658D01*
X145423167Y-128989000D01*
X145613792Y-128989000D01*
X145556368Y-129046424D01*
X145421026Y-129373169D01*
X145421026Y-129726835D01*
X145556368Y-130053580D01*
X145806448Y-130303660D01*
X146133193Y-130439002D01*
X146486859Y-130439002D01*
X146813604Y-130303660D01*
X147063684Y-130053580D01*
X147199026Y-129726835D01*
X147199026Y-129478866D01*
X147404220Y-129684060D01*
X147730965Y-129819402D01*
X148084631Y-129819402D01*
X148411376Y-129684060D01*
X148661456Y-129433980D01*
X148665934Y-129423167D01*
X152311000Y-129423167D01*
X152311000Y-129776833D01*
X152446342Y-130103578D01*
X152696422Y-130353658D01*
X153023167Y-130489000D01*
X153376833Y-130489000D01*
X153703578Y-130353658D01*
X153953658Y-130103578D01*
X154089000Y-129776833D01*
X154089000Y-129423167D01*
X153953658Y-129096422D01*
X153703578Y-128846342D01*
X153376833Y-128711000D01*
X153023167Y-128711000D01*
X152696422Y-128846342D01*
X152446342Y-129096422D01*
X152311000Y-129423167D01*
X148665934Y-129423167D01*
X148796798Y-129107235D01*
X148796798Y-128753569D01*
X148661456Y-128426824D01*
X148411376Y-128176744D01*
X148282030Y-128123167D01*
X150111000Y-128123167D01*
X150111000Y-128476833D01*
X150246342Y-128803578D01*
X150496422Y-129053658D01*
X150823167Y-129189000D01*
X151176833Y-129189000D01*
X151503578Y-129053658D01*
X151753658Y-128803578D01*
X151889000Y-128476833D01*
X151889000Y-128123167D01*
X151753658Y-127796422D01*
X151503578Y-127546342D01*
X151176833Y-127411000D01*
X150823167Y-127411000D01*
X150496422Y-127546342D01*
X150246342Y-127796422D01*
X150111000Y-128123167D01*
X148282030Y-128123167D01*
X148084631Y-128041402D01*
X147730965Y-128041402D01*
X147404220Y-128176744D01*
X147154140Y-128426824D01*
X147018798Y-128753569D01*
X147018798Y-129001538D01*
X146813604Y-128796344D01*
X146486859Y-128661002D01*
X146296234Y-128661002D01*
X146353658Y-128603578D01*
X146489000Y-128276833D01*
X146489000Y-128216788D01*
X146838158Y-127867631D01*
X146897534Y-127827957D01*
X146937209Y-127768580D01*
X146937213Y-127768576D01*
X147054724Y-127592709D01*
X147054724Y-127592708D01*
X147054725Y-127592707D01*
X147095989Y-127385257D01*
X147095989Y-127385254D01*
X147109921Y-127315212D01*
X147095989Y-127245170D01*
X147095989Y-127207558D01*
X147370968Y-127093658D01*
X147621048Y-126843578D01*
X147756390Y-126516833D01*
X147756390Y-126163167D01*
X147621048Y-125836422D01*
X147545207Y-125760581D01*
X148766943Y-124538845D01*
X148766943Y-124820890D01*
X148902285Y-125147635D01*
X149152365Y-125397715D01*
X149479110Y-125533057D01*
X149832776Y-125533057D01*
X150159521Y-125397715D01*
X150409601Y-125147635D01*
X150544943Y-124820890D01*
X150544943Y-124467224D01*
X150409601Y-124140479D01*
X150159521Y-123890399D01*
X149832776Y-123755057D01*
X149550732Y-123755057D01*
X150258688Y-123047101D01*
X150583383Y-123181594D01*
X150937049Y-123181594D01*
X151263794Y-123046252D01*
X151383074Y-122926972D01*
X151354541Y-122995857D01*
X151354541Y-123349523D01*
X151439099Y-123553665D01*
X151396342Y-123596422D01*
X151261000Y-123923167D01*
X151261000Y-124276833D01*
X151396342Y-124603578D01*
X151646422Y-124853658D01*
X151789506Y-124912925D01*
X151661000Y-125223167D01*
X151661000Y-125576833D01*
X151776515Y-125855711D01*
X151756909Y-125863832D01*
X151506829Y-126113912D01*
X151371487Y-126440657D01*
X151371487Y-126794323D01*
X151506829Y-127121068D01*
X151756909Y-127371148D01*
X151951722Y-127451842D01*
X151951722Y-127691630D01*
X152087064Y-128018375D01*
X152337144Y-128268455D01*
X152663889Y-128403797D01*
X153017555Y-128403797D01*
X153344300Y-128268455D01*
X153594380Y-128018375D01*
X153662648Y-127853560D01*
X153709314Y-127834231D01*
X153823167Y-127881390D01*
X154176833Y-127881390D01*
X154503578Y-127746048D01*
X154652528Y-127597098D01*
X154732256Y-127630122D01*
X155085922Y-127630122D01*
X155412667Y-127494780D01*
X155662747Y-127244700D01*
X155798089Y-126917955D01*
X155798089Y-126564289D01*
X155662747Y-126237544D01*
X155412667Y-125987464D01*
X155208695Y-125902976D01*
X155214754Y-125872513D01*
X155200822Y-125802471D01*
X155200822Y-124061990D01*
X155497027Y-123939298D01*
X155747107Y-123689218D01*
X155882449Y-123362473D01*
X155882449Y-123008807D01*
X155747107Y-122682062D01*
X155554045Y-122489000D01*
X155876833Y-122489000D01*
X156203578Y-122353658D01*
X156453658Y-122103578D01*
X156589000Y-121776833D01*
X156589000Y-121423167D01*
X156453658Y-121096422D01*
X156203578Y-120846342D01*
X155876833Y-120711000D01*
X155523167Y-120711000D01*
X155200822Y-120844519D01*
X155200822Y-117655182D01*
X155403177Y-117739000D01*
X155756843Y-117739000D01*
X156083588Y-117603658D01*
X156333668Y-117353578D01*
X156469010Y-117026833D01*
X156469010Y-116673167D01*
X156333668Y-116346422D01*
X156083588Y-116096342D01*
X155756843Y-115961000D01*
X155403177Y-115961000D01*
X155200822Y-116044818D01*
X155200822Y-114709664D01*
X155214754Y-114639622D01*
X155200822Y-114569580D01*
X155200822Y-114569576D01*
X155159558Y-114362126D01*
X155125396Y-114311000D01*
X155042046Y-114186257D01*
X155042042Y-114186253D01*
X155002367Y-114126876D01*
X154942991Y-114087202D01*
X153467779Y-112611991D01*
X153467779Y-111396620D01*
X153481711Y-111326578D01*
X153467779Y-111256534D01*
X153467779Y-111256533D01*
X153426515Y-111049083D01*
X153426514Y-111049081D01*
X153339000Y-110918108D01*
X153339000Y-110843167D01*
X153224730Y-110567295D01*
X153253658Y-110538367D01*
X153389000Y-110211622D01*
X153389000Y-109857956D01*
X153253658Y-109531211D01*
X153003578Y-109281131D01*
X152676833Y-109145789D01*
X152323167Y-109145789D01*
X151996422Y-109281131D01*
X151746342Y-109531211D01*
X151611000Y-109857956D01*
X151611000Y-109865876D01*
X151594476Y-109865876D01*
X151389638Y-109950723D01*
X151389638Y-109838289D01*
X151254296Y-109511544D01*
X151085007Y-109342255D01*
X151254066Y-109173196D01*
X151389408Y-108846451D01*
X151389408Y-108492785D01*
X151254066Y-108166040D01*
X151003986Y-107915960D01*
X150677241Y-107780618D01*
X150323575Y-107780618D01*
X149996830Y-107915960D01*
X149746750Y-108166040D01*
X149611408Y-108492785D01*
X149611408Y-108846451D01*
X149746750Y-109173196D01*
X149916039Y-109342485D01*
X149746980Y-109511544D01*
X149611638Y-109838289D01*
X149611638Y-110191955D01*
X149746980Y-110518700D01*
X149997060Y-110768780D01*
X150138710Y-110827453D01*
X149879177Y-110934955D01*
X149629097Y-111185035D01*
X149493755Y-111511780D01*
X149493755Y-111865446D01*
X149629097Y-112192191D01*
X149879177Y-112442271D01*
X150205922Y-112577613D01*
X150559588Y-112577613D01*
X150886333Y-112442271D01*
X151070913Y-112257691D01*
X151070912Y-112774203D01*
X151056980Y-112844245D01*
X151070912Y-112914286D01*
X151070912Y-112914290D01*
X151112176Y-113121740D01*
X151152379Y-113181908D01*
X151229688Y-113297609D01*
X151229690Y-113297611D01*
X151269366Y-113356990D01*
X151328746Y-113396667D01*
X151489922Y-113557843D01*
X151376833Y-113511000D01*
X151023167Y-113511000D01*
X150696422Y-113646342D01*
X150446342Y-113896422D01*
X150311000Y-114223167D01*
X150311000Y-114576833D01*
X150417088Y-114832952D01*
X150409578Y-114825442D01*
X150082833Y-114690100D01*
X149842083Y-114690100D01*
X149889000Y-114576833D01*
X149889000Y-114223167D01*
X149753658Y-113896422D01*
X149503578Y-113646342D01*
X149176833Y-113511000D01*
X148823167Y-113511000D01*
X148496422Y-113646342D01*
X148246342Y-113896422D01*
X148111000Y-114223167D01*
X148111000Y-114576833D01*
X148246342Y-114903578D01*
X148496422Y-115153658D01*
X148823167Y-115289000D01*
X149063917Y-115289000D01*
X149017000Y-115402267D01*
X149017000Y-115711000D01*
X148823167Y-115711000D01*
X148496422Y-115846342D01*
X148246342Y-116096422D01*
X148111000Y-116423167D01*
X148111000Y-116776833D01*
X148246342Y-117103578D01*
X148496422Y-117353658D01*
X148823167Y-117489000D01*
X149176833Y-117489000D01*
X149503578Y-117353658D01*
X149753658Y-117103578D01*
X149889000Y-116776833D01*
X149889000Y-116468100D01*
X150082833Y-116468100D01*
X150335788Y-116363323D01*
X150311000Y-116423167D01*
X150311000Y-116776833D01*
X150446342Y-117103578D01*
X150696422Y-117353658D01*
X151023167Y-117489000D01*
X151376833Y-117489000D01*
X151703578Y-117353658D01*
X151953658Y-117103578D01*
X152089000Y-116776833D01*
X152089000Y-116423167D01*
X151953658Y-116096422D01*
X151703578Y-115846342D01*
X151376833Y-115711000D01*
X151023167Y-115711000D01*
X150770212Y-115815777D01*
X150795000Y-115755933D01*
X150795000Y-115402267D01*
X150688912Y-115146148D01*
X150696422Y-115153658D01*
X151023167Y-115289000D01*
X151376833Y-115289000D01*
X151703578Y-115153658D01*
X151953658Y-114903578D01*
X152089000Y-114576833D01*
X152089000Y-114223167D01*
X152042157Y-114110079D01*
X153168801Y-115236723D01*
X153168801Y-115711000D01*
X153023167Y-115711000D01*
X152696422Y-115846342D01*
X152446342Y-116096422D01*
X152311000Y-116423167D01*
X152311000Y-116776833D01*
X152446342Y-117103578D01*
X152696422Y-117353658D01*
X153023167Y-117489000D01*
X153168801Y-117489000D01*
X153168800Y-124761564D01*
X153053578Y-124646342D01*
X152910494Y-124587075D01*
X153039000Y-124276833D01*
X153039000Y-123923167D01*
X152954442Y-123719025D01*
X152997199Y-123676268D01*
X153132541Y-123349523D01*
X153132541Y-122995857D01*
X152997199Y-122669112D01*
X152747119Y-122419032D01*
X152573108Y-122346954D01*
X152693175Y-122297221D01*
X152943255Y-122047141D01*
X153078597Y-121720396D01*
X153078597Y-121366730D01*
X152943255Y-121039985D01*
X152776737Y-120873467D01*
X152776737Y-120779163D01*
X152641395Y-120452418D01*
X152391315Y-120202338D01*
X152064570Y-120066996D01*
X151710904Y-120066996D01*
X151384159Y-120202338D01*
X151341701Y-120244796D01*
X150414045Y-120244796D01*
X150344003Y-120230864D01*
X150273962Y-120244796D01*
X150273958Y-120244796D01*
X150066508Y-120286060D01*
X150066506Y-120286061D01*
X150066507Y-120286061D01*
X149890639Y-120403572D01*
X149890637Y-120403574D01*
X149831258Y-120443250D01*
X149791582Y-120502629D01*
X149166584Y-121127627D01*
X149153658Y-121096422D01*
X148903578Y-120846342D01*
X148576833Y-120711000D01*
X148223167Y-120711000D01*
X147896422Y-120846342D01*
X147646342Y-121096422D01*
X147511000Y-121423167D01*
X147511000Y-121475779D01*
X147294254Y-121386000D01*
X146940588Y-121386000D01*
X146613843Y-121521342D01*
X146363763Y-121771422D01*
X146228421Y-122098167D01*
X146228421Y-122451833D01*
X146363763Y-122778578D01*
X146613843Y-123028658D01*
X146940588Y-123164000D01*
X147130212Y-123164000D01*
X145593894Y-124700318D01*
X145432791Y-124732363D01*
X145380507Y-124767298D01*
X145279455Y-124767298D01*
X144952710Y-124902640D01*
X144827051Y-125028299D01*
X144586625Y-124668475D01*
X144288239Y-124469100D01*
X144586625Y-124269725D01*
X144914839Y-123778518D01*
X145030092Y-123199100D01*
X144914839Y-122619682D01*
X144586625Y-122128475D01*
X144288239Y-121929100D01*
X144586625Y-121729725D01*
X144914839Y-121238518D01*
X145030092Y-120659100D01*
X144914839Y-120079682D01*
X144586625Y-119588475D01*
X144288239Y-119389100D01*
X144348793Y-119348639D01*
X144356422Y-119356268D01*
X144683167Y-119491610D01*
X145036833Y-119491610D01*
X145228684Y-119412143D01*
X145202928Y-119474323D01*
X145202928Y-119827989D01*
X145338270Y-120154734D01*
X145588350Y-120404814D01*
X145915095Y-120540156D01*
X146268761Y-120540156D01*
X146422912Y-120476305D01*
X146496341Y-120653578D01*
X146746421Y-120903658D01*
X147073166Y-121039000D01*
X147426832Y-121039000D01*
X147753577Y-120903658D01*
X148003657Y-120653578D01*
X148138999Y-120326833D01*
X148138999Y-119973167D01*
X148003657Y-119646422D01*
X147753577Y-119396342D01*
X147618530Y-119340404D01*
X147499032Y-119051910D01*
X147277464Y-118830342D01*
X147277464Y-118822994D01*
X147142122Y-118496249D01*
X147100088Y-118454215D01*
X147220299Y-118404422D01*
X147470379Y-118154342D01*
X147605721Y-117827597D01*
X147605721Y-117473931D01*
X147470379Y-117147186D01*
X147220299Y-116897106D01*
X146893554Y-116761764D01*
X146539888Y-116761764D01*
X146213143Y-116897106D01*
X146144508Y-116965741D01*
X146053658Y-116746408D01*
X145803578Y-116496328D01*
X145476833Y-116360986D01*
X145123167Y-116360986D01*
X144796422Y-116496328D01*
X144546342Y-116746408D01*
X144457077Y-116961914D01*
X144288239Y-116849100D01*
X144586625Y-116649725D01*
X144914839Y-116158518D01*
X145030092Y-115579100D01*
X144914839Y-114999682D01*
X144586625Y-114508475D01*
X144288239Y-114309100D01*
X144586625Y-114109725D01*
X144842257Y-113727145D01*
X144842257Y-113801999D01*
X144977599Y-114128744D01*
X145227679Y-114378824D01*
X145394741Y-114448023D01*
X145146342Y-114696422D01*
X145011000Y-115023167D01*
X145011000Y-115376833D01*
X145146342Y-115703578D01*
X145396422Y-115953658D01*
X145723167Y-116089000D01*
X146076833Y-116089000D01*
X146403578Y-115953658D01*
X146653658Y-115703578D01*
X146789000Y-115376833D01*
X146789000Y-115023167D01*
X146653658Y-114696422D01*
X146403578Y-114446342D01*
X146236516Y-114377143D01*
X146484915Y-114128744D01*
X146620257Y-113801999D01*
X146620257Y-113448333D01*
X146484915Y-113121588D01*
X146234835Y-112871508D01*
X145908090Y-112736166D01*
X145554424Y-112736166D01*
X145227679Y-112871508D01*
X145022644Y-113076543D01*
X145030092Y-113039100D01*
X144914839Y-112459682D01*
X144586625Y-111968475D01*
X144288239Y-111769100D01*
X144586625Y-111569725D01*
X144914839Y-111078518D01*
X145030092Y-110499100D01*
X144914839Y-109919682D01*
X144586625Y-109428475D01*
X144288239Y-109229100D01*
X144586625Y-109029725D01*
X144914839Y-108538518D01*
X145030092Y-107959100D01*
X144914839Y-107379682D01*
X144586625Y-106888475D01*
X144458953Y-106803167D01*
X144991000Y-106803167D01*
X144991000Y-107156833D01*
X145126342Y-107483578D01*
X145376422Y-107733658D01*
X145703167Y-107869000D01*
X146056833Y-107869000D01*
X146383578Y-107733658D01*
X146633658Y-107483578D01*
X146769000Y-107156833D01*
X146769000Y-106803167D01*
X146633658Y-106476422D01*
X146580403Y-106423167D01*
X151011000Y-106423167D01*
X151011000Y-106776833D01*
X151146342Y-107103578D01*
X151347914Y-107305150D01*
X151346341Y-107306722D01*
X151210999Y-107633467D01*
X151210999Y-107987133D01*
X151346341Y-108313878D01*
X151596421Y-108563958D01*
X151923166Y-108699300D01*
X152276832Y-108699300D01*
X152603577Y-108563958D01*
X152853657Y-108313878D01*
X152988999Y-107987133D01*
X152988999Y-107633467D01*
X152856606Y-107313842D01*
X153096422Y-107553658D01*
X153423167Y-107689000D01*
X153776833Y-107689000D01*
X154103578Y-107553658D01*
X154353658Y-107303578D01*
X154489000Y-106976833D01*
X154489000Y-106623167D01*
X154353658Y-106296422D01*
X154103578Y-106046342D01*
X153776833Y-105911000D01*
X153423167Y-105911000D01*
X153096422Y-106046342D01*
X152846342Y-106296422D01*
X152789000Y-106434858D01*
X152789000Y-106423167D01*
X152653658Y-106096422D01*
X152403578Y-105846342D01*
X152076833Y-105711000D01*
X151723167Y-105711000D01*
X151396422Y-105846342D01*
X151146342Y-106096422D01*
X151011000Y-106423167D01*
X146580403Y-106423167D01*
X146383578Y-106226342D01*
X146056833Y-106091000D01*
X145703167Y-106091000D01*
X145376422Y-106226342D01*
X145126342Y-106476422D01*
X144991000Y-106803167D01*
X144458953Y-106803167D01*
X144288239Y-106689100D01*
X144586625Y-106489725D01*
X144914839Y-105998518D01*
X145030092Y-105419100D01*
X144914839Y-104839682D01*
X144586625Y-104348475D01*
X144288239Y-104149100D01*
X144586625Y-103949725D01*
X144704597Y-103773167D01*
X148310998Y-103773167D01*
X148310998Y-104126833D01*
X148405150Y-104354136D01*
X148347836Y-104492505D01*
X148347836Y-104846171D01*
X148483178Y-105172916D01*
X148733258Y-105422996D01*
X149060003Y-105558338D01*
X149413669Y-105558338D01*
X149740414Y-105422996D01*
X149990494Y-105172916D01*
X150125836Y-104846171D01*
X150125836Y-104844178D01*
X150414526Y-104844178D01*
X150741271Y-104708836D01*
X150991351Y-104458756D01*
X151044425Y-104330624D01*
X151100765Y-104466641D01*
X151350845Y-104716721D01*
X151677590Y-104852063D01*
X152031256Y-104852063D01*
X152358001Y-104716721D01*
X152608081Y-104466641D01*
X152743423Y-104139896D01*
X152743423Y-103786230D01*
X152608081Y-103459485D01*
X152358001Y-103209405D01*
X152031256Y-103074063D01*
X151677590Y-103074063D01*
X151350845Y-103209405D01*
X151100765Y-103459485D01*
X151047691Y-103587617D01*
X150991351Y-103451600D01*
X150741271Y-103201520D01*
X150414526Y-103066178D01*
X150060860Y-103066178D01*
X149734115Y-103201520D01*
X149721435Y-103214201D01*
X149703576Y-103196342D01*
X149376831Y-103061000D01*
X149023165Y-103061000D01*
X148696420Y-103196342D01*
X148446340Y-103446422D01*
X148310998Y-103773167D01*
X144704597Y-103773167D01*
X144914839Y-103458518D01*
X145030092Y-102879100D01*
X144994918Y-102702267D01*
X146437000Y-102702267D01*
X146437000Y-103055933D01*
X146572342Y-103382678D01*
X146822422Y-103632758D01*
X147149167Y-103768100D01*
X147502833Y-103768100D01*
X147829578Y-103632758D01*
X148079658Y-103382678D01*
X148215000Y-103055933D01*
X148215000Y-102702267D01*
X148079658Y-102375522D01*
X147829578Y-102125442D01*
X147502833Y-101990100D01*
X147149167Y-101990100D01*
X146822422Y-102125442D01*
X146572342Y-102375522D01*
X146437000Y-102702267D01*
X144994918Y-102702267D01*
X144914839Y-102299682D01*
X144758572Y-102065812D01*
X144946422Y-102253662D01*
X145273167Y-102389004D01*
X145626833Y-102389004D01*
X145953578Y-102253662D01*
X146203658Y-102003582D01*
X146339000Y-101676837D01*
X146339000Y-101323171D01*
X146203658Y-100996426D01*
X145953578Y-100746346D01*
X145626833Y-100611004D01*
X145273167Y-100611004D01*
X144949325Y-100745143D01*
X145030092Y-100339100D01*
X144914839Y-99759682D01*
X144586625Y-99268475D01*
X144568381Y-99256284D01*
X144613765Y-99247257D01*
X144823809Y-99106909D01*
X144956739Y-98907967D01*
X144996342Y-99003578D01*
X145246422Y-99253658D01*
X145573167Y-99389000D01*
X145926833Y-99389000D01*
X146253578Y-99253658D01*
X146503658Y-99003578D01*
X146639000Y-98676833D01*
X146639000Y-98323167D01*
X146556917Y-98125000D01*
X146639000Y-97926833D01*
X146639000Y-97573167D01*
X146503658Y-97246422D01*
X146496336Y-97239100D01*
X155753664Y-97239100D01*
X155746342Y-97246422D01*
G36*
X152711000Y-106976833D02*
X152843393Y-107296458D01*
X152652086Y-107105151D01*
X152653658Y-107103578D01*
X152711000Y-106965142D01*
X152711000Y-106976833D01*
X152711000Y-106976833D01*
G37*
X152711000Y-106976833D02*
X152843393Y-107296458D01*
X152652086Y-107105151D01*
X152653658Y-107103578D01*
X152711000Y-106965142D01*
X152711000Y-106976833D01*
G04 #@! TD*
M02*
