G04 #@! TF.GenerationSoftware,KiCad,Pcbnew,(5.1.4-0-10_14)*
G04 #@! TF.CreationDate,2019-09-22T15:54:42+02:00*
G04 #@! TF.ProjectId,TinyFPGA-UP,54696e79-4650-4474-912d-55502e6b6963,A*
G04 #@! TF.SameCoordinates,Original*
G04 #@! TF.FileFunction,Copper,L3,Inr*
G04 #@! TF.FilePolarity,Positive*
%FSLAX46Y46*%
G04 Gerber Fmt 4.6, Leading zero omitted, Abs format (unit mm)*
G04 Created by KiCad (PCBNEW (5.1.4-0-10_14)) date 2019-09-22 15:54:42*
%MOMM*%
%LPD*%
G04 APERTURE LIST*
%ADD10O,1.700000X1.700000*%
%ADD11R,1.700000X1.700000*%
%ADD12C,1.700000*%
%ADD13C,0.508000*%
%ADD14C,3.000000*%
%ADD15C,0.304800*%
%ADD16C,0.152400*%
%ADD17C,0.254000*%
G04 APERTURE END LIST*
D10*
X143516000Y-130819100D03*
X143516000Y-128279100D03*
X143516000Y-125739100D03*
X143516000Y-123199100D03*
X143516000Y-120659100D03*
X143516000Y-118119100D03*
X143516000Y-115579100D03*
X143516000Y-113039100D03*
X143516000Y-110499100D03*
X143516000Y-107959100D03*
X143516000Y-105419100D03*
X143516000Y-102879100D03*
X143516000Y-100339100D03*
D11*
X143516000Y-97799100D03*
D10*
X158756000Y-130819100D03*
X158756000Y-128279100D03*
X158756000Y-125739100D03*
X158756000Y-123199100D03*
X158756000Y-120659100D03*
X158756000Y-118119100D03*
X158756000Y-115579100D03*
X158756000Y-113039100D03*
X158756000Y-110499100D03*
X158756000Y-107959100D03*
X158756000Y-105419100D03*
X158756000Y-102879100D03*
X158756000Y-100339100D03*
D12*
X158756000Y-97799100D03*
D13*
X149000000Y-114400000D03*
X153200000Y-116600000D03*
X149000000Y-116600000D03*
X153200000Y-129600000D03*
X155922418Y-104922418D03*
X157000000Y-105600000D03*
X153600000Y-106800000D03*
X155700000Y-121600000D03*
X149236836Y-104669338D03*
X152099999Y-107810300D03*
X154909089Y-126741122D03*
D14*
X151000000Y-115579100D03*
D13*
X145880000Y-106980000D03*
X152150000Y-124100000D03*
X155112736Y-111312637D03*
X145000000Y-131250000D03*
X150760216Y-122292594D03*
X157749990Y-117250010D03*
X157968509Y-111728257D03*
X145731257Y-113625166D03*
X145300000Y-117249986D03*
X146091928Y-119651156D03*
X146867390Y-126340000D03*
X156500000Y-97750000D03*
X145750000Y-97750000D03*
X156500000Y-98500000D03*
X145750000Y-98500000D03*
X149750000Y-107250000D03*
X152500000Y-107250000D03*
X156600000Y-121637500D03*
X152946747Y-120902552D03*
X156997400Y-127952500D03*
X147543418Y-128198451D03*
X155500011Y-115117474D03*
X150498056Y-109330025D03*
X146700000Y-113700000D03*
X147488039Y-121117390D03*
X152260487Y-126617490D03*
X152550000Y-125400000D03*
X148400000Y-121600000D03*
X151000000Y-128300000D03*
X156450000Y-111850000D03*
X150500638Y-110015122D03*
X147326000Y-102879100D03*
X146388464Y-118999827D03*
X149199998Y-103950000D03*
X150500408Y-108669618D03*
X152500000Y-110034789D03*
X150237693Y-103955178D03*
X151854423Y-103963063D03*
X151900000Y-106600000D03*
X150382755Y-111688613D03*
X151771309Y-110754876D03*
X146745374Y-119555488D03*
X147907798Y-128930402D03*
X146716721Y-117650764D03*
X147249999Y-120150000D03*
X155945693Y-110482793D03*
X145900000Y-115200000D03*
X155580010Y-116850000D03*
X157850000Y-116489576D03*
X145450000Y-101500004D03*
X144860000Y-118602610D03*
X151312722Y-121794290D03*
X145600000Y-128100000D03*
X152189597Y-121543563D03*
X145600000Y-127100000D03*
X154000000Y-126992390D03*
X152450000Y-111020000D03*
X153339947Y-127024981D03*
X152270000Y-111920000D03*
X152840722Y-127514797D03*
X151782112Y-111415199D03*
X154993449Y-123185640D03*
X149655943Y-124644057D03*
X147117421Y-122275000D03*
X152243541Y-123172690D03*
X146310026Y-129550002D03*
X151887737Y-120955996D03*
X145456288Y-125656298D03*
D15*
X148878575Y-128198451D02*
X147902628Y-128198451D01*
X152946747Y-124130279D02*
X148878575Y-128198451D01*
X152946747Y-120902552D02*
X152946747Y-124130279D01*
X147902628Y-128198451D02*
X147543418Y-128198451D01*
X147742038Y-120863391D02*
X147488039Y-121117390D01*
X148208234Y-120397195D02*
X147742038Y-120863391D01*
X152441390Y-120397195D02*
X148208234Y-120397195D01*
X152946747Y-120902552D02*
X152441390Y-120397195D01*
D16*
X150505710Y-121794290D02*
X150953512Y-121794290D01*
X146387413Y-126257906D02*
X146387413Y-125912587D01*
X146384789Y-127315211D02*
X146384789Y-126260530D01*
X146384789Y-126260530D02*
X146387413Y-126257906D01*
X145600000Y-128100000D02*
X146384789Y-127315211D01*
X146387413Y-125912587D02*
X150505710Y-121794290D01*
X150953512Y-121794290D02*
X151312722Y-121794290D01*
X150483411Y-121311689D02*
X145600000Y-126195100D01*
X151529180Y-121311689D02*
X150483411Y-121311689D01*
X145600000Y-126195100D02*
X145600000Y-126740790D01*
X145600000Y-126740790D02*
X145600000Y-127100000D01*
X151761054Y-121543563D02*
X151529180Y-121311689D01*
X152189597Y-121543563D02*
X151761054Y-121543563D01*
X152450000Y-111020000D02*
X152756579Y-111326579D01*
X154489622Y-114639622D02*
X154489622Y-125872512D01*
X152756579Y-112906579D02*
X154489622Y-114639622D01*
X152756579Y-111326579D02*
X152756579Y-112906579D01*
X154489622Y-125872512D02*
X154000000Y-126362133D01*
X154000000Y-126362133D02*
X154000000Y-126992390D01*
X153339947Y-127024981D02*
X153339947Y-126591119D01*
X154184811Y-125746256D02*
X154184811Y-114815877D01*
X153339947Y-126591119D02*
X154184811Y-125746256D01*
X154184811Y-114815877D02*
X152270000Y-112901066D01*
X152270000Y-112901066D02*
X152270000Y-111880001D01*
X151782112Y-111774409D02*
X151782112Y-111415199D01*
X152840722Y-127514797D02*
X152840722Y-126659278D01*
X153880000Y-125620000D02*
X153880000Y-114942133D01*
X152840722Y-126659278D02*
X153880000Y-125620000D01*
X153880000Y-114942133D02*
X151782112Y-112844245D01*
X151782112Y-112844245D02*
X151782112Y-111774409D01*
X143516000Y-125739100D02*
X143576900Y-125800000D01*
X150344004Y-120955996D02*
X145897701Y-125402299D01*
X145897701Y-125402299D02*
X145710287Y-125402299D01*
X151887737Y-120955996D02*
X150344004Y-120955996D01*
X145710287Y-125402299D02*
X145456288Y-125656298D01*
D17*
G36*
X155712179Y-97328901D02*
G01*
X155645164Y-97490688D01*
X155611000Y-97662441D01*
X155611000Y-97837559D01*
X155645164Y-98009312D01*
X155693084Y-98125000D01*
X155645164Y-98240688D01*
X155611000Y-98412441D01*
X155611000Y-98587559D01*
X155645164Y-98759312D01*
X155712179Y-98921099D01*
X155809469Y-99066704D01*
X155933296Y-99190531D01*
X156078901Y-99287821D01*
X156240688Y-99354836D01*
X156412441Y-99389000D01*
X156587559Y-99389000D01*
X156759312Y-99354836D01*
X156921099Y-99287821D01*
X157066704Y-99190531D01*
X157190531Y-99066704D01*
X157287821Y-98921099D01*
X157354836Y-98759312D01*
X157389000Y-98587559D01*
X157389000Y-98412441D01*
X157376341Y-98348799D01*
X157440010Y-98502511D01*
X157602525Y-98745732D01*
X157809368Y-98952575D01*
X157982885Y-99068515D01*
X157926986Y-99098394D01*
X157700866Y-99283966D01*
X157515294Y-99510086D01*
X157377401Y-99768066D01*
X157292487Y-100047989D01*
X157263815Y-100339100D01*
X157292487Y-100630211D01*
X157377401Y-100910134D01*
X157515294Y-101168114D01*
X157700866Y-101394234D01*
X157926986Y-101579806D01*
X157991523Y-101614301D01*
X157874645Y-101683922D01*
X157658412Y-101878831D01*
X157484359Y-102112180D01*
X157359175Y-102375001D01*
X157314524Y-102522210D01*
X157435845Y-102752100D01*
X158629000Y-102752100D01*
X158629000Y-102732100D01*
X158883000Y-102732100D01*
X158883000Y-102752100D01*
X158903000Y-102752100D01*
X158903000Y-103006100D01*
X158883000Y-103006100D01*
X158883000Y-103026100D01*
X158629000Y-103026100D01*
X158629000Y-103006100D01*
X157435845Y-103006100D01*
X157314524Y-103235990D01*
X157359175Y-103383199D01*
X157484359Y-103646020D01*
X157658412Y-103879369D01*
X157874645Y-104074278D01*
X157991523Y-104143899D01*
X157926986Y-104178394D01*
X157700866Y-104363966D01*
X157515294Y-104590086D01*
X157401027Y-104803865D01*
X157259312Y-104745164D01*
X157087559Y-104711000D01*
X156912441Y-104711000D01*
X156791563Y-104735044D01*
X156777254Y-104663106D01*
X156710239Y-104501319D01*
X156612949Y-104355714D01*
X156489122Y-104231887D01*
X156343517Y-104134597D01*
X156181730Y-104067582D01*
X156009977Y-104033418D01*
X155834859Y-104033418D01*
X155663106Y-104067582D01*
X155501319Y-104134597D01*
X155355714Y-104231887D01*
X155231887Y-104355714D01*
X155134597Y-104501319D01*
X155067582Y-104663106D01*
X155033418Y-104834859D01*
X155033418Y-105009977D01*
X155067582Y-105181730D01*
X155134597Y-105343517D01*
X155231887Y-105489122D01*
X155355714Y-105612949D01*
X155501319Y-105710239D01*
X155663106Y-105777254D01*
X155834859Y-105811418D01*
X156009977Y-105811418D01*
X156130855Y-105787374D01*
X156145164Y-105859312D01*
X156212179Y-106021099D01*
X156309469Y-106166704D01*
X156433296Y-106290531D01*
X156578901Y-106387821D01*
X156740688Y-106454836D01*
X156912441Y-106489000D01*
X157087559Y-106489000D01*
X157259312Y-106454836D01*
X157421099Y-106387821D01*
X157555983Y-106297694D01*
X157700866Y-106474234D01*
X157926986Y-106659806D01*
X157981791Y-106689100D01*
X157926986Y-106718394D01*
X157700866Y-106903966D01*
X157515294Y-107130086D01*
X157377401Y-107388066D01*
X157292487Y-107667989D01*
X157263815Y-107959100D01*
X157292487Y-108250211D01*
X157377401Y-108530134D01*
X157515294Y-108788114D01*
X157700866Y-109014234D01*
X157926986Y-109199806D01*
X157981791Y-109229100D01*
X157926986Y-109258394D01*
X157700866Y-109443966D01*
X157515294Y-109670086D01*
X157377401Y-109928066D01*
X157292487Y-110207989D01*
X157263815Y-110499100D01*
X157292487Y-110790211D01*
X157375538Y-111063993D01*
X157277978Y-111161553D01*
X157180688Y-111307158D01*
X157171422Y-111329528D01*
X157140531Y-111283296D01*
X157016704Y-111159469D01*
X156871099Y-111062179D01*
X156709312Y-110995164D01*
X156676843Y-110988706D01*
X156733514Y-110903892D01*
X156800529Y-110742105D01*
X156834693Y-110570352D01*
X156834693Y-110395234D01*
X156800529Y-110223481D01*
X156733514Y-110061694D01*
X156636224Y-109916089D01*
X156512397Y-109792262D01*
X156366792Y-109694972D01*
X156205005Y-109627957D01*
X156033252Y-109593793D01*
X155858134Y-109593793D01*
X155686381Y-109627957D01*
X155524594Y-109694972D01*
X155378989Y-109792262D01*
X155255162Y-109916089D01*
X155157872Y-110061694D01*
X155090857Y-110223481D01*
X155056693Y-110395234D01*
X155056693Y-110423637D01*
X155025177Y-110423637D01*
X154853424Y-110457801D01*
X154691637Y-110524816D01*
X154546032Y-110622106D01*
X154422205Y-110745933D01*
X154324915Y-110891538D01*
X154257900Y-111053325D01*
X154223736Y-111225078D01*
X154223736Y-111400196D01*
X154257900Y-111571949D01*
X154324915Y-111733736D01*
X154422205Y-111879341D01*
X154546032Y-112003168D01*
X154691637Y-112100458D01*
X154853424Y-112167473D01*
X155025177Y-112201637D01*
X155200295Y-112201637D01*
X155372048Y-112167473D01*
X155533835Y-112100458D01*
X155586414Y-112065326D01*
X155595164Y-112109312D01*
X155662179Y-112271099D01*
X155759469Y-112416704D01*
X155883296Y-112540531D01*
X156028901Y-112637821D01*
X156190688Y-112704836D01*
X156362441Y-112739000D01*
X156537559Y-112739000D01*
X156709312Y-112704836D01*
X156871099Y-112637821D01*
X157016704Y-112540531D01*
X157140531Y-112416704D01*
X157237821Y-112271099D01*
X157247087Y-112248729D01*
X157277978Y-112294961D01*
X157401805Y-112418788D01*
X157403231Y-112419741D01*
X157377401Y-112468066D01*
X157292487Y-112747989D01*
X157263815Y-113039100D01*
X157292487Y-113330211D01*
X157377401Y-113610134D01*
X157515294Y-113868114D01*
X157700866Y-114094234D01*
X157926986Y-114279806D01*
X157981791Y-114309100D01*
X157926986Y-114338394D01*
X157700866Y-114523966D01*
X157515294Y-114750086D01*
X157377401Y-115008066D01*
X157292487Y-115287989D01*
X157263815Y-115579100D01*
X157285343Y-115797677D01*
X157283296Y-115799045D01*
X157159469Y-115922872D01*
X157062179Y-116068477D01*
X156995164Y-116230264D01*
X156961000Y-116402017D01*
X156961000Y-116577135D01*
X156995164Y-116748888D01*
X157002999Y-116767804D01*
X156962169Y-116828911D01*
X156895154Y-116990698D01*
X156860990Y-117162451D01*
X156860990Y-117337569D01*
X156895154Y-117509322D01*
X156962169Y-117671109D01*
X157059459Y-117816714D01*
X157183286Y-117940541D01*
X157275343Y-118002052D01*
X157263815Y-118119100D01*
X157292487Y-118410211D01*
X157377401Y-118690134D01*
X157515294Y-118948114D01*
X157700866Y-119174234D01*
X157926986Y-119359806D01*
X157981791Y-119389100D01*
X157926986Y-119418394D01*
X157700866Y-119603966D01*
X157515294Y-119830086D01*
X157377401Y-120088066D01*
X157292487Y-120367989D01*
X157263815Y-120659100D01*
X157292487Y-120950211D01*
X157377401Y-121230134D01*
X157515294Y-121488114D01*
X157700866Y-121714234D01*
X157926986Y-121899806D01*
X157981791Y-121929100D01*
X157926986Y-121958394D01*
X157700866Y-122143966D01*
X157515294Y-122370086D01*
X157377401Y-122628066D01*
X157292487Y-122907989D01*
X157263815Y-123199100D01*
X157292487Y-123490211D01*
X157377401Y-123770134D01*
X157515294Y-124028114D01*
X157700866Y-124254234D01*
X157926986Y-124439806D01*
X157981791Y-124469100D01*
X157926986Y-124498394D01*
X157700866Y-124683966D01*
X157515294Y-124910086D01*
X157377401Y-125168066D01*
X157292487Y-125447989D01*
X157263815Y-125739100D01*
X157292487Y-126030211D01*
X157377401Y-126310134D01*
X157515294Y-126568114D01*
X157700866Y-126794234D01*
X157926986Y-126979806D01*
X157981791Y-127009100D01*
X157926986Y-127038394D01*
X157700866Y-127223966D01*
X157515294Y-127450086D01*
X157377401Y-127708066D01*
X157292487Y-127987989D01*
X157263815Y-128279100D01*
X157292487Y-128570211D01*
X157377401Y-128850134D01*
X157515294Y-129108114D01*
X157700866Y-129334234D01*
X157926986Y-129519806D01*
X157981791Y-129549100D01*
X157926986Y-129578394D01*
X157700866Y-129763966D01*
X157515294Y-129990086D01*
X157377401Y-130248066D01*
X157292487Y-130527989D01*
X157263815Y-130819100D01*
X157292487Y-131110211D01*
X157374054Y-131379100D01*
X145880737Y-131379100D01*
X145889000Y-131337559D01*
X145889000Y-131162441D01*
X145854836Y-130990688D01*
X145787821Y-130828901D01*
X145690531Y-130683296D01*
X145566704Y-130559469D01*
X145421099Y-130462179D01*
X145259312Y-130395164D01*
X145087559Y-130361000D01*
X144928857Y-130361000D01*
X144894599Y-130248066D01*
X144756706Y-129990086D01*
X144571134Y-129763966D01*
X144345014Y-129578394D01*
X144290209Y-129549100D01*
X144345014Y-129519806D01*
X144571134Y-129334234D01*
X144756706Y-129108114D01*
X144894599Y-128850134D01*
X144940752Y-128697987D01*
X145033296Y-128790531D01*
X145178901Y-128887821D01*
X145340688Y-128954836D01*
X145512441Y-128989000D01*
X145615685Y-128989000D01*
X145522205Y-129128903D01*
X145455190Y-129290690D01*
X145421026Y-129462443D01*
X145421026Y-129637561D01*
X145455190Y-129809314D01*
X145522205Y-129971101D01*
X145619495Y-130116706D01*
X145743322Y-130240533D01*
X145888927Y-130337823D01*
X146050714Y-130404838D01*
X146222467Y-130439002D01*
X146397585Y-130439002D01*
X146569338Y-130404838D01*
X146731125Y-130337823D01*
X146876730Y-130240533D01*
X147000557Y-130116706D01*
X147097847Y-129971101D01*
X147164862Y-129809314D01*
X147199026Y-129637561D01*
X147199026Y-129469806D01*
X147217267Y-129497106D01*
X147341094Y-129620933D01*
X147486699Y-129718223D01*
X147648486Y-129785238D01*
X147820239Y-129819402D01*
X147995357Y-129819402D01*
X148167110Y-129785238D01*
X148328897Y-129718223D01*
X148474502Y-129620933D01*
X148582994Y-129512441D01*
X152311000Y-129512441D01*
X152311000Y-129687559D01*
X152345164Y-129859312D01*
X152412179Y-130021099D01*
X152509469Y-130166704D01*
X152633296Y-130290531D01*
X152778901Y-130387821D01*
X152940688Y-130454836D01*
X153112441Y-130489000D01*
X153287559Y-130489000D01*
X153459312Y-130454836D01*
X153621099Y-130387821D01*
X153766704Y-130290531D01*
X153890531Y-130166704D01*
X153987821Y-130021099D01*
X154054836Y-129859312D01*
X154089000Y-129687559D01*
X154089000Y-129512441D01*
X154054836Y-129340688D01*
X153987821Y-129178901D01*
X153890531Y-129033296D01*
X153766704Y-128909469D01*
X153621099Y-128812179D01*
X153459312Y-128745164D01*
X153287559Y-128711000D01*
X153112441Y-128711000D01*
X152940688Y-128745164D01*
X152778901Y-128812179D01*
X152633296Y-128909469D01*
X152509469Y-129033296D01*
X152412179Y-129178901D01*
X152345164Y-129340688D01*
X152311000Y-129512441D01*
X148582994Y-129512441D01*
X148598329Y-129497106D01*
X148695619Y-129351501D01*
X148762634Y-129189714D01*
X148796798Y-129017961D01*
X148796798Y-128842843D01*
X148762634Y-128671090D01*
X148695619Y-128509303D01*
X148598329Y-128363698D01*
X148474502Y-128239871D01*
X148433451Y-128212441D01*
X150111000Y-128212441D01*
X150111000Y-128387559D01*
X150145164Y-128559312D01*
X150212179Y-128721099D01*
X150309469Y-128866704D01*
X150433296Y-128990531D01*
X150578901Y-129087821D01*
X150740688Y-129154836D01*
X150912441Y-129189000D01*
X151087559Y-129189000D01*
X151259312Y-129154836D01*
X151421099Y-129087821D01*
X151566704Y-128990531D01*
X151690531Y-128866704D01*
X151787821Y-128721099D01*
X151854836Y-128559312D01*
X151889000Y-128387559D01*
X151889000Y-128212441D01*
X151854836Y-128040688D01*
X151787821Y-127878901D01*
X151690531Y-127733296D01*
X151566704Y-127609469D01*
X151421099Y-127512179D01*
X151259312Y-127445164D01*
X151087559Y-127411000D01*
X150912441Y-127411000D01*
X150740688Y-127445164D01*
X150578901Y-127512179D01*
X150433296Y-127609469D01*
X150309469Y-127733296D01*
X150212179Y-127878901D01*
X150145164Y-128040688D01*
X150111000Y-128212441D01*
X148433451Y-128212441D01*
X148328897Y-128142581D01*
X148167110Y-128075566D01*
X147995357Y-128041402D01*
X147820239Y-128041402D01*
X147648486Y-128075566D01*
X147486699Y-128142581D01*
X147341094Y-128239871D01*
X147217267Y-128363698D01*
X147119977Y-128509303D01*
X147052962Y-128671090D01*
X147018798Y-128842843D01*
X147018798Y-129010598D01*
X147000557Y-128983298D01*
X146876730Y-128859471D01*
X146731125Y-128762181D01*
X146569338Y-128695166D01*
X146397585Y-128661002D01*
X146294341Y-128661002D01*
X146387821Y-128521099D01*
X146454836Y-128359312D01*
X146481742Y-128224046D01*
X146862989Y-127842800D01*
X146890115Y-127820538D01*
X146912377Y-127793412D01*
X146912386Y-127793403D01*
X146978991Y-127712244D01*
X146996813Y-127678901D01*
X147045031Y-127588692D01*
X147085698Y-127454631D01*
X147095989Y-127350147D01*
X147095989Y-127350138D01*
X147099429Y-127315212D01*
X147095989Y-127280286D01*
X147095989Y-127200945D01*
X147126702Y-127194836D01*
X147288489Y-127127821D01*
X147434094Y-127030531D01*
X147557921Y-126906704D01*
X147655211Y-126761099D01*
X147722226Y-126599312D01*
X147756390Y-126427559D01*
X147756390Y-126252441D01*
X147722226Y-126080688D01*
X147655211Y-125918901D01*
X147557921Y-125773296D01*
X147545206Y-125760581D01*
X148771326Y-124534462D01*
X148766943Y-124556498D01*
X148766943Y-124731616D01*
X148801107Y-124903369D01*
X148868122Y-125065156D01*
X148965412Y-125210761D01*
X149089239Y-125334588D01*
X149234844Y-125431878D01*
X149396631Y-125498893D01*
X149568384Y-125533057D01*
X149743502Y-125533057D01*
X149915255Y-125498893D01*
X150077042Y-125431878D01*
X150222647Y-125334588D01*
X150346474Y-125210761D01*
X150443764Y-125065156D01*
X150510779Y-124903369D01*
X150544943Y-124731616D01*
X150544943Y-124556498D01*
X150510779Y-124384745D01*
X150443764Y-124222958D01*
X150346474Y-124077353D01*
X150222647Y-123953526D01*
X150077042Y-123856236D01*
X149915255Y-123789221D01*
X149743502Y-123755057D01*
X149568384Y-123755057D01*
X149546348Y-123759440D01*
X150270933Y-123034856D01*
X150339117Y-123080415D01*
X150500904Y-123147430D01*
X150672657Y-123181594D01*
X150847775Y-123181594D01*
X151019528Y-123147430D01*
X151181315Y-123080415D01*
X151326920Y-122983125D01*
X151386728Y-122923317D01*
X151354541Y-123085131D01*
X151354541Y-123260249D01*
X151388705Y-123432002D01*
X151441686Y-123559909D01*
X151362179Y-123678901D01*
X151295164Y-123840688D01*
X151261000Y-124012441D01*
X151261000Y-124187559D01*
X151295164Y-124359312D01*
X151362179Y-124521099D01*
X151459469Y-124666704D01*
X151583296Y-124790531D01*
X151728901Y-124887821D01*
X151802630Y-124918361D01*
X151762179Y-124978901D01*
X151695164Y-125140688D01*
X151661000Y-125312441D01*
X151661000Y-125487559D01*
X151695164Y-125659312D01*
X151762179Y-125821099D01*
X151789969Y-125862690D01*
X151693783Y-125926959D01*
X151569956Y-126050786D01*
X151472666Y-126196391D01*
X151405651Y-126358178D01*
X151371487Y-126529931D01*
X151371487Y-126705049D01*
X151405651Y-126876802D01*
X151472666Y-127038589D01*
X151569956Y-127184194D01*
X151693783Y-127308021D01*
X151839388Y-127405311D01*
X151951722Y-127451842D01*
X151951722Y-127602356D01*
X151985886Y-127774109D01*
X152052901Y-127935896D01*
X152150191Y-128081501D01*
X152274018Y-128205328D01*
X152419623Y-128302618D01*
X152581410Y-128369633D01*
X152753163Y-128403797D01*
X152928281Y-128403797D01*
X153100034Y-128369633D01*
X153261821Y-128302618D01*
X153407426Y-128205328D01*
X153531253Y-128081501D01*
X153628543Y-127935896D01*
X153662648Y-127853560D01*
X153709314Y-127834230D01*
X153740688Y-127847226D01*
X153912441Y-127881390D01*
X154087559Y-127881390D01*
X154259312Y-127847226D01*
X154421099Y-127780211D01*
X154566704Y-127682921D01*
X154653022Y-127596603D01*
X154821530Y-127630122D01*
X154996648Y-127630122D01*
X155168401Y-127595958D01*
X155330188Y-127528943D01*
X155475793Y-127431653D01*
X155599620Y-127307826D01*
X155696910Y-127162221D01*
X155763925Y-127000434D01*
X155798089Y-126828681D01*
X155798089Y-126653563D01*
X155763925Y-126481810D01*
X155696910Y-126320023D01*
X155599620Y-126174418D01*
X155475793Y-126050591D01*
X155330188Y-125953301D01*
X155201553Y-125900018D01*
X155204262Y-125872513D01*
X155200822Y-125837587D01*
X155200822Y-124050807D01*
X155252761Y-124040476D01*
X155414548Y-123973461D01*
X155560153Y-123876171D01*
X155683980Y-123752344D01*
X155781270Y-123606739D01*
X155848285Y-123444952D01*
X155882449Y-123273199D01*
X155882449Y-123098081D01*
X155848285Y-122926328D01*
X155781270Y-122764541D01*
X155683980Y-122618936D01*
X155560153Y-122495109D01*
X155524971Y-122471601D01*
X155612441Y-122489000D01*
X155787559Y-122489000D01*
X155959312Y-122454836D01*
X156121099Y-122387821D01*
X156266704Y-122290531D01*
X156390531Y-122166704D01*
X156487821Y-122021099D01*
X156554836Y-121859312D01*
X156589000Y-121687559D01*
X156589000Y-121512441D01*
X156554836Y-121340688D01*
X156487821Y-121178901D01*
X156390531Y-121033296D01*
X156266704Y-120909469D01*
X156121099Y-120812179D01*
X155959312Y-120745164D01*
X155787559Y-120711000D01*
X155612441Y-120711000D01*
X155440688Y-120745164D01*
X155278901Y-120812179D01*
X155200822Y-120864350D01*
X155200822Y-117655181D01*
X155320698Y-117704836D01*
X155492451Y-117739000D01*
X155667569Y-117739000D01*
X155839322Y-117704836D01*
X156001109Y-117637821D01*
X156146714Y-117540531D01*
X156270541Y-117416704D01*
X156367831Y-117271099D01*
X156434846Y-117109312D01*
X156469010Y-116937559D01*
X156469010Y-116762441D01*
X156434846Y-116590688D01*
X156367831Y-116428901D01*
X156270541Y-116283296D01*
X156146714Y-116159469D01*
X156001109Y-116062179D01*
X155839322Y-115995164D01*
X155667569Y-115961000D01*
X155492451Y-115961000D01*
X155320698Y-115995164D01*
X155200822Y-116044819D01*
X155200822Y-114674550D01*
X155204262Y-114639622D01*
X155200822Y-114604693D01*
X155200822Y-114604686D01*
X155190531Y-114500202D01*
X155149864Y-114366141D01*
X155083824Y-114242589D01*
X155049283Y-114200501D01*
X155017219Y-114161431D01*
X155017215Y-114161427D01*
X154994948Y-114134295D01*
X154967817Y-114112029D01*
X153467779Y-112611992D01*
X153467779Y-111361504D01*
X153471219Y-111326578D01*
X153467779Y-111291652D01*
X153467779Y-111291643D01*
X153457488Y-111187159D01*
X153416821Y-111053098D01*
X153350781Y-110929546D01*
X153334471Y-110909673D01*
X153304836Y-110760688D01*
X153237821Y-110598901D01*
X153215042Y-110564810D01*
X153287821Y-110455888D01*
X153354836Y-110294101D01*
X153389000Y-110122348D01*
X153389000Y-109947230D01*
X153354836Y-109775477D01*
X153287821Y-109613690D01*
X153190531Y-109468085D01*
X153066704Y-109344258D01*
X152921099Y-109246968D01*
X152759312Y-109179953D01*
X152587559Y-109145789D01*
X152412441Y-109145789D01*
X152240688Y-109179953D01*
X152078901Y-109246968D01*
X151933296Y-109344258D01*
X151809469Y-109468085D01*
X151712179Y-109613690D01*
X151645164Y-109775477D01*
X151624852Y-109877592D01*
X151511997Y-109900040D01*
X151389638Y-109950723D01*
X151389638Y-109927563D01*
X151355474Y-109755810D01*
X151288459Y-109594023D01*
X151191169Y-109448418D01*
X151085006Y-109342255D01*
X151190939Y-109236322D01*
X151288229Y-109090717D01*
X151355244Y-108928930D01*
X151389408Y-108757177D01*
X151389408Y-108582059D01*
X151355244Y-108410306D01*
X151288229Y-108248519D01*
X151190939Y-108102914D01*
X151067112Y-107979087D01*
X150921507Y-107881797D01*
X150759720Y-107814782D01*
X150587967Y-107780618D01*
X150412849Y-107780618D01*
X150241096Y-107814782D01*
X150079309Y-107881797D01*
X149933704Y-107979087D01*
X149809877Y-108102914D01*
X149712587Y-108248519D01*
X149645572Y-108410306D01*
X149611408Y-108582059D01*
X149611408Y-108757177D01*
X149645572Y-108928930D01*
X149712587Y-109090717D01*
X149809877Y-109236322D01*
X149916040Y-109342485D01*
X149810107Y-109448418D01*
X149712817Y-109594023D01*
X149645802Y-109755810D01*
X149611638Y-109927563D01*
X149611638Y-110102681D01*
X149645802Y-110274434D01*
X149712817Y-110436221D01*
X149810107Y-110581826D01*
X149933934Y-110705653D01*
X150079539Y-110802943D01*
X150144072Y-110829674D01*
X150123443Y-110833777D01*
X149961656Y-110900792D01*
X149816051Y-110998082D01*
X149692224Y-111121909D01*
X149594934Y-111267514D01*
X149527919Y-111429301D01*
X149493755Y-111601054D01*
X149493755Y-111776172D01*
X149527919Y-111947925D01*
X149594934Y-112109712D01*
X149692224Y-112255317D01*
X149816051Y-112379144D01*
X149961656Y-112476434D01*
X150123443Y-112543449D01*
X150295196Y-112577613D01*
X150470314Y-112577613D01*
X150642067Y-112543449D01*
X150803854Y-112476434D01*
X150949459Y-112379144D01*
X151070913Y-112257690D01*
X151070912Y-112809319D01*
X151067472Y-112844245D01*
X151070912Y-112879171D01*
X151070912Y-112879180D01*
X151081203Y-112983664D01*
X151121870Y-113117725D01*
X151187910Y-113241277D01*
X151276785Y-113349571D01*
X151303922Y-113371842D01*
X151417374Y-113485294D01*
X151210279Y-113444100D01*
X150789721Y-113444100D01*
X150377244Y-113526147D01*
X149988698Y-113687088D01*
X149715023Y-113869951D01*
X149690531Y-113833296D01*
X149566704Y-113709469D01*
X149421099Y-113612179D01*
X149259312Y-113545164D01*
X149087559Y-113511000D01*
X148912441Y-113511000D01*
X148740688Y-113545164D01*
X148578901Y-113612179D01*
X148433296Y-113709469D01*
X148309469Y-113833296D01*
X148212179Y-113978901D01*
X148145164Y-114140688D01*
X148111000Y-114312441D01*
X148111000Y-114487559D01*
X148145164Y-114659312D01*
X148212179Y-114821099D01*
X148309469Y-114966704D01*
X148433296Y-115090531D01*
X148578901Y-115187821D01*
X148740688Y-115254836D01*
X148882079Y-115282961D01*
X148865000Y-115368821D01*
X148865000Y-115720437D01*
X148740688Y-115745164D01*
X148578901Y-115812179D01*
X148433296Y-115909469D01*
X148309469Y-116033296D01*
X148212179Y-116178901D01*
X148145164Y-116340688D01*
X148111000Y-116512441D01*
X148111000Y-116687559D01*
X148145164Y-116859312D01*
X148212179Y-117021099D01*
X148309469Y-117166704D01*
X148433296Y-117290531D01*
X148578901Y-117387821D01*
X148740688Y-117454836D01*
X148912441Y-117489000D01*
X149087559Y-117489000D01*
X149259312Y-117454836D01*
X149421099Y-117387821D01*
X149566704Y-117290531D01*
X149629395Y-117227841D01*
X149639017Y-117237463D01*
X149988698Y-117471112D01*
X150377244Y-117632053D01*
X150789721Y-117714100D01*
X151210279Y-117714100D01*
X151622756Y-117632053D01*
X152011302Y-117471112D01*
X152360983Y-117237463D01*
X152478336Y-117120110D01*
X152509469Y-117166704D01*
X152633296Y-117290531D01*
X152778901Y-117387821D01*
X152940688Y-117454836D01*
X153112441Y-117489000D01*
X153168801Y-117489000D01*
X153168800Y-124761565D01*
X153116704Y-124709469D01*
X152971099Y-124612179D01*
X152897370Y-124581639D01*
X152937821Y-124521099D01*
X153004836Y-124359312D01*
X153039000Y-124187559D01*
X153039000Y-124012441D01*
X153004836Y-123840688D01*
X152951855Y-123712781D01*
X153031362Y-123593789D01*
X153098377Y-123432002D01*
X153132541Y-123260249D01*
X153132541Y-123085131D01*
X153098377Y-122913378D01*
X153031362Y-122751591D01*
X152934072Y-122605986D01*
X152810245Y-122482159D01*
X152664640Y-122384869D01*
X152573107Y-122346954D01*
X152610696Y-122331384D01*
X152756301Y-122234094D01*
X152880128Y-122110267D01*
X152977418Y-121964662D01*
X153044433Y-121802875D01*
X153078597Y-121631122D01*
X153078597Y-121456004D01*
X153044433Y-121284251D01*
X152977418Y-121122464D01*
X152880128Y-120976859D01*
X152776737Y-120873468D01*
X152776737Y-120868437D01*
X152742573Y-120696684D01*
X152675558Y-120534897D01*
X152578268Y-120389292D01*
X152454441Y-120265465D01*
X152308836Y-120168175D01*
X152147049Y-120101160D01*
X151975296Y-120066996D01*
X151800178Y-120066996D01*
X151628425Y-120101160D01*
X151466638Y-120168175D01*
X151351966Y-120244796D01*
X150378929Y-120244796D01*
X150344003Y-120241356D01*
X150309077Y-120244796D01*
X150309068Y-120244796D01*
X150204584Y-120255087D01*
X150070523Y-120295754D01*
X149946971Y-120361794D01*
X149838677Y-120450669D01*
X149816407Y-120477805D01*
X149158778Y-121135434D01*
X149090531Y-121033296D01*
X148966704Y-120909469D01*
X148821099Y-120812179D01*
X148659312Y-120745164D01*
X148487559Y-120711000D01*
X148312441Y-120711000D01*
X148140688Y-120745164D01*
X147978901Y-120812179D01*
X147833296Y-120909469D01*
X147709469Y-121033296D01*
X147612179Y-121178901D01*
X147545164Y-121340688D01*
X147517737Y-121478570D01*
X147376733Y-121420164D01*
X147204980Y-121386000D01*
X147029862Y-121386000D01*
X146858109Y-121420164D01*
X146696322Y-121487179D01*
X146550717Y-121584469D01*
X146426890Y-121708296D01*
X146329600Y-121853901D01*
X146262585Y-122015688D01*
X146228421Y-122187441D01*
X146228421Y-122362559D01*
X146262585Y-122534312D01*
X146329600Y-122696099D01*
X146426890Y-122841704D01*
X146550717Y-122965531D01*
X146696322Y-123062821D01*
X146858109Y-123129836D01*
X147029862Y-123164000D01*
X147130213Y-123164000D01*
X145595222Y-124698991D01*
X145570867Y-124701390D01*
X145436806Y-124742057D01*
X145389583Y-124767298D01*
X145368729Y-124767298D01*
X145196976Y-124801462D01*
X145035189Y-124868477D01*
X144889584Y-124965767D01*
X144822386Y-125032965D01*
X144756706Y-124910086D01*
X144571134Y-124683966D01*
X144345014Y-124498394D01*
X144290209Y-124469100D01*
X144345014Y-124439806D01*
X144571134Y-124254234D01*
X144756706Y-124028114D01*
X144894599Y-123770134D01*
X144979513Y-123490211D01*
X145008185Y-123199100D01*
X144979513Y-122907989D01*
X144894599Y-122628066D01*
X144756706Y-122370086D01*
X144571134Y-122143966D01*
X144345014Y-121958394D01*
X144290209Y-121929100D01*
X144345014Y-121899806D01*
X144571134Y-121714234D01*
X144756706Y-121488114D01*
X144894599Y-121230134D01*
X144979513Y-120950211D01*
X145008185Y-120659100D01*
X144979513Y-120367989D01*
X144894599Y-120088066D01*
X144756706Y-119830086D01*
X144571134Y-119603966D01*
X144345014Y-119418394D01*
X144290209Y-119389100D01*
X144345014Y-119359806D01*
X144366580Y-119342108D01*
X144438901Y-119390431D01*
X144600688Y-119457446D01*
X144772441Y-119491610D01*
X144947559Y-119491610D01*
X145119312Y-119457446D01*
X145233447Y-119410169D01*
X145202928Y-119563597D01*
X145202928Y-119738715D01*
X145237092Y-119910468D01*
X145304107Y-120072255D01*
X145401397Y-120217860D01*
X145525224Y-120341687D01*
X145670829Y-120438977D01*
X145832616Y-120505992D01*
X146004369Y-120540156D01*
X146179487Y-120540156D01*
X146351240Y-120505992D01*
X146422912Y-120476304D01*
X146462178Y-120571099D01*
X146559468Y-120716704D01*
X146683295Y-120840531D01*
X146828900Y-120937821D01*
X146990687Y-121004836D01*
X147162440Y-121039000D01*
X147337558Y-121039000D01*
X147509311Y-121004836D01*
X147671098Y-120937821D01*
X147816703Y-120840531D01*
X147940530Y-120716704D01*
X148037820Y-120571099D01*
X148104835Y-120409312D01*
X148138999Y-120237559D01*
X148138999Y-120062441D01*
X148104835Y-119890688D01*
X148037820Y-119728901D01*
X147940530Y-119583296D01*
X147816703Y-119459469D01*
X147671098Y-119362179D01*
X147608153Y-119336106D01*
X147600210Y-119296176D01*
X147533195Y-119134389D01*
X147435905Y-118988784D01*
X147312078Y-118864957D01*
X147261305Y-118831032D01*
X147243300Y-118740515D01*
X147176285Y-118578728D01*
X147094605Y-118456485D01*
X147137820Y-118438585D01*
X147283425Y-118341295D01*
X147407252Y-118217468D01*
X147504542Y-118071863D01*
X147571557Y-117910076D01*
X147605721Y-117738323D01*
X147605721Y-117563205D01*
X147571557Y-117391452D01*
X147504542Y-117229665D01*
X147407252Y-117084060D01*
X147283425Y-116960233D01*
X147137820Y-116862943D01*
X146976033Y-116795928D01*
X146804280Y-116761764D01*
X146629162Y-116761764D01*
X146457409Y-116795928D01*
X146295622Y-116862943D01*
X146150017Y-116960233D01*
X146144509Y-116965741D01*
X146087821Y-116828887D01*
X145990531Y-116683282D01*
X145866704Y-116559455D01*
X145721099Y-116462165D01*
X145559312Y-116395150D01*
X145387559Y-116360986D01*
X145212441Y-116360986D01*
X145040688Y-116395150D01*
X144878901Y-116462165D01*
X144733296Y-116559455D01*
X144609469Y-116683282D01*
X144512179Y-116828887D01*
X144454465Y-116968219D01*
X144345014Y-116878394D01*
X144290209Y-116849100D01*
X144345014Y-116819806D01*
X144571134Y-116634234D01*
X144756706Y-116408114D01*
X144894599Y-116150134D01*
X144979513Y-115870211D01*
X145008185Y-115579100D01*
X144979513Y-115287989D01*
X144894599Y-115008066D01*
X144756706Y-114750086D01*
X144571134Y-114523966D01*
X144345014Y-114338394D01*
X144290209Y-114309100D01*
X144345014Y-114279806D01*
X144571134Y-114094234D01*
X144756706Y-113868114D01*
X144842257Y-113708059D01*
X144842257Y-113712725D01*
X144876421Y-113884478D01*
X144943436Y-114046265D01*
X145040726Y-114191870D01*
X145164553Y-114315697D01*
X145310158Y-114412987D01*
X145413579Y-114455826D01*
X145333296Y-114509469D01*
X145209469Y-114633296D01*
X145112179Y-114778901D01*
X145045164Y-114940688D01*
X145011000Y-115112441D01*
X145011000Y-115287559D01*
X145045164Y-115459312D01*
X145112179Y-115621099D01*
X145209469Y-115766704D01*
X145333296Y-115890531D01*
X145478901Y-115987821D01*
X145640688Y-116054836D01*
X145812441Y-116089000D01*
X145987559Y-116089000D01*
X146159312Y-116054836D01*
X146321099Y-115987821D01*
X146466704Y-115890531D01*
X146590531Y-115766704D01*
X146687821Y-115621099D01*
X146754836Y-115459312D01*
X146789000Y-115287559D01*
X146789000Y-115112441D01*
X146754836Y-114940688D01*
X146687821Y-114778901D01*
X146590531Y-114633296D01*
X146466704Y-114509469D01*
X146321099Y-114412179D01*
X146217678Y-114369340D01*
X146297961Y-114315697D01*
X146421788Y-114191870D01*
X146519078Y-114046265D01*
X146586093Y-113884478D01*
X146620257Y-113712725D01*
X146620257Y-113537607D01*
X146586093Y-113365854D01*
X146519078Y-113204067D01*
X146421788Y-113058462D01*
X146297961Y-112934635D01*
X146152356Y-112837345D01*
X145990569Y-112770330D01*
X145818816Y-112736166D01*
X145643698Y-112736166D01*
X145471945Y-112770330D01*
X145310158Y-112837345D01*
X145164553Y-112934635D01*
X145040726Y-113058462D01*
X145000322Y-113118930D01*
X145008185Y-113039100D01*
X144979513Y-112747989D01*
X144894599Y-112468066D01*
X144756706Y-112210086D01*
X144571134Y-111983966D01*
X144345014Y-111798394D01*
X144290209Y-111769100D01*
X144345014Y-111739806D01*
X144571134Y-111554234D01*
X144756706Y-111328114D01*
X144894599Y-111070134D01*
X144979513Y-110790211D01*
X145008185Y-110499100D01*
X144979513Y-110207989D01*
X144894599Y-109928066D01*
X144756706Y-109670086D01*
X144571134Y-109443966D01*
X144345014Y-109258394D01*
X144290209Y-109229100D01*
X144345014Y-109199806D01*
X144571134Y-109014234D01*
X144756706Y-108788114D01*
X144894599Y-108530134D01*
X144979513Y-108250211D01*
X145008185Y-107959100D01*
X144979513Y-107667989D01*
X144894599Y-107388066D01*
X144756706Y-107130086D01*
X144571134Y-106903966D01*
X144557091Y-106892441D01*
X144991000Y-106892441D01*
X144991000Y-107067559D01*
X145025164Y-107239312D01*
X145092179Y-107401099D01*
X145189469Y-107546704D01*
X145313296Y-107670531D01*
X145458901Y-107767821D01*
X145620688Y-107834836D01*
X145792441Y-107869000D01*
X145967559Y-107869000D01*
X146139312Y-107834836D01*
X146301099Y-107767821D01*
X146446704Y-107670531D01*
X146570531Y-107546704D01*
X146667821Y-107401099D01*
X146734836Y-107239312D01*
X146769000Y-107067559D01*
X146769000Y-106892441D01*
X146734836Y-106720688D01*
X146667821Y-106558901D01*
X146636778Y-106512441D01*
X151011000Y-106512441D01*
X151011000Y-106687559D01*
X151045164Y-106859312D01*
X151112179Y-107021099D01*
X151209469Y-107166704D01*
X151333296Y-107290531D01*
X151364276Y-107311231D01*
X151312178Y-107389201D01*
X151245163Y-107550988D01*
X151210999Y-107722741D01*
X151210999Y-107897859D01*
X151245163Y-108069612D01*
X151312178Y-108231399D01*
X151409468Y-108377004D01*
X151533295Y-108500831D01*
X151678900Y-108598121D01*
X151840687Y-108665136D01*
X152012440Y-108699300D01*
X152187558Y-108699300D01*
X152359311Y-108665136D01*
X152521098Y-108598121D01*
X152666703Y-108500831D01*
X152790530Y-108377004D01*
X152887820Y-108231399D01*
X152954835Y-108069612D01*
X152988999Y-107897859D01*
X152988999Y-107722741D01*
X152954835Y-107550988D01*
X152887820Y-107389201D01*
X152790530Y-107243596D01*
X152666703Y-107119769D01*
X152635723Y-107099069D01*
X152687821Y-107021099D01*
X152721426Y-106939971D01*
X152745164Y-107059312D01*
X152812179Y-107221099D01*
X152909469Y-107366704D01*
X153033296Y-107490531D01*
X153178901Y-107587821D01*
X153340688Y-107654836D01*
X153512441Y-107689000D01*
X153687559Y-107689000D01*
X153859312Y-107654836D01*
X154021099Y-107587821D01*
X154166704Y-107490531D01*
X154290531Y-107366704D01*
X154387821Y-107221099D01*
X154454836Y-107059312D01*
X154489000Y-106887559D01*
X154489000Y-106712441D01*
X154454836Y-106540688D01*
X154387821Y-106378901D01*
X154290531Y-106233296D01*
X154166704Y-106109469D01*
X154021099Y-106012179D01*
X153859312Y-105945164D01*
X153687559Y-105911000D01*
X153512441Y-105911000D01*
X153340688Y-105945164D01*
X153178901Y-106012179D01*
X153033296Y-106109469D01*
X152909469Y-106233296D01*
X152812179Y-106378901D01*
X152778574Y-106460029D01*
X152754836Y-106340688D01*
X152687821Y-106178901D01*
X152590531Y-106033296D01*
X152466704Y-105909469D01*
X152321099Y-105812179D01*
X152159312Y-105745164D01*
X151987559Y-105711000D01*
X151812441Y-105711000D01*
X151640688Y-105745164D01*
X151478901Y-105812179D01*
X151333296Y-105909469D01*
X151209469Y-106033296D01*
X151112179Y-106178901D01*
X151045164Y-106340688D01*
X151011000Y-106512441D01*
X146636778Y-106512441D01*
X146570531Y-106413296D01*
X146446704Y-106289469D01*
X146301099Y-106192179D01*
X146139312Y-106125164D01*
X145967559Y-106091000D01*
X145792441Y-106091000D01*
X145620688Y-106125164D01*
X145458901Y-106192179D01*
X145313296Y-106289469D01*
X145189469Y-106413296D01*
X145092179Y-106558901D01*
X145025164Y-106720688D01*
X144991000Y-106892441D01*
X144557091Y-106892441D01*
X144345014Y-106718394D01*
X144290209Y-106689100D01*
X144345014Y-106659806D01*
X144571134Y-106474234D01*
X144756706Y-106248114D01*
X144894599Y-105990134D01*
X144979513Y-105710211D01*
X145008185Y-105419100D01*
X144979513Y-105127989D01*
X144894599Y-104848066D01*
X144756706Y-104590086D01*
X144571134Y-104363966D01*
X144345014Y-104178394D01*
X144290209Y-104149100D01*
X144345014Y-104119806D01*
X144571134Y-103934234D01*
X144630053Y-103862441D01*
X148310998Y-103862441D01*
X148310998Y-104037559D01*
X148345162Y-104209312D01*
X148405151Y-104354136D01*
X148382000Y-104410026D01*
X148347836Y-104581779D01*
X148347836Y-104756897D01*
X148382000Y-104928650D01*
X148449015Y-105090437D01*
X148546305Y-105236042D01*
X148670132Y-105359869D01*
X148815737Y-105457159D01*
X148977524Y-105524174D01*
X149149277Y-105558338D01*
X149324395Y-105558338D01*
X149496148Y-105524174D01*
X149657935Y-105457159D01*
X149803540Y-105359869D01*
X149927367Y-105236042D01*
X150024657Y-105090437D01*
X150091672Y-104928650D01*
X150110060Y-104836207D01*
X150150134Y-104844178D01*
X150325252Y-104844178D01*
X150497005Y-104810014D01*
X150658792Y-104742999D01*
X150804397Y-104645709D01*
X150928224Y-104521882D01*
X151025514Y-104376277D01*
X151044425Y-104330622D01*
X151066602Y-104384162D01*
X151163892Y-104529767D01*
X151287719Y-104653594D01*
X151433324Y-104750884D01*
X151595111Y-104817899D01*
X151766864Y-104852063D01*
X151941982Y-104852063D01*
X152113735Y-104817899D01*
X152275522Y-104750884D01*
X152421127Y-104653594D01*
X152544954Y-104529767D01*
X152642244Y-104384162D01*
X152709259Y-104222375D01*
X152743423Y-104050622D01*
X152743423Y-103875504D01*
X152709259Y-103703751D01*
X152642244Y-103541964D01*
X152544954Y-103396359D01*
X152421127Y-103272532D01*
X152275522Y-103175242D01*
X152113735Y-103108227D01*
X151941982Y-103074063D01*
X151766864Y-103074063D01*
X151595111Y-103108227D01*
X151433324Y-103175242D01*
X151287719Y-103272532D01*
X151163892Y-103396359D01*
X151066602Y-103541964D01*
X151047691Y-103587619D01*
X151025514Y-103534079D01*
X150928224Y-103388474D01*
X150804397Y-103264647D01*
X150658792Y-103167357D01*
X150497005Y-103100342D01*
X150325252Y-103066178D01*
X150150134Y-103066178D01*
X149978381Y-103100342D01*
X149816594Y-103167357D01*
X149722720Y-103230081D01*
X149621097Y-103162179D01*
X149459310Y-103095164D01*
X149287557Y-103061000D01*
X149112439Y-103061000D01*
X148940686Y-103095164D01*
X148778899Y-103162179D01*
X148633294Y-103259469D01*
X148509467Y-103383296D01*
X148412177Y-103528901D01*
X148345162Y-103690688D01*
X148310998Y-103862441D01*
X144630053Y-103862441D01*
X144756706Y-103708114D01*
X144894599Y-103450134D01*
X144979513Y-103170211D01*
X145008185Y-102879100D01*
X144999562Y-102791541D01*
X146437000Y-102791541D01*
X146437000Y-102966659D01*
X146471164Y-103138412D01*
X146538179Y-103300199D01*
X146635469Y-103445804D01*
X146759296Y-103569631D01*
X146904901Y-103666921D01*
X147066688Y-103733936D01*
X147238441Y-103768100D01*
X147413559Y-103768100D01*
X147585312Y-103733936D01*
X147747099Y-103666921D01*
X147892704Y-103569631D01*
X148016531Y-103445804D01*
X148113821Y-103300199D01*
X148180836Y-103138412D01*
X148215000Y-102966659D01*
X148215000Y-102791541D01*
X148180836Y-102619788D01*
X148113821Y-102458001D01*
X148016531Y-102312396D01*
X147892704Y-102188569D01*
X147747099Y-102091279D01*
X147585312Y-102024264D01*
X147413559Y-101990100D01*
X147238441Y-101990100D01*
X147066688Y-102024264D01*
X146904901Y-102091279D01*
X146759296Y-102188569D01*
X146635469Y-102312396D01*
X146538179Y-102458001D01*
X146471164Y-102619788D01*
X146437000Y-102791541D01*
X144999562Y-102791541D01*
X144979513Y-102587989D01*
X144894599Y-102308066D01*
X144772620Y-102079859D01*
X144883296Y-102190535D01*
X145028901Y-102287825D01*
X145190688Y-102354840D01*
X145362441Y-102389004D01*
X145537559Y-102389004D01*
X145709312Y-102354840D01*
X145871099Y-102287825D01*
X146016704Y-102190535D01*
X146140531Y-102066708D01*
X146237821Y-101921103D01*
X146304836Y-101759316D01*
X146339000Y-101587563D01*
X146339000Y-101412445D01*
X146304836Y-101240692D01*
X146237821Y-101078905D01*
X146140531Y-100933300D01*
X146016704Y-100809473D01*
X145871099Y-100712183D01*
X145709312Y-100645168D01*
X145537559Y-100611004D01*
X145362441Y-100611004D01*
X145190688Y-100645168D01*
X145028901Y-100712183D01*
X144935770Y-100774411D01*
X144979513Y-100630211D01*
X145008185Y-100339100D01*
X144979513Y-100047989D01*
X144894599Y-99768066D01*
X144756706Y-99510086D01*
X144571134Y-99283966D01*
X144541313Y-99259493D01*
X144610180Y-99238602D01*
X144720494Y-99179637D01*
X144817185Y-99100285D01*
X144896537Y-99003594D01*
X144952772Y-98898388D01*
X144962179Y-98921099D01*
X145059469Y-99066704D01*
X145183296Y-99190531D01*
X145328901Y-99287821D01*
X145490688Y-99354836D01*
X145662441Y-99389000D01*
X145837559Y-99389000D01*
X146009312Y-99354836D01*
X146171099Y-99287821D01*
X146316704Y-99190531D01*
X146440531Y-99066704D01*
X146537821Y-98921099D01*
X146604836Y-98759312D01*
X146639000Y-98587559D01*
X146639000Y-98412441D01*
X146604836Y-98240688D01*
X146556916Y-98125000D01*
X146604836Y-98009312D01*
X146639000Y-97837559D01*
X146639000Y-97662441D01*
X146604836Y-97490688D01*
X146537821Y-97328901D01*
X146477818Y-97239100D01*
X155772182Y-97239100D01*
X155712179Y-97328901D01*
X155712179Y-97328901D01*
G37*
X155712179Y-97328901D02*
X155645164Y-97490688D01*
X155611000Y-97662441D01*
X155611000Y-97837559D01*
X155645164Y-98009312D01*
X155693084Y-98125000D01*
X155645164Y-98240688D01*
X155611000Y-98412441D01*
X155611000Y-98587559D01*
X155645164Y-98759312D01*
X155712179Y-98921099D01*
X155809469Y-99066704D01*
X155933296Y-99190531D01*
X156078901Y-99287821D01*
X156240688Y-99354836D01*
X156412441Y-99389000D01*
X156587559Y-99389000D01*
X156759312Y-99354836D01*
X156921099Y-99287821D01*
X157066704Y-99190531D01*
X157190531Y-99066704D01*
X157287821Y-98921099D01*
X157354836Y-98759312D01*
X157389000Y-98587559D01*
X157389000Y-98412441D01*
X157376341Y-98348799D01*
X157440010Y-98502511D01*
X157602525Y-98745732D01*
X157809368Y-98952575D01*
X157982885Y-99068515D01*
X157926986Y-99098394D01*
X157700866Y-99283966D01*
X157515294Y-99510086D01*
X157377401Y-99768066D01*
X157292487Y-100047989D01*
X157263815Y-100339100D01*
X157292487Y-100630211D01*
X157377401Y-100910134D01*
X157515294Y-101168114D01*
X157700866Y-101394234D01*
X157926986Y-101579806D01*
X157991523Y-101614301D01*
X157874645Y-101683922D01*
X157658412Y-101878831D01*
X157484359Y-102112180D01*
X157359175Y-102375001D01*
X157314524Y-102522210D01*
X157435845Y-102752100D01*
X158629000Y-102752100D01*
X158629000Y-102732100D01*
X158883000Y-102732100D01*
X158883000Y-102752100D01*
X158903000Y-102752100D01*
X158903000Y-103006100D01*
X158883000Y-103006100D01*
X158883000Y-103026100D01*
X158629000Y-103026100D01*
X158629000Y-103006100D01*
X157435845Y-103006100D01*
X157314524Y-103235990D01*
X157359175Y-103383199D01*
X157484359Y-103646020D01*
X157658412Y-103879369D01*
X157874645Y-104074278D01*
X157991523Y-104143899D01*
X157926986Y-104178394D01*
X157700866Y-104363966D01*
X157515294Y-104590086D01*
X157401027Y-104803865D01*
X157259312Y-104745164D01*
X157087559Y-104711000D01*
X156912441Y-104711000D01*
X156791563Y-104735044D01*
X156777254Y-104663106D01*
X156710239Y-104501319D01*
X156612949Y-104355714D01*
X156489122Y-104231887D01*
X156343517Y-104134597D01*
X156181730Y-104067582D01*
X156009977Y-104033418D01*
X155834859Y-104033418D01*
X155663106Y-104067582D01*
X155501319Y-104134597D01*
X155355714Y-104231887D01*
X155231887Y-104355714D01*
X155134597Y-104501319D01*
X155067582Y-104663106D01*
X155033418Y-104834859D01*
X155033418Y-105009977D01*
X155067582Y-105181730D01*
X155134597Y-105343517D01*
X155231887Y-105489122D01*
X155355714Y-105612949D01*
X155501319Y-105710239D01*
X155663106Y-105777254D01*
X155834859Y-105811418D01*
X156009977Y-105811418D01*
X156130855Y-105787374D01*
X156145164Y-105859312D01*
X156212179Y-106021099D01*
X156309469Y-106166704D01*
X156433296Y-106290531D01*
X156578901Y-106387821D01*
X156740688Y-106454836D01*
X156912441Y-106489000D01*
X157087559Y-106489000D01*
X157259312Y-106454836D01*
X157421099Y-106387821D01*
X157555983Y-106297694D01*
X157700866Y-106474234D01*
X157926986Y-106659806D01*
X157981791Y-106689100D01*
X157926986Y-106718394D01*
X157700866Y-106903966D01*
X157515294Y-107130086D01*
X157377401Y-107388066D01*
X157292487Y-107667989D01*
X157263815Y-107959100D01*
X157292487Y-108250211D01*
X157377401Y-108530134D01*
X157515294Y-108788114D01*
X157700866Y-109014234D01*
X157926986Y-109199806D01*
X157981791Y-109229100D01*
X157926986Y-109258394D01*
X157700866Y-109443966D01*
X157515294Y-109670086D01*
X157377401Y-109928066D01*
X157292487Y-110207989D01*
X157263815Y-110499100D01*
X157292487Y-110790211D01*
X157375538Y-111063993D01*
X157277978Y-111161553D01*
X157180688Y-111307158D01*
X157171422Y-111329528D01*
X157140531Y-111283296D01*
X157016704Y-111159469D01*
X156871099Y-111062179D01*
X156709312Y-110995164D01*
X156676843Y-110988706D01*
X156733514Y-110903892D01*
X156800529Y-110742105D01*
X156834693Y-110570352D01*
X156834693Y-110395234D01*
X156800529Y-110223481D01*
X156733514Y-110061694D01*
X156636224Y-109916089D01*
X156512397Y-109792262D01*
X156366792Y-109694972D01*
X156205005Y-109627957D01*
X156033252Y-109593793D01*
X155858134Y-109593793D01*
X155686381Y-109627957D01*
X155524594Y-109694972D01*
X155378989Y-109792262D01*
X155255162Y-109916089D01*
X155157872Y-110061694D01*
X155090857Y-110223481D01*
X155056693Y-110395234D01*
X155056693Y-110423637D01*
X155025177Y-110423637D01*
X154853424Y-110457801D01*
X154691637Y-110524816D01*
X154546032Y-110622106D01*
X154422205Y-110745933D01*
X154324915Y-110891538D01*
X154257900Y-111053325D01*
X154223736Y-111225078D01*
X154223736Y-111400196D01*
X154257900Y-111571949D01*
X154324915Y-111733736D01*
X154422205Y-111879341D01*
X154546032Y-112003168D01*
X154691637Y-112100458D01*
X154853424Y-112167473D01*
X155025177Y-112201637D01*
X155200295Y-112201637D01*
X155372048Y-112167473D01*
X155533835Y-112100458D01*
X155586414Y-112065326D01*
X155595164Y-112109312D01*
X155662179Y-112271099D01*
X155759469Y-112416704D01*
X155883296Y-112540531D01*
X156028901Y-112637821D01*
X156190688Y-112704836D01*
X156362441Y-112739000D01*
X156537559Y-112739000D01*
X156709312Y-112704836D01*
X156871099Y-112637821D01*
X157016704Y-112540531D01*
X157140531Y-112416704D01*
X157237821Y-112271099D01*
X157247087Y-112248729D01*
X157277978Y-112294961D01*
X157401805Y-112418788D01*
X157403231Y-112419741D01*
X157377401Y-112468066D01*
X157292487Y-112747989D01*
X157263815Y-113039100D01*
X157292487Y-113330211D01*
X157377401Y-113610134D01*
X157515294Y-113868114D01*
X157700866Y-114094234D01*
X157926986Y-114279806D01*
X157981791Y-114309100D01*
X157926986Y-114338394D01*
X157700866Y-114523966D01*
X157515294Y-114750086D01*
X157377401Y-115008066D01*
X157292487Y-115287989D01*
X157263815Y-115579100D01*
X157285343Y-115797677D01*
X157283296Y-115799045D01*
X157159469Y-115922872D01*
X157062179Y-116068477D01*
X156995164Y-116230264D01*
X156961000Y-116402017D01*
X156961000Y-116577135D01*
X156995164Y-116748888D01*
X157002999Y-116767804D01*
X156962169Y-116828911D01*
X156895154Y-116990698D01*
X156860990Y-117162451D01*
X156860990Y-117337569D01*
X156895154Y-117509322D01*
X156962169Y-117671109D01*
X157059459Y-117816714D01*
X157183286Y-117940541D01*
X157275343Y-118002052D01*
X157263815Y-118119100D01*
X157292487Y-118410211D01*
X157377401Y-118690134D01*
X157515294Y-118948114D01*
X157700866Y-119174234D01*
X157926986Y-119359806D01*
X157981791Y-119389100D01*
X157926986Y-119418394D01*
X157700866Y-119603966D01*
X157515294Y-119830086D01*
X157377401Y-120088066D01*
X157292487Y-120367989D01*
X157263815Y-120659100D01*
X157292487Y-120950211D01*
X157377401Y-121230134D01*
X157515294Y-121488114D01*
X157700866Y-121714234D01*
X157926986Y-121899806D01*
X157981791Y-121929100D01*
X157926986Y-121958394D01*
X157700866Y-122143966D01*
X157515294Y-122370086D01*
X157377401Y-122628066D01*
X157292487Y-122907989D01*
X157263815Y-123199100D01*
X157292487Y-123490211D01*
X157377401Y-123770134D01*
X157515294Y-124028114D01*
X157700866Y-124254234D01*
X157926986Y-124439806D01*
X157981791Y-124469100D01*
X157926986Y-124498394D01*
X157700866Y-124683966D01*
X157515294Y-124910086D01*
X157377401Y-125168066D01*
X157292487Y-125447989D01*
X157263815Y-125739100D01*
X157292487Y-126030211D01*
X157377401Y-126310134D01*
X157515294Y-126568114D01*
X157700866Y-126794234D01*
X157926986Y-126979806D01*
X157981791Y-127009100D01*
X157926986Y-127038394D01*
X157700866Y-127223966D01*
X157515294Y-127450086D01*
X157377401Y-127708066D01*
X157292487Y-127987989D01*
X157263815Y-128279100D01*
X157292487Y-128570211D01*
X157377401Y-128850134D01*
X157515294Y-129108114D01*
X157700866Y-129334234D01*
X157926986Y-129519806D01*
X157981791Y-129549100D01*
X157926986Y-129578394D01*
X157700866Y-129763966D01*
X157515294Y-129990086D01*
X157377401Y-130248066D01*
X157292487Y-130527989D01*
X157263815Y-130819100D01*
X157292487Y-131110211D01*
X157374054Y-131379100D01*
X145880737Y-131379100D01*
X145889000Y-131337559D01*
X145889000Y-131162441D01*
X145854836Y-130990688D01*
X145787821Y-130828901D01*
X145690531Y-130683296D01*
X145566704Y-130559469D01*
X145421099Y-130462179D01*
X145259312Y-130395164D01*
X145087559Y-130361000D01*
X144928857Y-130361000D01*
X144894599Y-130248066D01*
X144756706Y-129990086D01*
X144571134Y-129763966D01*
X144345014Y-129578394D01*
X144290209Y-129549100D01*
X144345014Y-129519806D01*
X144571134Y-129334234D01*
X144756706Y-129108114D01*
X144894599Y-128850134D01*
X144940752Y-128697987D01*
X145033296Y-128790531D01*
X145178901Y-128887821D01*
X145340688Y-128954836D01*
X145512441Y-128989000D01*
X145615685Y-128989000D01*
X145522205Y-129128903D01*
X145455190Y-129290690D01*
X145421026Y-129462443D01*
X145421026Y-129637561D01*
X145455190Y-129809314D01*
X145522205Y-129971101D01*
X145619495Y-130116706D01*
X145743322Y-130240533D01*
X145888927Y-130337823D01*
X146050714Y-130404838D01*
X146222467Y-130439002D01*
X146397585Y-130439002D01*
X146569338Y-130404838D01*
X146731125Y-130337823D01*
X146876730Y-130240533D01*
X147000557Y-130116706D01*
X147097847Y-129971101D01*
X147164862Y-129809314D01*
X147199026Y-129637561D01*
X147199026Y-129469806D01*
X147217267Y-129497106D01*
X147341094Y-129620933D01*
X147486699Y-129718223D01*
X147648486Y-129785238D01*
X147820239Y-129819402D01*
X147995357Y-129819402D01*
X148167110Y-129785238D01*
X148328897Y-129718223D01*
X148474502Y-129620933D01*
X148582994Y-129512441D01*
X152311000Y-129512441D01*
X152311000Y-129687559D01*
X152345164Y-129859312D01*
X152412179Y-130021099D01*
X152509469Y-130166704D01*
X152633296Y-130290531D01*
X152778901Y-130387821D01*
X152940688Y-130454836D01*
X153112441Y-130489000D01*
X153287559Y-130489000D01*
X153459312Y-130454836D01*
X153621099Y-130387821D01*
X153766704Y-130290531D01*
X153890531Y-130166704D01*
X153987821Y-130021099D01*
X154054836Y-129859312D01*
X154089000Y-129687559D01*
X154089000Y-129512441D01*
X154054836Y-129340688D01*
X153987821Y-129178901D01*
X153890531Y-129033296D01*
X153766704Y-128909469D01*
X153621099Y-128812179D01*
X153459312Y-128745164D01*
X153287559Y-128711000D01*
X153112441Y-128711000D01*
X152940688Y-128745164D01*
X152778901Y-128812179D01*
X152633296Y-128909469D01*
X152509469Y-129033296D01*
X152412179Y-129178901D01*
X152345164Y-129340688D01*
X152311000Y-129512441D01*
X148582994Y-129512441D01*
X148598329Y-129497106D01*
X148695619Y-129351501D01*
X148762634Y-129189714D01*
X148796798Y-129017961D01*
X148796798Y-128842843D01*
X148762634Y-128671090D01*
X148695619Y-128509303D01*
X148598329Y-128363698D01*
X148474502Y-128239871D01*
X148433451Y-128212441D01*
X150111000Y-128212441D01*
X150111000Y-128387559D01*
X150145164Y-128559312D01*
X150212179Y-128721099D01*
X150309469Y-128866704D01*
X150433296Y-128990531D01*
X150578901Y-129087821D01*
X150740688Y-129154836D01*
X150912441Y-129189000D01*
X151087559Y-129189000D01*
X151259312Y-129154836D01*
X151421099Y-129087821D01*
X151566704Y-128990531D01*
X151690531Y-128866704D01*
X151787821Y-128721099D01*
X151854836Y-128559312D01*
X151889000Y-128387559D01*
X151889000Y-128212441D01*
X151854836Y-128040688D01*
X151787821Y-127878901D01*
X151690531Y-127733296D01*
X151566704Y-127609469D01*
X151421099Y-127512179D01*
X151259312Y-127445164D01*
X151087559Y-127411000D01*
X150912441Y-127411000D01*
X150740688Y-127445164D01*
X150578901Y-127512179D01*
X150433296Y-127609469D01*
X150309469Y-127733296D01*
X150212179Y-127878901D01*
X150145164Y-128040688D01*
X150111000Y-128212441D01*
X148433451Y-128212441D01*
X148328897Y-128142581D01*
X148167110Y-128075566D01*
X147995357Y-128041402D01*
X147820239Y-128041402D01*
X147648486Y-128075566D01*
X147486699Y-128142581D01*
X147341094Y-128239871D01*
X147217267Y-128363698D01*
X147119977Y-128509303D01*
X147052962Y-128671090D01*
X147018798Y-128842843D01*
X147018798Y-129010598D01*
X147000557Y-128983298D01*
X146876730Y-128859471D01*
X146731125Y-128762181D01*
X146569338Y-128695166D01*
X146397585Y-128661002D01*
X146294341Y-128661002D01*
X146387821Y-128521099D01*
X146454836Y-128359312D01*
X146481742Y-128224046D01*
X146862989Y-127842800D01*
X146890115Y-127820538D01*
X146912377Y-127793412D01*
X146912386Y-127793403D01*
X146978991Y-127712244D01*
X146996813Y-127678901D01*
X147045031Y-127588692D01*
X147085698Y-127454631D01*
X147095989Y-127350147D01*
X147095989Y-127350138D01*
X147099429Y-127315212D01*
X147095989Y-127280286D01*
X147095989Y-127200945D01*
X147126702Y-127194836D01*
X147288489Y-127127821D01*
X147434094Y-127030531D01*
X147557921Y-126906704D01*
X147655211Y-126761099D01*
X147722226Y-126599312D01*
X147756390Y-126427559D01*
X147756390Y-126252441D01*
X147722226Y-126080688D01*
X147655211Y-125918901D01*
X147557921Y-125773296D01*
X147545206Y-125760581D01*
X148771326Y-124534462D01*
X148766943Y-124556498D01*
X148766943Y-124731616D01*
X148801107Y-124903369D01*
X148868122Y-125065156D01*
X148965412Y-125210761D01*
X149089239Y-125334588D01*
X149234844Y-125431878D01*
X149396631Y-125498893D01*
X149568384Y-125533057D01*
X149743502Y-125533057D01*
X149915255Y-125498893D01*
X150077042Y-125431878D01*
X150222647Y-125334588D01*
X150346474Y-125210761D01*
X150443764Y-125065156D01*
X150510779Y-124903369D01*
X150544943Y-124731616D01*
X150544943Y-124556498D01*
X150510779Y-124384745D01*
X150443764Y-124222958D01*
X150346474Y-124077353D01*
X150222647Y-123953526D01*
X150077042Y-123856236D01*
X149915255Y-123789221D01*
X149743502Y-123755057D01*
X149568384Y-123755057D01*
X149546348Y-123759440D01*
X150270933Y-123034856D01*
X150339117Y-123080415D01*
X150500904Y-123147430D01*
X150672657Y-123181594D01*
X150847775Y-123181594D01*
X151019528Y-123147430D01*
X151181315Y-123080415D01*
X151326920Y-122983125D01*
X151386728Y-122923317D01*
X151354541Y-123085131D01*
X151354541Y-123260249D01*
X151388705Y-123432002D01*
X151441686Y-123559909D01*
X151362179Y-123678901D01*
X151295164Y-123840688D01*
X151261000Y-124012441D01*
X151261000Y-124187559D01*
X151295164Y-124359312D01*
X151362179Y-124521099D01*
X151459469Y-124666704D01*
X151583296Y-124790531D01*
X151728901Y-124887821D01*
X151802630Y-124918361D01*
X151762179Y-124978901D01*
X151695164Y-125140688D01*
X151661000Y-125312441D01*
X151661000Y-125487559D01*
X151695164Y-125659312D01*
X151762179Y-125821099D01*
X151789969Y-125862690D01*
X151693783Y-125926959D01*
X151569956Y-126050786D01*
X151472666Y-126196391D01*
X151405651Y-126358178D01*
X151371487Y-126529931D01*
X151371487Y-126705049D01*
X151405651Y-126876802D01*
X151472666Y-127038589D01*
X151569956Y-127184194D01*
X151693783Y-127308021D01*
X151839388Y-127405311D01*
X151951722Y-127451842D01*
X151951722Y-127602356D01*
X151985886Y-127774109D01*
X152052901Y-127935896D01*
X152150191Y-128081501D01*
X152274018Y-128205328D01*
X152419623Y-128302618D01*
X152581410Y-128369633D01*
X152753163Y-128403797D01*
X152928281Y-128403797D01*
X153100034Y-128369633D01*
X153261821Y-128302618D01*
X153407426Y-128205328D01*
X153531253Y-128081501D01*
X153628543Y-127935896D01*
X153662648Y-127853560D01*
X153709314Y-127834230D01*
X153740688Y-127847226D01*
X153912441Y-127881390D01*
X154087559Y-127881390D01*
X154259312Y-127847226D01*
X154421099Y-127780211D01*
X154566704Y-127682921D01*
X154653022Y-127596603D01*
X154821530Y-127630122D01*
X154996648Y-127630122D01*
X155168401Y-127595958D01*
X155330188Y-127528943D01*
X155475793Y-127431653D01*
X155599620Y-127307826D01*
X155696910Y-127162221D01*
X155763925Y-127000434D01*
X155798089Y-126828681D01*
X155798089Y-126653563D01*
X155763925Y-126481810D01*
X155696910Y-126320023D01*
X155599620Y-126174418D01*
X155475793Y-126050591D01*
X155330188Y-125953301D01*
X155201553Y-125900018D01*
X155204262Y-125872513D01*
X155200822Y-125837587D01*
X155200822Y-124050807D01*
X155252761Y-124040476D01*
X155414548Y-123973461D01*
X155560153Y-123876171D01*
X155683980Y-123752344D01*
X155781270Y-123606739D01*
X155848285Y-123444952D01*
X155882449Y-123273199D01*
X155882449Y-123098081D01*
X155848285Y-122926328D01*
X155781270Y-122764541D01*
X155683980Y-122618936D01*
X155560153Y-122495109D01*
X155524971Y-122471601D01*
X155612441Y-122489000D01*
X155787559Y-122489000D01*
X155959312Y-122454836D01*
X156121099Y-122387821D01*
X156266704Y-122290531D01*
X156390531Y-122166704D01*
X156487821Y-122021099D01*
X156554836Y-121859312D01*
X156589000Y-121687559D01*
X156589000Y-121512441D01*
X156554836Y-121340688D01*
X156487821Y-121178901D01*
X156390531Y-121033296D01*
X156266704Y-120909469D01*
X156121099Y-120812179D01*
X155959312Y-120745164D01*
X155787559Y-120711000D01*
X155612441Y-120711000D01*
X155440688Y-120745164D01*
X155278901Y-120812179D01*
X155200822Y-120864350D01*
X155200822Y-117655181D01*
X155320698Y-117704836D01*
X155492451Y-117739000D01*
X155667569Y-117739000D01*
X155839322Y-117704836D01*
X156001109Y-117637821D01*
X156146714Y-117540531D01*
X156270541Y-117416704D01*
X156367831Y-117271099D01*
X156434846Y-117109312D01*
X156469010Y-116937559D01*
X156469010Y-116762441D01*
X156434846Y-116590688D01*
X156367831Y-116428901D01*
X156270541Y-116283296D01*
X156146714Y-116159469D01*
X156001109Y-116062179D01*
X155839322Y-115995164D01*
X155667569Y-115961000D01*
X155492451Y-115961000D01*
X155320698Y-115995164D01*
X155200822Y-116044819D01*
X155200822Y-114674550D01*
X155204262Y-114639622D01*
X155200822Y-114604693D01*
X155200822Y-114604686D01*
X155190531Y-114500202D01*
X155149864Y-114366141D01*
X155083824Y-114242589D01*
X155049283Y-114200501D01*
X155017219Y-114161431D01*
X155017215Y-114161427D01*
X154994948Y-114134295D01*
X154967817Y-114112029D01*
X153467779Y-112611992D01*
X153467779Y-111361504D01*
X153471219Y-111326578D01*
X153467779Y-111291652D01*
X153467779Y-111291643D01*
X153457488Y-111187159D01*
X153416821Y-111053098D01*
X153350781Y-110929546D01*
X153334471Y-110909673D01*
X153304836Y-110760688D01*
X153237821Y-110598901D01*
X153215042Y-110564810D01*
X153287821Y-110455888D01*
X153354836Y-110294101D01*
X153389000Y-110122348D01*
X153389000Y-109947230D01*
X153354836Y-109775477D01*
X153287821Y-109613690D01*
X153190531Y-109468085D01*
X153066704Y-109344258D01*
X152921099Y-109246968D01*
X152759312Y-109179953D01*
X152587559Y-109145789D01*
X152412441Y-109145789D01*
X152240688Y-109179953D01*
X152078901Y-109246968D01*
X151933296Y-109344258D01*
X151809469Y-109468085D01*
X151712179Y-109613690D01*
X151645164Y-109775477D01*
X151624852Y-109877592D01*
X151511997Y-109900040D01*
X151389638Y-109950723D01*
X151389638Y-109927563D01*
X151355474Y-109755810D01*
X151288459Y-109594023D01*
X151191169Y-109448418D01*
X151085006Y-109342255D01*
X151190939Y-109236322D01*
X151288229Y-109090717D01*
X151355244Y-108928930D01*
X151389408Y-108757177D01*
X151389408Y-108582059D01*
X151355244Y-108410306D01*
X151288229Y-108248519D01*
X151190939Y-108102914D01*
X151067112Y-107979087D01*
X150921507Y-107881797D01*
X150759720Y-107814782D01*
X150587967Y-107780618D01*
X150412849Y-107780618D01*
X150241096Y-107814782D01*
X150079309Y-107881797D01*
X149933704Y-107979087D01*
X149809877Y-108102914D01*
X149712587Y-108248519D01*
X149645572Y-108410306D01*
X149611408Y-108582059D01*
X149611408Y-108757177D01*
X149645572Y-108928930D01*
X149712587Y-109090717D01*
X149809877Y-109236322D01*
X149916040Y-109342485D01*
X149810107Y-109448418D01*
X149712817Y-109594023D01*
X149645802Y-109755810D01*
X149611638Y-109927563D01*
X149611638Y-110102681D01*
X149645802Y-110274434D01*
X149712817Y-110436221D01*
X149810107Y-110581826D01*
X149933934Y-110705653D01*
X150079539Y-110802943D01*
X150144072Y-110829674D01*
X150123443Y-110833777D01*
X149961656Y-110900792D01*
X149816051Y-110998082D01*
X149692224Y-111121909D01*
X149594934Y-111267514D01*
X149527919Y-111429301D01*
X149493755Y-111601054D01*
X149493755Y-111776172D01*
X149527919Y-111947925D01*
X149594934Y-112109712D01*
X149692224Y-112255317D01*
X149816051Y-112379144D01*
X149961656Y-112476434D01*
X150123443Y-112543449D01*
X150295196Y-112577613D01*
X150470314Y-112577613D01*
X150642067Y-112543449D01*
X150803854Y-112476434D01*
X150949459Y-112379144D01*
X151070913Y-112257690D01*
X151070912Y-112809319D01*
X151067472Y-112844245D01*
X151070912Y-112879171D01*
X151070912Y-112879180D01*
X151081203Y-112983664D01*
X151121870Y-113117725D01*
X151187910Y-113241277D01*
X151276785Y-113349571D01*
X151303922Y-113371842D01*
X151417374Y-113485294D01*
X151210279Y-113444100D01*
X150789721Y-113444100D01*
X150377244Y-113526147D01*
X149988698Y-113687088D01*
X149715023Y-113869951D01*
X149690531Y-113833296D01*
X149566704Y-113709469D01*
X149421099Y-113612179D01*
X149259312Y-113545164D01*
X149087559Y-113511000D01*
X148912441Y-113511000D01*
X148740688Y-113545164D01*
X148578901Y-113612179D01*
X148433296Y-113709469D01*
X148309469Y-113833296D01*
X148212179Y-113978901D01*
X148145164Y-114140688D01*
X148111000Y-114312441D01*
X148111000Y-114487559D01*
X148145164Y-114659312D01*
X148212179Y-114821099D01*
X148309469Y-114966704D01*
X148433296Y-115090531D01*
X148578901Y-115187821D01*
X148740688Y-115254836D01*
X148882079Y-115282961D01*
X148865000Y-115368821D01*
X148865000Y-115720437D01*
X148740688Y-115745164D01*
X148578901Y-115812179D01*
X148433296Y-115909469D01*
X148309469Y-116033296D01*
X148212179Y-116178901D01*
X148145164Y-116340688D01*
X148111000Y-116512441D01*
X148111000Y-116687559D01*
X148145164Y-116859312D01*
X148212179Y-117021099D01*
X148309469Y-117166704D01*
X148433296Y-117290531D01*
X148578901Y-117387821D01*
X148740688Y-117454836D01*
X148912441Y-117489000D01*
X149087559Y-117489000D01*
X149259312Y-117454836D01*
X149421099Y-117387821D01*
X149566704Y-117290531D01*
X149629395Y-117227841D01*
X149639017Y-117237463D01*
X149988698Y-117471112D01*
X150377244Y-117632053D01*
X150789721Y-117714100D01*
X151210279Y-117714100D01*
X151622756Y-117632053D01*
X152011302Y-117471112D01*
X152360983Y-117237463D01*
X152478336Y-117120110D01*
X152509469Y-117166704D01*
X152633296Y-117290531D01*
X152778901Y-117387821D01*
X152940688Y-117454836D01*
X153112441Y-117489000D01*
X153168801Y-117489000D01*
X153168800Y-124761565D01*
X153116704Y-124709469D01*
X152971099Y-124612179D01*
X152897370Y-124581639D01*
X152937821Y-124521099D01*
X153004836Y-124359312D01*
X153039000Y-124187559D01*
X153039000Y-124012441D01*
X153004836Y-123840688D01*
X152951855Y-123712781D01*
X153031362Y-123593789D01*
X153098377Y-123432002D01*
X153132541Y-123260249D01*
X153132541Y-123085131D01*
X153098377Y-122913378D01*
X153031362Y-122751591D01*
X152934072Y-122605986D01*
X152810245Y-122482159D01*
X152664640Y-122384869D01*
X152573107Y-122346954D01*
X152610696Y-122331384D01*
X152756301Y-122234094D01*
X152880128Y-122110267D01*
X152977418Y-121964662D01*
X153044433Y-121802875D01*
X153078597Y-121631122D01*
X153078597Y-121456004D01*
X153044433Y-121284251D01*
X152977418Y-121122464D01*
X152880128Y-120976859D01*
X152776737Y-120873468D01*
X152776737Y-120868437D01*
X152742573Y-120696684D01*
X152675558Y-120534897D01*
X152578268Y-120389292D01*
X152454441Y-120265465D01*
X152308836Y-120168175D01*
X152147049Y-120101160D01*
X151975296Y-120066996D01*
X151800178Y-120066996D01*
X151628425Y-120101160D01*
X151466638Y-120168175D01*
X151351966Y-120244796D01*
X150378929Y-120244796D01*
X150344003Y-120241356D01*
X150309077Y-120244796D01*
X150309068Y-120244796D01*
X150204584Y-120255087D01*
X150070523Y-120295754D01*
X149946971Y-120361794D01*
X149838677Y-120450669D01*
X149816407Y-120477805D01*
X149158778Y-121135434D01*
X149090531Y-121033296D01*
X148966704Y-120909469D01*
X148821099Y-120812179D01*
X148659312Y-120745164D01*
X148487559Y-120711000D01*
X148312441Y-120711000D01*
X148140688Y-120745164D01*
X147978901Y-120812179D01*
X147833296Y-120909469D01*
X147709469Y-121033296D01*
X147612179Y-121178901D01*
X147545164Y-121340688D01*
X147517737Y-121478570D01*
X147376733Y-121420164D01*
X147204980Y-121386000D01*
X147029862Y-121386000D01*
X146858109Y-121420164D01*
X146696322Y-121487179D01*
X146550717Y-121584469D01*
X146426890Y-121708296D01*
X146329600Y-121853901D01*
X146262585Y-122015688D01*
X146228421Y-122187441D01*
X146228421Y-122362559D01*
X146262585Y-122534312D01*
X146329600Y-122696099D01*
X146426890Y-122841704D01*
X146550717Y-122965531D01*
X146696322Y-123062821D01*
X146858109Y-123129836D01*
X147029862Y-123164000D01*
X147130213Y-123164000D01*
X145595222Y-124698991D01*
X145570867Y-124701390D01*
X145436806Y-124742057D01*
X145389583Y-124767298D01*
X145368729Y-124767298D01*
X145196976Y-124801462D01*
X145035189Y-124868477D01*
X144889584Y-124965767D01*
X144822386Y-125032965D01*
X144756706Y-124910086D01*
X144571134Y-124683966D01*
X144345014Y-124498394D01*
X144290209Y-124469100D01*
X144345014Y-124439806D01*
X144571134Y-124254234D01*
X144756706Y-124028114D01*
X144894599Y-123770134D01*
X144979513Y-123490211D01*
X145008185Y-123199100D01*
X144979513Y-122907989D01*
X144894599Y-122628066D01*
X144756706Y-122370086D01*
X144571134Y-122143966D01*
X144345014Y-121958394D01*
X144290209Y-121929100D01*
X144345014Y-121899806D01*
X144571134Y-121714234D01*
X144756706Y-121488114D01*
X144894599Y-121230134D01*
X144979513Y-120950211D01*
X145008185Y-120659100D01*
X144979513Y-120367989D01*
X144894599Y-120088066D01*
X144756706Y-119830086D01*
X144571134Y-119603966D01*
X144345014Y-119418394D01*
X144290209Y-119389100D01*
X144345014Y-119359806D01*
X144366580Y-119342108D01*
X144438901Y-119390431D01*
X144600688Y-119457446D01*
X144772441Y-119491610D01*
X144947559Y-119491610D01*
X145119312Y-119457446D01*
X145233447Y-119410169D01*
X145202928Y-119563597D01*
X145202928Y-119738715D01*
X145237092Y-119910468D01*
X145304107Y-120072255D01*
X145401397Y-120217860D01*
X145525224Y-120341687D01*
X145670829Y-120438977D01*
X145832616Y-120505992D01*
X146004369Y-120540156D01*
X146179487Y-120540156D01*
X146351240Y-120505992D01*
X146422912Y-120476304D01*
X146462178Y-120571099D01*
X146559468Y-120716704D01*
X146683295Y-120840531D01*
X146828900Y-120937821D01*
X146990687Y-121004836D01*
X147162440Y-121039000D01*
X147337558Y-121039000D01*
X147509311Y-121004836D01*
X147671098Y-120937821D01*
X147816703Y-120840531D01*
X147940530Y-120716704D01*
X148037820Y-120571099D01*
X148104835Y-120409312D01*
X148138999Y-120237559D01*
X148138999Y-120062441D01*
X148104835Y-119890688D01*
X148037820Y-119728901D01*
X147940530Y-119583296D01*
X147816703Y-119459469D01*
X147671098Y-119362179D01*
X147608153Y-119336106D01*
X147600210Y-119296176D01*
X147533195Y-119134389D01*
X147435905Y-118988784D01*
X147312078Y-118864957D01*
X147261305Y-118831032D01*
X147243300Y-118740515D01*
X147176285Y-118578728D01*
X147094605Y-118456485D01*
X147137820Y-118438585D01*
X147283425Y-118341295D01*
X147407252Y-118217468D01*
X147504542Y-118071863D01*
X147571557Y-117910076D01*
X147605721Y-117738323D01*
X147605721Y-117563205D01*
X147571557Y-117391452D01*
X147504542Y-117229665D01*
X147407252Y-117084060D01*
X147283425Y-116960233D01*
X147137820Y-116862943D01*
X146976033Y-116795928D01*
X146804280Y-116761764D01*
X146629162Y-116761764D01*
X146457409Y-116795928D01*
X146295622Y-116862943D01*
X146150017Y-116960233D01*
X146144509Y-116965741D01*
X146087821Y-116828887D01*
X145990531Y-116683282D01*
X145866704Y-116559455D01*
X145721099Y-116462165D01*
X145559312Y-116395150D01*
X145387559Y-116360986D01*
X145212441Y-116360986D01*
X145040688Y-116395150D01*
X144878901Y-116462165D01*
X144733296Y-116559455D01*
X144609469Y-116683282D01*
X144512179Y-116828887D01*
X144454465Y-116968219D01*
X144345014Y-116878394D01*
X144290209Y-116849100D01*
X144345014Y-116819806D01*
X144571134Y-116634234D01*
X144756706Y-116408114D01*
X144894599Y-116150134D01*
X144979513Y-115870211D01*
X145008185Y-115579100D01*
X144979513Y-115287989D01*
X144894599Y-115008066D01*
X144756706Y-114750086D01*
X144571134Y-114523966D01*
X144345014Y-114338394D01*
X144290209Y-114309100D01*
X144345014Y-114279806D01*
X144571134Y-114094234D01*
X144756706Y-113868114D01*
X144842257Y-113708059D01*
X144842257Y-113712725D01*
X144876421Y-113884478D01*
X144943436Y-114046265D01*
X145040726Y-114191870D01*
X145164553Y-114315697D01*
X145310158Y-114412987D01*
X145413579Y-114455826D01*
X145333296Y-114509469D01*
X145209469Y-114633296D01*
X145112179Y-114778901D01*
X145045164Y-114940688D01*
X145011000Y-115112441D01*
X145011000Y-115287559D01*
X145045164Y-115459312D01*
X145112179Y-115621099D01*
X145209469Y-115766704D01*
X145333296Y-115890531D01*
X145478901Y-115987821D01*
X145640688Y-116054836D01*
X145812441Y-116089000D01*
X145987559Y-116089000D01*
X146159312Y-116054836D01*
X146321099Y-115987821D01*
X146466704Y-115890531D01*
X146590531Y-115766704D01*
X146687821Y-115621099D01*
X146754836Y-115459312D01*
X146789000Y-115287559D01*
X146789000Y-115112441D01*
X146754836Y-114940688D01*
X146687821Y-114778901D01*
X146590531Y-114633296D01*
X146466704Y-114509469D01*
X146321099Y-114412179D01*
X146217678Y-114369340D01*
X146297961Y-114315697D01*
X146421788Y-114191870D01*
X146519078Y-114046265D01*
X146586093Y-113884478D01*
X146620257Y-113712725D01*
X146620257Y-113537607D01*
X146586093Y-113365854D01*
X146519078Y-113204067D01*
X146421788Y-113058462D01*
X146297961Y-112934635D01*
X146152356Y-112837345D01*
X145990569Y-112770330D01*
X145818816Y-112736166D01*
X145643698Y-112736166D01*
X145471945Y-112770330D01*
X145310158Y-112837345D01*
X145164553Y-112934635D01*
X145040726Y-113058462D01*
X145000322Y-113118930D01*
X145008185Y-113039100D01*
X144979513Y-112747989D01*
X144894599Y-112468066D01*
X144756706Y-112210086D01*
X144571134Y-111983966D01*
X144345014Y-111798394D01*
X144290209Y-111769100D01*
X144345014Y-111739806D01*
X144571134Y-111554234D01*
X144756706Y-111328114D01*
X144894599Y-111070134D01*
X144979513Y-110790211D01*
X145008185Y-110499100D01*
X144979513Y-110207989D01*
X144894599Y-109928066D01*
X144756706Y-109670086D01*
X144571134Y-109443966D01*
X144345014Y-109258394D01*
X144290209Y-109229100D01*
X144345014Y-109199806D01*
X144571134Y-109014234D01*
X144756706Y-108788114D01*
X144894599Y-108530134D01*
X144979513Y-108250211D01*
X145008185Y-107959100D01*
X144979513Y-107667989D01*
X144894599Y-107388066D01*
X144756706Y-107130086D01*
X144571134Y-106903966D01*
X144557091Y-106892441D01*
X144991000Y-106892441D01*
X144991000Y-107067559D01*
X145025164Y-107239312D01*
X145092179Y-107401099D01*
X145189469Y-107546704D01*
X145313296Y-107670531D01*
X145458901Y-107767821D01*
X145620688Y-107834836D01*
X145792441Y-107869000D01*
X145967559Y-107869000D01*
X146139312Y-107834836D01*
X146301099Y-107767821D01*
X146446704Y-107670531D01*
X146570531Y-107546704D01*
X146667821Y-107401099D01*
X146734836Y-107239312D01*
X146769000Y-107067559D01*
X146769000Y-106892441D01*
X146734836Y-106720688D01*
X146667821Y-106558901D01*
X146636778Y-106512441D01*
X151011000Y-106512441D01*
X151011000Y-106687559D01*
X151045164Y-106859312D01*
X151112179Y-107021099D01*
X151209469Y-107166704D01*
X151333296Y-107290531D01*
X151364276Y-107311231D01*
X151312178Y-107389201D01*
X151245163Y-107550988D01*
X151210999Y-107722741D01*
X151210999Y-107897859D01*
X151245163Y-108069612D01*
X151312178Y-108231399D01*
X151409468Y-108377004D01*
X151533295Y-108500831D01*
X151678900Y-108598121D01*
X151840687Y-108665136D01*
X152012440Y-108699300D01*
X152187558Y-108699300D01*
X152359311Y-108665136D01*
X152521098Y-108598121D01*
X152666703Y-108500831D01*
X152790530Y-108377004D01*
X152887820Y-108231399D01*
X152954835Y-108069612D01*
X152988999Y-107897859D01*
X152988999Y-107722741D01*
X152954835Y-107550988D01*
X152887820Y-107389201D01*
X152790530Y-107243596D01*
X152666703Y-107119769D01*
X152635723Y-107099069D01*
X152687821Y-107021099D01*
X152721426Y-106939971D01*
X152745164Y-107059312D01*
X152812179Y-107221099D01*
X152909469Y-107366704D01*
X153033296Y-107490531D01*
X153178901Y-107587821D01*
X153340688Y-107654836D01*
X153512441Y-107689000D01*
X153687559Y-107689000D01*
X153859312Y-107654836D01*
X154021099Y-107587821D01*
X154166704Y-107490531D01*
X154290531Y-107366704D01*
X154387821Y-107221099D01*
X154454836Y-107059312D01*
X154489000Y-106887559D01*
X154489000Y-106712441D01*
X154454836Y-106540688D01*
X154387821Y-106378901D01*
X154290531Y-106233296D01*
X154166704Y-106109469D01*
X154021099Y-106012179D01*
X153859312Y-105945164D01*
X153687559Y-105911000D01*
X153512441Y-105911000D01*
X153340688Y-105945164D01*
X153178901Y-106012179D01*
X153033296Y-106109469D01*
X152909469Y-106233296D01*
X152812179Y-106378901D01*
X152778574Y-106460029D01*
X152754836Y-106340688D01*
X152687821Y-106178901D01*
X152590531Y-106033296D01*
X152466704Y-105909469D01*
X152321099Y-105812179D01*
X152159312Y-105745164D01*
X151987559Y-105711000D01*
X151812441Y-105711000D01*
X151640688Y-105745164D01*
X151478901Y-105812179D01*
X151333296Y-105909469D01*
X151209469Y-106033296D01*
X151112179Y-106178901D01*
X151045164Y-106340688D01*
X151011000Y-106512441D01*
X146636778Y-106512441D01*
X146570531Y-106413296D01*
X146446704Y-106289469D01*
X146301099Y-106192179D01*
X146139312Y-106125164D01*
X145967559Y-106091000D01*
X145792441Y-106091000D01*
X145620688Y-106125164D01*
X145458901Y-106192179D01*
X145313296Y-106289469D01*
X145189469Y-106413296D01*
X145092179Y-106558901D01*
X145025164Y-106720688D01*
X144991000Y-106892441D01*
X144557091Y-106892441D01*
X144345014Y-106718394D01*
X144290209Y-106689100D01*
X144345014Y-106659806D01*
X144571134Y-106474234D01*
X144756706Y-106248114D01*
X144894599Y-105990134D01*
X144979513Y-105710211D01*
X145008185Y-105419100D01*
X144979513Y-105127989D01*
X144894599Y-104848066D01*
X144756706Y-104590086D01*
X144571134Y-104363966D01*
X144345014Y-104178394D01*
X144290209Y-104149100D01*
X144345014Y-104119806D01*
X144571134Y-103934234D01*
X144630053Y-103862441D01*
X148310998Y-103862441D01*
X148310998Y-104037559D01*
X148345162Y-104209312D01*
X148405151Y-104354136D01*
X148382000Y-104410026D01*
X148347836Y-104581779D01*
X148347836Y-104756897D01*
X148382000Y-104928650D01*
X148449015Y-105090437D01*
X148546305Y-105236042D01*
X148670132Y-105359869D01*
X148815737Y-105457159D01*
X148977524Y-105524174D01*
X149149277Y-105558338D01*
X149324395Y-105558338D01*
X149496148Y-105524174D01*
X149657935Y-105457159D01*
X149803540Y-105359869D01*
X149927367Y-105236042D01*
X150024657Y-105090437D01*
X150091672Y-104928650D01*
X150110060Y-104836207D01*
X150150134Y-104844178D01*
X150325252Y-104844178D01*
X150497005Y-104810014D01*
X150658792Y-104742999D01*
X150804397Y-104645709D01*
X150928224Y-104521882D01*
X151025514Y-104376277D01*
X151044425Y-104330622D01*
X151066602Y-104384162D01*
X151163892Y-104529767D01*
X151287719Y-104653594D01*
X151433324Y-104750884D01*
X151595111Y-104817899D01*
X151766864Y-104852063D01*
X151941982Y-104852063D01*
X152113735Y-104817899D01*
X152275522Y-104750884D01*
X152421127Y-104653594D01*
X152544954Y-104529767D01*
X152642244Y-104384162D01*
X152709259Y-104222375D01*
X152743423Y-104050622D01*
X152743423Y-103875504D01*
X152709259Y-103703751D01*
X152642244Y-103541964D01*
X152544954Y-103396359D01*
X152421127Y-103272532D01*
X152275522Y-103175242D01*
X152113735Y-103108227D01*
X151941982Y-103074063D01*
X151766864Y-103074063D01*
X151595111Y-103108227D01*
X151433324Y-103175242D01*
X151287719Y-103272532D01*
X151163892Y-103396359D01*
X151066602Y-103541964D01*
X151047691Y-103587619D01*
X151025514Y-103534079D01*
X150928224Y-103388474D01*
X150804397Y-103264647D01*
X150658792Y-103167357D01*
X150497005Y-103100342D01*
X150325252Y-103066178D01*
X150150134Y-103066178D01*
X149978381Y-103100342D01*
X149816594Y-103167357D01*
X149722720Y-103230081D01*
X149621097Y-103162179D01*
X149459310Y-103095164D01*
X149287557Y-103061000D01*
X149112439Y-103061000D01*
X148940686Y-103095164D01*
X148778899Y-103162179D01*
X148633294Y-103259469D01*
X148509467Y-103383296D01*
X148412177Y-103528901D01*
X148345162Y-103690688D01*
X148310998Y-103862441D01*
X144630053Y-103862441D01*
X144756706Y-103708114D01*
X144894599Y-103450134D01*
X144979513Y-103170211D01*
X145008185Y-102879100D01*
X144999562Y-102791541D01*
X146437000Y-102791541D01*
X146437000Y-102966659D01*
X146471164Y-103138412D01*
X146538179Y-103300199D01*
X146635469Y-103445804D01*
X146759296Y-103569631D01*
X146904901Y-103666921D01*
X147066688Y-103733936D01*
X147238441Y-103768100D01*
X147413559Y-103768100D01*
X147585312Y-103733936D01*
X147747099Y-103666921D01*
X147892704Y-103569631D01*
X148016531Y-103445804D01*
X148113821Y-103300199D01*
X148180836Y-103138412D01*
X148215000Y-102966659D01*
X148215000Y-102791541D01*
X148180836Y-102619788D01*
X148113821Y-102458001D01*
X148016531Y-102312396D01*
X147892704Y-102188569D01*
X147747099Y-102091279D01*
X147585312Y-102024264D01*
X147413559Y-101990100D01*
X147238441Y-101990100D01*
X147066688Y-102024264D01*
X146904901Y-102091279D01*
X146759296Y-102188569D01*
X146635469Y-102312396D01*
X146538179Y-102458001D01*
X146471164Y-102619788D01*
X146437000Y-102791541D01*
X144999562Y-102791541D01*
X144979513Y-102587989D01*
X144894599Y-102308066D01*
X144772620Y-102079859D01*
X144883296Y-102190535D01*
X145028901Y-102287825D01*
X145190688Y-102354840D01*
X145362441Y-102389004D01*
X145537559Y-102389004D01*
X145709312Y-102354840D01*
X145871099Y-102287825D01*
X146016704Y-102190535D01*
X146140531Y-102066708D01*
X146237821Y-101921103D01*
X146304836Y-101759316D01*
X146339000Y-101587563D01*
X146339000Y-101412445D01*
X146304836Y-101240692D01*
X146237821Y-101078905D01*
X146140531Y-100933300D01*
X146016704Y-100809473D01*
X145871099Y-100712183D01*
X145709312Y-100645168D01*
X145537559Y-100611004D01*
X145362441Y-100611004D01*
X145190688Y-100645168D01*
X145028901Y-100712183D01*
X144935770Y-100774411D01*
X144979513Y-100630211D01*
X145008185Y-100339100D01*
X144979513Y-100047989D01*
X144894599Y-99768066D01*
X144756706Y-99510086D01*
X144571134Y-99283966D01*
X144541313Y-99259493D01*
X144610180Y-99238602D01*
X144720494Y-99179637D01*
X144817185Y-99100285D01*
X144896537Y-99003594D01*
X144952772Y-98898388D01*
X144962179Y-98921099D01*
X145059469Y-99066704D01*
X145183296Y-99190531D01*
X145328901Y-99287821D01*
X145490688Y-99354836D01*
X145662441Y-99389000D01*
X145837559Y-99389000D01*
X146009312Y-99354836D01*
X146171099Y-99287821D01*
X146316704Y-99190531D01*
X146440531Y-99066704D01*
X146537821Y-98921099D01*
X146604836Y-98759312D01*
X146639000Y-98587559D01*
X146639000Y-98412441D01*
X146604836Y-98240688D01*
X146556916Y-98125000D01*
X146604836Y-98009312D01*
X146639000Y-97837559D01*
X146639000Y-97662441D01*
X146604836Y-97490688D01*
X146537821Y-97328901D01*
X146477818Y-97239100D01*
X155772182Y-97239100D01*
X155712179Y-97328901D01*
M02*
