M48
;DRILL file {KiCad (5.0.1-3-g963ef8bb5)} date Friday, 16 November 2018 at 15:24:40
;FORMAT={-:-/ absolute / inch / decimal}
FMAT,2
INCH,TZ
T1C0.0100
T2C0.0394
%
G90
G05
M72
T1
X5.7031Y-4.6694
X5.7087Y-5.1673
X5.7205Y-4.6161
X5.7264Y-3.9961
X5.7266Y-4.9471
X5.7323Y-5.0039
X5.7323Y-5.0433
X5.7375Y-4.4734
X5.7382Y-3.8484
X5.7382Y-3.878
X5.7433Y-4.2118
X5.7441Y-4.5354
X5.7517Y-4.7107
X5.7602Y-5.1004
X5.7633Y-4.685
X5.7756Y-4.4764
X5.7762Y-4.6319
X5.7774Y-4.7069
X5.7822Y-4.974
X5.792Y-4.814
X5.7972Y-4.7303
X5.8002Y-4.0504
X5.8066Y-4.7684
X5.8088Y-5.0472
X5.8231Y-5.076
X5.8425Y-4.7874
X5.8661Y-4.5039
X5.8661Y-4.5906
X5.874Y-4.0925
X5.8755Y-4.1208
X5.892Y-4.9072
X5.8957Y-4.2224
X5.9018Y-4.5504
X5.9149Y-4.0927
X5.9206Y-4.3972
X5.9251Y-4.3043
X5.9252Y-4.2783
X5.9252Y-4.3313
X5.9354Y-4.8147
X5.9449Y-5.0512
X5.9528Y-4.5039
X5.9528Y-4.5906
X5.9572Y-4.7951
X5.9752Y-4.3604
X5.9757Y-4.3864
X5.9785Y-4.093
X5.9798Y-4.762
X5.9803Y-4.1969
X5.9882Y-4.2445
X5.9902Y-4.8858
X5.9917Y-4.7852
X5.9938Y-4.8493
X5.9945Y-4.9849
X5.9949Y-4.4063
X6.002Y-4.3709
X6.0039Y-4.2224
X6.0039Y-4.3321
X6.0059Y-4.937
X6.0174Y-5.0203
X6.0215Y-4.7599
X6.0315Y-4.5906
X6.0315Y-5.1024
X6.037Y-5.001
X6.0472Y-4.2047
X6.063Y-4.9997
X6.0988Y-4.9898
X6.1021Y-4.8498
X6.1068Y-4.3824
X6.122Y-4.5322
X6.1252Y-4.6004
X6.1299Y-4.7874
X6.1387Y-4.1308
X6.1396Y-4.3497
X6.1594Y-4.4035
X6.1614Y-3.8484
X6.1614Y-3.878
X6.1654Y-4.7889
X6.181Y-5.0375
X6.1811Y-4.1575
X6.2106Y-4.6161
X6.2146Y-4.5862
X6.2192Y-4.3988
T2
X6.2502Y-3.8504
X6.2502Y-3.9504
X6.2502Y-4.0504
X6.2502Y-4.1504
X6.2502Y-4.2504
X6.2502Y-4.3504
X6.2502Y-4.4504
X6.2502Y-4.5504
X6.2502Y-4.6504
X6.2502Y-4.7504
X6.2502Y-4.8504
X6.2502Y-4.9504
X6.2502Y-5.0504
X6.2502Y-5.1504
X5.6502Y-3.8504
X5.6502Y-3.9504
X5.6502Y-4.0504
X5.6502Y-4.1504
X5.6502Y-4.2504
X5.6502Y-4.3504
X5.6502Y-4.4504
X5.6502Y-4.5504
X5.6502Y-4.6504
X5.6502Y-4.7504
X5.6502Y-4.8504
X5.6502Y-4.9504
X5.6502Y-5.0504
X5.6502Y-5.1504
T0
M30
