G04 #@! TF.GenerationSoftware,KiCad,Pcbnew,(5.1.4-0-10_14)*
G04 #@! TF.CreationDate,2019-09-22T15:54:42+02:00*
G04 #@! TF.ProjectId,TinyFPGA-UP,54696e79-4650-4474-912d-55502e6b6963,A*
G04 #@! TF.SameCoordinates,Original*
G04 #@! TF.FileFunction,Legend,Bot*
G04 #@! TF.FilePolarity,Positive*
%FSLAX46Y46*%
G04 Gerber Fmt 4.6, Leading zero omitted, Abs format (unit mm)*
G04 Created by KiCad (PCBNEW (5.1.4-0-10_14)) date 2019-09-22 15:54:42*
%MOMM*%
%LPD*%
G04 APERTURE LIST*
%ADD10C,0.175000*%
%ADD11C,0.250000*%
%ADD12C,0.120000*%
%ADD13C,0.010000*%
G04 APERTURE END LIST*
D10*
X147083333Y-110933333D02*
X147783333Y-110933333D01*
X147450000Y-110933333D02*
X147450000Y-110533333D01*
X147083333Y-110533333D02*
X147783333Y-110533333D01*
X147450000Y-109966666D02*
X147416666Y-109866666D01*
X147383333Y-109833333D01*
X147316666Y-109800000D01*
X147216666Y-109800000D01*
X147150000Y-109833333D01*
X147116666Y-109866666D01*
X147083333Y-109933333D01*
X147083333Y-110200000D01*
X147783333Y-110200000D01*
X147783333Y-109966666D01*
X147750000Y-109900000D01*
X147716666Y-109866666D01*
X147650000Y-109833333D01*
X147583333Y-109833333D01*
X147516666Y-109866666D01*
X147483333Y-109900000D01*
X147450000Y-109966666D01*
X147450000Y-110200000D01*
X147083333Y-109466666D02*
X147083333Y-109333333D01*
X147116666Y-109266666D01*
X147150000Y-109233333D01*
X147250000Y-109166666D01*
X147383333Y-109133333D01*
X147650000Y-109133333D01*
X147716666Y-109166666D01*
X147750000Y-109200000D01*
X147783333Y-109266666D01*
X147783333Y-109400000D01*
X147750000Y-109466666D01*
X147716666Y-109500000D01*
X147650000Y-109533333D01*
X147483333Y-109533333D01*
X147416666Y-109500000D01*
X147383333Y-109466666D01*
X147350000Y-109400000D01*
X147350000Y-109266666D01*
X147383333Y-109200000D01*
X147416666Y-109166666D01*
X147483333Y-109133333D01*
X147750000Y-108466666D02*
X147783333Y-108533333D01*
X147783333Y-108633333D01*
X147750000Y-108733333D01*
X147683333Y-108800000D01*
X147616666Y-108833333D01*
X147483333Y-108866666D01*
X147383333Y-108866666D01*
X147250000Y-108833333D01*
X147183333Y-108800000D01*
X147116666Y-108733333D01*
X147083333Y-108633333D01*
X147083333Y-108566666D01*
X147116666Y-108466666D01*
X147150000Y-108433333D01*
X147383333Y-108433333D01*
X147383333Y-108566666D01*
X147083333Y-108133333D02*
X147783333Y-108133333D01*
X147783333Y-107866666D01*
X147750000Y-107800000D01*
X147716666Y-107766666D01*
X147650000Y-107733333D01*
X147550000Y-107733333D01*
X147483333Y-107766666D01*
X147450000Y-107800000D01*
X147416666Y-107866666D01*
X147416666Y-108133333D01*
X147150000Y-107033333D02*
X147116666Y-107066666D01*
X147083333Y-107166666D01*
X147083333Y-107233333D01*
X147116666Y-107333333D01*
X147183333Y-107400000D01*
X147250000Y-107433333D01*
X147383333Y-107466666D01*
X147483333Y-107466666D01*
X147616666Y-107433333D01*
X147683333Y-107400000D01*
X147750000Y-107333333D01*
X147783333Y-107233333D01*
X147783333Y-107166666D01*
X147750000Y-107066666D01*
X147716666Y-107033333D01*
X149350000Y-99316666D02*
X149350000Y-98850000D01*
X149350000Y-98983333D02*
X149316666Y-98916666D01*
X149283333Y-98883333D01*
X149216666Y-98850000D01*
X149150000Y-98850000D01*
X148650000Y-99283333D02*
X148716666Y-99316666D01*
X148850000Y-99316666D01*
X148916666Y-99283333D01*
X148950000Y-99216666D01*
X148950000Y-98950000D01*
X148916666Y-98883333D01*
X148850000Y-98850000D01*
X148716666Y-98850000D01*
X148650000Y-98883333D01*
X148616666Y-98950000D01*
X148616666Y-99016666D01*
X148950000Y-99083333D01*
X148383333Y-98850000D02*
X148216666Y-99316666D01*
X148050000Y-98850000D01*
X147783333Y-99250000D02*
X147750000Y-99283333D01*
X147783333Y-99316666D01*
X147816666Y-99283333D01*
X147783333Y-99250000D01*
X147783333Y-99316666D01*
X146950000Y-99116666D02*
X146616666Y-99116666D01*
X147016666Y-99316666D02*
X146783333Y-98616666D01*
X146550000Y-99316666D01*
X147883333Y-123900000D02*
X147183333Y-123733333D01*
X147683333Y-123600000D01*
X147183333Y-123466666D01*
X147883333Y-123300000D01*
X147183333Y-123033333D02*
X147883333Y-123033333D01*
X147883333Y-122766666D01*
X147850000Y-122700000D01*
X147816666Y-122666666D01*
X147750000Y-122633333D01*
X147650000Y-122633333D01*
X147583333Y-122666666D01*
X147550000Y-122700000D01*
X147516666Y-122766666D01*
X147516666Y-123033333D01*
X152183333Y-113466666D02*
X152183333Y-113800000D01*
X152883333Y-113800000D01*
X152183333Y-113233333D02*
X152883333Y-113233333D01*
X152883333Y-113066666D01*
X152850000Y-112966666D01*
X152783333Y-112900000D01*
X152716666Y-112866666D01*
X152583333Y-112833333D01*
X152483333Y-112833333D01*
X152350000Y-112866666D01*
X152283333Y-112900000D01*
X152216666Y-112966666D01*
X152183333Y-113066666D01*
X152183333Y-113233333D01*
X152883333Y-112400000D02*
X152883333Y-112333333D01*
X152850000Y-112266666D01*
X152816666Y-112233333D01*
X152750000Y-112200000D01*
X152616666Y-112166666D01*
X152450000Y-112166666D01*
X152316666Y-112200000D01*
X152250000Y-112233333D01*
X152216666Y-112266666D01*
X152183333Y-112333333D01*
X152183333Y-112400000D01*
X152216666Y-112466666D01*
X152250000Y-112500000D01*
X152316666Y-112533333D01*
X152450000Y-112566666D01*
X152616666Y-112566666D01*
X152750000Y-112533333D01*
X152816666Y-112500000D01*
X152850000Y-112466666D01*
X152883333Y-112400000D01*
X152883333Y-116500000D02*
X152883333Y-116066666D01*
X152616666Y-116300000D01*
X152616666Y-116200000D01*
X152583333Y-116133333D01*
X152550000Y-116100000D01*
X152483333Y-116066666D01*
X152316666Y-116066666D01*
X152250000Y-116100000D01*
X152216666Y-116133333D01*
X152183333Y-116200000D01*
X152183333Y-116400000D01*
X152216666Y-116466666D01*
X152250000Y-116500000D01*
X152250000Y-115766666D02*
X152216666Y-115733333D01*
X152183333Y-115766666D01*
X152216666Y-115800000D01*
X152250000Y-115766666D01*
X152183333Y-115766666D01*
X152883333Y-115500000D02*
X152883333Y-115066666D01*
X152616666Y-115300000D01*
X152616666Y-115200000D01*
X152583333Y-115133333D01*
X152550000Y-115100000D01*
X152483333Y-115066666D01*
X152316666Y-115066666D01*
X152250000Y-115100000D01*
X152216666Y-115133333D01*
X152183333Y-115200000D01*
X152183333Y-115400000D01*
X152216666Y-115466666D01*
X152250000Y-115500000D01*
X152650000Y-114833333D02*
X152183333Y-114666666D01*
X152650000Y-114500000D01*
X152183333Y-118566666D02*
X152183333Y-118900000D01*
X152883333Y-118900000D01*
X152183333Y-118333333D02*
X152883333Y-118333333D01*
X152883333Y-118166666D01*
X152850000Y-118066666D01*
X152783333Y-118000000D01*
X152716666Y-117966666D01*
X152583333Y-117933333D01*
X152483333Y-117933333D01*
X152350000Y-117966666D01*
X152283333Y-118000000D01*
X152216666Y-118066666D01*
X152183333Y-118166666D01*
X152183333Y-118333333D01*
X152183333Y-117266666D02*
X152183333Y-117666666D01*
X152183333Y-117466666D02*
X152883333Y-117466666D01*
X152783333Y-117533333D01*
X152716666Y-117600000D01*
X152683333Y-117666666D01*
X152816666Y-121033333D02*
X152850000Y-121000000D01*
X152883333Y-120933333D01*
X152883333Y-120766666D01*
X152850000Y-120700000D01*
X152816666Y-120666666D01*
X152750000Y-120633333D01*
X152683333Y-120633333D01*
X152583333Y-120666666D01*
X152183333Y-121066666D01*
X152183333Y-120633333D01*
X152583333Y-120233333D02*
X152616666Y-120300000D01*
X152650000Y-120333333D01*
X152716666Y-120366666D01*
X152750000Y-120366666D01*
X152816666Y-120333333D01*
X152850000Y-120300000D01*
X152883333Y-120233333D01*
X152883333Y-120100000D01*
X152850000Y-120033333D01*
X152816666Y-120000000D01*
X152750000Y-119966666D01*
X152716666Y-119966666D01*
X152650000Y-120000000D01*
X152616666Y-120033333D01*
X152583333Y-120100000D01*
X152583333Y-120233333D01*
X152550000Y-120300000D01*
X152516666Y-120333333D01*
X152450000Y-120366666D01*
X152316666Y-120366666D01*
X152250000Y-120333333D01*
X152216666Y-120300000D01*
X152183333Y-120233333D01*
X152183333Y-120100000D01*
X152216666Y-120033333D01*
X152250000Y-120000000D01*
X152316666Y-119966666D01*
X152450000Y-119966666D01*
X152516666Y-120000000D01*
X152550000Y-120033333D01*
X152583333Y-120100000D01*
X152183333Y-124083333D02*
X152883333Y-124083333D01*
X152550000Y-124083333D02*
X152550000Y-123683333D01*
X152183333Y-123683333D02*
X152883333Y-123683333D01*
X152183333Y-123016666D02*
X152183333Y-123350000D01*
X152883333Y-123350000D01*
X152183333Y-122783333D02*
X152883333Y-122783333D01*
X152883333Y-122616666D01*
X152850000Y-122516666D01*
X152783333Y-122450000D01*
X152716666Y-122416666D01*
X152583333Y-122383333D01*
X152483333Y-122383333D01*
X152350000Y-122416666D01*
X152283333Y-122450000D01*
X152216666Y-122516666D01*
X152183333Y-122616666D01*
X152183333Y-122783333D01*
X152216666Y-126650000D02*
X152183333Y-126550000D01*
X152183333Y-126383333D01*
X152216666Y-126316666D01*
X152250000Y-126283333D01*
X152316666Y-126250000D01*
X152383333Y-126250000D01*
X152450000Y-126283333D01*
X152483333Y-126316666D01*
X152516666Y-126383333D01*
X152550000Y-126516666D01*
X152583333Y-126583333D01*
X152616666Y-126616666D01*
X152683333Y-126650000D01*
X152750000Y-126650000D01*
X152816666Y-126616666D01*
X152850000Y-126583333D01*
X152883333Y-126516666D01*
X152883333Y-126350000D01*
X152850000Y-126250000D01*
X152250000Y-125550000D02*
X152216666Y-125583333D01*
X152183333Y-125683333D01*
X152183333Y-125750000D01*
X152216666Y-125850000D01*
X152283333Y-125916666D01*
X152350000Y-125950000D01*
X152483333Y-125983333D01*
X152583333Y-125983333D01*
X152716666Y-125950000D01*
X152783333Y-125916666D01*
X152850000Y-125850000D01*
X152883333Y-125750000D01*
X152883333Y-125683333D01*
X152850000Y-125583333D01*
X152816666Y-125550000D01*
X152183333Y-125250000D02*
X152883333Y-125250000D01*
X152183333Y-124850000D02*
X152583333Y-125150000D01*
X152883333Y-124850000D02*
X152483333Y-125250000D01*
X152216666Y-129166666D02*
X152183333Y-129066666D01*
X152183333Y-128900000D01*
X152216666Y-128833333D01*
X152250000Y-128800000D01*
X152316666Y-128766666D01*
X152383333Y-128766666D01*
X152450000Y-128800000D01*
X152483333Y-128833333D01*
X152516666Y-128900000D01*
X152550000Y-129033333D01*
X152583333Y-129100000D01*
X152616666Y-129133333D01*
X152683333Y-129166666D01*
X152750000Y-129166666D01*
X152816666Y-129133333D01*
X152850000Y-129100000D01*
X152883333Y-129033333D01*
X152883333Y-128866666D01*
X152850000Y-128766666D01*
X152183333Y-128466666D02*
X152883333Y-128466666D01*
X152883333Y-128300000D01*
X152850000Y-128200000D01*
X152783333Y-128133333D01*
X152716666Y-128100000D01*
X152583333Y-128066666D01*
X152483333Y-128066666D01*
X152350000Y-128100000D01*
X152283333Y-128133333D01*
X152216666Y-128200000D01*
X152183333Y-128300000D01*
X152183333Y-128466666D01*
X152883333Y-127633333D02*
X152883333Y-127500000D01*
X152850000Y-127433333D01*
X152783333Y-127366666D01*
X152650000Y-127333333D01*
X152416666Y-127333333D01*
X152283333Y-127366666D01*
X152216666Y-127433333D01*
X152183333Y-127500000D01*
X152183333Y-127633333D01*
X152216666Y-127700000D01*
X152283333Y-127766666D01*
X152416666Y-127800000D01*
X152650000Y-127800000D01*
X152783333Y-127766666D01*
X152850000Y-127700000D01*
X152883333Y-127633333D01*
X152850000Y-130566666D02*
X152883333Y-130633333D01*
X152883333Y-130733333D01*
X152850000Y-130833333D01*
X152783333Y-130900000D01*
X152716666Y-130933333D01*
X152583333Y-130966666D01*
X152483333Y-130966666D01*
X152350000Y-130933333D01*
X152283333Y-130900000D01*
X152216666Y-130833333D01*
X152183333Y-130733333D01*
X152183333Y-130666666D01*
X152216666Y-130566666D01*
X152250000Y-130533333D01*
X152483333Y-130533333D01*
X152483333Y-130666666D01*
X147216666Y-126466666D02*
X147183333Y-126366666D01*
X147183333Y-126200000D01*
X147216666Y-126133333D01*
X147250000Y-126100000D01*
X147316666Y-126066666D01*
X147383333Y-126066666D01*
X147450000Y-126100000D01*
X147483333Y-126133333D01*
X147516666Y-126200000D01*
X147550000Y-126333333D01*
X147583333Y-126400000D01*
X147616666Y-126433333D01*
X147683333Y-126466666D01*
X147750000Y-126466666D01*
X147816666Y-126433333D01*
X147850000Y-126400000D01*
X147883333Y-126333333D01*
X147883333Y-126166666D01*
X147850000Y-126066666D01*
X147183333Y-125766666D02*
X147883333Y-125766666D01*
X147883333Y-125600000D01*
X147850000Y-125500000D01*
X147783333Y-125433333D01*
X147716666Y-125400000D01*
X147583333Y-125366666D01*
X147483333Y-125366666D01*
X147350000Y-125400000D01*
X147283333Y-125433333D01*
X147216666Y-125500000D01*
X147183333Y-125600000D01*
X147183333Y-125766666D01*
X147183333Y-125066666D02*
X147883333Y-125066666D01*
X147216666Y-128783333D02*
X147183333Y-128683333D01*
X147183333Y-128516666D01*
X147216666Y-128450000D01*
X147250000Y-128416666D01*
X147316666Y-128383333D01*
X147383333Y-128383333D01*
X147450000Y-128416666D01*
X147483333Y-128450000D01*
X147516666Y-128516666D01*
X147550000Y-128650000D01*
X147583333Y-128716666D01*
X147616666Y-128750000D01*
X147683333Y-128783333D01*
X147750000Y-128783333D01*
X147816666Y-128750000D01*
X147850000Y-128716666D01*
X147883333Y-128650000D01*
X147883333Y-128483333D01*
X147850000Y-128383333D01*
X147216666Y-128116666D02*
X147183333Y-128016666D01*
X147183333Y-127850000D01*
X147216666Y-127783333D01*
X147250000Y-127750000D01*
X147316666Y-127716666D01*
X147383333Y-127716666D01*
X147450000Y-127750000D01*
X147483333Y-127783333D01*
X147516666Y-127850000D01*
X147550000Y-127983333D01*
X147583333Y-128050000D01*
X147616666Y-128083333D01*
X147683333Y-128116666D01*
X147750000Y-128116666D01*
X147816666Y-128083333D01*
X147850000Y-128050000D01*
X147883333Y-127983333D01*
X147883333Y-127816666D01*
X147850000Y-127716666D01*
X147850000Y-130566666D02*
X147883333Y-130633333D01*
X147883333Y-130733333D01*
X147850000Y-130833333D01*
X147783333Y-130900000D01*
X147716666Y-130933333D01*
X147583333Y-130966666D01*
X147483333Y-130966666D01*
X147350000Y-130933333D01*
X147283333Y-130900000D01*
X147216666Y-130833333D01*
X147183333Y-130733333D01*
X147183333Y-130666666D01*
X147216666Y-130566666D01*
X147250000Y-130533333D01*
X147483333Y-130533333D01*
X147483333Y-130666666D01*
X147816666Y-121033333D02*
X147850000Y-121000000D01*
X147883333Y-120933333D01*
X147883333Y-120766666D01*
X147850000Y-120700000D01*
X147816666Y-120666666D01*
X147750000Y-120633333D01*
X147683333Y-120633333D01*
X147583333Y-120666666D01*
X147183333Y-121066666D01*
X147183333Y-120633333D01*
X147883333Y-120400000D02*
X147883333Y-119933333D01*
X147183333Y-120233333D01*
X147183333Y-118550000D02*
X147883333Y-118550000D01*
X147183333Y-118150000D01*
X147883333Y-118150000D01*
X147250000Y-117416666D02*
X147216666Y-117450000D01*
X147183333Y-117550000D01*
X147183333Y-117616666D01*
X147216666Y-117716666D01*
X147283333Y-117783333D01*
X147350000Y-117816666D01*
X147483333Y-117850000D01*
X147583333Y-117850000D01*
X147716666Y-117816666D01*
X147783333Y-117783333D01*
X147850000Y-117716666D01*
X147883333Y-117616666D01*
X147883333Y-117550000D01*
X147850000Y-117450000D01*
X147816666Y-117416666D01*
X147750000Y-115416666D02*
X147783333Y-115483333D01*
X147783333Y-115583333D01*
X147750000Y-115683333D01*
X147683333Y-115750000D01*
X147616666Y-115783333D01*
X147483333Y-115816666D01*
X147383333Y-115816666D01*
X147250000Y-115783333D01*
X147183333Y-115750000D01*
X147116666Y-115683333D01*
X147083333Y-115583333D01*
X147083333Y-115516666D01*
X147116666Y-115416666D01*
X147150000Y-115383333D01*
X147383333Y-115383333D01*
X147383333Y-115516666D01*
X147083333Y-113466666D02*
X147083333Y-113800000D01*
X147783333Y-113800000D01*
X147083333Y-113233333D02*
X147783333Y-113233333D01*
X147783333Y-113066666D01*
X147750000Y-112966666D01*
X147683333Y-112900000D01*
X147616666Y-112866666D01*
X147483333Y-112833333D01*
X147383333Y-112833333D01*
X147250000Y-112866666D01*
X147183333Y-112900000D01*
X147116666Y-112966666D01*
X147083333Y-113066666D01*
X147083333Y-113233333D01*
X147716666Y-112566666D02*
X147750000Y-112533333D01*
X147783333Y-112466666D01*
X147783333Y-112300000D01*
X147750000Y-112233333D01*
X147716666Y-112200000D01*
X147650000Y-112166666D01*
X147583333Y-112166666D01*
X147483333Y-112200000D01*
X147083333Y-112600000D01*
X147083333Y-112166666D01*
X155133333Y-105966666D02*
X155133333Y-105533333D01*
X154866666Y-105766666D01*
X154866666Y-105666666D01*
X154833333Y-105600000D01*
X154800000Y-105566666D01*
X154733333Y-105533333D01*
X154566666Y-105533333D01*
X154500000Y-105566666D01*
X154466666Y-105600000D01*
X154433333Y-105666666D01*
X154433333Y-105866666D01*
X154466666Y-105933333D01*
X154500000Y-105966666D01*
X154433333Y-104866666D02*
X154433333Y-105266666D01*
X154433333Y-105066666D02*
X155133333Y-105066666D01*
X155033333Y-105133333D01*
X154966666Y-105200000D01*
X154933333Y-105266666D01*
X154433333Y-103450000D02*
X155133333Y-103450000D01*
X155133333Y-103183333D01*
X155100000Y-103116666D01*
X155066666Y-103083333D01*
X155000000Y-103050000D01*
X154900000Y-103050000D01*
X154833333Y-103083333D01*
X154800000Y-103116666D01*
X154766666Y-103183333D01*
X154766666Y-103450000D01*
X155133333Y-102750000D02*
X154566666Y-102750000D01*
X154500000Y-102716666D01*
X154466666Y-102683333D01*
X154433333Y-102616666D01*
X154433333Y-102483333D01*
X154466666Y-102416666D01*
X154500000Y-102383333D01*
X154566666Y-102350000D01*
X155133333Y-102350000D01*
X155133333Y-101033333D02*
X154566666Y-101033333D01*
X154500000Y-101000000D01*
X154466666Y-100966666D01*
X154433333Y-100900000D01*
X154433333Y-100766666D01*
X154466666Y-100700000D01*
X154500000Y-100666666D01*
X154566666Y-100633333D01*
X155133333Y-100633333D01*
X154700000Y-100300000D02*
X154700000Y-99766666D01*
X149450000Y-105916666D02*
X149416666Y-105950000D01*
X149383333Y-106050000D01*
X149383333Y-106116666D01*
X149416666Y-106216666D01*
X149483333Y-106283333D01*
X149550000Y-106316666D01*
X149683333Y-106350000D01*
X149783333Y-106350000D01*
X149916666Y-106316666D01*
X149983333Y-106283333D01*
X150050000Y-106216666D01*
X150083333Y-106116666D01*
X150083333Y-106050000D01*
X150050000Y-105950000D01*
X150016666Y-105916666D01*
X149383333Y-105283333D02*
X149383333Y-105616666D01*
X150083333Y-105616666D01*
X149383333Y-105050000D02*
X150083333Y-105050000D01*
X149383333Y-104650000D02*
X149783333Y-104950000D01*
X150083333Y-104650000D02*
X149683333Y-105050000D01*
X149383333Y-103250000D02*
X149383333Y-103583333D01*
X150083333Y-103583333D01*
X149750000Y-103016666D02*
X149750000Y-102783333D01*
X149383333Y-102683333D02*
X149383333Y-103016666D01*
X150083333Y-103016666D01*
X150083333Y-102683333D01*
X149383333Y-102383333D02*
X150083333Y-102383333D01*
X150083333Y-102216666D01*
X150050000Y-102116666D01*
X149983333Y-102050000D01*
X149916666Y-102016666D01*
X149783333Y-101983333D01*
X149683333Y-101983333D01*
X149550000Y-102016666D01*
X149483333Y-102050000D01*
X149416666Y-102116666D01*
X149383333Y-102216666D01*
X149383333Y-102383333D01*
X150083333Y-101033333D02*
X149516666Y-101033333D01*
X149450000Y-101000000D01*
X149416666Y-100966666D01*
X149383333Y-100900000D01*
X149383333Y-100766666D01*
X149416666Y-100700000D01*
X149450000Y-100666666D01*
X149516666Y-100633333D01*
X150083333Y-100633333D01*
X149650000Y-100300000D02*
X149650000Y-99766666D01*
X149383333Y-100033333D02*
X149916666Y-100033333D01*
X155683333Y-108816666D02*
X155683333Y-109216666D01*
X155683333Y-109016666D02*
X156383333Y-109016666D01*
X156283333Y-109083333D01*
X156216666Y-109150000D01*
X156183333Y-109216666D01*
X155750000Y-108516666D02*
X155716666Y-108483333D01*
X155683333Y-108516666D01*
X155716666Y-108550000D01*
X155750000Y-108516666D01*
X155683333Y-108516666D01*
X156316666Y-108216666D02*
X156350000Y-108183333D01*
X156383333Y-108116666D01*
X156383333Y-107950000D01*
X156350000Y-107883333D01*
X156316666Y-107850000D01*
X156250000Y-107816666D01*
X156183333Y-107816666D01*
X156083333Y-107850000D01*
X155683333Y-108250000D01*
X155683333Y-107816666D01*
X156150000Y-107583333D02*
X155683333Y-107416666D01*
X156150000Y-107250000D01*
X145933333Y-122633333D02*
X146266666Y-122866666D01*
X145933333Y-123033333D02*
X146633333Y-123033333D01*
X146633333Y-122766666D01*
X146600000Y-122700000D01*
X146566666Y-122666666D01*
X146500000Y-122633333D01*
X146400000Y-122633333D01*
X146333333Y-122666666D01*
X146300000Y-122700000D01*
X146266666Y-122766666D01*
X146266666Y-123033333D01*
X145966666Y-122366666D02*
X145933333Y-122266666D01*
X145933333Y-122100000D01*
X145966666Y-122033333D01*
X146000000Y-122000000D01*
X146066666Y-121966666D01*
X146133333Y-121966666D01*
X146200000Y-122000000D01*
X146233333Y-122033333D01*
X146266666Y-122100000D01*
X146300000Y-122233333D01*
X146333333Y-122300000D01*
X146366666Y-122333333D01*
X146433333Y-122366666D01*
X146500000Y-122366666D01*
X146566666Y-122333333D01*
X146600000Y-122300000D01*
X146633333Y-122233333D01*
X146633333Y-122066666D01*
X146600000Y-121966666D01*
X146633333Y-121766666D02*
X146633333Y-121366666D01*
X145933333Y-121566666D02*
X146633333Y-121566666D01*
X146633333Y-128150000D02*
X145933333Y-127983333D01*
X146433333Y-127850000D01*
X145933333Y-127716666D01*
X146633333Y-127550000D01*
X145933333Y-127283333D02*
X146633333Y-127283333D01*
X146633333Y-127016666D01*
X146600000Y-126950000D01*
X146566666Y-126916666D01*
X146500000Y-126883333D01*
X146400000Y-126883333D01*
X146333333Y-126916666D01*
X146300000Y-126950000D01*
X146266666Y-127016666D01*
X146266666Y-127283333D01*
X157583333Y-98466666D02*
X156883333Y-98233333D01*
X157583333Y-98000000D01*
X156883333Y-97766666D02*
X157350000Y-97766666D01*
X157583333Y-97766666D02*
X157550000Y-97800000D01*
X157516666Y-97766666D01*
X157550000Y-97733333D01*
X157583333Y-97766666D01*
X157516666Y-97766666D01*
X157350000Y-97433333D02*
X156883333Y-97433333D01*
X157283333Y-97433333D02*
X157316666Y-97400000D01*
X157350000Y-97333333D01*
X157350000Y-97233333D01*
X157316666Y-97166666D01*
X157250000Y-97133333D01*
X156883333Y-97133333D01*
X157550000Y-100833333D02*
X157583333Y-100900000D01*
X157583333Y-101000000D01*
X157550000Y-101100000D01*
X157483333Y-101166666D01*
X157416666Y-101200000D01*
X157283333Y-101233333D01*
X157183333Y-101233333D01*
X157050000Y-101200000D01*
X156983333Y-101166666D01*
X156916666Y-101100000D01*
X156883333Y-101000000D01*
X156883333Y-100933333D01*
X156916666Y-100833333D01*
X156950000Y-100800000D01*
X157183333Y-100800000D01*
X157183333Y-100933333D01*
X156883333Y-100500000D02*
X157583333Y-100500000D01*
X156883333Y-100100000D01*
X157583333Y-100100000D01*
X156883333Y-99766666D02*
X157583333Y-99766666D01*
X157583333Y-99600000D01*
X157550000Y-99500000D01*
X157483333Y-99433333D01*
X157416666Y-99400000D01*
X157283333Y-99366666D01*
X157183333Y-99366666D01*
X157050000Y-99400000D01*
X156983333Y-99433333D01*
X156916666Y-99500000D01*
X156883333Y-99600000D01*
X156883333Y-99766666D01*
X157583333Y-103800000D02*
X157583333Y-103366666D01*
X157316666Y-103600000D01*
X157316666Y-103500000D01*
X157283333Y-103433333D01*
X157250000Y-103400000D01*
X157183333Y-103366666D01*
X157016666Y-103366666D01*
X156950000Y-103400000D01*
X156916666Y-103433333D01*
X156883333Y-103500000D01*
X156883333Y-103700000D01*
X156916666Y-103766666D01*
X156950000Y-103800000D01*
X156950000Y-103066666D02*
X156916666Y-103033333D01*
X156883333Y-103066666D01*
X156916666Y-103100000D01*
X156950000Y-103066666D01*
X156883333Y-103066666D01*
X157583333Y-102800000D02*
X157583333Y-102366666D01*
X157316666Y-102600000D01*
X157316666Y-102500000D01*
X157283333Y-102433333D01*
X157250000Y-102400000D01*
X157183333Y-102366666D01*
X157016666Y-102366666D01*
X156950000Y-102400000D01*
X156916666Y-102433333D01*
X156883333Y-102500000D01*
X156883333Y-102700000D01*
X156916666Y-102766666D01*
X156950000Y-102800000D01*
X157350000Y-102133333D02*
X156883333Y-101966666D01*
X157350000Y-101800000D01*
X157516666Y-105933333D02*
X157550000Y-105900000D01*
X157583333Y-105833333D01*
X157583333Y-105666666D01*
X157550000Y-105600000D01*
X157516666Y-105566666D01*
X157450000Y-105533333D01*
X157383333Y-105533333D01*
X157283333Y-105566666D01*
X156883333Y-105966666D01*
X156883333Y-105533333D01*
X157350000Y-104933333D02*
X156883333Y-104933333D01*
X157616666Y-105100000D02*
X157116666Y-105266666D01*
X157116666Y-104833333D01*
X157516666Y-108533333D02*
X157550000Y-108500000D01*
X157583333Y-108433333D01*
X157583333Y-108266666D01*
X157550000Y-108200000D01*
X157516666Y-108166666D01*
X157450000Y-108133333D01*
X157383333Y-108133333D01*
X157283333Y-108166666D01*
X156883333Y-108566666D01*
X156883333Y-108133333D01*
X157583333Y-107900000D02*
X157583333Y-107466666D01*
X157316666Y-107700000D01*
X157316666Y-107600000D01*
X157283333Y-107533333D01*
X157250000Y-107500000D01*
X157183333Y-107466666D01*
X157016666Y-107466666D01*
X156950000Y-107500000D01*
X156916666Y-107533333D01*
X156883333Y-107600000D01*
X156883333Y-107800000D01*
X156916666Y-107866666D01*
X156950000Y-107900000D01*
X157516666Y-111033333D02*
X157550000Y-111000000D01*
X157583333Y-110933333D01*
X157583333Y-110766666D01*
X157550000Y-110700000D01*
X157516666Y-110666666D01*
X157450000Y-110633333D01*
X157383333Y-110633333D01*
X157283333Y-110666666D01*
X156883333Y-111066666D01*
X156883333Y-110633333D01*
X157516666Y-110366666D02*
X157550000Y-110333333D01*
X157583333Y-110266666D01*
X157583333Y-110100000D01*
X157550000Y-110033333D01*
X157516666Y-110000000D01*
X157450000Y-109966666D01*
X157383333Y-109966666D01*
X157283333Y-110000000D01*
X156883333Y-110400000D01*
X156883333Y-109966666D01*
X157516666Y-113533333D02*
X157550000Y-113500000D01*
X157583333Y-113433333D01*
X157583333Y-113266666D01*
X157550000Y-113200000D01*
X157516666Y-113166666D01*
X157450000Y-113133333D01*
X157383333Y-113133333D01*
X157283333Y-113166666D01*
X156883333Y-113566666D01*
X156883333Y-113133333D01*
X156883333Y-112466666D02*
X156883333Y-112866666D01*
X156883333Y-112666666D02*
X157583333Y-112666666D01*
X157483333Y-112733333D01*
X157416666Y-112800000D01*
X157383333Y-112866666D01*
X157516666Y-116033333D02*
X157550000Y-116000000D01*
X157583333Y-115933333D01*
X157583333Y-115766666D01*
X157550000Y-115700000D01*
X157516666Y-115666666D01*
X157450000Y-115633333D01*
X157383333Y-115633333D01*
X157283333Y-115666666D01*
X156883333Y-116066666D01*
X156883333Y-115633333D01*
X157583333Y-115200000D02*
X157583333Y-115133333D01*
X157550000Y-115066666D01*
X157516666Y-115033333D01*
X157450000Y-115000000D01*
X157316666Y-114966666D01*
X157150000Y-114966666D01*
X157016666Y-115000000D01*
X156950000Y-115033333D01*
X156916666Y-115066666D01*
X156883333Y-115133333D01*
X156883333Y-115200000D01*
X156916666Y-115266666D01*
X156950000Y-115300000D01*
X157016666Y-115333333D01*
X157150000Y-115366666D01*
X157316666Y-115366666D01*
X157450000Y-115333333D01*
X157516666Y-115300000D01*
X157550000Y-115266666D01*
X157583333Y-115200000D01*
X156883333Y-118233333D02*
X156883333Y-118633333D01*
X156883333Y-118433333D02*
X157583333Y-118433333D01*
X157483333Y-118500000D01*
X157416666Y-118566666D01*
X157383333Y-118633333D01*
X156883333Y-117900000D02*
X156883333Y-117766666D01*
X156916666Y-117700000D01*
X156950000Y-117666666D01*
X157050000Y-117600000D01*
X157183333Y-117566666D01*
X157450000Y-117566666D01*
X157516666Y-117600000D01*
X157550000Y-117633333D01*
X157583333Y-117700000D01*
X157583333Y-117833333D01*
X157550000Y-117900000D01*
X157516666Y-117933333D01*
X157450000Y-117966666D01*
X157283333Y-117966666D01*
X157216666Y-117933333D01*
X157183333Y-117900000D01*
X157150000Y-117833333D01*
X157150000Y-117700000D01*
X157183333Y-117633333D01*
X157216666Y-117600000D01*
X157283333Y-117566666D01*
X156883333Y-120733333D02*
X156883333Y-121133333D01*
X156883333Y-120933333D02*
X157583333Y-120933333D01*
X157483333Y-121000000D01*
X157416666Y-121066666D01*
X157383333Y-121133333D01*
X157283333Y-120333333D02*
X157316666Y-120400000D01*
X157350000Y-120433333D01*
X157416666Y-120466666D01*
X157450000Y-120466666D01*
X157516666Y-120433333D01*
X157550000Y-120400000D01*
X157583333Y-120333333D01*
X157583333Y-120200000D01*
X157550000Y-120133333D01*
X157516666Y-120100000D01*
X157450000Y-120066666D01*
X157416666Y-120066666D01*
X157350000Y-120100000D01*
X157316666Y-120133333D01*
X157283333Y-120200000D01*
X157283333Y-120333333D01*
X157250000Y-120400000D01*
X157216666Y-120433333D01*
X157150000Y-120466666D01*
X157016666Y-120466666D01*
X156950000Y-120433333D01*
X156916666Y-120400000D01*
X156883333Y-120333333D01*
X156883333Y-120200000D01*
X156916666Y-120133333D01*
X156950000Y-120100000D01*
X157016666Y-120066666D01*
X157150000Y-120066666D01*
X157216666Y-120100000D01*
X157250000Y-120133333D01*
X157283333Y-120200000D01*
X156883333Y-123233333D02*
X156883333Y-123633333D01*
X156883333Y-123433333D02*
X157583333Y-123433333D01*
X157483333Y-123500000D01*
X157416666Y-123566666D01*
X157383333Y-123633333D01*
X157583333Y-123000000D02*
X157583333Y-122533333D01*
X156883333Y-122833333D01*
X156883333Y-125833333D02*
X156883333Y-126233333D01*
X156883333Y-126033333D02*
X157583333Y-126033333D01*
X157483333Y-126100000D01*
X157416666Y-126166666D01*
X157383333Y-126233333D01*
X157583333Y-125233333D02*
X157583333Y-125366666D01*
X157550000Y-125433333D01*
X157516666Y-125466666D01*
X157416666Y-125533333D01*
X157283333Y-125566666D01*
X157016666Y-125566666D01*
X156950000Y-125533333D01*
X156916666Y-125500000D01*
X156883333Y-125433333D01*
X156883333Y-125300000D01*
X156916666Y-125233333D01*
X156950000Y-125200000D01*
X157016666Y-125166666D01*
X157183333Y-125166666D01*
X157250000Y-125200000D01*
X157283333Y-125233333D01*
X157316666Y-125300000D01*
X157316666Y-125433333D01*
X157283333Y-125500000D01*
X157250000Y-125533333D01*
X157183333Y-125566666D01*
X156883333Y-128383333D02*
X156883333Y-128783333D01*
X156883333Y-128583333D02*
X157583333Y-128583333D01*
X157483333Y-128650000D01*
X157416666Y-128716666D01*
X157383333Y-128783333D01*
X157583333Y-127750000D02*
X157583333Y-128083333D01*
X157250000Y-128116666D01*
X157283333Y-128083333D01*
X157316666Y-128016666D01*
X157316666Y-127850000D01*
X157283333Y-127783333D01*
X157250000Y-127750000D01*
X157183333Y-127716666D01*
X157016666Y-127716666D01*
X156950000Y-127750000D01*
X156916666Y-127783333D01*
X156883333Y-127850000D01*
X156883333Y-128016666D01*
X156916666Y-128083333D01*
X156950000Y-128116666D01*
X156883333Y-130883333D02*
X156883333Y-131283333D01*
X156883333Y-131083333D02*
X157583333Y-131083333D01*
X157483333Y-131150000D01*
X157416666Y-131216666D01*
X157383333Y-131283333D01*
X157350000Y-130283333D02*
X156883333Y-130283333D01*
X157616666Y-130450000D02*
X157116666Y-130616666D01*
X157116666Y-130183333D01*
X144683333Y-130933333D02*
X144683333Y-131333333D01*
X144683333Y-131133333D02*
X145383333Y-131133333D01*
X145283333Y-131200000D01*
X145216666Y-131266666D01*
X145183333Y-131333333D01*
X145383333Y-130700000D02*
X145383333Y-130266666D01*
X145116666Y-130500000D01*
X145116666Y-130400000D01*
X145083333Y-130333333D01*
X145050000Y-130300000D01*
X144983333Y-130266666D01*
X144816666Y-130266666D01*
X144750000Y-130300000D01*
X144716666Y-130333333D01*
X144683333Y-130400000D01*
X144683333Y-130600000D01*
X144716666Y-130666666D01*
X144750000Y-130700000D01*
X144783333Y-128433333D02*
X144783333Y-128833333D01*
X144783333Y-128633333D02*
X145483333Y-128633333D01*
X145383333Y-128700000D01*
X145316666Y-128766666D01*
X145283333Y-128833333D01*
X145416666Y-128166666D02*
X145450000Y-128133333D01*
X145483333Y-128066666D01*
X145483333Y-127900000D01*
X145450000Y-127833333D01*
X145416666Y-127800000D01*
X145350000Y-127766666D01*
X145283333Y-127766666D01*
X145183333Y-127800000D01*
X144783333Y-128200000D01*
X144783333Y-127766666D01*
X144783333Y-125883333D02*
X144783333Y-126283333D01*
X144783333Y-126083333D02*
X145483333Y-126083333D01*
X145383333Y-126150000D01*
X145316666Y-126216666D01*
X145283333Y-126283333D01*
X144783333Y-125216666D02*
X144783333Y-125616666D01*
X144783333Y-125416666D02*
X145483333Y-125416666D01*
X145383333Y-125483333D01*
X145316666Y-125550000D01*
X145283333Y-125616666D01*
X144783333Y-123333333D02*
X144783333Y-123733333D01*
X144783333Y-123533333D02*
X145483333Y-123533333D01*
X145383333Y-123600000D01*
X145316666Y-123666666D01*
X145283333Y-123733333D01*
X145483333Y-122900000D02*
X145483333Y-122833333D01*
X145450000Y-122766666D01*
X145416666Y-122733333D01*
X145350000Y-122700000D01*
X145216666Y-122666666D01*
X145050000Y-122666666D01*
X144916666Y-122700000D01*
X144850000Y-122733333D01*
X144816666Y-122766666D01*
X144783333Y-122833333D01*
X144783333Y-122900000D01*
X144816666Y-122966666D01*
X144850000Y-123000000D01*
X144916666Y-123033333D01*
X145050000Y-123066666D01*
X145216666Y-123066666D01*
X145350000Y-123033333D01*
X145416666Y-123000000D01*
X145450000Y-122966666D01*
X145483333Y-122900000D01*
X144783333Y-120833333D02*
X144783333Y-120700000D01*
X144816666Y-120633333D01*
X144850000Y-120600000D01*
X144950000Y-120533333D01*
X145083333Y-120500000D01*
X145350000Y-120500000D01*
X145416666Y-120533333D01*
X145450000Y-120566666D01*
X145483333Y-120633333D01*
X145483333Y-120766666D01*
X145450000Y-120833333D01*
X145416666Y-120866666D01*
X145350000Y-120900000D01*
X145183333Y-120900000D01*
X145116666Y-120866666D01*
X145083333Y-120833333D01*
X145050000Y-120766666D01*
X145050000Y-120633333D01*
X145083333Y-120566666D01*
X145116666Y-120533333D01*
X145183333Y-120500000D01*
X145183333Y-118266666D02*
X145216666Y-118333333D01*
X145250000Y-118366666D01*
X145316666Y-118400000D01*
X145350000Y-118400000D01*
X145416666Y-118366666D01*
X145450000Y-118333333D01*
X145483333Y-118266666D01*
X145483333Y-118133333D01*
X145450000Y-118066666D01*
X145416666Y-118033333D01*
X145350000Y-118000000D01*
X145316666Y-118000000D01*
X145250000Y-118033333D01*
X145216666Y-118066666D01*
X145183333Y-118133333D01*
X145183333Y-118266666D01*
X145150000Y-118333333D01*
X145116666Y-118366666D01*
X145050000Y-118400000D01*
X144916666Y-118400000D01*
X144850000Y-118366666D01*
X144816666Y-118333333D01*
X144783333Y-118266666D01*
X144783333Y-118133333D01*
X144816666Y-118066666D01*
X144850000Y-118033333D01*
X144916666Y-118000000D01*
X145050000Y-118000000D01*
X145116666Y-118033333D01*
X145150000Y-118066666D01*
X145183333Y-118133333D01*
X145433333Y-115733333D02*
X145433333Y-115266666D01*
X144733333Y-115566666D01*
X145433333Y-112916666D02*
X145433333Y-113050000D01*
X145400000Y-113116666D01*
X145366666Y-113150000D01*
X145266666Y-113216666D01*
X145133333Y-113250000D01*
X144866666Y-113250000D01*
X144800000Y-113216666D01*
X144766666Y-113183333D01*
X144733333Y-113116666D01*
X144733333Y-112983333D01*
X144766666Y-112916666D01*
X144800000Y-112883333D01*
X144866666Y-112850000D01*
X145033333Y-112850000D01*
X145100000Y-112883333D01*
X145133333Y-112916666D01*
X145166666Y-112983333D01*
X145166666Y-113116666D01*
X145133333Y-113183333D01*
X145100000Y-113216666D01*
X145033333Y-113250000D01*
X145433333Y-110233333D02*
X145433333Y-110566666D01*
X145100000Y-110600000D01*
X145133333Y-110566666D01*
X145166666Y-110500000D01*
X145166666Y-110333333D01*
X145133333Y-110266666D01*
X145100000Y-110233333D01*
X145033333Y-110200000D01*
X144866666Y-110200000D01*
X144800000Y-110233333D01*
X144766666Y-110266666D01*
X144733333Y-110333333D01*
X144733333Y-110500000D01*
X144766666Y-110566666D01*
X144800000Y-110600000D01*
X145150000Y-107866666D02*
X144683333Y-107866666D01*
X145416666Y-108033333D02*
X144916666Y-108200000D01*
X144916666Y-107766666D01*
X145383333Y-105633333D02*
X145383333Y-105200000D01*
X145116666Y-105433333D01*
X145116666Y-105333333D01*
X145083333Y-105266666D01*
X145050000Y-105233333D01*
X144983333Y-105200000D01*
X144816666Y-105200000D01*
X144750000Y-105233333D01*
X144716666Y-105266666D01*
X144683333Y-105333333D01*
X144683333Y-105533333D01*
X144716666Y-105600000D01*
X144750000Y-105633333D01*
X145316666Y-103050000D02*
X145350000Y-103016666D01*
X145383333Y-102950000D01*
X145383333Y-102783333D01*
X145350000Y-102716666D01*
X145316666Y-102683333D01*
X145250000Y-102650000D01*
X145183333Y-102650000D01*
X145083333Y-102683333D01*
X144683333Y-103083333D01*
X144683333Y-102650000D01*
X144733333Y-100100000D02*
X144733333Y-100500000D01*
X144733333Y-100300000D02*
X145433333Y-100300000D01*
X145333333Y-100366666D01*
X145266666Y-100433333D01*
X145233333Y-100500000D01*
X145390000Y-98332433D02*
X145423333Y-98399100D01*
X145423333Y-98499100D01*
X145390000Y-98599100D01*
X145323333Y-98665766D01*
X145256666Y-98699100D01*
X145123333Y-98732433D01*
X145023333Y-98732433D01*
X144890000Y-98699100D01*
X144823333Y-98665766D01*
X144756666Y-98599100D01*
X144723333Y-98499100D01*
X144723333Y-98432433D01*
X144756666Y-98332433D01*
X144790000Y-98299100D01*
X145023333Y-98299100D01*
X145023333Y-98432433D01*
X144723333Y-97999100D02*
X145423333Y-97999100D01*
X144723333Y-97599100D01*
X145423333Y-97599100D01*
X144723333Y-97265766D02*
X145423333Y-97265766D01*
X145423333Y-97099100D01*
X145390000Y-96999100D01*
X145323333Y-96932433D01*
X145256666Y-96899100D01*
X145123333Y-96865766D01*
X145023333Y-96865766D01*
X144890000Y-96899100D01*
X144823333Y-96932433D01*
X144756666Y-96999100D01*
X144723333Y-97099100D01*
X144723333Y-97265766D01*
D11*
X155749047Y-97452380D02*
X155177619Y-97452380D01*
X155463333Y-98452380D02*
X155463333Y-97452380D01*
X154844285Y-98452380D02*
X154844285Y-97785714D01*
X154844285Y-97452380D02*
X154891904Y-97500000D01*
X154844285Y-97547619D01*
X154796666Y-97500000D01*
X154844285Y-97452380D01*
X154844285Y-97547619D01*
X154368095Y-97785714D02*
X154368095Y-98452380D01*
X154368095Y-97880952D02*
X154320476Y-97833333D01*
X154225238Y-97785714D01*
X154082380Y-97785714D01*
X153987142Y-97833333D01*
X153939523Y-97928571D01*
X153939523Y-98452380D01*
X153558571Y-97785714D02*
X153320476Y-98452380D01*
X153082380Y-97785714D02*
X153320476Y-98452380D01*
X153415714Y-98690476D01*
X153463333Y-98738095D01*
X153558571Y-98785714D01*
X152368095Y-97928571D02*
X152701428Y-97928571D01*
X152701428Y-98452380D02*
X152701428Y-97452380D01*
X152225238Y-97452380D01*
X151844285Y-98452380D02*
X151844285Y-97452380D01*
X151463333Y-97452380D01*
X151368095Y-97500000D01*
X151320476Y-97547619D01*
X151272857Y-97642857D01*
X151272857Y-97785714D01*
X151320476Y-97880952D01*
X151368095Y-97928571D01*
X151463333Y-97976190D01*
X151844285Y-97976190D01*
X150320476Y-97500000D02*
X150415714Y-97452380D01*
X150558571Y-97452380D01*
X150701428Y-97500000D01*
X150796666Y-97595238D01*
X150844285Y-97690476D01*
X150891904Y-97880952D01*
X150891904Y-98023809D01*
X150844285Y-98214285D01*
X150796666Y-98309523D01*
X150701428Y-98404761D01*
X150558571Y-98452380D01*
X150463333Y-98452380D01*
X150320476Y-98404761D01*
X150272857Y-98357142D01*
X150272857Y-98023809D01*
X150463333Y-98023809D01*
X149891904Y-98166666D02*
X149415714Y-98166666D01*
X149987142Y-98452380D02*
X149653809Y-97452380D01*
X149320476Y-98452380D01*
X148225238Y-97452380D02*
X148225238Y-98261904D01*
X148177619Y-98357142D01*
X148130000Y-98404761D01*
X148034761Y-98452380D01*
X147844285Y-98452380D01*
X147749047Y-98404761D01*
X147701428Y-98357142D01*
X147653809Y-98261904D01*
X147653809Y-97452380D01*
X147177619Y-98452380D02*
X147177619Y-97452380D01*
X146796666Y-97452380D01*
X146701428Y-97500000D01*
X146653809Y-97547619D01*
X146606190Y-97642857D01*
X146606190Y-97785714D01*
X146653809Y-97880952D01*
X146701428Y-97928571D01*
X146796666Y-97976190D01*
X147177619Y-97976190D01*
D12*
X155031000Y-113799100D02*
X155031000Y-114819100D01*
X149831000Y-113799100D02*
X149831000Y-114819100D01*
X155031000Y-116339100D02*
X155031000Y-117359100D01*
X149831000Y-116339100D02*
X149831000Y-117359100D01*
X155031000Y-118879100D02*
X155031000Y-119899100D01*
X149831000Y-118879100D02*
X149831000Y-119899100D01*
X155031000Y-121419100D02*
X155031000Y-122439100D01*
X149831000Y-121419100D02*
X149831000Y-122439100D01*
X155031000Y-123959100D02*
X155031000Y-124979100D01*
X149831000Y-123959100D02*
X149831000Y-124979100D01*
X155031000Y-126499100D02*
X155031000Y-127519100D01*
X149831000Y-126499100D02*
X149831000Y-127519100D01*
X155031000Y-129039100D02*
X155031000Y-130059100D01*
X149831000Y-129039100D02*
X149831000Y-130059100D01*
X147251000Y-104659100D02*
X147251000Y-103639100D01*
X152451000Y-104659100D02*
X152451000Y-103639100D01*
X147251000Y-102119100D02*
X147251000Y-101099100D01*
X152451000Y-102119100D02*
X152451000Y-101099100D01*
X147260000Y-129549100D02*
G75*
G03X147260000Y-129549100I-950000J0D01*
G01*
X147280000Y-124469910D02*
G75*
G03X147280000Y-124469910I-950000J0D01*
G01*
X156912000Y-110499100D02*
G75*
G03X156912000Y-110499100I-950000J0D01*
G01*
D13*
G36*
X151396090Y-106592348D02*
G01*
X151317546Y-106592778D01*
X151260702Y-106593942D01*
X151221895Y-106596207D01*
X151197462Y-106599940D01*
X151183738Y-106605506D01*
X151177060Y-106613273D01*
X151173764Y-106623605D01*
X151173444Y-106624943D01*
X151168438Y-106649079D01*
X151159171Y-106696701D01*
X151146608Y-106762741D01*
X151131713Y-106842128D01*
X151115449Y-106929796D01*
X151114881Y-106932875D01*
X151098590Y-107018789D01*
X151083348Y-107094696D01*
X151070139Y-107156045D01*
X151059946Y-107198282D01*
X151053752Y-107216855D01*
X151053457Y-107217184D01*
X151035212Y-107226253D01*
X150997595Y-107241367D01*
X150948729Y-107259262D01*
X150948457Y-107259358D01*
X150886907Y-107282493D01*
X150814343Y-107311965D01*
X150745943Y-107341597D01*
X150742706Y-107343062D01*
X150631298Y-107393626D01*
X150384601Y-107225160D01*
X150308923Y-107173803D01*
X150240369Y-107127889D01*
X150182912Y-107090030D01*
X150140524Y-107062837D01*
X150117175Y-107048921D01*
X150114958Y-107047889D01*
X150097990Y-107052484D01*
X150066299Y-107074655D01*
X150018648Y-107115447D01*
X149953802Y-107175905D01*
X149887603Y-107240227D01*
X149823786Y-107303612D01*
X149766671Y-107361451D01*
X149719695Y-107410175D01*
X149686297Y-107446210D01*
X149669915Y-107465984D01*
X149669306Y-107467002D01*
X149667495Y-107480572D01*
X149674317Y-107502733D01*
X149691460Y-107536478D01*
X149720607Y-107584800D01*
X149763445Y-107650692D01*
X149820552Y-107735517D01*
X149871234Y-107810177D01*
X149916539Y-107877140D01*
X149953850Y-107932516D01*
X149980548Y-107972420D01*
X149994015Y-107992962D01*
X149994863Y-107994356D01*
X149993219Y-108014038D01*
X149980755Y-108052293D01*
X149959952Y-108101889D01*
X149952538Y-108117728D01*
X149920186Y-108188290D01*
X149885672Y-108268353D01*
X149857635Y-108337629D01*
X149837432Y-108389045D01*
X149821385Y-108428119D01*
X149812112Y-108448541D01*
X149810959Y-108450114D01*
X149793904Y-108452721D01*
X149753702Y-108459863D01*
X149695698Y-108470523D01*
X149625237Y-108483685D01*
X149547665Y-108498333D01*
X149468328Y-108513449D01*
X149392569Y-108528018D01*
X149325736Y-108541022D01*
X149273172Y-108551445D01*
X149240224Y-108558270D01*
X149232143Y-108560199D01*
X149223795Y-108564962D01*
X149217494Y-108575718D01*
X149212955Y-108596098D01*
X149209896Y-108629734D01*
X149208033Y-108680255D01*
X149207082Y-108751292D01*
X149206760Y-108846476D01*
X149206743Y-108885492D01*
X149206743Y-109202799D01*
X149282943Y-109217839D01*
X149325337Y-109225995D01*
X149388600Y-109237899D01*
X149465038Y-109252116D01*
X149546957Y-109267210D01*
X149569600Y-109271355D01*
X149645194Y-109286053D01*
X149711047Y-109300505D01*
X149761634Y-109313375D01*
X149791426Y-109323322D01*
X149796388Y-109326287D01*
X149808574Y-109347283D01*
X149826047Y-109387967D01*
X149845423Y-109440322D01*
X149849266Y-109451600D01*
X149874661Y-109521523D01*
X149906183Y-109600418D01*
X149937031Y-109671266D01*
X149937183Y-109671595D01*
X149988553Y-109782733D01*
X149819601Y-110031253D01*
X149650648Y-110279772D01*
X149867571Y-110497058D01*
X149933181Y-110561726D01*
X149993021Y-110618733D01*
X150043733Y-110665033D01*
X150081954Y-110697584D01*
X150104325Y-110713343D01*
X150107534Y-110714343D01*
X150126374Y-110706469D01*
X150164820Y-110684578D01*
X150218670Y-110651267D01*
X150283724Y-110609131D01*
X150354060Y-110561943D01*
X150425445Y-110513810D01*
X150489092Y-110471928D01*
X150540959Y-110438871D01*
X150577005Y-110417218D01*
X150593133Y-110409543D01*
X150612811Y-110416037D01*
X150650125Y-110433150D01*
X150697379Y-110457326D01*
X150702388Y-110460013D01*
X150766023Y-110491927D01*
X150809659Y-110507579D01*
X150836798Y-110507745D01*
X150850943Y-110493204D01*
X150851025Y-110493000D01*
X150858095Y-110475779D01*
X150874958Y-110434899D01*
X150900305Y-110373525D01*
X150932829Y-110294819D01*
X150971222Y-110201947D01*
X151014178Y-110098072D01*
X151055778Y-109997502D01*
X151101496Y-109886516D01*
X151143474Y-109783703D01*
X151180452Y-109692215D01*
X151211173Y-109615201D01*
X151234378Y-109555815D01*
X151248810Y-109517209D01*
X151253257Y-109502800D01*
X151242104Y-109486272D01*
X151212931Y-109459930D01*
X151174029Y-109430887D01*
X151063243Y-109339039D01*
X150976649Y-109233759D01*
X150915284Y-109117266D01*
X150880185Y-108991776D01*
X150872392Y-108859507D01*
X150878057Y-108798457D01*
X150908922Y-108671795D01*
X150962080Y-108559941D01*
X151034233Y-108464001D01*
X151122083Y-108385076D01*
X151222335Y-108324270D01*
X151331690Y-108282687D01*
X151446853Y-108261428D01*
X151564525Y-108261599D01*
X151681410Y-108284301D01*
X151794211Y-108330638D01*
X151899631Y-108401713D01*
X151943632Y-108441911D01*
X152028021Y-108545129D01*
X152086778Y-108657925D01*
X152120296Y-108777010D01*
X152128965Y-108899095D01*
X152113177Y-109020893D01*
X152073322Y-109139116D01*
X152009793Y-109250475D01*
X151922979Y-109351684D01*
X151825971Y-109430887D01*
X151785563Y-109461162D01*
X151757018Y-109487219D01*
X151746743Y-109502825D01*
X151752123Y-109519843D01*
X151767425Y-109560500D01*
X151791388Y-109621642D01*
X151822756Y-109700119D01*
X151860268Y-109792780D01*
X151902667Y-109896472D01*
X151944337Y-109997526D01*
X151990310Y-110108607D01*
X152032893Y-110211541D01*
X152070779Y-110303165D01*
X152102660Y-110380316D01*
X152127229Y-110439831D01*
X152143180Y-110478544D01*
X152149090Y-110493000D01*
X152163052Y-110507685D01*
X152190060Y-110507642D01*
X152233587Y-110492099D01*
X152297110Y-110460284D01*
X152297612Y-110460013D01*
X152345440Y-110435323D01*
X152384103Y-110417338D01*
X152405905Y-110409614D01*
X152406867Y-110409543D01*
X152423279Y-110417378D01*
X152459513Y-110439165D01*
X152511526Y-110472328D01*
X152575275Y-110514291D01*
X152645940Y-110561943D01*
X152717884Y-110610191D01*
X152782726Y-110652151D01*
X152836265Y-110685227D01*
X152874303Y-110706821D01*
X152892467Y-110714343D01*
X152909192Y-110704457D01*
X152942820Y-110676826D01*
X152989990Y-110634495D01*
X153047342Y-110580505D01*
X153111516Y-110517899D01*
X153132503Y-110496983D01*
X153349501Y-110279623D01*
X153184332Y-110037220D01*
X153134136Y-109962781D01*
X153090081Y-109895972D01*
X153054638Y-109840665D01*
X153030281Y-109800729D01*
X153019478Y-109780036D01*
X153019162Y-109778563D01*
X153024857Y-109759058D01*
X153040174Y-109719822D01*
X153062463Y-109667430D01*
X153078107Y-109632355D01*
X153107359Y-109565201D01*
X153134906Y-109497358D01*
X153156263Y-109440034D01*
X153162065Y-109422572D01*
X153178548Y-109375938D01*
X153194660Y-109339905D01*
X153203510Y-109326287D01*
X153223040Y-109317952D01*
X153265666Y-109306137D01*
X153325855Y-109292181D01*
X153398078Y-109277422D01*
X153430400Y-109271355D01*
X153512478Y-109256273D01*
X153591205Y-109241669D01*
X153658891Y-109228980D01*
X153707840Y-109219642D01*
X153717057Y-109217839D01*
X153793257Y-109202799D01*
X153793257Y-108885492D01*
X153793086Y-108781154D01*
X153792384Y-108702213D01*
X153790866Y-108645038D01*
X153788251Y-108605999D01*
X153784254Y-108581465D01*
X153778591Y-108567805D01*
X153770980Y-108561389D01*
X153767857Y-108560199D01*
X153749022Y-108555980D01*
X153707412Y-108547562D01*
X153648370Y-108535961D01*
X153577243Y-108522195D01*
X153499375Y-108507280D01*
X153420113Y-108492232D01*
X153344802Y-108478069D01*
X153278787Y-108465806D01*
X153227413Y-108456461D01*
X153196025Y-108451050D01*
X153189041Y-108450114D01*
X153182715Y-108437596D01*
X153168710Y-108404246D01*
X153149645Y-108356377D01*
X153142366Y-108337629D01*
X153113004Y-108265195D01*
X153078429Y-108185170D01*
X153047463Y-108117728D01*
X153024677Y-108066159D01*
X153009518Y-108023785D01*
X153004458Y-107997834D01*
X153005264Y-107994356D01*
X153015959Y-107977936D01*
X153040380Y-107941417D01*
X153075905Y-107888687D01*
X153119913Y-107823635D01*
X153169783Y-107750151D01*
X153179644Y-107735645D01*
X153237508Y-107649704D01*
X153280044Y-107584261D01*
X153308946Y-107536304D01*
X153325910Y-107502820D01*
X153332633Y-107480795D01*
X153330810Y-107467217D01*
X153330764Y-107467131D01*
X153316414Y-107449297D01*
X153284677Y-107414817D01*
X153238990Y-107367268D01*
X153182796Y-107310222D01*
X153119532Y-107247255D01*
X153112398Y-107240227D01*
X153032670Y-107163020D01*
X152971143Y-107106330D01*
X152926579Y-107069110D01*
X152897743Y-107050315D01*
X152885042Y-107047889D01*
X152866506Y-107058471D01*
X152828039Y-107082916D01*
X152773614Y-107118612D01*
X152707202Y-107162947D01*
X152632775Y-107213311D01*
X152615399Y-107225160D01*
X152368703Y-107393626D01*
X152257294Y-107343062D01*
X152189543Y-107313595D01*
X152116817Y-107283959D01*
X152054297Y-107260330D01*
X152051543Y-107259358D01*
X152002640Y-107241457D01*
X151964943Y-107226320D01*
X151946575Y-107217210D01*
X151946544Y-107217184D01*
X151940715Y-107200717D01*
X151930808Y-107160219D01*
X151917805Y-107100242D01*
X151902691Y-107025340D01*
X151886448Y-106940064D01*
X151885119Y-106932875D01*
X151868825Y-106845014D01*
X151853867Y-106765260D01*
X151841209Y-106698681D01*
X151831814Y-106650347D01*
X151826646Y-106625325D01*
X151826556Y-106624943D01*
X151823411Y-106614299D01*
X151817296Y-106606262D01*
X151804547Y-106600467D01*
X151781500Y-106596547D01*
X151744491Y-106594135D01*
X151689856Y-106592865D01*
X151613933Y-106592371D01*
X151513056Y-106592286D01*
X151500000Y-106592286D01*
X151396090Y-106592348D01*
X151396090Y-106592348D01*
G37*
X151396090Y-106592348D02*
X151317546Y-106592778D01*
X151260702Y-106593942D01*
X151221895Y-106596207D01*
X151197462Y-106599940D01*
X151183738Y-106605506D01*
X151177060Y-106613273D01*
X151173764Y-106623605D01*
X151173444Y-106624943D01*
X151168438Y-106649079D01*
X151159171Y-106696701D01*
X151146608Y-106762741D01*
X151131713Y-106842128D01*
X151115449Y-106929796D01*
X151114881Y-106932875D01*
X151098590Y-107018789D01*
X151083348Y-107094696D01*
X151070139Y-107156045D01*
X151059946Y-107198282D01*
X151053752Y-107216855D01*
X151053457Y-107217184D01*
X151035212Y-107226253D01*
X150997595Y-107241367D01*
X150948729Y-107259262D01*
X150948457Y-107259358D01*
X150886907Y-107282493D01*
X150814343Y-107311965D01*
X150745943Y-107341597D01*
X150742706Y-107343062D01*
X150631298Y-107393626D01*
X150384601Y-107225160D01*
X150308923Y-107173803D01*
X150240369Y-107127889D01*
X150182912Y-107090030D01*
X150140524Y-107062837D01*
X150117175Y-107048921D01*
X150114958Y-107047889D01*
X150097990Y-107052484D01*
X150066299Y-107074655D01*
X150018648Y-107115447D01*
X149953802Y-107175905D01*
X149887603Y-107240227D01*
X149823786Y-107303612D01*
X149766671Y-107361451D01*
X149719695Y-107410175D01*
X149686297Y-107446210D01*
X149669915Y-107465984D01*
X149669306Y-107467002D01*
X149667495Y-107480572D01*
X149674317Y-107502733D01*
X149691460Y-107536478D01*
X149720607Y-107584800D01*
X149763445Y-107650692D01*
X149820552Y-107735517D01*
X149871234Y-107810177D01*
X149916539Y-107877140D01*
X149953850Y-107932516D01*
X149980548Y-107972420D01*
X149994015Y-107992962D01*
X149994863Y-107994356D01*
X149993219Y-108014038D01*
X149980755Y-108052293D01*
X149959952Y-108101889D01*
X149952538Y-108117728D01*
X149920186Y-108188290D01*
X149885672Y-108268353D01*
X149857635Y-108337629D01*
X149837432Y-108389045D01*
X149821385Y-108428119D01*
X149812112Y-108448541D01*
X149810959Y-108450114D01*
X149793904Y-108452721D01*
X149753702Y-108459863D01*
X149695698Y-108470523D01*
X149625237Y-108483685D01*
X149547665Y-108498333D01*
X149468328Y-108513449D01*
X149392569Y-108528018D01*
X149325736Y-108541022D01*
X149273172Y-108551445D01*
X149240224Y-108558270D01*
X149232143Y-108560199D01*
X149223795Y-108564962D01*
X149217494Y-108575718D01*
X149212955Y-108596098D01*
X149209896Y-108629734D01*
X149208033Y-108680255D01*
X149207082Y-108751292D01*
X149206760Y-108846476D01*
X149206743Y-108885492D01*
X149206743Y-109202799D01*
X149282943Y-109217839D01*
X149325337Y-109225995D01*
X149388600Y-109237899D01*
X149465038Y-109252116D01*
X149546957Y-109267210D01*
X149569600Y-109271355D01*
X149645194Y-109286053D01*
X149711047Y-109300505D01*
X149761634Y-109313375D01*
X149791426Y-109323322D01*
X149796388Y-109326287D01*
X149808574Y-109347283D01*
X149826047Y-109387967D01*
X149845423Y-109440322D01*
X149849266Y-109451600D01*
X149874661Y-109521523D01*
X149906183Y-109600418D01*
X149937031Y-109671266D01*
X149937183Y-109671595D01*
X149988553Y-109782733D01*
X149819601Y-110031253D01*
X149650648Y-110279772D01*
X149867571Y-110497058D01*
X149933181Y-110561726D01*
X149993021Y-110618733D01*
X150043733Y-110665033D01*
X150081954Y-110697584D01*
X150104325Y-110713343D01*
X150107534Y-110714343D01*
X150126374Y-110706469D01*
X150164820Y-110684578D01*
X150218670Y-110651267D01*
X150283724Y-110609131D01*
X150354060Y-110561943D01*
X150425445Y-110513810D01*
X150489092Y-110471928D01*
X150540959Y-110438871D01*
X150577005Y-110417218D01*
X150593133Y-110409543D01*
X150612811Y-110416037D01*
X150650125Y-110433150D01*
X150697379Y-110457326D01*
X150702388Y-110460013D01*
X150766023Y-110491927D01*
X150809659Y-110507579D01*
X150836798Y-110507745D01*
X150850943Y-110493204D01*
X150851025Y-110493000D01*
X150858095Y-110475779D01*
X150874958Y-110434899D01*
X150900305Y-110373525D01*
X150932829Y-110294819D01*
X150971222Y-110201947D01*
X151014178Y-110098072D01*
X151055778Y-109997502D01*
X151101496Y-109886516D01*
X151143474Y-109783703D01*
X151180452Y-109692215D01*
X151211173Y-109615201D01*
X151234378Y-109555815D01*
X151248810Y-109517209D01*
X151253257Y-109502800D01*
X151242104Y-109486272D01*
X151212931Y-109459930D01*
X151174029Y-109430887D01*
X151063243Y-109339039D01*
X150976649Y-109233759D01*
X150915284Y-109117266D01*
X150880185Y-108991776D01*
X150872392Y-108859507D01*
X150878057Y-108798457D01*
X150908922Y-108671795D01*
X150962080Y-108559941D01*
X151034233Y-108464001D01*
X151122083Y-108385076D01*
X151222335Y-108324270D01*
X151331690Y-108282687D01*
X151446853Y-108261428D01*
X151564525Y-108261599D01*
X151681410Y-108284301D01*
X151794211Y-108330638D01*
X151899631Y-108401713D01*
X151943632Y-108441911D01*
X152028021Y-108545129D01*
X152086778Y-108657925D01*
X152120296Y-108777010D01*
X152128965Y-108899095D01*
X152113177Y-109020893D01*
X152073322Y-109139116D01*
X152009793Y-109250475D01*
X151922979Y-109351684D01*
X151825971Y-109430887D01*
X151785563Y-109461162D01*
X151757018Y-109487219D01*
X151746743Y-109502825D01*
X151752123Y-109519843D01*
X151767425Y-109560500D01*
X151791388Y-109621642D01*
X151822756Y-109700119D01*
X151860268Y-109792780D01*
X151902667Y-109896472D01*
X151944337Y-109997526D01*
X151990310Y-110108607D01*
X152032893Y-110211541D01*
X152070779Y-110303165D01*
X152102660Y-110380316D01*
X152127229Y-110439831D01*
X152143180Y-110478544D01*
X152149090Y-110493000D01*
X152163052Y-110507685D01*
X152190060Y-110507642D01*
X152233587Y-110492099D01*
X152297110Y-110460284D01*
X152297612Y-110460013D01*
X152345440Y-110435323D01*
X152384103Y-110417338D01*
X152405905Y-110409614D01*
X152406867Y-110409543D01*
X152423279Y-110417378D01*
X152459513Y-110439165D01*
X152511526Y-110472328D01*
X152575275Y-110514291D01*
X152645940Y-110561943D01*
X152717884Y-110610191D01*
X152782726Y-110652151D01*
X152836265Y-110685227D01*
X152874303Y-110706821D01*
X152892467Y-110714343D01*
X152909192Y-110704457D01*
X152942820Y-110676826D01*
X152989990Y-110634495D01*
X153047342Y-110580505D01*
X153111516Y-110517899D01*
X153132503Y-110496983D01*
X153349501Y-110279623D01*
X153184332Y-110037220D01*
X153134136Y-109962781D01*
X153090081Y-109895972D01*
X153054638Y-109840665D01*
X153030281Y-109800729D01*
X153019478Y-109780036D01*
X153019162Y-109778563D01*
X153024857Y-109759058D01*
X153040174Y-109719822D01*
X153062463Y-109667430D01*
X153078107Y-109632355D01*
X153107359Y-109565201D01*
X153134906Y-109497358D01*
X153156263Y-109440034D01*
X153162065Y-109422572D01*
X153178548Y-109375938D01*
X153194660Y-109339905D01*
X153203510Y-109326287D01*
X153223040Y-109317952D01*
X153265666Y-109306137D01*
X153325855Y-109292181D01*
X153398078Y-109277422D01*
X153430400Y-109271355D01*
X153512478Y-109256273D01*
X153591205Y-109241669D01*
X153658891Y-109228980D01*
X153707840Y-109219642D01*
X153717057Y-109217839D01*
X153793257Y-109202799D01*
X153793257Y-108885492D01*
X153793086Y-108781154D01*
X153792384Y-108702213D01*
X153790866Y-108645038D01*
X153788251Y-108605999D01*
X153784254Y-108581465D01*
X153778591Y-108567805D01*
X153770980Y-108561389D01*
X153767857Y-108560199D01*
X153749022Y-108555980D01*
X153707412Y-108547562D01*
X153648370Y-108535961D01*
X153577243Y-108522195D01*
X153499375Y-108507280D01*
X153420113Y-108492232D01*
X153344802Y-108478069D01*
X153278787Y-108465806D01*
X153227413Y-108456461D01*
X153196025Y-108451050D01*
X153189041Y-108450114D01*
X153182715Y-108437596D01*
X153168710Y-108404246D01*
X153149645Y-108356377D01*
X153142366Y-108337629D01*
X153113004Y-108265195D01*
X153078429Y-108185170D01*
X153047463Y-108117728D01*
X153024677Y-108066159D01*
X153009518Y-108023785D01*
X153004458Y-107997834D01*
X153005264Y-107994356D01*
X153015959Y-107977936D01*
X153040380Y-107941417D01*
X153075905Y-107888687D01*
X153119913Y-107823635D01*
X153169783Y-107750151D01*
X153179644Y-107735645D01*
X153237508Y-107649704D01*
X153280044Y-107584261D01*
X153308946Y-107536304D01*
X153325910Y-107502820D01*
X153332633Y-107480795D01*
X153330810Y-107467217D01*
X153330764Y-107467131D01*
X153316414Y-107449297D01*
X153284677Y-107414817D01*
X153238990Y-107367268D01*
X153182796Y-107310222D01*
X153119532Y-107247255D01*
X153112398Y-107240227D01*
X153032670Y-107163020D01*
X152971143Y-107106330D01*
X152926579Y-107069110D01*
X152897743Y-107050315D01*
X152885042Y-107047889D01*
X152866506Y-107058471D01*
X152828039Y-107082916D01*
X152773614Y-107118612D01*
X152707202Y-107162947D01*
X152632775Y-107213311D01*
X152615399Y-107225160D01*
X152368703Y-107393626D01*
X152257294Y-107343062D01*
X152189543Y-107313595D01*
X152116817Y-107283959D01*
X152054297Y-107260330D01*
X152051543Y-107259358D01*
X152002640Y-107241457D01*
X151964943Y-107226320D01*
X151946575Y-107217210D01*
X151946544Y-107217184D01*
X151940715Y-107200717D01*
X151930808Y-107160219D01*
X151917805Y-107100242D01*
X151902691Y-107025340D01*
X151886448Y-106940064D01*
X151885119Y-106932875D01*
X151868825Y-106845014D01*
X151853867Y-106765260D01*
X151841209Y-106698681D01*
X151831814Y-106650347D01*
X151826646Y-106625325D01*
X151826556Y-106624943D01*
X151823411Y-106614299D01*
X151817296Y-106606262D01*
X151804547Y-106600467D01*
X151781500Y-106596547D01*
X151744491Y-106594135D01*
X151689856Y-106592865D01*
X151613933Y-106592371D01*
X151513056Y-106592286D01*
X151500000Y-106592286D01*
X151396090Y-106592348D01*
G36*
X148346405Y-111316966D02*
G01*
X148288979Y-111354497D01*
X148261281Y-111388096D01*
X148239338Y-111449064D01*
X148237595Y-111497308D01*
X148241543Y-111561816D01*
X148390314Y-111626934D01*
X148462651Y-111660202D01*
X148509916Y-111686964D01*
X148534493Y-111710144D01*
X148538763Y-111732667D01*
X148525111Y-111757455D01*
X148510057Y-111773886D01*
X148466254Y-111800235D01*
X148418611Y-111802081D01*
X148374855Y-111781546D01*
X148342711Y-111740752D01*
X148336962Y-111726347D01*
X148309424Y-111681356D01*
X148277742Y-111662182D01*
X148234286Y-111645779D01*
X148234286Y-111707966D01*
X148238128Y-111750283D01*
X148253177Y-111785969D01*
X148284720Y-111826943D01*
X148289408Y-111832267D01*
X148324494Y-111868720D01*
X148354653Y-111888283D01*
X148392385Y-111897283D01*
X148423665Y-111900230D01*
X148479615Y-111900965D01*
X148519445Y-111891660D01*
X148544292Y-111877846D01*
X148583344Y-111847467D01*
X148610375Y-111814613D01*
X148627483Y-111773294D01*
X148636762Y-111717521D01*
X148640307Y-111641305D01*
X148640590Y-111602622D01*
X148639628Y-111556247D01*
X148551993Y-111556247D01*
X148550977Y-111581126D01*
X148548444Y-111585200D01*
X148531726Y-111579665D01*
X148495751Y-111565017D01*
X148447669Y-111544190D01*
X148437614Y-111539714D01*
X148376848Y-111508814D01*
X148343368Y-111481657D01*
X148336010Y-111456220D01*
X148353609Y-111430481D01*
X148368144Y-111419109D01*
X148420590Y-111396364D01*
X148469678Y-111400122D01*
X148510773Y-111427884D01*
X148539242Y-111477152D01*
X148548369Y-111516257D01*
X148551993Y-111556247D01*
X148639628Y-111556247D01*
X148638715Y-111512249D01*
X148631804Y-111445384D01*
X148618116Y-111396695D01*
X148595904Y-111360849D01*
X148563426Y-111332513D01*
X148549267Y-111323355D01*
X148484947Y-111299507D01*
X148414527Y-111298006D01*
X148346405Y-111316966D01*
X148346405Y-111316966D01*
G37*
X148346405Y-111316966D02*
X148288979Y-111354497D01*
X148261281Y-111388096D01*
X148239338Y-111449064D01*
X148237595Y-111497308D01*
X148241543Y-111561816D01*
X148390314Y-111626934D01*
X148462651Y-111660202D01*
X148509916Y-111686964D01*
X148534493Y-111710144D01*
X148538763Y-111732667D01*
X148525111Y-111757455D01*
X148510057Y-111773886D01*
X148466254Y-111800235D01*
X148418611Y-111802081D01*
X148374855Y-111781546D01*
X148342711Y-111740752D01*
X148336962Y-111726347D01*
X148309424Y-111681356D01*
X148277742Y-111662182D01*
X148234286Y-111645779D01*
X148234286Y-111707966D01*
X148238128Y-111750283D01*
X148253177Y-111785969D01*
X148284720Y-111826943D01*
X148289408Y-111832267D01*
X148324494Y-111868720D01*
X148354653Y-111888283D01*
X148392385Y-111897283D01*
X148423665Y-111900230D01*
X148479615Y-111900965D01*
X148519445Y-111891660D01*
X148544292Y-111877846D01*
X148583344Y-111847467D01*
X148610375Y-111814613D01*
X148627483Y-111773294D01*
X148636762Y-111717521D01*
X148640307Y-111641305D01*
X148640590Y-111602622D01*
X148639628Y-111556247D01*
X148551993Y-111556247D01*
X148550977Y-111581126D01*
X148548444Y-111585200D01*
X148531726Y-111579665D01*
X148495751Y-111565017D01*
X148447669Y-111544190D01*
X148437614Y-111539714D01*
X148376848Y-111508814D01*
X148343368Y-111481657D01*
X148336010Y-111456220D01*
X148353609Y-111430481D01*
X148368144Y-111419109D01*
X148420590Y-111396364D01*
X148469678Y-111400122D01*
X148510773Y-111427884D01*
X148539242Y-111477152D01*
X148548369Y-111516257D01*
X148551993Y-111556247D01*
X148639628Y-111556247D01*
X148638715Y-111512249D01*
X148631804Y-111445384D01*
X148618116Y-111396695D01*
X148595904Y-111360849D01*
X148563426Y-111332513D01*
X148549267Y-111323355D01*
X148484947Y-111299507D01*
X148414527Y-111298006D01*
X148346405Y-111316966D01*
G36*
X148847400Y-111308752D02*
G01*
X148830052Y-111316334D01*
X148788644Y-111349128D01*
X148753235Y-111396547D01*
X148731336Y-111447151D01*
X148727771Y-111472098D01*
X148739721Y-111506927D01*
X148765933Y-111525357D01*
X148794036Y-111536516D01*
X148806905Y-111538572D01*
X148813171Y-111523649D01*
X148825544Y-111491175D01*
X148830972Y-111476502D01*
X148861410Y-111425744D01*
X148905480Y-111400427D01*
X148961990Y-111401206D01*
X148966175Y-111402203D01*
X148996345Y-111416507D01*
X149018524Y-111444393D01*
X149033673Y-111489287D01*
X149042750Y-111554615D01*
X149046714Y-111643804D01*
X149047086Y-111691261D01*
X149047270Y-111766071D01*
X149048478Y-111817069D01*
X149051691Y-111849471D01*
X149057891Y-111868495D01*
X149068060Y-111879356D01*
X149083181Y-111887272D01*
X149084054Y-111887670D01*
X149113172Y-111899981D01*
X149127597Y-111904514D01*
X149129814Y-111890809D01*
X149131711Y-111852925D01*
X149133153Y-111795715D01*
X149134002Y-111724027D01*
X149134171Y-111671565D01*
X149133308Y-111570047D01*
X149129930Y-111493032D01*
X149122858Y-111436023D01*
X149110912Y-111394526D01*
X149092910Y-111364043D01*
X149067673Y-111340080D01*
X149042753Y-111323355D01*
X148982829Y-111301097D01*
X148913089Y-111296076D01*
X148847400Y-111308752D01*
X148847400Y-111308752D01*
G37*
X148847400Y-111308752D02*
X148830052Y-111316334D01*
X148788644Y-111349128D01*
X148753235Y-111396547D01*
X148731336Y-111447151D01*
X148727771Y-111472098D01*
X148739721Y-111506927D01*
X148765933Y-111525357D01*
X148794036Y-111536516D01*
X148806905Y-111538572D01*
X148813171Y-111523649D01*
X148825544Y-111491175D01*
X148830972Y-111476502D01*
X148861410Y-111425744D01*
X148905480Y-111400427D01*
X148961990Y-111401206D01*
X148966175Y-111402203D01*
X148996345Y-111416507D01*
X149018524Y-111444393D01*
X149033673Y-111489287D01*
X149042750Y-111554615D01*
X149046714Y-111643804D01*
X149047086Y-111691261D01*
X149047270Y-111766071D01*
X149048478Y-111817069D01*
X149051691Y-111849471D01*
X149057891Y-111868495D01*
X149068060Y-111879356D01*
X149083181Y-111887272D01*
X149084054Y-111887670D01*
X149113172Y-111899981D01*
X149127597Y-111904514D01*
X149129814Y-111890809D01*
X149131711Y-111852925D01*
X149133153Y-111795715D01*
X149134002Y-111724027D01*
X149134171Y-111671565D01*
X149133308Y-111570047D01*
X149129930Y-111493032D01*
X149122858Y-111436023D01*
X149110912Y-111394526D01*
X149092910Y-111364043D01*
X149067673Y-111340080D01*
X149042753Y-111323355D01*
X148982829Y-111301097D01*
X148913089Y-111296076D01*
X148847400Y-111308752D01*
G36*
X149355124Y-111306335D02*
G01*
X149313333Y-111325344D01*
X149280531Y-111348378D01*
X149256497Y-111374133D01*
X149239903Y-111407358D01*
X149229423Y-111452800D01*
X149223729Y-111515207D01*
X149221493Y-111599327D01*
X149221257Y-111654721D01*
X149221257Y-111870826D01*
X149258226Y-111887670D01*
X149287344Y-111899981D01*
X149301769Y-111904514D01*
X149304528Y-111891025D01*
X149306718Y-111854653D01*
X149308058Y-111801542D01*
X149308343Y-111759372D01*
X149309566Y-111698447D01*
X149312864Y-111650115D01*
X149317679Y-111620518D01*
X149321504Y-111614229D01*
X149347217Y-111620652D01*
X149387582Y-111637125D01*
X149434321Y-111659458D01*
X149479155Y-111683457D01*
X149513807Y-111704930D01*
X149529998Y-111719685D01*
X149530062Y-111719845D01*
X149528670Y-111747152D01*
X149516182Y-111773219D01*
X149494257Y-111794392D01*
X149462257Y-111801474D01*
X149434908Y-111800649D01*
X149396174Y-111800042D01*
X149375842Y-111809116D01*
X149363631Y-111833092D01*
X149362091Y-111837613D01*
X149356797Y-111871806D01*
X149370953Y-111892568D01*
X149407852Y-111902462D01*
X149447711Y-111904292D01*
X149519438Y-111890727D01*
X149556568Y-111871355D01*
X149602424Y-111825845D01*
X149626744Y-111769983D01*
X149628927Y-111710957D01*
X149608371Y-111655953D01*
X149577451Y-111621486D01*
X149546580Y-111602189D01*
X149498058Y-111577759D01*
X149441515Y-111552985D01*
X149432090Y-111549199D01*
X149369981Y-111521791D01*
X149334178Y-111497634D01*
X149322663Y-111473619D01*
X149333420Y-111446635D01*
X149351886Y-111425543D01*
X149395531Y-111399572D01*
X149443554Y-111397624D01*
X149487594Y-111417637D01*
X149519291Y-111457551D01*
X149523451Y-111467848D01*
X149547673Y-111505724D01*
X149583035Y-111533842D01*
X149627657Y-111556917D01*
X149627657Y-111491485D01*
X149625031Y-111451506D01*
X149613770Y-111419997D01*
X149588801Y-111386378D01*
X149564831Y-111360484D01*
X149527559Y-111323817D01*
X149498599Y-111304121D01*
X149467495Y-111296220D01*
X149432287Y-111294914D01*
X149355124Y-111306335D01*
X149355124Y-111306335D01*
G37*
X149355124Y-111306335D02*
X149313333Y-111325344D01*
X149280531Y-111348378D01*
X149256497Y-111374133D01*
X149239903Y-111407358D01*
X149229423Y-111452800D01*
X149223729Y-111515207D01*
X149221493Y-111599327D01*
X149221257Y-111654721D01*
X149221257Y-111870826D01*
X149258226Y-111887670D01*
X149287344Y-111899981D01*
X149301769Y-111904514D01*
X149304528Y-111891025D01*
X149306718Y-111854653D01*
X149308058Y-111801542D01*
X149308343Y-111759372D01*
X149309566Y-111698447D01*
X149312864Y-111650115D01*
X149317679Y-111620518D01*
X149321504Y-111614229D01*
X149347217Y-111620652D01*
X149387582Y-111637125D01*
X149434321Y-111659458D01*
X149479155Y-111683457D01*
X149513807Y-111704930D01*
X149529998Y-111719685D01*
X149530062Y-111719845D01*
X149528670Y-111747152D01*
X149516182Y-111773219D01*
X149494257Y-111794392D01*
X149462257Y-111801474D01*
X149434908Y-111800649D01*
X149396174Y-111800042D01*
X149375842Y-111809116D01*
X149363631Y-111833092D01*
X149362091Y-111837613D01*
X149356797Y-111871806D01*
X149370953Y-111892568D01*
X149407852Y-111902462D01*
X149447711Y-111904292D01*
X149519438Y-111890727D01*
X149556568Y-111871355D01*
X149602424Y-111825845D01*
X149626744Y-111769983D01*
X149628927Y-111710957D01*
X149608371Y-111655953D01*
X149577451Y-111621486D01*
X149546580Y-111602189D01*
X149498058Y-111577759D01*
X149441515Y-111552985D01*
X149432090Y-111549199D01*
X149369981Y-111521791D01*
X149334178Y-111497634D01*
X149322663Y-111473619D01*
X149333420Y-111446635D01*
X149351886Y-111425543D01*
X149395531Y-111399572D01*
X149443554Y-111397624D01*
X149487594Y-111417637D01*
X149519291Y-111457551D01*
X149523451Y-111467848D01*
X149547673Y-111505724D01*
X149583035Y-111533842D01*
X149627657Y-111556917D01*
X149627657Y-111491485D01*
X149625031Y-111451506D01*
X149613770Y-111419997D01*
X149588801Y-111386378D01*
X149564831Y-111360484D01*
X149527559Y-111323817D01*
X149498599Y-111304121D01*
X149467495Y-111296220D01*
X149432287Y-111294914D01*
X149355124Y-111306335D01*
G36*
X149720167Y-111308663D02*
G01*
X149717952Y-111346850D01*
X149716216Y-111404886D01*
X149715101Y-111478180D01*
X149714743Y-111555055D01*
X149714743Y-111815196D01*
X149760674Y-111861127D01*
X149792325Y-111889429D01*
X149820110Y-111900893D01*
X149858085Y-111900168D01*
X149873160Y-111898321D01*
X149920274Y-111892948D01*
X149959244Y-111889869D01*
X149968743Y-111889585D01*
X150000767Y-111891445D01*
X150046568Y-111896114D01*
X150064326Y-111898321D01*
X150107943Y-111901735D01*
X150137255Y-111894320D01*
X150166320Y-111871427D01*
X150176812Y-111861127D01*
X150222743Y-111815196D01*
X150222743Y-111328602D01*
X150185774Y-111311758D01*
X150153941Y-111299282D01*
X150135317Y-111294914D01*
X150130542Y-111308718D01*
X150126079Y-111347286D01*
X150122225Y-111406356D01*
X150119278Y-111481663D01*
X150117857Y-111545286D01*
X150113886Y-111795657D01*
X150079241Y-111800556D01*
X150047732Y-111797131D01*
X150032292Y-111786041D01*
X150027977Y-111765308D01*
X150024292Y-111721145D01*
X150021531Y-111659146D01*
X150019988Y-111584909D01*
X150019765Y-111546706D01*
X150019543Y-111326783D01*
X149973834Y-111310849D01*
X149941482Y-111300015D01*
X149923885Y-111294962D01*
X149923377Y-111294914D01*
X149921612Y-111308648D01*
X149919671Y-111346730D01*
X149917718Y-111404482D01*
X149915916Y-111477227D01*
X149914657Y-111545286D01*
X149910686Y-111795657D01*
X149823600Y-111795657D01*
X149819604Y-111567240D01*
X149815608Y-111338822D01*
X149773153Y-111316868D01*
X149741808Y-111301793D01*
X149723256Y-111294951D01*
X149722721Y-111294914D01*
X149720167Y-111308663D01*
X149720167Y-111308663D01*
G37*
X149720167Y-111308663D02*
X149717952Y-111346850D01*
X149716216Y-111404886D01*
X149715101Y-111478180D01*
X149714743Y-111555055D01*
X149714743Y-111815196D01*
X149760674Y-111861127D01*
X149792325Y-111889429D01*
X149820110Y-111900893D01*
X149858085Y-111900168D01*
X149873160Y-111898321D01*
X149920274Y-111892948D01*
X149959244Y-111889869D01*
X149968743Y-111889585D01*
X150000767Y-111891445D01*
X150046568Y-111896114D01*
X150064326Y-111898321D01*
X150107943Y-111901735D01*
X150137255Y-111894320D01*
X150166320Y-111871427D01*
X150176812Y-111861127D01*
X150222743Y-111815196D01*
X150222743Y-111328602D01*
X150185774Y-111311758D01*
X150153941Y-111299282D01*
X150135317Y-111294914D01*
X150130542Y-111308718D01*
X150126079Y-111347286D01*
X150122225Y-111406356D01*
X150119278Y-111481663D01*
X150117857Y-111545286D01*
X150113886Y-111795657D01*
X150079241Y-111800556D01*
X150047732Y-111797131D01*
X150032292Y-111786041D01*
X150027977Y-111765308D01*
X150024292Y-111721145D01*
X150021531Y-111659146D01*
X150019988Y-111584909D01*
X150019765Y-111546706D01*
X150019543Y-111326783D01*
X149973834Y-111310849D01*
X149941482Y-111300015D01*
X149923885Y-111294962D01*
X149923377Y-111294914D01*
X149921612Y-111308648D01*
X149919671Y-111346730D01*
X149917718Y-111404482D01*
X149915916Y-111477227D01*
X149914657Y-111545286D01*
X149910686Y-111795657D01*
X149823600Y-111795657D01*
X149819604Y-111567240D01*
X149815608Y-111338822D01*
X149773153Y-111316868D01*
X149741808Y-111301793D01*
X149723256Y-111294951D01*
X149722721Y-111294914D01*
X149720167Y-111308663D01*
G36*
X150309883Y-111415358D02*
G01*
X150310067Y-111523837D01*
X150310781Y-111607287D01*
X150312325Y-111669704D01*
X150314999Y-111715085D01*
X150319106Y-111747429D01*
X150324945Y-111770733D01*
X150332818Y-111788995D01*
X150338779Y-111799418D01*
X150388145Y-111855945D01*
X150450736Y-111891377D01*
X150519987Y-111904090D01*
X150589332Y-111892463D01*
X150630625Y-111871568D01*
X150673975Y-111835422D01*
X150703519Y-111791276D01*
X150721345Y-111733462D01*
X150729537Y-111656313D01*
X150730698Y-111599714D01*
X150730542Y-111595647D01*
X150629143Y-111595647D01*
X150628524Y-111660550D01*
X150625686Y-111703514D01*
X150619160Y-111731622D01*
X150607477Y-111751953D01*
X150593517Y-111767288D01*
X150546635Y-111796890D01*
X150496299Y-111799419D01*
X150448724Y-111774705D01*
X150445021Y-111771356D01*
X150429217Y-111753935D01*
X150419307Y-111733209D01*
X150413942Y-111702362D01*
X150411772Y-111654577D01*
X150411429Y-111601748D01*
X150412173Y-111535381D01*
X150415252Y-111491106D01*
X150421939Y-111462009D01*
X150433504Y-111441173D01*
X150442987Y-111430107D01*
X150487040Y-111402198D01*
X150537776Y-111398843D01*
X150586204Y-111420159D01*
X150595550Y-111428073D01*
X150611460Y-111445647D01*
X150621390Y-111466587D01*
X150626722Y-111497782D01*
X150628837Y-111546122D01*
X150629143Y-111595647D01*
X150730542Y-111595647D01*
X150727190Y-111508568D01*
X150715274Y-111440086D01*
X150692865Y-111388600D01*
X150657876Y-111348443D01*
X150630625Y-111327861D01*
X150581093Y-111305625D01*
X150523684Y-111295304D01*
X150470318Y-111298067D01*
X150440457Y-111309212D01*
X150428739Y-111312383D01*
X150420963Y-111300557D01*
X150415535Y-111268866D01*
X150411429Y-111220593D01*
X150406933Y-111166829D01*
X150400687Y-111134482D01*
X150389324Y-111115985D01*
X150369472Y-111103770D01*
X150357000Y-111098362D01*
X150309829Y-111078601D01*
X150309883Y-111415358D01*
X150309883Y-111415358D01*
G37*
X150309883Y-111415358D02*
X150310067Y-111523837D01*
X150310781Y-111607287D01*
X150312325Y-111669704D01*
X150314999Y-111715085D01*
X150319106Y-111747429D01*
X150324945Y-111770733D01*
X150332818Y-111788995D01*
X150338779Y-111799418D01*
X150388145Y-111855945D01*
X150450736Y-111891377D01*
X150519987Y-111904090D01*
X150589332Y-111892463D01*
X150630625Y-111871568D01*
X150673975Y-111835422D01*
X150703519Y-111791276D01*
X150721345Y-111733462D01*
X150729537Y-111656313D01*
X150730698Y-111599714D01*
X150730542Y-111595647D01*
X150629143Y-111595647D01*
X150628524Y-111660550D01*
X150625686Y-111703514D01*
X150619160Y-111731622D01*
X150607477Y-111751953D01*
X150593517Y-111767288D01*
X150546635Y-111796890D01*
X150496299Y-111799419D01*
X150448724Y-111774705D01*
X150445021Y-111771356D01*
X150429217Y-111753935D01*
X150419307Y-111733209D01*
X150413942Y-111702362D01*
X150411772Y-111654577D01*
X150411429Y-111601748D01*
X150412173Y-111535381D01*
X150415252Y-111491106D01*
X150421939Y-111462009D01*
X150433504Y-111441173D01*
X150442987Y-111430107D01*
X150487040Y-111402198D01*
X150537776Y-111398843D01*
X150586204Y-111420159D01*
X150595550Y-111428073D01*
X150611460Y-111445647D01*
X150621390Y-111466587D01*
X150626722Y-111497782D01*
X150628837Y-111546122D01*
X150629143Y-111595647D01*
X150730542Y-111595647D01*
X150727190Y-111508568D01*
X150715274Y-111440086D01*
X150692865Y-111388600D01*
X150657876Y-111348443D01*
X150630625Y-111327861D01*
X150581093Y-111305625D01*
X150523684Y-111295304D01*
X150470318Y-111298067D01*
X150440457Y-111309212D01*
X150428739Y-111312383D01*
X150420963Y-111300557D01*
X150415535Y-111268866D01*
X150411429Y-111220593D01*
X150406933Y-111166829D01*
X150400687Y-111134482D01*
X150389324Y-111115985D01*
X150369472Y-111103770D01*
X150357000Y-111098362D01*
X150309829Y-111078601D01*
X150309883Y-111415358D01*
G36*
X150970074Y-111299755D02*
G01*
X150904142Y-111324084D01*
X150850727Y-111367117D01*
X150829836Y-111397409D01*
X150807061Y-111452994D01*
X150807534Y-111493186D01*
X150831438Y-111520217D01*
X150840283Y-111524813D01*
X150878470Y-111539144D01*
X150897972Y-111535472D01*
X150904578Y-111511407D01*
X150904914Y-111498114D01*
X150917008Y-111449210D01*
X150948529Y-111414999D01*
X150992341Y-111398476D01*
X151041305Y-111402634D01*
X151081106Y-111424227D01*
X151094550Y-111436544D01*
X151104079Y-111451487D01*
X151110515Y-111474075D01*
X151114683Y-111509328D01*
X151117403Y-111562266D01*
X151119498Y-111637907D01*
X151120040Y-111661857D01*
X151122019Y-111743790D01*
X151124269Y-111801455D01*
X151127643Y-111839608D01*
X151132994Y-111863004D01*
X151141176Y-111876398D01*
X151153041Y-111884545D01*
X151160638Y-111888144D01*
X151192898Y-111900452D01*
X151211889Y-111904514D01*
X151218164Y-111890948D01*
X151221994Y-111849934D01*
X151223400Y-111780999D01*
X151222402Y-111683669D01*
X151222092Y-111668657D01*
X151219899Y-111579859D01*
X151217307Y-111515019D01*
X151213618Y-111469067D01*
X151208136Y-111436935D01*
X151200165Y-111413553D01*
X151189007Y-111393852D01*
X151183170Y-111385410D01*
X151149704Y-111348057D01*
X151112273Y-111319003D01*
X151107691Y-111316467D01*
X151040574Y-111296443D01*
X150970074Y-111299755D01*
X150970074Y-111299755D01*
G37*
X150970074Y-111299755D02*
X150904142Y-111324084D01*
X150850727Y-111367117D01*
X150829836Y-111397409D01*
X150807061Y-111452994D01*
X150807534Y-111493186D01*
X150831438Y-111520217D01*
X150840283Y-111524813D01*
X150878470Y-111539144D01*
X150897972Y-111535472D01*
X150904578Y-111511407D01*
X150904914Y-111498114D01*
X150917008Y-111449210D01*
X150948529Y-111414999D01*
X150992341Y-111398476D01*
X151041305Y-111402634D01*
X151081106Y-111424227D01*
X151094550Y-111436544D01*
X151104079Y-111451487D01*
X151110515Y-111474075D01*
X151114683Y-111509328D01*
X151117403Y-111562266D01*
X151119498Y-111637907D01*
X151120040Y-111661857D01*
X151122019Y-111743790D01*
X151124269Y-111801455D01*
X151127643Y-111839608D01*
X151132994Y-111863004D01*
X151141176Y-111876398D01*
X151153041Y-111884545D01*
X151160638Y-111888144D01*
X151192898Y-111900452D01*
X151211889Y-111904514D01*
X151218164Y-111890948D01*
X151221994Y-111849934D01*
X151223400Y-111780999D01*
X151222402Y-111683669D01*
X151222092Y-111668657D01*
X151219899Y-111579859D01*
X151217307Y-111515019D01*
X151213618Y-111469067D01*
X151208136Y-111436935D01*
X151200165Y-111413553D01*
X151189007Y-111393852D01*
X151183170Y-111385410D01*
X151149704Y-111348057D01*
X151112273Y-111319003D01*
X151107691Y-111316467D01*
X151040574Y-111296443D01*
X150970074Y-111299755D01*
G36*
X151460256Y-111300968D02*
G01*
X151403384Y-111322087D01*
X151402733Y-111322493D01*
X151367560Y-111348380D01*
X151341593Y-111378633D01*
X151323330Y-111418058D01*
X151311268Y-111471462D01*
X151303904Y-111543651D01*
X151299736Y-111639432D01*
X151299371Y-111653078D01*
X151294124Y-111858842D01*
X151338284Y-111881678D01*
X151370237Y-111897110D01*
X151389530Y-111904423D01*
X151390422Y-111904514D01*
X151393761Y-111891022D01*
X151396413Y-111854626D01*
X151398044Y-111801452D01*
X151398400Y-111758393D01*
X151398408Y-111688641D01*
X151401597Y-111644837D01*
X151412712Y-111623944D01*
X151436499Y-111622925D01*
X151477704Y-111638741D01*
X151539914Y-111667815D01*
X151585659Y-111691963D01*
X151609187Y-111712913D01*
X151616104Y-111735747D01*
X151616114Y-111736877D01*
X151604701Y-111776212D01*
X151570908Y-111797462D01*
X151519191Y-111800539D01*
X151481939Y-111800006D01*
X151462297Y-111810735D01*
X151450048Y-111836505D01*
X151442998Y-111869337D01*
X151453158Y-111887966D01*
X151456983Y-111890632D01*
X151492999Y-111901340D01*
X151543434Y-111902856D01*
X151595374Y-111895759D01*
X151632178Y-111882788D01*
X151683062Y-111839585D01*
X151711986Y-111779446D01*
X151717714Y-111732462D01*
X151713343Y-111690082D01*
X151697525Y-111655488D01*
X151666203Y-111624763D01*
X151615322Y-111593990D01*
X151540824Y-111559252D01*
X151536286Y-111557288D01*
X151469179Y-111526287D01*
X151427768Y-111500862D01*
X151410019Y-111478014D01*
X151413893Y-111454745D01*
X151437357Y-111428056D01*
X151444373Y-111421914D01*
X151491370Y-111398100D01*
X151540067Y-111399103D01*
X151582478Y-111422451D01*
X151610616Y-111465675D01*
X151613231Y-111474160D01*
X151638692Y-111515308D01*
X151670999Y-111535128D01*
X151717714Y-111554770D01*
X151717714Y-111503950D01*
X151703504Y-111430082D01*
X151661325Y-111362327D01*
X151639376Y-111339661D01*
X151589483Y-111310569D01*
X151526033Y-111297400D01*
X151460256Y-111300968D01*
X151460256Y-111300968D01*
G37*
X151460256Y-111300968D02*
X151403384Y-111322087D01*
X151402733Y-111322493D01*
X151367560Y-111348380D01*
X151341593Y-111378633D01*
X151323330Y-111418058D01*
X151311268Y-111471462D01*
X151303904Y-111543651D01*
X151299736Y-111639432D01*
X151299371Y-111653078D01*
X151294124Y-111858842D01*
X151338284Y-111881678D01*
X151370237Y-111897110D01*
X151389530Y-111904423D01*
X151390422Y-111904514D01*
X151393761Y-111891022D01*
X151396413Y-111854626D01*
X151398044Y-111801452D01*
X151398400Y-111758393D01*
X151398408Y-111688641D01*
X151401597Y-111644837D01*
X151412712Y-111623944D01*
X151436499Y-111622925D01*
X151477704Y-111638741D01*
X151539914Y-111667815D01*
X151585659Y-111691963D01*
X151609187Y-111712913D01*
X151616104Y-111735747D01*
X151616114Y-111736877D01*
X151604701Y-111776212D01*
X151570908Y-111797462D01*
X151519191Y-111800539D01*
X151481939Y-111800006D01*
X151462297Y-111810735D01*
X151450048Y-111836505D01*
X151442998Y-111869337D01*
X151453158Y-111887966D01*
X151456983Y-111890632D01*
X151492999Y-111901340D01*
X151543434Y-111902856D01*
X151595374Y-111895759D01*
X151632178Y-111882788D01*
X151683062Y-111839585D01*
X151711986Y-111779446D01*
X151717714Y-111732462D01*
X151713343Y-111690082D01*
X151697525Y-111655488D01*
X151666203Y-111624763D01*
X151615322Y-111593990D01*
X151540824Y-111559252D01*
X151536286Y-111557288D01*
X151469179Y-111526287D01*
X151427768Y-111500862D01*
X151410019Y-111478014D01*
X151413893Y-111454745D01*
X151437357Y-111428056D01*
X151444373Y-111421914D01*
X151491370Y-111398100D01*
X151540067Y-111399103D01*
X151582478Y-111422451D01*
X151610616Y-111465675D01*
X151613231Y-111474160D01*
X151638692Y-111515308D01*
X151670999Y-111535128D01*
X151717714Y-111554770D01*
X151717714Y-111503950D01*
X151703504Y-111430082D01*
X151661325Y-111362327D01*
X151639376Y-111339661D01*
X151589483Y-111310569D01*
X151526033Y-111297400D01*
X151460256Y-111300968D01*
G36*
X152124114Y-111201289D02*
G01*
X152119861Y-111260613D01*
X152114975Y-111295572D01*
X152108205Y-111310820D01*
X152098298Y-111311015D01*
X152095086Y-111309195D01*
X152052356Y-111296015D01*
X151996773Y-111296785D01*
X151940263Y-111310333D01*
X151904918Y-111327861D01*
X151868679Y-111355861D01*
X151842187Y-111387549D01*
X151824001Y-111427813D01*
X151812678Y-111481543D01*
X151806778Y-111553626D01*
X151804857Y-111648951D01*
X151804823Y-111667237D01*
X151804800Y-111872646D01*
X151850509Y-111888580D01*
X151882973Y-111899420D01*
X151900785Y-111904468D01*
X151901309Y-111904514D01*
X151903063Y-111890828D01*
X151904556Y-111853076D01*
X151905674Y-111796224D01*
X151906303Y-111725234D01*
X151906400Y-111682073D01*
X151906602Y-111596973D01*
X151907642Y-111535981D01*
X151910169Y-111494177D01*
X151914836Y-111466642D01*
X151922293Y-111448456D01*
X151933189Y-111434698D01*
X151939993Y-111428073D01*
X151986728Y-111401375D01*
X152037728Y-111399375D01*
X152083999Y-111421955D01*
X152092556Y-111430107D01*
X152105107Y-111445436D01*
X152113812Y-111463618D01*
X152119369Y-111489909D01*
X152122474Y-111529562D01*
X152123824Y-111587832D01*
X152124114Y-111668173D01*
X152124114Y-111872646D01*
X152169823Y-111888580D01*
X152202287Y-111899420D01*
X152220099Y-111904468D01*
X152220623Y-111904514D01*
X152221963Y-111890623D01*
X152223172Y-111851439D01*
X152224199Y-111790700D01*
X152224998Y-111712141D01*
X152225519Y-111619498D01*
X152225714Y-111516509D01*
X152225714Y-111119342D01*
X152178543Y-111099444D01*
X152131371Y-111079547D01*
X152124114Y-111201289D01*
X152124114Y-111201289D01*
G37*
X152124114Y-111201289D02*
X152119861Y-111260613D01*
X152114975Y-111295572D01*
X152108205Y-111310820D01*
X152098298Y-111311015D01*
X152095086Y-111309195D01*
X152052356Y-111296015D01*
X151996773Y-111296785D01*
X151940263Y-111310333D01*
X151904918Y-111327861D01*
X151868679Y-111355861D01*
X151842187Y-111387549D01*
X151824001Y-111427813D01*
X151812678Y-111481543D01*
X151806778Y-111553626D01*
X151804857Y-111648951D01*
X151804823Y-111667237D01*
X151804800Y-111872646D01*
X151850509Y-111888580D01*
X151882973Y-111899420D01*
X151900785Y-111904468D01*
X151901309Y-111904514D01*
X151903063Y-111890828D01*
X151904556Y-111853076D01*
X151905674Y-111796224D01*
X151906303Y-111725234D01*
X151906400Y-111682073D01*
X151906602Y-111596973D01*
X151907642Y-111535981D01*
X151910169Y-111494177D01*
X151914836Y-111466642D01*
X151922293Y-111448456D01*
X151933189Y-111434698D01*
X151939993Y-111428073D01*
X151986728Y-111401375D01*
X152037728Y-111399375D01*
X152083999Y-111421955D01*
X152092556Y-111430107D01*
X152105107Y-111445436D01*
X152113812Y-111463618D01*
X152119369Y-111489909D01*
X152122474Y-111529562D01*
X152123824Y-111587832D01*
X152124114Y-111668173D01*
X152124114Y-111872646D01*
X152169823Y-111888580D01*
X152202287Y-111899420D01*
X152220099Y-111904468D01*
X152220623Y-111904514D01*
X152221963Y-111890623D01*
X152223172Y-111851439D01*
X152224199Y-111790700D01*
X152224998Y-111712141D01*
X152225519Y-111619498D01*
X152225714Y-111516509D01*
X152225714Y-111119342D01*
X152178543Y-111099444D01*
X152131371Y-111079547D01*
X152124114Y-111201289D01*
G36*
X153331697Y-111281239D02*
G01*
X153274473Y-111319735D01*
X153230251Y-111375335D01*
X153203833Y-111446086D01*
X153198490Y-111498162D01*
X153199097Y-111519893D01*
X153204178Y-111536531D01*
X153218145Y-111551437D01*
X153245411Y-111567973D01*
X153290388Y-111589498D01*
X153357489Y-111619374D01*
X153357829Y-111619524D01*
X153419593Y-111647813D01*
X153470241Y-111672933D01*
X153504596Y-111692179D01*
X153517482Y-111702848D01*
X153517486Y-111702934D01*
X153506128Y-111726166D01*
X153479569Y-111751774D01*
X153449077Y-111770221D01*
X153433630Y-111773886D01*
X153391485Y-111761212D01*
X153355192Y-111729471D01*
X153337483Y-111694572D01*
X153320448Y-111668845D01*
X153287078Y-111639546D01*
X153247851Y-111614235D01*
X153213244Y-111600471D01*
X153206007Y-111599714D01*
X153197861Y-111612160D01*
X153197370Y-111643972D01*
X153203357Y-111686866D01*
X153214643Y-111732558D01*
X153230050Y-111772761D01*
X153230829Y-111774322D01*
X153277196Y-111839062D01*
X153337289Y-111883097D01*
X153405535Y-111904711D01*
X153476362Y-111902185D01*
X153544196Y-111873804D01*
X153547212Y-111871808D01*
X153600573Y-111823448D01*
X153635660Y-111760352D01*
X153655078Y-111677387D01*
X153657684Y-111654078D01*
X153662299Y-111544055D01*
X153656767Y-111492748D01*
X153517486Y-111492748D01*
X153515676Y-111524753D01*
X153505778Y-111534093D01*
X153481102Y-111527105D01*
X153442205Y-111510587D01*
X153398725Y-111489881D01*
X153397644Y-111489333D01*
X153360791Y-111469949D01*
X153346000Y-111457013D01*
X153349647Y-111443451D01*
X153365005Y-111425632D01*
X153404077Y-111399845D01*
X153446154Y-111397950D01*
X153483897Y-111416717D01*
X153509966Y-111452915D01*
X153517486Y-111492748D01*
X153656767Y-111492748D01*
X153652806Y-111456027D01*
X153628450Y-111386212D01*
X153594544Y-111337302D01*
X153533347Y-111287878D01*
X153465937Y-111263359D01*
X153397120Y-111261797D01*
X153331697Y-111281239D01*
X153331697Y-111281239D01*
G37*
X153331697Y-111281239D02*
X153274473Y-111319735D01*
X153230251Y-111375335D01*
X153203833Y-111446086D01*
X153198490Y-111498162D01*
X153199097Y-111519893D01*
X153204178Y-111536531D01*
X153218145Y-111551437D01*
X153245411Y-111567973D01*
X153290388Y-111589498D01*
X153357489Y-111619374D01*
X153357829Y-111619524D01*
X153419593Y-111647813D01*
X153470241Y-111672933D01*
X153504596Y-111692179D01*
X153517482Y-111702848D01*
X153517486Y-111702934D01*
X153506128Y-111726166D01*
X153479569Y-111751774D01*
X153449077Y-111770221D01*
X153433630Y-111773886D01*
X153391485Y-111761212D01*
X153355192Y-111729471D01*
X153337483Y-111694572D01*
X153320448Y-111668845D01*
X153287078Y-111639546D01*
X153247851Y-111614235D01*
X153213244Y-111600471D01*
X153206007Y-111599714D01*
X153197861Y-111612160D01*
X153197370Y-111643972D01*
X153203357Y-111686866D01*
X153214643Y-111732558D01*
X153230050Y-111772761D01*
X153230829Y-111774322D01*
X153277196Y-111839062D01*
X153337289Y-111883097D01*
X153405535Y-111904711D01*
X153476362Y-111902185D01*
X153544196Y-111873804D01*
X153547212Y-111871808D01*
X153600573Y-111823448D01*
X153635660Y-111760352D01*
X153655078Y-111677387D01*
X153657684Y-111654078D01*
X153662299Y-111544055D01*
X153656767Y-111492748D01*
X153517486Y-111492748D01*
X153515676Y-111524753D01*
X153505778Y-111534093D01*
X153481102Y-111527105D01*
X153442205Y-111510587D01*
X153398725Y-111489881D01*
X153397644Y-111489333D01*
X153360791Y-111469949D01*
X153346000Y-111457013D01*
X153349647Y-111443451D01*
X153365005Y-111425632D01*
X153404077Y-111399845D01*
X153446154Y-111397950D01*
X153483897Y-111416717D01*
X153509966Y-111452915D01*
X153517486Y-111492748D01*
X153656767Y-111492748D01*
X153652806Y-111456027D01*
X153628450Y-111386212D01*
X153594544Y-111337302D01*
X153533347Y-111287878D01*
X153465937Y-111263359D01*
X153397120Y-111261797D01*
X153331697Y-111281239D01*
G36*
X154458885Y-111271962D02*
G01*
X154390855Y-111307733D01*
X154340649Y-111365301D01*
X154322815Y-111402312D01*
X154308937Y-111457882D01*
X154301833Y-111528096D01*
X154301160Y-111604727D01*
X154306573Y-111679552D01*
X154317730Y-111744342D01*
X154334286Y-111790873D01*
X154339374Y-111798887D01*
X154399645Y-111858707D01*
X154471231Y-111894535D01*
X154548908Y-111905020D01*
X154627452Y-111888810D01*
X154649311Y-111879092D01*
X154691878Y-111849143D01*
X154729237Y-111809433D01*
X154732768Y-111804397D01*
X154747119Y-111780124D01*
X154756606Y-111754178D01*
X154762210Y-111720022D01*
X154764914Y-111671119D01*
X154765701Y-111600935D01*
X154765714Y-111585200D01*
X154765678Y-111580192D01*
X154620571Y-111580192D01*
X154619727Y-111646430D01*
X154616404Y-111690386D01*
X154609417Y-111718779D01*
X154597584Y-111738325D01*
X154591543Y-111744857D01*
X154556814Y-111769680D01*
X154523097Y-111768548D01*
X154489005Y-111747016D01*
X154468671Y-111724029D01*
X154456629Y-111690478D01*
X154449866Y-111637569D01*
X154449402Y-111631399D01*
X154448248Y-111535513D01*
X154460312Y-111464299D01*
X154485430Y-111418194D01*
X154523440Y-111397635D01*
X154537008Y-111396514D01*
X154572636Y-111402152D01*
X154597006Y-111421686D01*
X154611907Y-111459042D01*
X154619125Y-111518150D01*
X154620571Y-111580192D01*
X154765678Y-111580192D01*
X154765174Y-111510413D01*
X154762904Y-111458159D01*
X154757932Y-111421949D01*
X154749287Y-111395299D01*
X154735995Y-111371722D01*
X154733057Y-111367338D01*
X154683687Y-111308249D01*
X154629891Y-111273947D01*
X154564398Y-111260331D01*
X154542158Y-111259665D01*
X154458885Y-111271962D01*
X154458885Y-111271962D01*
G37*
X154458885Y-111271962D02*
X154390855Y-111307733D01*
X154340649Y-111365301D01*
X154322815Y-111402312D01*
X154308937Y-111457882D01*
X154301833Y-111528096D01*
X154301160Y-111604727D01*
X154306573Y-111679552D01*
X154317730Y-111744342D01*
X154334286Y-111790873D01*
X154339374Y-111798887D01*
X154399645Y-111858707D01*
X154471231Y-111894535D01*
X154548908Y-111905020D01*
X154627452Y-111888810D01*
X154649311Y-111879092D01*
X154691878Y-111849143D01*
X154729237Y-111809433D01*
X154732768Y-111804397D01*
X154747119Y-111780124D01*
X154756606Y-111754178D01*
X154762210Y-111720022D01*
X154764914Y-111671119D01*
X154765701Y-111600935D01*
X154765714Y-111585200D01*
X154765678Y-111580192D01*
X154620571Y-111580192D01*
X154619727Y-111646430D01*
X154616404Y-111690386D01*
X154609417Y-111718779D01*
X154597584Y-111738325D01*
X154591543Y-111744857D01*
X154556814Y-111769680D01*
X154523097Y-111768548D01*
X154489005Y-111747016D01*
X154468671Y-111724029D01*
X154456629Y-111690478D01*
X154449866Y-111637569D01*
X154449402Y-111631399D01*
X154448248Y-111535513D01*
X154460312Y-111464299D01*
X154485430Y-111418194D01*
X154523440Y-111397635D01*
X154537008Y-111396514D01*
X154572636Y-111402152D01*
X154597006Y-111421686D01*
X154611907Y-111459042D01*
X154619125Y-111518150D01*
X154620571Y-111580192D01*
X154765678Y-111580192D01*
X154765174Y-111510413D01*
X154762904Y-111458159D01*
X154757932Y-111421949D01*
X154749287Y-111395299D01*
X154735995Y-111371722D01*
X154733057Y-111367338D01*
X154683687Y-111308249D01*
X154629891Y-111273947D01*
X154564398Y-111260331D01*
X154542158Y-111259665D01*
X154458885Y-111271962D01*
G36*
X152783907Y-111277780D02*
G01*
X152737328Y-111304723D01*
X152704943Y-111331466D01*
X152681258Y-111359484D01*
X152664941Y-111393748D01*
X152654661Y-111439227D01*
X152649086Y-111500892D01*
X152646884Y-111583711D01*
X152646629Y-111643246D01*
X152646629Y-111862391D01*
X152708314Y-111890044D01*
X152770000Y-111917697D01*
X152777257Y-111677670D01*
X152780256Y-111588028D01*
X152783402Y-111522962D01*
X152787299Y-111478026D01*
X152792553Y-111448770D01*
X152799769Y-111430748D01*
X152809550Y-111419511D01*
X152812688Y-111417079D01*
X152860239Y-111398083D01*
X152908303Y-111405600D01*
X152936914Y-111425543D01*
X152948553Y-111439675D01*
X152956609Y-111458220D01*
X152961729Y-111486334D01*
X152964559Y-111529173D01*
X152965744Y-111591895D01*
X152965943Y-111657261D01*
X152965982Y-111739268D01*
X152967386Y-111797316D01*
X152972086Y-111836465D01*
X152982013Y-111861780D01*
X152999097Y-111878323D01*
X153025268Y-111891156D01*
X153060225Y-111904491D01*
X153098404Y-111919007D01*
X153093859Y-111661389D01*
X153092029Y-111568519D01*
X153089888Y-111499889D01*
X153086819Y-111450711D01*
X153082206Y-111416198D01*
X153075432Y-111391562D01*
X153065881Y-111372016D01*
X153054366Y-111354770D01*
X152998810Y-111299680D01*
X152931020Y-111267822D01*
X152857287Y-111260191D01*
X152783907Y-111277780D01*
X152783907Y-111277780D01*
G37*
X152783907Y-111277780D02*
X152737328Y-111304723D01*
X152704943Y-111331466D01*
X152681258Y-111359484D01*
X152664941Y-111393748D01*
X152654661Y-111439227D01*
X152649086Y-111500892D01*
X152646884Y-111583711D01*
X152646629Y-111643246D01*
X152646629Y-111862391D01*
X152708314Y-111890044D01*
X152770000Y-111917697D01*
X152777257Y-111677670D01*
X152780256Y-111588028D01*
X152783402Y-111522962D01*
X152787299Y-111478026D01*
X152792553Y-111448770D01*
X152799769Y-111430748D01*
X152809550Y-111419511D01*
X152812688Y-111417079D01*
X152860239Y-111398083D01*
X152908303Y-111405600D01*
X152936914Y-111425543D01*
X152948553Y-111439675D01*
X152956609Y-111458220D01*
X152961729Y-111486334D01*
X152964559Y-111529173D01*
X152965744Y-111591895D01*
X152965943Y-111657261D01*
X152965982Y-111739268D01*
X152967386Y-111797316D01*
X152972086Y-111836465D01*
X152982013Y-111861780D01*
X152999097Y-111878323D01*
X153025268Y-111891156D01*
X153060225Y-111904491D01*
X153098404Y-111919007D01*
X153093859Y-111661389D01*
X153092029Y-111568519D01*
X153089888Y-111499889D01*
X153086819Y-111450711D01*
X153082206Y-111416198D01*
X153075432Y-111391562D01*
X153065881Y-111372016D01*
X153054366Y-111354770D01*
X152998810Y-111299680D01*
X152931020Y-111267822D01*
X152857287Y-111260191D01*
X152783907Y-111277780D01*
G36*
X153900256Y-111269918D02*
G01*
X153844799Y-111297568D01*
X153795852Y-111348480D01*
X153782371Y-111367338D01*
X153767686Y-111392015D01*
X153758158Y-111418816D01*
X153752707Y-111454587D01*
X153750253Y-111506169D01*
X153749714Y-111574267D01*
X153752148Y-111667588D01*
X153760606Y-111737657D01*
X153776826Y-111789931D01*
X153802546Y-111829869D01*
X153839503Y-111862929D01*
X153842218Y-111864886D01*
X153878640Y-111884908D01*
X153922498Y-111894815D01*
X153978276Y-111897257D01*
X154068952Y-111897257D01*
X154068990Y-111985283D01*
X154069834Y-112034308D01*
X154074976Y-112063065D01*
X154088413Y-112080311D01*
X154114142Y-112094808D01*
X154120321Y-112097769D01*
X154149236Y-112111648D01*
X154171624Y-112120414D01*
X154188271Y-112121171D01*
X154199964Y-112111023D01*
X154207490Y-112087073D01*
X154211634Y-112046426D01*
X154213185Y-111986186D01*
X154212929Y-111903455D01*
X154211651Y-111795339D01*
X154211252Y-111763000D01*
X154209815Y-111651524D01*
X154208528Y-111578603D01*
X154069029Y-111578603D01*
X154068245Y-111640499D01*
X154064760Y-111680997D01*
X154056876Y-111707708D01*
X154042895Y-111728244D01*
X154033403Y-111738260D01*
X153994596Y-111767567D01*
X153960237Y-111769952D01*
X153924784Y-111745750D01*
X153923886Y-111744857D01*
X153909461Y-111726153D01*
X153900687Y-111700732D01*
X153896261Y-111661584D01*
X153894882Y-111601697D01*
X153894857Y-111588430D01*
X153898188Y-111505901D01*
X153909031Y-111448691D01*
X153928660Y-111413766D01*
X153958350Y-111398094D01*
X153975509Y-111396514D01*
X154016234Y-111403926D01*
X154044168Y-111428330D01*
X154060983Y-111472980D01*
X154068350Y-111541130D01*
X154069029Y-111578603D01*
X154208528Y-111578603D01*
X154208292Y-111565245D01*
X154206323Y-111500333D01*
X154203550Y-111452958D01*
X154199612Y-111419290D01*
X154194151Y-111395498D01*
X154186808Y-111377753D01*
X154177223Y-111362224D01*
X154173113Y-111356381D01*
X154118595Y-111301185D01*
X154049664Y-111269890D01*
X153969928Y-111261165D01*
X153900256Y-111269918D01*
X153900256Y-111269918D01*
G37*
X153900256Y-111269918D02*
X153844799Y-111297568D01*
X153795852Y-111348480D01*
X153782371Y-111367338D01*
X153767686Y-111392015D01*
X153758158Y-111418816D01*
X153752707Y-111454587D01*
X153750253Y-111506169D01*
X153749714Y-111574267D01*
X153752148Y-111667588D01*
X153760606Y-111737657D01*
X153776826Y-111789931D01*
X153802546Y-111829869D01*
X153839503Y-111862929D01*
X153842218Y-111864886D01*
X153878640Y-111884908D01*
X153922498Y-111894815D01*
X153978276Y-111897257D01*
X154068952Y-111897257D01*
X154068990Y-111985283D01*
X154069834Y-112034308D01*
X154074976Y-112063065D01*
X154088413Y-112080311D01*
X154114142Y-112094808D01*
X154120321Y-112097769D01*
X154149236Y-112111648D01*
X154171624Y-112120414D01*
X154188271Y-112121171D01*
X154199964Y-112111023D01*
X154207490Y-112087073D01*
X154211634Y-112046426D01*
X154213185Y-111986186D01*
X154212929Y-111903455D01*
X154211651Y-111795339D01*
X154211252Y-111763000D01*
X154209815Y-111651524D01*
X154208528Y-111578603D01*
X154069029Y-111578603D01*
X154068245Y-111640499D01*
X154064760Y-111680997D01*
X154056876Y-111707708D01*
X154042895Y-111728244D01*
X154033403Y-111738260D01*
X153994596Y-111767567D01*
X153960237Y-111769952D01*
X153924784Y-111745750D01*
X153923886Y-111744857D01*
X153909461Y-111726153D01*
X153900687Y-111700732D01*
X153896261Y-111661584D01*
X153894882Y-111601697D01*
X153894857Y-111588430D01*
X153898188Y-111505901D01*
X153909031Y-111448691D01*
X153928660Y-111413766D01*
X153958350Y-111398094D01*
X153975509Y-111396514D01*
X154016234Y-111403926D01*
X154044168Y-111428330D01*
X154060983Y-111472980D01*
X154068350Y-111541130D01*
X154069029Y-111578603D01*
X154208528Y-111578603D01*
X154208292Y-111565245D01*
X154206323Y-111500333D01*
X154203550Y-111452958D01*
X154199612Y-111419290D01*
X154194151Y-111395498D01*
X154186808Y-111377753D01*
X154177223Y-111362224D01*
X154173113Y-111356381D01*
X154118595Y-111301185D01*
X154049664Y-111269890D01*
X153969928Y-111261165D01*
X153900256Y-111269918D01*
M02*
